%TF.GenerationSoftware,KiCad,Pcbnew,8.0.5*%
%TF.CreationDate,2024-11-01T15:38:32+01:00*%
%TF.ProjectId,PowerBoard,506f7765-7242-46f6-9172-642e6b696361,rev?*%
%TF.SameCoordinates,Original*%
%TF.FileFunction,Legend,Bot*%
%TF.FilePolarity,Positive*%
%FSLAX46Y46*%
G04 Gerber Fmt 4.6, Leading zero omitted, Abs format (unit mm)*
G04 Created by KiCad (PCBNEW 8.0.5) date 2024-11-01 15:38:32*
%MOMM*%
%LPD*%
G01*
G04 APERTURE LIST*
%ADD10C,0.150000*%
%ADD11C,0.120000*%
G04 APERTURE END LIST*
D10*
X182605357Y-126812160D02*
X182938690Y-126335969D01*
X183176785Y-126812160D02*
X183176785Y-125812160D01*
X183176785Y-125812160D02*
X182795833Y-125812160D01*
X182795833Y-125812160D02*
X182700595Y-125859779D01*
X182700595Y-125859779D02*
X182652976Y-125907398D01*
X182652976Y-125907398D02*
X182605357Y-126002636D01*
X182605357Y-126002636D02*
X182605357Y-126145493D01*
X182605357Y-126145493D02*
X182652976Y-126240731D01*
X182652976Y-126240731D02*
X182700595Y-126288350D01*
X182700595Y-126288350D02*
X182795833Y-126335969D01*
X182795833Y-126335969D02*
X183176785Y-126335969D01*
X182224404Y-125907398D02*
X182176785Y-125859779D01*
X182176785Y-125859779D02*
X182081547Y-125812160D01*
X182081547Y-125812160D02*
X181843452Y-125812160D01*
X181843452Y-125812160D02*
X181748214Y-125859779D01*
X181748214Y-125859779D02*
X181700595Y-125907398D01*
X181700595Y-125907398D02*
X181652976Y-126002636D01*
X181652976Y-126002636D02*
X181652976Y-126097874D01*
X181652976Y-126097874D02*
X181700595Y-126240731D01*
X181700595Y-126240731D02*
X182272023Y-126812160D01*
X182272023Y-126812160D02*
X181652976Y-126812160D01*
X181319642Y-125812160D02*
X180652976Y-125812160D01*
X180652976Y-125812160D02*
X181081547Y-126812160D01*
X187680357Y-134452160D02*
X188013690Y-133975969D01*
X188251785Y-134452160D02*
X188251785Y-133452160D01*
X188251785Y-133452160D02*
X187870833Y-133452160D01*
X187870833Y-133452160D02*
X187775595Y-133499779D01*
X187775595Y-133499779D02*
X187727976Y-133547398D01*
X187727976Y-133547398D02*
X187680357Y-133642636D01*
X187680357Y-133642636D02*
X187680357Y-133785493D01*
X187680357Y-133785493D02*
X187727976Y-133880731D01*
X187727976Y-133880731D02*
X187775595Y-133928350D01*
X187775595Y-133928350D02*
X187870833Y-133975969D01*
X187870833Y-133975969D02*
X188251785Y-133975969D01*
X187347023Y-133452160D02*
X186727976Y-133452160D01*
X186727976Y-133452160D02*
X187061309Y-133833112D01*
X187061309Y-133833112D02*
X186918452Y-133833112D01*
X186918452Y-133833112D02*
X186823214Y-133880731D01*
X186823214Y-133880731D02*
X186775595Y-133928350D01*
X186775595Y-133928350D02*
X186727976Y-134023588D01*
X186727976Y-134023588D02*
X186727976Y-134261683D01*
X186727976Y-134261683D02*
X186775595Y-134356921D01*
X186775595Y-134356921D02*
X186823214Y-134404541D01*
X186823214Y-134404541D02*
X186918452Y-134452160D01*
X186918452Y-134452160D02*
X187204166Y-134452160D01*
X187204166Y-134452160D02*
X187299404Y-134404541D01*
X187299404Y-134404541D02*
X187347023Y-134356921D01*
X186108928Y-133452160D02*
X186013690Y-133452160D01*
X186013690Y-133452160D02*
X185918452Y-133499779D01*
X185918452Y-133499779D02*
X185870833Y-133547398D01*
X185870833Y-133547398D02*
X185823214Y-133642636D01*
X185823214Y-133642636D02*
X185775595Y-133833112D01*
X185775595Y-133833112D02*
X185775595Y-134071207D01*
X185775595Y-134071207D02*
X185823214Y-134261683D01*
X185823214Y-134261683D02*
X185870833Y-134356921D01*
X185870833Y-134356921D02*
X185918452Y-134404541D01*
X185918452Y-134404541D02*
X186013690Y-134452160D01*
X186013690Y-134452160D02*
X186108928Y-134452160D01*
X186108928Y-134452160D02*
X186204166Y-134404541D01*
X186204166Y-134404541D02*
X186251785Y-134356921D01*
X186251785Y-134356921D02*
X186299404Y-134261683D01*
X186299404Y-134261683D02*
X186347023Y-134071207D01*
X186347023Y-134071207D02*
X186347023Y-133833112D01*
X186347023Y-133833112D02*
X186299404Y-133642636D01*
X186299404Y-133642636D02*
X186251785Y-133547398D01*
X186251785Y-133547398D02*
X186204166Y-133499779D01*
X186204166Y-133499779D02*
X186108928Y-133452160D01*
X187605357Y-126452160D02*
X187938690Y-125975969D01*
X188176785Y-126452160D02*
X188176785Y-125452160D01*
X188176785Y-125452160D02*
X187795833Y-125452160D01*
X187795833Y-125452160D02*
X187700595Y-125499779D01*
X187700595Y-125499779D02*
X187652976Y-125547398D01*
X187652976Y-125547398D02*
X187605357Y-125642636D01*
X187605357Y-125642636D02*
X187605357Y-125785493D01*
X187605357Y-125785493D02*
X187652976Y-125880731D01*
X187652976Y-125880731D02*
X187700595Y-125928350D01*
X187700595Y-125928350D02*
X187795833Y-125975969D01*
X187795833Y-125975969D02*
X188176785Y-125975969D01*
X187224404Y-125547398D02*
X187176785Y-125499779D01*
X187176785Y-125499779D02*
X187081547Y-125452160D01*
X187081547Y-125452160D02*
X186843452Y-125452160D01*
X186843452Y-125452160D02*
X186748214Y-125499779D01*
X186748214Y-125499779D02*
X186700595Y-125547398D01*
X186700595Y-125547398D02*
X186652976Y-125642636D01*
X186652976Y-125642636D02*
X186652976Y-125737874D01*
X186652976Y-125737874D02*
X186700595Y-125880731D01*
X186700595Y-125880731D02*
X187272023Y-126452160D01*
X187272023Y-126452160D02*
X186652976Y-126452160D01*
X185795833Y-125452160D02*
X185986309Y-125452160D01*
X185986309Y-125452160D02*
X186081547Y-125499779D01*
X186081547Y-125499779D02*
X186129166Y-125547398D01*
X186129166Y-125547398D02*
X186224404Y-125690255D01*
X186224404Y-125690255D02*
X186272023Y-125880731D01*
X186272023Y-125880731D02*
X186272023Y-126261683D01*
X186272023Y-126261683D02*
X186224404Y-126356921D01*
X186224404Y-126356921D02*
X186176785Y-126404541D01*
X186176785Y-126404541D02*
X186081547Y-126452160D01*
X186081547Y-126452160D02*
X185891071Y-126452160D01*
X185891071Y-126452160D02*
X185795833Y-126404541D01*
X185795833Y-126404541D02*
X185748214Y-126356921D01*
X185748214Y-126356921D02*
X185700595Y-126261683D01*
X185700595Y-126261683D02*
X185700595Y-126023588D01*
X185700595Y-126023588D02*
X185748214Y-125928350D01*
X185748214Y-125928350D02*
X185795833Y-125880731D01*
X185795833Y-125880731D02*
X185891071Y-125833112D01*
X185891071Y-125833112D02*
X186081547Y-125833112D01*
X186081547Y-125833112D02*
X186176785Y-125880731D01*
X186176785Y-125880731D02*
X186224404Y-125928350D01*
X186224404Y-125928350D02*
X186272023Y-126023588D01*
X207422857Y-88134819D02*
X207756190Y-87658628D01*
X207994285Y-88134819D02*
X207994285Y-87134819D01*
X207994285Y-87134819D02*
X207613333Y-87134819D01*
X207613333Y-87134819D02*
X207518095Y-87182438D01*
X207518095Y-87182438D02*
X207470476Y-87230057D01*
X207470476Y-87230057D02*
X207422857Y-87325295D01*
X207422857Y-87325295D02*
X207422857Y-87468152D01*
X207422857Y-87468152D02*
X207470476Y-87563390D01*
X207470476Y-87563390D02*
X207518095Y-87611009D01*
X207518095Y-87611009D02*
X207613333Y-87658628D01*
X207613333Y-87658628D02*
X207994285Y-87658628D01*
X207089523Y-87134819D02*
X206470476Y-87134819D01*
X206470476Y-87134819D02*
X206803809Y-87515771D01*
X206803809Y-87515771D02*
X206660952Y-87515771D01*
X206660952Y-87515771D02*
X206565714Y-87563390D01*
X206565714Y-87563390D02*
X206518095Y-87611009D01*
X206518095Y-87611009D02*
X206470476Y-87706247D01*
X206470476Y-87706247D02*
X206470476Y-87944342D01*
X206470476Y-87944342D02*
X206518095Y-88039580D01*
X206518095Y-88039580D02*
X206565714Y-88087200D01*
X206565714Y-88087200D02*
X206660952Y-88134819D01*
X206660952Y-88134819D02*
X206946666Y-88134819D01*
X206946666Y-88134819D02*
X207041904Y-88087200D01*
X207041904Y-88087200D02*
X207089523Y-88039580D01*
X206137142Y-87134819D02*
X205518095Y-87134819D01*
X205518095Y-87134819D02*
X205851428Y-87515771D01*
X205851428Y-87515771D02*
X205708571Y-87515771D01*
X205708571Y-87515771D02*
X205613333Y-87563390D01*
X205613333Y-87563390D02*
X205565714Y-87611009D01*
X205565714Y-87611009D02*
X205518095Y-87706247D01*
X205518095Y-87706247D02*
X205518095Y-87944342D01*
X205518095Y-87944342D02*
X205565714Y-88039580D01*
X205565714Y-88039580D02*
X205613333Y-88087200D01*
X205613333Y-88087200D02*
X205708571Y-88134819D01*
X205708571Y-88134819D02*
X205994285Y-88134819D01*
X205994285Y-88134819D02*
X206089523Y-88087200D01*
X206089523Y-88087200D02*
X206137142Y-88039580D01*
X207485357Y-93134819D02*
X207818690Y-92658628D01*
X208056785Y-93134819D02*
X208056785Y-92134819D01*
X208056785Y-92134819D02*
X207675833Y-92134819D01*
X207675833Y-92134819D02*
X207580595Y-92182438D01*
X207580595Y-92182438D02*
X207532976Y-92230057D01*
X207532976Y-92230057D02*
X207485357Y-92325295D01*
X207485357Y-92325295D02*
X207485357Y-92468152D01*
X207485357Y-92468152D02*
X207532976Y-92563390D01*
X207532976Y-92563390D02*
X207580595Y-92611009D01*
X207580595Y-92611009D02*
X207675833Y-92658628D01*
X207675833Y-92658628D02*
X208056785Y-92658628D01*
X207152023Y-92134819D02*
X206532976Y-92134819D01*
X206532976Y-92134819D02*
X206866309Y-92515771D01*
X206866309Y-92515771D02*
X206723452Y-92515771D01*
X206723452Y-92515771D02*
X206628214Y-92563390D01*
X206628214Y-92563390D02*
X206580595Y-92611009D01*
X206580595Y-92611009D02*
X206532976Y-92706247D01*
X206532976Y-92706247D02*
X206532976Y-92944342D01*
X206532976Y-92944342D02*
X206580595Y-93039580D01*
X206580595Y-93039580D02*
X206628214Y-93087200D01*
X206628214Y-93087200D02*
X206723452Y-93134819D01*
X206723452Y-93134819D02*
X207009166Y-93134819D01*
X207009166Y-93134819D02*
X207104404Y-93087200D01*
X207104404Y-93087200D02*
X207152023Y-93039580D01*
X206056785Y-93134819D02*
X205866309Y-93134819D01*
X205866309Y-93134819D02*
X205771071Y-93087200D01*
X205771071Y-93087200D02*
X205723452Y-93039580D01*
X205723452Y-93039580D02*
X205628214Y-92896723D01*
X205628214Y-92896723D02*
X205580595Y-92706247D01*
X205580595Y-92706247D02*
X205580595Y-92325295D01*
X205580595Y-92325295D02*
X205628214Y-92230057D01*
X205628214Y-92230057D02*
X205675833Y-92182438D01*
X205675833Y-92182438D02*
X205771071Y-92134819D01*
X205771071Y-92134819D02*
X205961547Y-92134819D01*
X205961547Y-92134819D02*
X206056785Y-92182438D01*
X206056785Y-92182438D02*
X206104404Y-92230057D01*
X206104404Y-92230057D02*
X206152023Y-92325295D01*
X206152023Y-92325295D02*
X206152023Y-92563390D01*
X206152023Y-92563390D02*
X206104404Y-92658628D01*
X206104404Y-92658628D02*
X206056785Y-92706247D01*
X206056785Y-92706247D02*
X205961547Y-92753866D01*
X205961547Y-92753866D02*
X205771071Y-92753866D01*
X205771071Y-92753866D02*
X205675833Y-92706247D01*
X205675833Y-92706247D02*
X205628214Y-92658628D01*
X205628214Y-92658628D02*
X205580595Y-92563390D01*
X182680357Y-130812160D02*
X183013690Y-130335969D01*
X183251785Y-130812160D02*
X183251785Y-129812160D01*
X183251785Y-129812160D02*
X182870833Y-129812160D01*
X182870833Y-129812160D02*
X182775595Y-129859779D01*
X182775595Y-129859779D02*
X182727976Y-129907398D01*
X182727976Y-129907398D02*
X182680357Y-130002636D01*
X182680357Y-130002636D02*
X182680357Y-130145493D01*
X182680357Y-130145493D02*
X182727976Y-130240731D01*
X182727976Y-130240731D02*
X182775595Y-130288350D01*
X182775595Y-130288350D02*
X182870833Y-130335969D01*
X182870833Y-130335969D02*
X183251785Y-130335969D01*
X182299404Y-129907398D02*
X182251785Y-129859779D01*
X182251785Y-129859779D02*
X182156547Y-129812160D01*
X182156547Y-129812160D02*
X181918452Y-129812160D01*
X181918452Y-129812160D02*
X181823214Y-129859779D01*
X181823214Y-129859779D02*
X181775595Y-129907398D01*
X181775595Y-129907398D02*
X181727976Y-130002636D01*
X181727976Y-130002636D02*
X181727976Y-130097874D01*
X181727976Y-130097874D02*
X181775595Y-130240731D01*
X181775595Y-130240731D02*
X182347023Y-130812160D01*
X182347023Y-130812160D02*
X181727976Y-130812160D01*
X181251785Y-130812160D02*
X181061309Y-130812160D01*
X181061309Y-130812160D02*
X180966071Y-130764541D01*
X180966071Y-130764541D02*
X180918452Y-130716921D01*
X180918452Y-130716921D02*
X180823214Y-130574064D01*
X180823214Y-130574064D02*
X180775595Y-130383588D01*
X180775595Y-130383588D02*
X180775595Y-130002636D01*
X180775595Y-130002636D02*
X180823214Y-129907398D01*
X180823214Y-129907398D02*
X180870833Y-129859779D01*
X180870833Y-129859779D02*
X180966071Y-129812160D01*
X180966071Y-129812160D02*
X181156547Y-129812160D01*
X181156547Y-129812160D02*
X181251785Y-129859779D01*
X181251785Y-129859779D02*
X181299404Y-129907398D01*
X181299404Y-129907398D02*
X181347023Y-130002636D01*
X181347023Y-130002636D02*
X181347023Y-130240731D01*
X181347023Y-130240731D02*
X181299404Y-130335969D01*
X181299404Y-130335969D02*
X181251785Y-130383588D01*
X181251785Y-130383588D02*
X181156547Y-130431207D01*
X181156547Y-130431207D02*
X180966071Y-130431207D01*
X180966071Y-130431207D02*
X180870833Y-130383588D01*
X180870833Y-130383588D02*
X180823214Y-130335969D01*
X180823214Y-130335969D02*
X180775595Y-130240731D01*
X207422857Y-98134819D02*
X207756190Y-97658628D01*
X207994285Y-98134819D02*
X207994285Y-97134819D01*
X207994285Y-97134819D02*
X207613333Y-97134819D01*
X207613333Y-97134819D02*
X207518095Y-97182438D01*
X207518095Y-97182438D02*
X207470476Y-97230057D01*
X207470476Y-97230057D02*
X207422857Y-97325295D01*
X207422857Y-97325295D02*
X207422857Y-97468152D01*
X207422857Y-97468152D02*
X207470476Y-97563390D01*
X207470476Y-97563390D02*
X207518095Y-97611009D01*
X207518095Y-97611009D02*
X207613333Y-97658628D01*
X207613333Y-97658628D02*
X207994285Y-97658628D01*
X206565714Y-97468152D02*
X206565714Y-98134819D01*
X206803809Y-97087200D02*
X207041904Y-97801485D01*
X207041904Y-97801485D02*
X206422857Y-97801485D01*
X205851428Y-97134819D02*
X205756190Y-97134819D01*
X205756190Y-97134819D02*
X205660952Y-97182438D01*
X205660952Y-97182438D02*
X205613333Y-97230057D01*
X205613333Y-97230057D02*
X205565714Y-97325295D01*
X205565714Y-97325295D02*
X205518095Y-97515771D01*
X205518095Y-97515771D02*
X205518095Y-97753866D01*
X205518095Y-97753866D02*
X205565714Y-97944342D01*
X205565714Y-97944342D02*
X205613333Y-98039580D01*
X205613333Y-98039580D02*
X205660952Y-98087200D01*
X205660952Y-98087200D02*
X205756190Y-98134819D01*
X205756190Y-98134819D02*
X205851428Y-98134819D01*
X205851428Y-98134819D02*
X205946666Y-98087200D01*
X205946666Y-98087200D02*
X205994285Y-98039580D01*
X205994285Y-98039580D02*
X206041904Y-97944342D01*
X206041904Y-97944342D02*
X206089523Y-97753866D01*
X206089523Y-97753866D02*
X206089523Y-97515771D01*
X206089523Y-97515771D02*
X206041904Y-97325295D01*
X206041904Y-97325295D02*
X205994285Y-97230057D01*
X205994285Y-97230057D02*
X205946666Y-97182438D01*
X205946666Y-97182438D02*
X205851428Y-97134819D01*
X182642857Y-134812160D02*
X182976190Y-134335969D01*
X183214285Y-134812160D02*
X183214285Y-133812160D01*
X183214285Y-133812160D02*
X182833333Y-133812160D01*
X182833333Y-133812160D02*
X182738095Y-133859779D01*
X182738095Y-133859779D02*
X182690476Y-133907398D01*
X182690476Y-133907398D02*
X182642857Y-134002636D01*
X182642857Y-134002636D02*
X182642857Y-134145493D01*
X182642857Y-134145493D02*
X182690476Y-134240731D01*
X182690476Y-134240731D02*
X182738095Y-134288350D01*
X182738095Y-134288350D02*
X182833333Y-134335969D01*
X182833333Y-134335969D02*
X183214285Y-134335969D01*
X182309523Y-133812160D02*
X181690476Y-133812160D01*
X181690476Y-133812160D02*
X182023809Y-134193112D01*
X182023809Y-134193112D02*
X181880952Y-134193112D01*
X181880952Y-134193112D02*
X181785714Y-134240731D01*
X181785714Y-134240731D02*
X181738095Y-134288350D01*
X181738095Y-134288350D02*
X181690476Y-134383588D01*
X181690476Y-134383588D02*
X181690476Y-134621683D01*
X181690476Y-134621683D02*
X181738095Y-134716921D01*
X181738095Y-134716921D02*
X181785714Y-134764541D01*
X181785714Y-134764541D02*
X181880952Y-134812160D01*
X181880952Y-134812160D02*
X182166666Y-134812160D01*
X182166666Y-134812160D02*
X182261904Y-134764541D01*
X182261904Y-134764541D02*
X182309523Y-134716921D01*
X180738095Y-134812160D02*
X181309523Y-134812160D01*
X181023809Y-134812160D02*
X181023809Y-133812160D01*
X181023809Y-133812160D02*
X181119047Y-133955017D01*
X181119047Y-133955017D02*
X181214285Y-134050255D01*
X181214285Y-134050255D02*
X181309523Y-134097874D01*
X182567857Y-122812160D02*
X182901190Y-122335969D01*
X183139285Y-122812160D02*
X183139285Y-121812160D01*
X183139285Y-121812160D02*
X182758333Y-121812160D01*
X182758333Y-121812160D02*
X182663095Y-121859779D01*
X182663095Y-121859779D02*
X182615476Y-121907398D01*
X182615476Y-121907398D02*
X182567857Y-122002636D01*
X182567857Y-122002636D02*
X182567857Y-122145493D01*
X182567857Y-122145493D02*
X182615476Y-122240731D01*
X182615476Y-122240731D02*
X182663095Y-122288350D01*
X182663095Y-122288350D02*
X182758333Y-122335969D01*
X182758333Y-122335969D02*
X183139285Y-122335969D01*
X182186904Y-121907398D02*
X182139285Y-121859779D01*
X182139285Y-121859779D02*
X182044047Y-121812160D01*
X182044047Y-121812160D02*
X181805952Y-121812160D01*
X181805952Y-121812160D02*
X181710714Y-121859779D01*
X181710714Y-121859779D02*
X181663095Y-121907398D01*
X181663095Y-121907398D02*
X181615476Y-122002636D01*
X181615476Y-122002636D02*
X181615476Y-122097874D01*
X181615476Y-122097874D02*
X181663095Y-122240731D01*
X181663095Y-122240731D02*
X182234523Y-122812160D01*
X182234523Y-122812160D02*
X181615476Y-122812160D01*
X180710714Y-121812160D02*
X181186904Y-121812160D01*
X181186904Y-121812160D02*
X181234523Y-122288350D01*
X181234523Y-122288350D02*
X181186904Y-122240731D01*
X181186904Y-122240731D02*
X181091666Y-122193112D01*
X181091666Y-122193112D02*
X180853571Y-122193112D01*
X180853571Y-122193112D02*
X180758333Y-122240731D01*
X180758333Y-122240731D02*
X180710714Y-122288350D01*
X180710714Y-122288350D02*
X180663095Y-122383588D01*
X180663095Y-122383588D02*
X180663095Y-122621683D01*
X180663095Y-122621683D02*
X180710714Y-122716921D01*
X180710714Y-122716921D02*
X180758333Y-122764541D01*
X180758333Y-122764541D02*
X180853571Y-122812160D01*
X180853571Y-122812160D02*
X181091666Y-122812160D01*
X181091666Y-122812160D02*
X181186904Y-122764541D01*
X181186904Y-122764541D02*
X181234523Y-122716921D01*
X187605357Y-130452160D02*
X187938690Y-129975969D01*
X188176785Y-130452160D02*
X188176785Y-129452160D01*
X188176785Y-129452160D02*
X187795833Y-129452160D01*
X187795833Y-129452160D02*
X187700595Y-129499779D01*
X187700595Y-129499779D02*
X187652976Y-129547398D01*
X187652976Y-129547398D02*
X187605357Y-129642636D01*
X187605357Y-129642636D02*
X187605357Y-129785493D01*
X187605357Y-129785493D02*
X187652976Y-129880731D01*
X187652976Y-129880731D02*
X187700595Y-129928350D01*
X187700595Y-129928350D02*
X187795833Y-129975969D01*
X187795833Y-129975969D02*
X188176785Y-129975969D01*
X187224404Y-129547398D02*
X187176785Y-129499779D01*
X187176785Y-129499779D02*
X187081547Y-129452160D01*
X187081547Y-129452160D02*
X186843452Y-129452160D01*
X186843452Y-129452160D02*
X186748214Y-129499779D01*
X186748214Y-129499779D02*
X186700595Y-129547398D01*
X186700595Y-129547398D02*
X186652976Y-129642636D01*
X186652976Y-129642636D02*
X186652976Y-129737874D01*
X186652976Y-129737874D02*
X186700595Y-129880731D01*
X186700595Y-129880731D02*
X187272023Y-130452160D01*
X187272023Y-130452160D02*
X186652976Y-130452160D01*
X186081547Y-129880731D02*
X186176785Y-129833112D01*
X186176785Y-129833112D02*
X186224404Y-129785493D01*
X186224404Y-129785493D02*
X186272023Y-129690255D01*
X186272023Y-129690255D02*
X186272023Y-129642636D01*
X186272023Y-129642636D02*
X186224404Y-129547398D01*
X186224404Y-129547398D02*
X186176785Y-129499779D01*
X186176785Y-129499779D02*
X186081547Y-129452160D01*
X186081547Y-129452160D02*
X185891071Y-129452160D01*
X185891071Y-129452160D02*
X185795833Y-129499779D01*
X185795833Y-129499779D02*
X185748214Y-129547398D01*
X185748214Y-129547398D02*
X185700595Y-129642636D01*
X185700595Y-129642636D02*
X185700595Y-129690255D01*
X185700595Y-129690255D02*
X185748214Y-129785493D01*
X185748214Y-129785493D02*
X185795833Y-129833112D01*
X185795833Y-129833112D02*
X185891071Y-129880731D01*
X185891071Y-129880731D02*
X186081547Y-129880731D01*
X186081547Y-129880731D02*
X186176785Y-129928350D01*
X186176785Y-129928350D02*
X186224404Y-129975969D01*
X186224404Y-129975969D02*
X186272023Y-130071207D01*
X186272023Y-130071207D02*
X186272023Y-130261683D01*
X186272023Y-130261683D02*
X186224404Y-130356921D01*
X186224404Y-130356921D02*
X186176785Y-130404541D01*
X186176785Y-130404541D02*
X186081547Y-130452160D01*
X186081547Y-130452160D02*
X185891071Y-130452160D01*
X185891071Y-130452160D02*
X185795833Y-130404541D01*
X185795833Y-130404541D02*
X185748214Y-130356921D01*
X185748214Y-130356921D02*
X185700595Y-130261683D01*
X185700595Y-130261683D02*
X185700595Y-130071207D01*
X185700595Y-130071207D02*
X185748214Y-129975969D01*
X185748214Y-129975969D02*
X185795833Y-129928350D01*
X185795833Y-129928350D02*
X185891071Y-129880731D01*
X187605357Y-138452160D02*
X187938690Y-137975969D01*
X188176785Y-138452160D02*
X188176785Y-137452160D01*
X188176785Y-137452160D02*
X187795833Y-137452160D01*
X187795833Y-137452160D02*
X187700595Y-137499779D01*
X187700595Y-137499779D02*
X187652976Y-137547398D01*
X187652976Y-137547398D02*
X187605357Y-137642636D01*
X187605357Y-137642636D02*
X187605357Y-137785493D01*
X187605357Y-137785493D02*
X187652976Y-137880731D01*
X187652976Y-137880731D02*
X187700595Y-137928350D01*
X187700595Y-137928350D02*
X187795833Y-137975969D01*
X187795833Y-137975969D02*
X188176785Y-137975969D01*
X187272023Y-137452160D02*
X186652976Y-137452160D01*
X186652976Y-137452160D02*
X186986309Y-137833112D01*
X186986309Y-137833112D02*
X186843452Y-137833112D01*
X186843452Y-137833112D02*
X186748214Y-137880731D01*
X186748214Y-137880731D02*
X186700595Y-137928350D01*
X186700595Y-137928350D02*
X186652976Y-138023588D01*
X186652976Y-138023588D02*
X186652976Y-138261683D01*
X186652976Y-138261683D02*
X186700595Y-138356921D01*
X186700595Y-138356921D02*
X186748214Y-138404541D01*
X186748214Y-138404541D02*
X186843452Y-138452160D01*
X186843452Y-138452160D02*
X187129166Y-138452160D01*
X187129166Y-138452160D02*
X187224404Y-138404541D01*
X187224404Y-138404541D02*
X187272023Y-138356921D01*
X186272023Y-137547398D02*
X186224404Y-137499779D01*
X186224404Y-137499779D02*
X186129166Y-137452160D01*
X186129166Y-137452160D02*
X185891071Y-137452160D01*
X185891071Y-137452160D02*
X185795833Y-137499779D01*
X185795833Y-137499779D02*
X185748214Y-137547398D01*
X185748214Y-137547398D02*
X185700595Y-137642636D01*
X185700595Y-137642636D02*
X185700595Y-137737874D01*
X185700595Y-137737874D02*
X185748214Y-137880731D01*
X185748214Y-137880731D02*
X186319642Y-138452160D01*
X186319642Y-138452160D02*
X185700595Y-138452160D01*
D11*
%TO.C,R27*%
X181235436Y-127267341D02*
X182689564Y-127267341D01*
X181235436Y-129087341D02*
X182689564Y-129087341D01*
%TO.C,R30*%
X187764564Y-131267341D02*
X186310436Y-131267341D01*
X187764564Y-133087341D02*
X186310436Y-133087341D01*
%TO.C,R26*%
X187689564Y-123267341D02*
X186235436Y-123267341D01*
X187689564Y-125087341D02*
X186235436Y-125087341D01*
%TO.C,R33*%
X206052936Y-88590000D02*
X207507064Y-88590000D01*
X206052936Y-90410000D02*
X207507064Y-90410000D01*
%TO.C,R39*%
X206115436Y-93590000D02*
X207569564Y-93590000D01*
X206115436Y-95410000D02*
X207569564Y-95410000D01*
%TO.C,R29*%
X181310436Y-131267341D02*
X182764564Y-131267341D01*
X181310436Y-133087341D02*
X182764564Y-133087341D01*
%TO.C,R40*%
X206052936Y-98590000D02*
X207507064Y-98590000D01*
X206052936Y-100410000D02*
X207507064Y-100410000D01*
%TO.C,R31*%
X181272936Y-135267341D02*
X182727064Y-135267341D01*
X181272936Y-137087341D02*
X182727064Y-137087341D01*
%TO.C,R25*%
X181197936Y-123267341D02*
X182652064Y-123267341D01*
X181197936Y-125087341D02*
X182652064Y-125087341D01*
%TO.C,R28*%
X187689564Y-127267341D02*
X186235436Y-127267341D01*
X187689564Y-129087341D02*
X186235436Y-129087341D01*
%TO.C,R32*%
X187689564Y-135267341D02*
X186235436Y-135267341D01*
X187689564Y-137087341D02*
X186235436Y-137087341D01*
%TD*%
M02*
