%TF.GenerationSoftware,KiCad,Pcbnew,8.0.5*%
%TF.CreationDate,2024-11-01T15:38:32+01:00*%
%TF.ProjectId,PowerBoard,506f7765-7242-46f6-9172-642e6b696361,rev?*%
%TF.SameCoordinates,Original*%
%TF.FileFunction,Soldermask,Top*%
%TF.FilePolarity,Negative*%
%FSLAX46Y46*%
G04 Gerber Fmt 4.6, Leading zero omitted, Abs format (unit mm)*
G04 Created by KiCad (PCBNEW 8.0.5) date 2024-11-01 15:38:32*
%MOMM*%
%LPD*%
G01*
G04 APERTURE LIST*
G04 Aperture macros list*
%AMRoundRect*
0 Rectangle with rounded corners*
0 $1 Rounding radius*
0 $2 $3 $4 $5 $6 $7 $8 $9 X,Y pos of 4 corners*
0 Add a 4 corners polygon primitive as box body*
4,1,4,$2,$3,$4,$5,$6,$7,$8,$9,$2,$3,0*
0 Add four circle primitives for the rounded corners*
1,1,$1+$1,$2,$3*
1,1,$1+$1,$4,$5*
1,1,$1+$1,$6,$7*
1,1,$1+$1,$8,$9*
0 Add four rect primitives between the rounded corners*
20,1,$1+$1,$2,$3,$4,$5,0*
20,1,$1+$1,$4,$5,$6,$7,0*
20,1,$1+$1,$6,$7,$8,$9,0*
20,1,$1+$1,$8,$9,$2,$3,0*%
G04 Aperture macros list end*
%ADD10R,2.000000X2.000000*%
%ADD11C,2.000000*%
%ADD12RoundRect,0.250000X-0.312500X-0.625000X0.312500X-0.625000X0.312500X0.625000X-0.312500X0.625000X0*%
%ADD13C,7.000000*%
%ADD14C,3.200000*%
%ADD15RoundRect,0.250000X0.625000X-0.312500X0.625000X0.312500X-0.625000X0.312500X-0.625000X-0.312500X0*%
%ADD16C,4.000000*%
%ADD17RoundRect,0.250000X-0.375000X-0.625000X0.375000X-0.625000X0.375000X0.625000X-0.375000X0.625000X0*%
%ADD18RoundRect,0.250000X-0.625000X0.375000X-0.625000X-0.375000X0.625000X-0.375000X0.625000X0.375000X0*%
%ADD19RoundRect,0.150000X-0.587500X-0.150000X0.587500X-0.150000X0.587500X0.150000X-0.587500X0.150000X0*%
%ADD20R,1.600000X1.600000*%
%ADD21C,1.600000*%
%ADD22RoundRect,0.250000X-1.025000X0.787500X-1.025000X-0.787500X1.025000X-0.787500X1.025000X0.787500X0*%
%ADD23C,6.000000*%
%ADD24RoundRect,0.250000X2.325000X-0.987500X2.325000X0.987500X-2.325000X0.987500X-2.325000X-0.987500X0*%
%ADD25RoundRect,0.250000X-0.625000X0.312500X-0.625000X-0.312500X0.625000X-0.312500X0.625000X0.312500X0*%
%ADD26RoundRect,0.250000X-1.000000X-0.650000X1.000000X-0.650000X1.000000X0.650000X-1.000000X0.650000X0*%
%ADD27O,8.000000X3.800000*%
%ADD28R,2.000000X1.905000*%
%ADD29O,2.000000X1.905000*%
%ADD30RoundRect,0.250000X-0.650000X0.325000X-0.650000X-0.325000X0.650000X-0.325000X0.650000X0.325000X0*%
%ADD31RoundRect,0.250000X0.375000X0.625000X-0.375000X0.625000X-0.375000X-0.625000X0.375000X-0.625000X0*%
%ADD32C,3.300000*%
%ADD33C,1.800000*%
%ADD34R,2.400000X2.400000*%
%ADD35C,2.400000*%
%ADD36RoundRect,0.250000X0.312500X0.625000X-0.312500X0.625000X-0.312500X-0.625000X0.312500X-0.625000X0*%
%ADD37R,1.700000X3.500000*%
%ADD38O,1.700000X1.700000*%
%ADD39R,1.700000X1.700000*%
%ADD40R,3.500000X1.700000*%
%ADD41O,1.800000X1.800000*%
%ADD42O,1.500000X1.500000*%
%ADD43R,1.905000X2.000000*%
%ADD44O,1.905000X2.000000*%
G04 APERTURE END LIST*
D10*
%TO.C,SPI1*%
X207000000Y-104190000D03*
D11*
X207000000Y-106730000D03*
X207000000Y-109270000D03*
X207000000Y-111810000D03*
%TD*%
D10*
%TO.C,I2C1*%
X207150000Y-77225000D03*
D11*
X207150000Y-79765000D03*
%TD*%
D12*
%TO.C,R12*%
X86625000Y-66375000D03*
X89550000Y-66375000D03*
%TD*%
D13*
%TO.C,J5*%
X100000000Y-93100000D03*
X90000000Y-93100000D03*
%TD*%
D14*
%TO.C,H4*%
X208000000Y-32500000D03*
%TD*%
D15*
%TO.C,R38*%
X175000000Y-59462500D03*
X175000000Y-56537500D03*
%TD*%
D16*
%TO.C,J22*%
X167000000Y-92000000D03*
X162000000Y-92000000D03*
%TD*%
D17*
%TO.C,D13*%
X161500000Y-73500000D03*
X164300000Y-73500000D03*
%TD*%
D18*
%TO.C,D9*%
X101000000Y-83200000D03*
X101000000Y-86000000D03*
%TD*%
D19*
%TO.C,Q6*%
X139575000Y-59100000D03*
X139575000Y-61000000D03*
X141450000Y-60050000D03*
%TD*%
D16*
%TO.C,J29*%
X167000000Y-136500000D03*
X162000000Y-136500000D03*
%TD*%
D20*
%TO.C,C8*%
X129000000Y-50317621D03*
D21*
X129000000Y-52817621D03*
%TD*%
D22*
%TO.C,C3*%
X139500000Y-34000000D03*
X139500000Y-40225000D03*
%TD*%
D12*
%TO.C,R7*%
X117850000Y-64500000D03*
X120775000Y-64500000D03*
%TD*%
D23*
%TO.C,J19*%
X145150000Y-127400000D03*
X138050000Y-127400000D03*
%TD*%
D16*
%TO.C,J24*%
X167000000Y-106500000D03*
X162000000Y-106500000D03*
%TD*%
D13*
%TO.C,J28*%
X100000000Y-149600000D03*
X90000000Y-149600000D03*
%TD*%
D15*
%TO.C,R37*%
X128500000Y-60000000D03*
X128500000Y-57075000D03*
%TD*%
%TO.C,R34*%
X150500000Y-59925000D03*
X150500000Y-57000000D03*
%TD*%
D24*
%TO.C,D2*%
X111000000Y-41000000D03*
X111000000Y-34625000D03*
%TD*%
D25*
%TO.C,R10*%
X126850000Y-83375000D03*
X126850000Y-86300000D03*
%TD*%
%TO.C,R2*%
X104500000Y-83175000D03*
X104500000Y-86100000D03*
%TD*%
D26*
%TO.C,D6*%
X93500000Y-85100000D03*
X97500000Y-85100000D03*
%TD*%
D27*
%TO.C,F3*%
X146650000Y-78400000D03*
X137350000Y-78400000D03*
%TD*%
D17*
%TO.C,D11*%
X138700000Y-73500000D03*
X141500000Y-73500000D03*
%TD*%
D23*
%TO.C,J18*%
X145150000Y-116400000D03*
X138050000Y-116400000D03*
%TD*%
%TO.C,J10*%
X121900000Y-93400000D03*
X115200000Y-93400000D03*
%TD*%
D12*
%TO.C,R13*%
X133575000Y-62000000D03*
X136500000Y-62000000D03*
%TD*%
D17*
%TO.C,D7*%
X115000000Y-73500000D03*
X117800000Y-73500000D03*
%TD*%
D28*
%TO.C,Q7*%
X172000000Y-66540000D03*
D29*
X172000000Y-64000000D03*
X172000000Y-61460000D03*
%TD*%
D30*
%TO.C,C2*%
X157000000Y-39025000D03*
X157000000Y-41975000D03*
%TD*%
D10*
%TO.C,GND1*%
X174880000Y-148500000D03*
D11*
X177420000Y-148500000D03*
X179960000Y-148500000D03*
X182500000Y-148500000D03*
%TD*%
D19*
%TO.C,Q8*%
X163650000Y-58300000D03*
X163650000Y-60200000D03*
X165525000Y-59250000D03*
%TD*%
D31*
%TO.C,D16*%
X208180000Y-99500000D03*
X205380000Y-99500000D03*
%TD*%
D14*
%TO.C,H3*%
X208000000Y-157500000D03*
%TD*%
D23*
%TO.C,J13*%
X121900000Y-127100000D03*
X115200000Y-127100000D03*
%TD*%
D14*
%TO.C,H2*%
X83000000Y-157600000D03*
%TD*%
D13*
%TO.C,J8*%
X100000000Y-127000000D03*
X90000000Y-127000000D03*
%TD*%
D16*
%TO.C,J31*%
X167000000Y-151500000D03*
X162000000Y-151500000D03*
%TD*%
D32*
%TO.C,A2*%
X207073000Y-118705000D03*
X207073000Y-141742341D03*
D33*
X194627000Y-118705000D03*
X194627000Y-121245000D03*
X194627000Y-123785000D03*
X194627000Y-126325000D03*
X194627000Y-128865000D03*
X194627000Y-131405000D03*
X194627000Y-133945000D03*
X194627000Y-136485000D03*
X194627000Y-139025000D03*
X194627000Y-141565000D03*
%TD*%
D25*
%TO.C,R35*%
X151000000Y-39000000D03*
X151000000Y-41925000D03*
%TD*%
D16*
%TO.C,J25*%
X167000000Y-114000000D03*
X162000000Y-114000000D03*
%TD*%
%TO.C,J23*%
X167000000Y-99000000D03*
X162000000Y-99000000D03*
%TD*%
%TO.C,J4*%
X166900000Y-51200000D03*
X161900000Y-51200000D03*
%TD*%
D12*
%TO.C,R8*%
X117925000Y-68500000D03*
X120850000Y-68500000D03*
%TD*%
D34*
%TO.C,C5*%
X92512755Y-51500000D03*
D35*
X85012755Y-51500000D03*
%TD*%
D23*
%TO.C,J2*%
X120750000Y-51400000D03*
X114050000Y-51400000D03*
%TD*%
D19*
%TO.C,Q3*%
X93230000Y-59885000D03*
X93230000Y-61785000D03*
X95105000Y-60835000D03*
%TD*%
D28*
%TO.C,Q1*%
X101000000Y-66500000D03*
D29*
X101000000Y-63960000D03*
X101000000Y-61420000D03*
%TD*%
D36*
%TO.C,R17*%
X136425000Y-73500000D03*
X133500000Y-73500000D03*
%TD*%
D23*
%TO.C,J11*%
X121700000Y-104900000D03*
X115000000Y-104900000D03*
%TD*%
D27*
%TO.C,F2*%
X123000000Y-78500000D03*
X113700000Y-78500000D03*
%TD*%
D13*
%TO.C,J9*%
X100000000Y-138300000D03*
X90000000Y-138300000D03*
%TD*%
%TO.C,J32*%
X120000000Y-38000000D03*
X130000000Y-38000000D03*
%TD*%
D23*
%TO.C,J20*%
X145000000Y-138900000D03*
X137900000Y-138900000D03*
%TD*%
D18*
%TO.C,D14*%
X170500000Y-83500000D03*
X170500000Y-86300000D03*
%TD*%
D23*
%TO.C,J12*%
X121900000Y-116400000D03*
X115200000Y-116400000D03*
%TD*%
D26*
%TO.C,D4*%
X163150000Y-85100000D03*
X167150000Y-85100000D03*
%TD*%
D36*
%TO.C,R1*%
X88425000Y-73500000D03*
X85500000Y-73500000D03*
%TD*%
D16*
%TO.C,J27*%
X167000000Y-129000000D03*
X162000000Y-129000000D03*
%TD*%
D22*
%TO.C,C4*%
X163500000Y-33887500D03*
X163500000Y-40112500D03*
%TD*%
D13*
%TO.C,J1*%
X102000000Y-38000000D03*
X92000000Y-38000000D03*
%TD*%
D37*
%TO.C,U1*%
X192930000Y-112870000D03*
D38*
X192930000Y-111970000D03*
D37*
X190390000Y-112870000D03*
D39*
X190390000Y-111970000D03*
D37*
X187850000Y-112870000D03*
D38*
X187850000Y-111970000D03*
D40*
X200180000Y-63940000D03*
D38*
X199280000Y-63940000D03*
D40*
X200180000Y-66480000D03*
D38*
X199280000Y-66480000D03*
D40*
X200180000Y-69020000D03*
D39*
X199280000Y-69020000D03*
D40*
X200180000Y-71560000D03*
D38*
X199280000Y-71560000D03*
D40*
X200180000Y-74100000D03*
D38*
X199280000Y-74100000D03*
D40*
X200180000Y-76640000D03*
D38*
X199280000Y-76640000D03*
D40*
X200180000Y-79180000D03*
D38*
X199280000Y-79180000D03*
D40*
X200180000Y-81720000D03*
D39*
X199280000Y-81720000D03*
D40*
X200180000Y-84260000D03*
D38*
X199280000Y-84260000D03*
D40*
X200180000Y-86800000D03*
D38*
X199280000Y-86800000D03*
D40*
X200180000Y-89340000D03*
D38*
X199280000Y-89340000D03*
D40*
X200180000Y-91880000D03*
D38*
X199280000Y-91880000D03*
D40*
X200180000Y-94420000D03*
D39*
X199280000Y-94420000D03*
D40*
X200180000Y-96960000D03*
D38*
X199280000Y-96960000D03*
D40*
X200180000Y-99500000D03*
D38*
X199280000Y-99500000D03*
D40*
X200180000Y-102040000D03*
D38*
X199280000Y-102040000D03*
D40*
X200180000Y-104580000D03*
D38*
X199280000Y-104580000D03*
D40*
X200180000Y-107120000D03*
D39*
X199280000Y-107120000D03*
D40*
X200180000Y-109660000D03*
D38*
X199280000Y-109660000D03*
D40*
X200180000Y-112200000D03*
D38*
X199280000Y-112200000D03*
D40*
X180600000Y-112200000D03*
D38*
X181500000Y-112200000D03*
D40*
X180600000Y-109660000D03*
D38*
X181500000Y-109660000D03*
D40*
X180600000Y-107120000D03*
D39*
X181500000Y-107120000D03*
D40*
X180600000Y-104580000D03*
D38*
X181500000Y-104580000D03*
D40*
X180600000Y-102040000D03*
D38*
X181500000Y-102040000D03*
D40*
X180600000Y-99500000D03*
D38*
X181500000Y-99500000D03*
D40*
X180600000Y-96960000D03*
D38*
X181500000Y-96960000D03*
D40*
X180600000Y-94420000D03*
D39*
X181500000Y-94420000D03*
D40*
X180600000Y-91880000D03*
D38*
X181500000Y-91880000D03*
D40*
X180600000Y-89340000D03*
D38*
X181500000Y-89340000D03*
D40*
X180600000Y-86800000D03*
D38*
X181500000Y-86800000D03*
D40*
X180600000Y-84260000D03*
D38*
X181500000Y-84260000D03*
D40*
X180600000Y-81720000D03*
D39*
X181500000Y-81720000D03*
D40*
X180600000Y-79180000D03*
D38*
X181500000Y-79180000D03*
D40*
X180600000Y-76640000D03*
D38*
X181500000Y-76640000D03*
D40*
X180600000Y-74100000D03*
D38*
X181500000Y-74100000D03*
D40*
X180600000Y-71560000D03*
D38*
X181500000Y-71560000D03*
D40*
X180600000Y-69020000D03*
D39*
X181500000Y-69020000D03*
D40*
X180600000Y-66480000D03*
D38*
X181500000Y-66480000D03*
D40*
X180600000Y-63940000D03*
D38*
X181500000Y-63940000D03*
D41*
X193115000Y-64070000D03*
D42*
X192815000Y-67100000D03*
X187965000Y-67100000D03*
D41*
X187665000Y-64070000D03*
%TD*%
D26*
%TO.C,D5*%
X116350000Y-85000000D03*
X120350000Y-85000000D03*
%TD*%
D19*
%TO.C,Q4*%
X118275000Y-59000000D03*
X118275000Y-60900000D03*
X120150000Y-59950000D03*
%TD*%
D16*
%TO.C,J30*%
X167000000Y-144000000D03*
X162000000Y-144000000D03*
%TD*%
D12*
%TO.C,R3*%
X112425000Y-62000000D03*
X115350000Y-62000000D03*
%TD*%
D23*
%TO.C,J3*%
X145300000Y-51400000D03*
X138200000Y-51400000D03*
%TD*%
D20*
%TO.C,C6*%
X154000000Y-50317621D03*
D21*
X154000000Y-52817621D03*
%TD*%
D36*
%TO.C,R6*%
X95550000Y-64335000D03*
X92625000Y-64335000D03*
%TD*%
D12*
%TO.C,R19*%
X157800000Y-60800000D03*
X160725000Y-60800000D03*
%TD*%
D14*
%TO.C,H1*%
X83000000Y-32500000D03*
%TD*%
D36*
%TO.C,R9*%
X112425000Y-73500000D03*
X109500000Y-73500000D03*
%TD*%
D23*
%TO.C,J14*%
X121900000Y-138400000D03*
X115200000Y-138400000D03*
%TD*%
%TO.C,J17*%
X145000000Y-104900000D03*
X137900000Y-104900000D03*
%TD*%
D27*
%TO.C,F1*%
X100000000Y-78600000D03*
X90700000Y-78600000D03*
%TD*%
D12*
%TO.C,R16*%
X139075000Y-68500000D03*
X142000000Y-68500000D03*
%TD*%
D31*
%TO.C,D1*%
X208180000Y-89500000D03*
X205380000Y-89500000D03*
%TD*%
D28*
%TO.C,Q5*%
X147500000Y-66500000D03*
D29*
X147500000Y-63960000D03*
X147500000Y-61420000D03*
%TD*%
D13*
%TO.C,J6*%
X100000000Y-104400000D03*
X90000000Y-104400000D03*
%TD*%
D12*
%TO.C,R14*%
X133500000Y-66000000D03*
X136425000Y-66000000D03*
%TD*%
%TO.C,R21*%
X163225000Y-63800000D03*
X166150000Y-63800000D03*
%TD*%
%TO.C,R5*%
X92625000Y-68335000D03*
X95550000Y-68335000D03*
%TD*%
D28*
%TO.C,Q2*%
X125500000Y-66540000D03*
D29*
X125500000Y-64000000D03*
X125500000Y-61460000D03*
%TD*%
D30*
%TO.C,C1*%
X145500000Y-39000000D03*
X145500000Y-41950000D03*
%TD*%
D26*
%TO.C,D3*%
X139150000Y-85000000D03*
X143150000Y-85000000D03*
%TD*%
D17*
%TO.C,D8*%
X90700000Y-73500000D03*
X93500000Y-73500000D03*
%TD*%
D23*
%TO.C,J16*%
X145250000Y-93400000D03*
X138150000Y-93400000D03*
%TD*%
%TO.C,J21*%
X145000000Y-150400000D03*
X137900000Y-150400000D03*
%TD*%
D12*
%TO.C,R20*%
X157800000Y-66300000D03*
X160725000Y-66300000D03*
%TD*%
D25*
%TO.C,R24*%
X174150000Y-83475000D03*
X174150000Y-86400000D03*
%TD*%
D43*
%TO.C,U2*%
X151080000Y-33887500D03*
D44*
X148540000Y-33887500D03*
X146000000Y-33887500D03*
%TD*%
D15*
%TO.C,R36*%
X157000000Y-36425000D03*
X157000000Y-33500000D03*
%TD*%
D12*
%TO.C,R22*%
X163225000Y-67800000D03*
X166150000Y-67800000D03*
%TD*%
D18*
%TO.C,D12*%
X147000000Y-83700000D03*
X147000000Y-86500000D03*
%TD*%
D23*
%TO.C,J15*%
X121700000Y-149900000D03*
X115000000Y-149900000D03*
%TD*%
D16*
%TO.C,J26*%
X167000000Y-121500000D03*
X162000000Y-121500000D03*
%TD*%
D27*
%TO.C,F4*%
X170150000Y-78600000D03*
X160850000Y-78600000D03*
%TD*%
D10*
%TO.C,VCC1*%
X187460000Y-148500000D03*
D11*
X190000000Y-148500000D03*
X192540000Y-148500000D03*
X195080000Y-148500000D03*
%TD*%
D31*
%TO.C,D15*%
X208180000Y-94500000D03*
X205380000Y-94500000D03*
%TD*%
D18*
%TO.C,D10*%
X123500000Y-83700000D03*
X123500000Y-86500000D03*
%TD*%
D12*
%TO.C,R15*%
X139075000Y-64500000D03*
X142000000Y-64500000D03*
%TD*%
%TO.C,R11*%
X86625000Y-62375000D03*
X89550000Y-62375000D03*
%TD*%
D36*
%TO.C,R23*%
X159000000Y-73500000D03*
X156075000Y-73500000D03*
%TD*%
D12*
%TO.C,R4*%
X112350000Y-66000000D03*
X115275000Y-66000000D03*
%TD*%
D25*
%TO.C,R18*%
X151350000Y-83475000D03*
X151350000Y-86400000D03*
%TD*%
D20*
%TO.C,C7*%
X175000000Y-53000000D03*
D21*
X175000000Y-50500000D03*
%TD*%
D10*
%TO.C,ADC1*%
X199880000Y-148500000D03*
D11*
X202420000Y-148500000D03*
X204960000Y-148500000D03*
X207500000Y-148500000D03*
%TD*%
D13*
%TO.C,J7*%
X100000000Y-115700000D03*
X90000000Y-115700000D03*
%TD*%
D32*
%TO.C,A1*%
X187500000Y-118640000D03*
X187500000Y-141677341D03*
D33*
X175054000Y-118640000D03*
X175054000Y-121180000D03*
X175054000Y-123720000D03*
X175054000Y-126260000D03*
X175054000Y-128800000D03*
X175054000Y-131340000D03*
X175054000Y-133880000D03*
X175054000Y-136420000D03*
X175054000Y-138960000D03*
X175054000Y-141500000D03*
%TD*%
M02*
