%TF.GenerationSoftware,KiCad,Pcbnew,8.0.3*%
%TF.CreationDate,2024-08-15T08:25:53+02:00*%
%TF.ProjectId,PowerBoard,506f7765-7242-46f6-9172-642e6b696361,rev?*%
%TF.SameCoordinates,Original*%
%TF.FileFunction,Soldermask,Bot*%
%TF.FilePolarity,Negative*%
%FSLAX46Y46*%
G04 Gerber Fmt 4.6, Leading zero omitted, Abs format (unit mm)*
G04 Created by KiCad (PCBNEW 8.0.3) date 2024-08-15 08:25:53*
%MOMM*%
%LPD*%
G01*
G04 APERTURE LIST*
G04 Aperture macros list*
%AMRoundRect*
0 Rectangle with rounded corners*
0 $1 Rounding radius*
0 $2 $3 $4 $5 $6 $7 $8 $9 X,Y pos of 4 corners*
0 Add a 4 corners polygon primitive as box body*
4,1,4,$2,$3,$4,$5,$6,$7,$8,$9,$2,$3,0*
0 Add four circle primitives for the rounded corners*
1,1,$1+$1,$2,$3*
1,1,$1+$1,$4,$5*
1,1,$1+$1,$6,$7*
1,1,$1+$1,$8,$9*
0 Add four rect primitives between the rounded corners*
20,1,$1+$1,$2,$3,$4,$5,0*
20,1,$1+$1,$4,$5,$6,$7,0*
20,1,$1+$1,$6,$7,$8,$9,0*
20,1,$1+$1,$8,$9,$2,$3,0*%
G04 Aperture macros list end*
%ADD10C,7.000000*%
%ADD11C,3.200000*%
%ADD12C,4.000000*%
%ADD13C,6.000000*%
%ADD14O,8.000000X3.800000*%
%ADD15R,2.000000X1.905000*%
%ADD16O,2.000000X1.905000*%
%ADD17R,2.000000X2.000000*%
%ADD18C,2.000000*%
%ADD19C,3.300000*%
%ADD20C,1.800000*%
%ADD21R,1.905000X2.000000*%
%ADD22O,1.905000X2.000000*%
%ADD23O,1.800000X1.800000*%
%ADD24O,1.500000X1.500000*%
%ADD25O,1.700000X1.700000*%
%ADD26R,1.700000X1.700000*%
%ADD27RoundRect,0.250000X0.312500X0.625000X-0.312500X0.625000X-0.312500X-0.625000X0.312500X-0.625000X0*%
%ADD28RoundRect,0.250000X-0.312500X-0.625000X0.312500X-0.625000X0.312500X0.625000X-0.312500X0.625000X0*%
G04 APERTURE END LIST*
D10*
%TO.C,J5*%
X100000000Y-93100000D03*
X90000000Y-93100000D03*
%TD*%
D11*
%TO.C,H4*%
X208000000Y-32500000D03*
%TD*%
D12*
%TO.C,J22*%
X167000000Y-92000000D03*
X162000000Y-92000000D03*
%TD*%
%TO.C,J29*%
X167000000Y-136500000D03*
X162000000Y-136500000D03*
%TD*%
D13*
%TO.C,J19*%
X145150000Y-127400000D03*
X138050000Y-127400000D03*
%TD*%
D12*
%TO.C,J24*%
X167000000Y-106500000D03*
X162000000Y-106500000D03*
%TD*%
D10*
%TO.C,J28*%
X100000000Y-149600000D03*
X90000000Y-149600000D03*
%TD*%
D14*
%TO.C,F3*%
X146650000Y-78400000D03*
X137350000Y-78400000D03*
%TD*%
D13*
%TO.C,J18*%
X145150000Y-116400000D03*
X138050000Y-116400000D03*
%TD*%
%TO.C,J10*%
X121900000Y-93400000D03*
X115200000Y-93400000D03*
%TD*%
D15*
%TO.C,Q7*%
X169150000Y-61220000D03*
D16*
X169150000Y-63760000D03*
X169150000Y-66300000D03*
%TD*%
D17*
%TO.C,JGND1*%
X174880000Y-148500000D03*
D18*
X177420000Y-148500000D03*
X179960000Y-148500000D03*
X182500000Y-148500000D03*
%TD*%
D11*
%TO.C,H3*%
X208000000Y-157500000D03*
%TD*%
D13*
%TO.C,J13*%
X121900000Y-127100000D03*
X115200000Y-127100000D03*
%TD*%
D11*
%TO.C,H2*%
X83000000Y-157600000D03*
%TD*%
D10*
%TO.C,J8*%
X100000000Y-127000000D03*
X90000000Y-127000000D03*
%TD*%
D12*
%TO.C,J31*%
X167000000Y-151500000D03*
X162000000Y-151500000D03*
%TD*%
D19*
%TO.C,A2*%
X207073000Y-118705000D03*
X207073000Y-141742341D03*
D20*
X194627000Y-118705000D03*
X194627000Y-121245000D03*
X194627000Y-123785000D03*
X194627000Y-126325000D03*
X194627000Y-128865000D03*
X194627000Y-131405000D03*
X194627000Y-133945000D03*
X194627000Y-136485000D03*
X194627000Y-139025000D03*
X194627000Y-141565000D03*
%TD*%
D12*
%TO.C,J25*%
X167000000Y-114000000D03*
X162000000Y-114000000D03*
%TD*%
%TO.C,J23*%
X167000000Y-99000000D03*
X162000000Y-99000000D03*
%TD*%
%TO.C,J4*%
X166900000Y-51200000D03*
X161900000Y-51200000D03*
%TD*%
D13*
%TO.C,J2*%
X124600000Y-51400000D03*
X117900000Y-51400000D03*
%TD*%
D15*
%TO.C,Q1*%
X99855000Y-61835000D03*
D16*
X99855000Y-64375000D03*
X99855000Y-66915000D03*
%TD*%
D13*
%TO.C,J11*%
X121700000Y-104900000D03*
X115000000Y-104900000D03*
%TD*%
D21*
%TO.C,Q9*%
X109000000Y-48500000D03*
D22*
X106460000Y-48500000D03*
X103920000Y-48500000D03*
%TD*%
D14*
%TO.C,F2*%
X123000000Y-78500000D03*
X113700000Y-78500000D03*
%TD*%
D10*
%TO.C,J9*%
X100000000Y-138300000D03*
X90000000Y-138300000D03*
%TD*%
%TO.C,J32*%
X120000000Y-38000000D03*
X130000000Y-38000000D03*
%TD*%
D13*
%TO.C,J20*%
X145000000Y-138900000D03*
X137900000Y-138900000D03*
%TD*%
%TO.C,J12*%
X121900000Y-116400000D03*
X115200000Y-116400000D03*
%TD*%
D12*
%TO.C,J27*%
X167000000Y-129000000D03*
X162000000Y-129000000D03*
%TD*%
D10*
%TO.C,J1*%
X102100000Y-39900000D03*
X92100000Y-39900000D03*
%TD*%
D23*
%TO.C,U1*%
X188885000Y-64070000D03*
D24*
X189185000Y-67100000D03*
X194035000Y-67100000D03*
D23*
X194335000Y-64070000D03*
D25*
X182720000Y-63940000D03*
X182720000Y-66480000D03*
D26*
X182720000Y-69020000D03*
D25*
X182720000Y-71560000D03*
X182720000Y-74100000D03*
X182720000Y-76640000D03*
X182720000Y-79180000D03*
D26*
X182720000Y-81720000D03*
D25*
X182720000Y-84260000D03*
X182720000Y-86800000D03*
X182720000Y-89340000D03*
X182720000Y-91880000D03*
D26*
X182720000Y-94420000D03*
D25*
X182720000Y-96960000D03*
X182720000Y-99500000D03*
X182720000Y-102040000D03*
X182720000Y-104580000D03*
D26*
X182720000Y-107120000D03*
D25*
X182720000Y-109660000D03*
X182720000Y-112200000D03*
X200500000Y-112200000D03*
X200500000Y-109660000D03*
D26*
X200500000Y-107120000D03*
D25*
X200500000Y-104580000D03*
X200500000Y-102040000D03*
X200500000Y-99500000D03*
X200500000Y-96960000D03*
D26*
X200500000Y-94420000D03*
D25*
X200500000Y-91880000D03*
X200500000Y-89340000D03*
X200500000Y-86800000D03*
X200500000Y-84260000D03*
D26*
X200500000Y-81720000D03*
D25*
X200500000Y-79180000D03*
X200500000Y-76640000D03*
X200500000Y-74100000D03*
X200500000Y-71560000D03*
D26*
X200500000Y-69020000D03*
D25*
X200500000Y-66480000D03*
X200500000Y-63940000D03*
X189070000Y-111970000D03*
D26*
X191610000Y-111970000D03*
D25*
X194150000Y-111970000D03*
%TD*%
D12*
%TO.C,J30*%
X167000000Y-144000000D03*
X162000000Y-144000000D03*
%TD*%
D13*
%TO.C,J3*%
X145300000Y-51400000D03*
X138200000Y-51400000D03*
%TD*%
D11*
%TO.C,H1*%
X83000000Y-32500000D03*
%TD*%
D13*
%TO.C,J14*%
X121900000Y-138400000D03*
X115200000Y-138400000D03*
%TD*%
%TO.C,J17*%
X145000000Y-104900000D03*
X137900000Y-104900000D03*
%TD*%
D14*
%TO.C,F1*%
X100000000Y-78600000D03*
X90700000Y-78600000D03*
%TD*%
D15*
%TO.C,Q5*%
X146075000Y-61420000D03*
D16*
X146075000Y-63960000D03*
X146075000Y-66500000D03*
%TD*%
D10*
%TO.C,J6*%
X100000000Y-104400000D03*
X90000000Y-104400000D03*
%TD*%
D15*
%TO.C,Q2*%
X123775000Y-61460000D03*
D16*
X123775000Y-64000000D03*
X123775000Y-66540000D03*
%TD*%
D21*
%TO.C,Q11*%
X87345000Y-50000000D03*
D22*
X89885000Y-50000000D03*
X92425000Y-50000000D03*
%TD*%
D13*
%TO.C,J16*%
X145250000Y-93400000D03*
X138150000Y-93400000D03*
%TD*%
%TO.C,J21*%
X145000000Y-150400000D03*
X137900000Y-150400000D03*
%TD*%
D21*
%TO.C,U2*%
X151080000Y-33887500D03*
D22*
X148540000Y-33887500D03*
X146000000Y-33887500D03*
%TD*%
D13*
%TO.C,J15*%
X121700000Y-149900000D03*
X115000000Y-149900000D03*
%TD*%
D12*
%TO.C,J26*%
X167000000Y-121500000D03*
X162000000Y-121500000D03*
%TD*%
D14*
%TO.C,F4*%
X170150000Y-78600000D03*
X160850000Y-78600000D03*
%TD*%
D17*
%TO.C,VCC1*%
X187460000Y-148500000D03*
D18*
X190000000Y-148500000D03*
X192540000Y-148500000D03*
X195080000Y-148500000D03*
%TD*%
D17*
%TO.C,ADC1*%
X199880000Y-148500000D03*
D18*
X202420000Y-148500000D03*
X204960000Y-148500000D03*
X207500000Y-148500000D03*
%TD*%
D10*
%TO.C,J7*%
X100000000Y-115700000D03*
X90000000Y-115700000D03*
%TD*%
D19*
%TO.C,A1*%
X187500000Y-118640000D03*
X187500000Y-141677341D03*
D20*
X175054000Y-118640000D03*
X175054000Y-121180000D03*
X175054000Y-123720000D03*
X175054000Y-126260000D03*
X175054000Y-128800000D03*
X175054000Y-131340000D03*
X175054000Y-133880000D03*
X175054000Y-136420000D03*
X175054000Y-138960000D03*
X175054000Y-141500000D03*
%TD*%
D27*
%TO.C,R27*%
X183425000Y-128177341D03*
X180500000Y-128177341D03*
%TD*%
D28*
%TO.C,R30*%
X185575000Y-132177341D03*
X188500000Y-132177341D03*
%TD*%
%TO.C,R26*%
X185500000Y-124177341D03*
X188425000Y-124177341D03*
%TD*%
D27*
%TO.C,R29*%
X183500000Y-132177341D03*
X180575000Y-132177341D03*
%TD*%
%TO.C,R31*%
X183462500Y-136177341D03*
X180537500Y-136177341D03*
%TD*%
%TO.C,R25*%
X183387500Y-124177341D03*
X180462500Y-124177341D03*
%TD*%
D28*
%TO.C,R28*%
X185500000Y-128177341D03*
X188425000Y-128177341D03*
%TD*%
%TO.C,R32*%
X185500000Y-136177341D03*
X188425000Y-136177341D03*
%TD*%
M02*
