%TF.GenerationSoftware,KiCad,Pcbnew,8.0.5*%
%TF.CreationDate,2024-11-01T15:38:32+01:00*%
%TF.ProjectId,PowerBoard,506f7765-7242-46f6-9172-642e6b696361,rev?*%
%TF.SameCoordinates,Original*%
%TF.FileFunction,Paste,Top*%
%TF.FilePolarity,Positive*%
%FSLAX46Y46*%
G04 Gerber Fmt 4.6, Leading zero omitted, Abs format (unit mm)*
G04 Created by KiCad (PCBNEW 8.0.5) date 2024-11-01 15:38:32*
%MOMM*%
%LPD*%
G01*
G04 APERTURE LIST*
G04 Aperture macros list*
%AMRoundRect*
0 Rectangle with rounded corners*
0 $1 Rounding radius*
0 $2 $3 $4 $5 $6 $7 $8 $9 X,Y pos of 4 corners*
0 Add a 4 corners polygon primitive as box body*
4,1,4,$2,$3,$4,$5,$6,$7,$8,$9,$2,$3,0*
0 Add four circle primitives for the rounded corners*
1,1,$1+$1,$2,$3*
1,1,$1+$1,$4,$5*
1,1,$1+$1,$6,$7*
1,1,$1+$1,$8,$9*
0 Add four rect primitives between the rounded corners*
20,1,$1+$1,$2,$3,$4,$5,0*
20,1,$1+$1,$4,$5,$6,$7,0*
20,1,$1+$1,$6,$7,$8,$9,0*
20,1,$1+$1,$8,$9,$2,$3,0*%
G04 Aperture macros list end*
%ADD10RoundRect,0.250000X-0.312500X-0.625000X0.312500X-0.625000X0.312500X0.625000X-0.312500X0.625000X0*%
%ADD11RoundRect,0.250000X0.625000X-0.312500X0.625000X0.312500X-0.625000X0.312500X-0.625000X-0.312500X0*%
%ADD12RoundRect,0.250000X-0.375000X-0.625000X0.375000X-0.625000X0.375000X0.625000X-0.375000X0.625000X0*%
%ADD13RoundRect,0.250000X-0.625000X0.375000X-0.625000X-0.375000X0.625000X-0.375000X0.625000X0.375000X0*%
%ADD14RoundRect,0.150000X-0.587500X-0.150000X0.587500X-0.150000X0.587500X0.150000X-0.587500X0.150000X0*%
%ADD15RoundRect,0.250000X-1.025000X0.787500X-1.025000X-0.787500X1.025000X-0.787500X1.025000X0.787500X0*%
%ADD16RoundRect,0.250000X2.325000X-0.987500X2.325000X0.987500X-2.325000X0.987500X-2.325000X-0.987500X0*%
%ADD17RoundRect,0.250000X-0.625000X0.312500X-0.625000X-0.312500X0.625000X-0.312500X0.625000X0.312500X0*%
%ADD18RoundRect,0.250000X-1.000000X-0.650000X1.000000X-0.650000X1.000000X0.650000X-1.000000X0.650000X0*%
%ADD19RoundRect,0.250000X-0.650000X0.325000X-0.650000X-0.325000X0.650000X-0.325000X0.650000X0.325000X0*%
%ADD20RoundRect,0.250000X0.375000X0.625000X-0.375000X0.625000X-0.375000X-0.625000X0.375000X-0.625000X0*%
%ADD21RoundRect,0.250000X0.312500X0.625000X-0.312500X0.625000X-0.312500X-0.625000X0.312500X-0.625000X0*%
G04 APERTURE END LIST*
D10*
%TO.C,R12*%
X86625000Y-66375000D03*
X89550000Y-66375000D03*
%TD*%
D11*
%TO.C,R38*%
X175000000Y-59462500D03*
X175000000Y-56537500D03*
%TD*%
D12*
%TO.C,D13*%
X161500000Y-73500000D03*
X164300000Y-73500000D03*
%TD*%
D13*
%TO.C,D9*%
X101000000Y-83200000D03*
X101000000Y-86000000D03*
%TD*%
D14*
%TO.C,Q6*%
X139575000Y-59100000D03*
X139575000Y-61000000D03*
X141450000Y-60050000D03*
%TD*%
D15*
%TO.C,C3*%
X139500000Y-34000000D03*
X139500000Y-40225000D03*
%TD*%
D10*
%TO.C,R7*%
X117850000Y-64500000D03*
X120775000Y-64500000D03*
%TD*%
D11*
%TO.C,R37*%
X128500000Y-60000000D03*
X128500000Y-57075000D03*
%TD*%
%TO.C,R34*%
X150500000Y-59925000D03*
X150500000Y-57000000D03*
%TD*%
D16*
%TO.C,D2*%
X111000000Y-41000000D03*
X111000000Y-34625000D03*
%TD*%
D17*
%TO.C,R10*%
X126850000Y-83375000D03*
X126850000Y-86300000D03*
%TD*%
%TO.C,R2*%
X104500000Y-83175000D03*
X104500000Y-86100000D03*
%TD*%
D18*
%TO.C,D6*%
X93500000Y-85100000D03*
X97500000Y-85100000D03*
%TD*%
D12*
%TO.C,D11*%
X138700000Y-73500000D03*
X141500000Y-73500000D03*
%TD*%
D10*
%TO.C,R13*%
X133575000Y-62000000D03*
X136500000Y-62000000D03*
%TD*%
D12*
%TO.C,D7*%
X115000000Y-73500000D03*
X117800000Y-73500000D03*
%TD*%
D19*
%TO.C,C2*%
X157000000Y-39025000D03*
X157000000Y-41975000D03*
%TD*%
D14*
%TO.C,Q8*%
X163650000Y-58300000D03*
X163650000Y-60200000D03*
X165525000Y-59250000D03*
%TD*%
D20*
%TO.C,D16*%
X208180000Y-99500000D03*
X205380000Y-99500000D03*
%TD*%
D17*
%TO.C,R35*%
X151000000Y-39000000D03*
X151000000Y-41925000D03*
%TD*%
D10*
%TO.C,R8*%
X117925000Y-68500000D03*
X120850000Y-68500000D03*
%TD*%
D14*
%TO.C,Q3*%
X93230000Y-59885000D03*
X93230000Y-61785000D03*
X95105000Y-60835000D03*
%TD*%
D21*
%TO.C,R17*%
X136425000Y-73500000D03*
X133500000Y-73500000D03*
%TD*%
D13*
%TO.C,D14*%
X170500000Y-83500000D03*
X170500000Y-86300000D03*
%TD*%
D18*
%TO.C,D4*%
X163150000Y-85100000D03*
X167150000Y-85100000D03*
%TD*%
D21*
%TO.C,R1*%
X88425000Y-73500000D03*
X85500000Y-73500000D03*
%TD*%
D15*
%TO.C,C4*%
X163500000Y-33887500D03*
X163500000Y-40112500D03*
%TD*%
D18*
%TO.C,D5*%
X116350000Y-85000000D03*
X120350000Y-85000000D03*
%TD*%
D14*
%TO.C,Q4*%
X118275000Y-59000000D03*
X118275000Y-60900000D03*
X120150000Y-59950000D03*
%TD*%
D10*
%TO.C,R3*%
X112425000Y-62000000D03*
X115350000Y-62000000D03*
%TD*%
D21*
%TO.C,R6*%
X95550000Y-64335000D03*
X92625000Y-64335000D03*
%TD*%
D10*
%TO.C,R19*%
X157800000Y-60800000D03*
X160725000Y-60800000D03*
%TD*%
D21*
%TO.C,R9*%
X112425000Y-73500000D03*
X109500000Y-73500000D03*
%TD*%
D10*
%TO.C,R16*%
X139075000Y-68500000D03*
X142000000Y-68500000D03*
%TD*%
D20*
%TO.C,D1*%
X208180000Y-89500000D03*
X205380000Y-89500000D03*
%TD*%
D10*
%TO.C,R14*%
X133500000Y-66000000D03*
X136425000Y-66000000D03*
%TD*%
%TO.C,R21*%
X163225000Y-63800000D03*
X166150000Y-63800000D03*
%TD*%
%TO.C,R5*%
X92625000Y-68335000D03*
X95550000Y-68335000D03*
%TD*%
D19*
%TO.C,C1*%
X145500000Y-39000000D03*
X145500000Y-41950000D03*
%TD*%
D18*
%TO.C,D3*%
X139150000Y-85000000D03*
X143150000Y-85000000D03*
%TD*%
D12*
%TO.C,D8*%
X90700000Y-73500000D03*
X93500000Y-73500000D03*
%TD*%
D10*
%TO.C,R20*%
X157800000Y-66300000D03*
X160725000Y-66300000D03*
%TD*%
D17*
%TO.C,R24*%
X174150000Y-83475000D03*
X174150000Y-86400000D03*
%TD*%
D11*
%TO.C,R36*%
X157000000Y-36425000D03*
X157000000Y-33500000D03*
%TD*%
D10*
%TO.C,R22*%
X163225000Y-67800000D03*
X166150000Y-67800000D03*
%TD*%
D13*
%TO.C,D12*%
X147000000Y-83700000D03*
X147000000Y-86500000D03*
%TD*%
D20*
%TO.C,D15*%
X208180000Y-94500000D03*
X205380000Y-94500000D03*
%TD*%
D13*
%TO.C,D10*%
X123500000Y-83700000D03*
X123500000Y-86500000D03*
%TD*%
D10*
%TO.C,R15*%
X139075000Y-64500000D03*
X142000000Y-64500000D03*
%TD*%
%TO.C,R11*%
X86625000Y-62375000D03*
X89550000Y-62375000D03*
%TD*%
D21*
%TO.C,R23*%
X159000000Y-73500000D03*
X156075000Y-73500000D03*
%TD*%
D10*
%TO.C,R4*%
X112350000Y-66000000D03*
X115275000Y-66000000D03*
%TD*%
D17*
%TO.C,R18*%
X151350000Y-83475000D03*
X151350000Y-86400000D03*
%TD*%
M02*
