%TF.GenerationSoftware,KiCad,Pcbnew,8.0.3*%
%TF.CreationDate,2024-08-15T08:25:53+02:00*%
%TF.ProjectId,PowerBoard,506f7765-7242-46f6-9172-642e6b696361,rev?*%
%TF.SameCoordinates,Original*%
%TF.FileFunction,Soldermask,Top*%
%TF.FilePolarity,Negative*%
%FSLAX46Y46*%
G04 Gerber Fmt 4.6, Leading zero omitted, Abs format (unit mm)*
G04 Created by KiCad (PCBNEW 8.0.3) date 2024-08-15 08:25:53*
%MOMM*%
%LPD*%
G01*
G04 APERTURE LIST*
G04 Aperture macros list*
%AMRoundRect*
0 Rectangle with rounded corners*
0 $1 Rounding radius*
0 $2 $3 $4 $5 $6 $7 $8 $9 X,Y pos of 4 corners*
0 Add a 4 corners polygon primitive as box body*
4,1,4,$2,$3,$4,$5,$6,$7,$8,$9,$2,$3,0*
0 Add four circle primitives for the rounded corners*
1,1,$1+$1,$2,$3*
1,1,$1+$1,$4,$5*
1,1,$1+$1,$6,$7*
1,1,$1+$1,$8,$9*
0 Add four rect primitives between the rounded corners*
20,1,$1+$1,$2,$3,$4,$5,0*
20,1,$1+$1,$4,$5,$6,$7,0*
20,1,$1+$1,$6,$7,$8,$9,0*
20,1,$1+$1,$8,$9,$2,$3,0*%
G04 Aperture macros list end*
%ADD10RoundRect,0.250000X-0.312500X-0.625000X0.312500X-0.625000X0.312500X0.625000X-0.312500X0.625000X0*%
%ADD11C,7.000000*%
%ADD12C,3.200000*%
%ADD13C,4.000000*%
%ADD14RoundRect,0.250000X-0.375000X-0.625000X0.375000X-0.625000X0.375000X0.625000X-0.375000X0.625000X0*%
%ADD15RoundRect,0.250000X-0.625000X0.375000X-0.625000X-0.375000X0.625000X-0.375000X0.625000X0.375000X0*%
%ADD16RoundRect,0.150000X-0.587500X-0.150000X0.587500X-0.150000X0.587500X0.150000X-0.587500X0.150000X0*%
%ADD17RoundRect,0.250000X-1.025000X0.787500X-1.025000X-0.787500X1.025000X-0.787500X1.025000X0.787500X0*%
%ADD18C,6.000000*%
%ADD19RoundRect,0.250000X2.325000X-0.987500X2.325000X0.987500X-2.325000X0.987500X-2.325000X-0.987500X0*%
%ADD20RoundRect,0.250000X-0.625000X0.312500X-0.625000X-0.312500X0.625000X-0.312500X0.625000X0.312500X0*%
%ADD21RoundRect,0.250000X-1.000000X-0.650000X1.000000X-0.650000X1.000000X0.650000X-1.000000X0.650000X0*%
%ADD22O,8.000000X3.800000*%
%ADD23R,2.000000X1.905000*%
%ADD24O,2.000000X1.905000*%
%ADD25RoundRect,0.250000X-0.650000X0.325000X-0.650000X-0.325000X0.650000X-0.325000X0.650000X0.325000X0*%
%ADD26R,2.000000X2.000000*%
%ADD27C,2.000000*%
%ADD28C,3.300000*%
%ADD29C,1.800000*%
%ADD30RoundRect,0.250000X0.375000X0.625000X-0.375000X0.625000X-0.375000X-0.625000X0.375000X-0.625000X0*%
%ADD31RoundRect,0.250000X1.025000X-0.787500X1.025000X0.787500X-1.025000X0.787500X-1.025000X-0.787500X0*%
%ADD32RoundRect,0.250000X0.312500X0.625000X-0.312500X0.625000X-0.312500X-0.625000X0.312500X-0.625000X0*%
%ADD33R,1.905000X2.000000*%
%ADD34O,1.905000X2.000000*%
%ADD35O,1.800000X1.800000*%
%ADD36O,1.500000X1.500000*%
%ADD37O,1.700000X1.700000*%
%ADD38R,3.500000X1.700000*%
%ADD39R,1.700000X1.700000*%
%ADD40R,1.700000X3.500000*%
%ADD41RoundRect,0.250000X0.625000X-0.312500X0.625000X0.312500X-0.625000X0.312500X-0.625000X-0.312500X0*%
G04 APERTURE END LIST*
D10*
%TO.C,R12*%
X86625000Y-66375000D03*
X89550000Y-66375000D03*
%TD*%
D11*
%TO.C,J5*%
X100000000Y-93100000D03*
X90000000Y-93100000D03*
%TD*%
D12*
%TO.C,H4*%
X208000000Y-32500000D03*
%TD*%
D13*
%TO.C,J22*%
X167000000Y-92000000D03*
X162000000Y-92000000D03*
%TD*%
D14*
%TO.C,D13*%
X161500000Y-73500000D03*
X164300000Y-73500000D03*
%TD*%
D15*
%TO.C,D9*%
X101000000Y-83200000D03*
X101000000Y-86000000D03*
%TD*%
D16*
%TO.C,Q6*%
X139575000Y-59100000D03*
X139575000Y-61000000D03*
X141450000Y-60050000D03*
%TD*%
D13*
%TO.C,J29*%
X167000000Y-136500000D03*
X162000000Y-136500000D03*
%TD*%
D17*
%TO.C,C3*%
X139500000Y-34000000D03*
X139500000Y-40225000D03*
%TD*%
D10*
%TO.C,R7*%
X117850000Y-64500000D03*
X120775000Y-64500000D03*
%TD*%
D18*
%TO.C,J19*%
X145150000Y-127400000D03*
X138050000Y-127400000D03*
%TD*%
D13*
%TO.C,J24*%
X167000000Y-106500000D03*
X162000000Y-106500000D03*
%TD*%
D11*
%TO.C,J28*%
X100000000Y-149600000D03*
X90000000Y-149600000D03*
%TD*%
D19*
%TO.C,D2*%
X111000000Y-41000000D03*
X111000000Y-34625000D03*
%TD*%
D20*
%TO.C,R10*%
X126850000Y-83375000D03*
X126850000Y-86300000D03*
%TD*%
%TO.C,R2*%
X104500000Y-83175000D03*
X104500000Y-86100000D03*
%TD*%
D21*
%TO.C,D6*%
X93500000Y-85100000D03*
X97500000Y-85100000D03*
%TD*%
D22*
%TO.C,F3*%
X146650000Y-78400000D03*
X137350000Y-78400000D03*
%TD*%
D14*
%TO.C,D11*%
X138700000Y-73500000D03*
X141500000Y-73500000D03*
%TD*%
D18*
%TO.C,J18*%
X145150000Y-116400000D03*
X138050000Y-116400000D03*
%TD*%
%TO.C,J10*%
X121900000Y-93400000D03*
X115200000Y-93400000D03*
%TD*%
D10*
%TO.C,R13*%
X133575000Y-62000000D03*
X136500000Y-62000000D03*
%TD*%
D14*
%TO.C,D7*%
X115000000Y-73500000D03*
X117800000Y-73500000D03*
%TD*%
D23*
%TO.C,Q7*%
X169150000Y-61220000D03*
D24*
X169150000Y-63760000D03*
X169150000Y-66300000D03*
%TD*%
D25*
%TO.C,C2*%
X157000000Y-39025000D03*
X157000000Y-41975000D03*
%TD*%
D26*
%TO.C,JGND1*%
X174880000Y-148500000D03*
D27*
X177420000Y-148500000D03*
X179960000Y-148500000D03*
X182500000Y-148500000D03*
%TD*%
D16*
%TO.C,Q8*%
X163650000Y-58300000D03*
X163650000Y-60200000D03*
X165525000Y-59250000D03*
%TD*%
D12*
%TO.C,H3*%
X208000000Y-157500000D03*
%TD*%
D18*
%TO.C,J13*%
X121900000Y-127100000D03*
X115200000Y-127100000D03*
%TD*%
D12*
%TO.C,H2*%
X83000000Y-157600000D03*
%TD*%
D11*
%TO.C,J8*%
X100000000Y-127000000D03*
X90000000Y-127000000D03*
%TD*%
D13*
%TO.C,J31*%
X167000000Y-151500000D03*
X162000000Y-151500000D03*
%TD*%
D28*
%TO.C,A2*%
X207073000Y-118705000D03*
X207073000Y-141742341D03*
D29*
X194627000Y-118705000D03*
X194627000Y-121245000D03*
X194627000Y-123785000D03*
X194627000Y-126325000D03*
X194627000Y-128865000D03*
X194627000Y-131405000D03*
X194627000Y-133945000D03*
X194627000Y-136485000D03*
X194627000Y-139025000D03*
X194627000Y-141565000D03*
%TD*%
D20*
%TO.C,R35*%
X151000000Y-39000000D03*
X151000000Y-41925000D03*
%TD*%
D13*
%TO.C,J25*%
X167000000Y-114000000D03*
X162000000Y-114000000D03*
%TD*%
%TO.C,J23*%
X167000000Y-99000000D03*
X162000000Y-99000000D03*
%TD*%
%TO.C,J4*%
X166900000Y-51200000D03*
X161900000Y-51200000D03*
%TD*%
D30*
%TO.C,D1*%
X93925000Y-54500000D03*
X91125000Y-54500000D03*
%TD*%
D10*
%TO.C,R8*%
X117925000Y-68500000D03*
X120850000Y-68500000D03*
%TD*%
D18*
%TO.C,J2*%
X124600000Y-51400000D03*
X117900000Y-51400000D03*
%TD*%
D16*
%TO.C,Q3*%
X93230000Y-59885000D03*
X93230000Y-61785000D03*
X95105000Y-60835000D03*
%TD*%
D31*
%TO.C,C5*%
X97965000Y-54225000D03*
X97965000Y-48000000D03*
%TD*%
D23*
%TO.C,Q1*%
X99855000Y-61835000D03*
D24*
X99855000Y-64375000D03*
X99855000Y-66915000D03*
%TD*%
D32*
%TO.C,R17*%
X136425000Y-73500000D03*
X133500000Y-73500000D03*
%TD*%
D18*
%TO.C,J11*%
X121700000Y-104900000D03*
X115000000Y-104900000D03*
%TD*%
D33*
%TO.C,Q9*%
X109000000Y-48500000D03*
D34*
X106460000Y-48500000D03*
X103920000Y-48500000D03*
%TD*%
D22*
%TO.C,F2*%
X123000000Y-78500000D03*
X113700000Y-78500000D03*
%TD*%
D11*
%TO.C,J9*%
X100000000Y-138300000D03*
X90000000Y-138300000D03*
%TD*%
%TO.C,J32*%
X120000000Y-38000000D03*
X130000000Y-38000000D03*
%TD*%
D18*
%TO.C,J20*%
X145000000Y-138900000D03*
X137900000Y-138900000D03*
%TD*%
D15*
%TO.C,D14*%
X170500000Y-83500000D03*
X170500000Y-86300000D03*
%TD*%
D18*
%TO.C,J12*%
X121900000Y-116400000D03*
X115200000Y-116400000D03*
%TD*%
D21*
%TO.C,D4*%
X163150000Y-85100000D03*
X167150000Y-85100000D03*
%TD*%
D32*
%TO.C,R1*%
X88425000Y-73500000D03*
X85500000Y-73500000D03*
%TD*%
D13*
%TO.C,J27*%
X167000000Y-129000000D03*
X162000000Y-129000000D03*
%TD*%
D17*
%TO.C,C4*%
X163500000Y-33887500D03*
X163500000Y-40112500D03*
%TD*%
D11*
%TO.C,J1*%
X102100000Y-39900000D03*
X92100000Y-39900000D03*
%TD*%
D35*
%TO.C,U1*%
X188885000Y-64070000D03*
D36*
X189185000Y-67100000D03*
X194035000Y-67100000D03*
D35*
X194335000Y-64070000D03*
D37*
X182720000Y-63940000D03*
D38*
X181820000Y-63940000D03*
D37*
X182720000Y-66480000D03*
D38*
X181820000Y-66480000D03*
D39*
X182720000Y-69020000D03*
D38*
X181820000Y-69020000D03*
D37*
X182720000Y-71560000D03*
D38*
X181820000Y-71560000D03*
D37*
X182720000Y-74100000D03*
D38*
X181820000Y-74100000D03*
D37*
X182720000Y-76640000D03*
D38*
X181820000Y-76640000D03*
D37*
X182720000Y-79180000D03*
D38*
X181820000Y-79180000D03*
D39*
X182720000Y-81720000D03*
D38*
X181820000Y-81720000D03*
D37*
X182720000Y-84260000D03*
D38*
X181820000Y-84260000D03*
D37*
X182720000Y-86800000D03*
D38*
X181820000Y-86800000D03*
D37*
X182720000Y-89340000D03*
D38*
X181820000Y-89340000D03*
D37*
X182720000Y-91880000D03*
D38*
X181820000Y-91880000D03*
D39*
X182720000Y-94420000D03*
D38*
X181820000Y-94420000D03*
D37*
X182720000Y-96960000D03*
D38*
X181820000Y-96960000D03*
D37*
X182720000Y-99500000D03*
D38*
X181820000Y-99500000D03*
D37*
X182720000Y-102040000D03*
D38*
X181820000Y-102040000D03*
D37*
X182720000Y-104580000D03*
D38*
X181820000Y-104580000D03*
D39*
X182720000Y-107120000D03*
D38*
X181820000Y-107120000D03*
D37*
X182720000Y-109660000D03*
D38*
X181820000Y-109660000D03*
D37*
X182720000Y-112200000D03*
D38*
X181820000Y-112200000D03*
D37*
X200500000Y-112200000D03*
D38*
X201400000Y-112200000D03*
D37*
X200500000Y-109660000D03*
D38*
X201400000Y-109660000D03*
D39*
X200500000Y-107120000D03*
D38*
X201400000Y-107120000D03*
D37*
X200500000Y-104580000D03*
D38*
X201400000Y-104580000D03*
D37*
X200500000Y-102040000D03*
D38*
X201400000Y-102040000D03*
D37*
X200500000Y-99500000D03*
D38*
X201400000Y-99500000D03*
D37*
X200500000Y-96960000D03*
D38*
X201400000Y-96960000D03*
D39*
X200500000Y-94420000D03*
D38*
X201400000Y-94420000D03*
D37*
X200500000Y-91880000D03*
D38*
X201400000Y-91880000D03*
D37*
X200500000Y-89340000D03*
D38*
X201400000Y-89340000D03*
D37*
X200500000Y-86800000D03*
D38*
X201400000Y-86800000D03*
D37*
X200500000Y-84260000D03*
D38*
X201400000Y-84260000D03*
D39*
X200500000Y-81720000D03*
D38*
X201400000Y-81720000D03*
D37*
X200500000Y-79180000D03*
D38*
X201400000Y-79180000D03*
D37*
X200500000Y-76640000D03*
D38*
X201400000Y-76640000D03*
D37*
X200500000Y-74100000D03*
D38*
X201400000Y-74100000D03*
D37*
X200500000Y-71560000D03*
D38*
X201400000Y-71560000D03*
D39*
X200500000Y-69020000D03*
D38*
X201400000Y-69020000D03*
D37*
X200500000Y-66480000D03*
D38*
X201400000Y-66480000D03*
D37*
X200500000Y-63940000D03*
D38*
X201400000Y-63940000D03*
D37*
X189070000Y-111970000D03*
D40*
X189070000Y-112870000D03*
D39*
X191610000Y-111970000D03*
D40*
X191610000Y-112870000D03*
D37*
X194150000Y-111970000D03*
D40*
X194150000Y-112870000D03*
%TD*%
D21*
%TO.C,D5*%
X116350000Y-85000000D03*
X120350000Y-85000000D03*
%TD*%
D16*
%TO.C,Q4*%
X118275000Y-59000000D03*
X118275000Y-60900000D03*
X120150000Y-59950000D03*
%TD*%
D13*
%TO.C,J30*%
X167000000Y-144000000D03*
X162000000Y-144000000D03*
%TD*%
D10*
%TO.C,R3*%
X112425000Y-62000000D03*
X115350000Y-62000000D03*
%TD*%
D18*
%TO.C,J3*%
X145300000Y-51400000D03*
X138200000Y-51400000D03*
%TD*%
D32*
%TO.C,R6*%
X95550000Y-64335000D03*
X92625000Y-64335000D03*
%TD*%
D10*
%TO.C,R19*%
X157800000Y-60800000D03*
X160725000Y-60800000D03*
%TD*%
D12*
%TO.C,H1*%
X83000000Y-32500000D03*
%TD*%
D32*
%TO.C,R9*%
X112425000Y-73500000D03*
X109500000Y-73500000D03*
%TD*%
D18*
%TO.C,J14*%
X121900000Y-138400000D03*
X115200000Y-138400000D03*
%TD*%
%TO.C,J17*%
X145000000Y-104900000D03*
X137900000Y-104900000D03*
%TD*%
D22*
%TO.C,F1*%
X100000000Y-78600000D03*
X90700000Y-78600000D03*
%TD*%
D10*
%TO.C,R16*%
X139075000Y-68500000D03*
X142000000Y-68500000D03*
%TD*%
D32*
%TO.C,R34*%
X109000000Y-54500000D03*
X106075000Y-54500000D03*
%TD*%
D23*
%TO.C,Q5*%
X146075000Y-61420000D03*
D24*
X146075000Y-63960000D03*
X146075000Y-66500000D03*
%TD*%
D11*
%TO.C,J6*%
X100000000Y-104400000D03*
X90000000Y-104400000D03*
%TD*%
D10*
%TO.C,R14*%
X133500000Y-66000000D03*
X136425000Y-66000000D03*
%TD*%
%TO.C,R21*%
X163225000Y-63800000D03*
X166150000Y-63800000D03*
%TD*%
%TO.C,R5*%
X92625000Y-68335000D03*
X95550000Y-68335000D03*
%TD*%
D23*
%TO.C,Q2*%
X123775000Y-61460000D03*
D24*
X123775000Y-64000000D03*
X123775000Y-66540000D03*
%TD*%
D25*
%TO.C,C1*%
X145500000Y-39000000D03*
X145500000Y-41950000D03*
%TD*%
D21*
%TO.C,D3*%
X139150000Y-85000000D03*
X143150000Y-85000000D03*
%TD*%
D33*
%TO.C,Q11*%
X87345000Y-50000000D03*
D34*
X89885000Y-50000000D03*
X92425000Y-50000000D03*
%TD*%
D14*
%TO.C,D8*%
X90700000Y-73500000D03*
X93500000Y-73500000D03*
%TD*%
D18*
%TO.C,J16*%
X145250000Y-93400000D03*
X138150000Y-93400000D03*
%TD*%
%TO.C,J21*%
X145000000Y-150400000D03*
X137900000Y-150400000D03*
%TD*%
D10*
%TO.C,R20*%
X157800000Y-66300000D03*
X160725000Y-66300000D03*
%TD*%
D20*
%TO.C,R24*%
X174150000Y-83475000D03*
X174150000Y-86400000D03*
%TD*%
D33*
%TO.C,U2*%
X151080000Y-33887500D03*
D34*
X148540000Y-33887500D03*
X146000000Y-33887500D03*
%TD*%
D32*
%TO.C,R33*%
X88425000Y-54500000D03*
X85500000Y-54500000D03*
%TD*%
D41*
%TO.C,R36*%
X157000000Y-36425000D03*
X157000000Y-33500000D03*
%TD*%
D10*
%TO.C,R22*%
X163225000Y-67800000D03*
X166150000Y-67800000D03*
%TD*%
D15*
%TO.C,D12*%
X147000000Y-83700000D03*
X147000000Y-86500000D03*
%TD*%
D18*
%TO.C,J15*%
X121700000Y-149900000D03*
X115000000Y-149900000D03*
%TD*%
D13*
%TO.C,J26*%
X167000000Y-121500000D03*
X162000000Y-121500000D03*
%TD*%
D22*
%TO.C,F4*%
X170150000Y-78600000D03*
X160850000Y-78600000D03*
%TD*%
D26*
%TO.C,VCC1*%
X187460000Y-148500000D03*
D27*
X190000000Y-148500000D03*
X192540000Y-148500000D03*
X195080000Y-148500000D03*
%TD*%
D15*
%TO.C,D10*%
X123500000Y-83700000D03*
X123500000Y-86500000D03*
%TD*%
D10*
%TO.C,R15*%
X139075000Y-64500000D03*
X142000000Y-64500000D03*
%TD*%
%TO.C,R11*%
X86625000Y-62375000D03*
X89550000Y-62375000D03*
%TD*%
D32*
%TO.C,R23*%
X159000000Y-73500000D03*
X156075000Y-73500000D03*
%TD*%
D10*
%TO.C,R4*%
X112350000Y-66000000D03*
X115275000Y-66000000D03*
%TD*%
D20*
%TO.C,R18*%
X151350000Y-83475000D03*
X151350000Y-86400000D03*
%TD*%
D26*
%TO.C,ADC1*%
X199880000Y-148500000D03*
D27*
X202420000Y-148500000D03*
X204960000Y-148500000D03*
X207500000Y-148500000D03*
%TD*%
D11*
%TO.C,J7*%
X100000000Y-115700000D03*
X90000000Y-115700000D03*
%TD*%
D28*
%TO.C,A1*%
X187500000Y-118640000D03*
X187500000Y-141677341D03*
D29*
X175054000Y-118640000D03*
X175054000Y-121180000D03*
X175054000Y-123720000D03*
X175054000Y-126260000D03*
X175054000Y-128800000D03*
X175054000Y-131340000D03*
X175054000Y-133880000D03*
X175054000Y-136420000D03*
X175054000Y-138960000D03*
X175054000Y-141500000D03*
%TD*%
M02*
