M48
; DRILL file {KiCad 8.0.5} date 2024-11-01T15:38:34+0100
; FORMAT={-:-/ absolute / inch / decimal}
; #@! TF.CreationDate,2024-11-01T15:38:34+01:00
; #@! TF.GenerationSoftware,Kicad,Pcbnew,8.0.5
; #@! TF.FileFunction,Plated,1,2,PTH
FMAT,2
INCH
; #@! TA.AperFunction,Plated,PTH,ViaDrill
T1C0.0157
; #@! TA.AperFunction,Plated,PTH,ComponentDrill
T2C0.0315
; #@! TA.AperFunction,Plated,PTH,ComponentDrill
T3C0.0402
; #@! TA.AperFunction,Plated,PTH,ComponentDrill
T4C0.0433
; #@! TA.AperFunction,Plated,PTH,ComponentDrill
T5C0.0472
; #@! TA.AperFunction,Plated,PTH,ComponentDrill
T6C0.0787
; #@! TA.AperFunction,Plated,PTH,ComponentDrill
T7C0.1181
; #@! TA.AperFunction,Plated,PTH,ComponentDrill
T8C0.1220
; #@! TA.AperFunction,Plated,PTH,ComponentDrill
T9C0.1772
; #@! TA.AperFunction,Plated,PTH,ComponentDrill
T10C0.1811
; #@! TA.AperFunction,Plated,PTH,ComponentDrill
T11C0.2362
%
G90
G05
T1
X3.4252Y-2.2638
X4.5472Y-2.2352
X5.2756Y-2.2156
X6.0236Y-1.4961
X6.1575Y-2.1959
X6.6929Y-4.626
X6.811Y-5.6693
X6.8504Y-5.7087
X6.8898Y-5.748
X7.1654Y-5.0394
X7.2244Y-5.1378
X7.2244Y-5.2953
X7.2354Y-4.311
X7.2638Y-4.5669
X7.2945Y-4.311
X7.3622Y-3.1496
X7.4606Y-3.1496
X7.511Y-2.7953
X7.5984Y-3.0709
X7.5984Y-3.1693
X8.1961Y-3.626
X8.1961Y-3.815
X8.2039Y-3.437
T2
X5.0787Y-1.981
X5.0787Y-2.0794
X6.063Y-1.981
X6.063Y-2.0794
X6.8898Y-1.9882
X6.8898Y-2.0866
X6.8919Y-4.6709
X6.8919Y-4.7709
X6.8919Y-4.8709
X6.8919Y-4.9709
X6.8919Y-5.0709
X6.8919Y-5.1709
X6.8919Y-5.2709
X6.8919Y-5.3709
X6.8919Y-5.4709
X6.8919Y-5.5709
X7.6625Y-4.6734
X7.6625Y-4.7734
X7.6625Y-4.8734
X7.6625Y-4.9734
X7.6625Y-5.0734
X7.6625Y-5.1734
X7.6625Y-5.2734
X7.6625Y-5.3734
X7.6625Y-5.4734
X7.6625Y-5.5734
T3
X7.1457Y-2.5173
X7.1457Y-2.6173
X7.1457Y-2.7173
X7.1457Y-2.8173
X7.1457Y-2.9173
X7.1457Y-3.0173
X7.1457Y-3.1173
X7.1457Y-3.2173
X7.1457Y-3.3173
X7.1457Y-3.4173
X7.1457Y-3.5173
X7.1457Y-3.6173
X7.1457Y-3.7173
X7.1457Y-3.8173
X7.1457Y-3.9173
X7.1457Y-4.0173
X7.1457Y-4.1173
X7.1457Y-4.2173
X7.1457Y-4.3173
X7.1457Y-4.4173
X7.3957Y-4.4083
X7.4957Y-4.4083
X7.5957Y-4.4083
X7.8457Y-2.5173
X7.8457Y-2.6173
X7.8457Y-2.7173
X7.8457Y-2.8173
X7.8457Y-2.9173
X7.8457Y-3.0173
X7.8457Y-3.1173
X7.8457Y-3.2173
X7.8457Y-3.3173
X7.8457Y-3.4173
X7.8457Y-3.5173
X7.8457Y-3.6173
X7.8457Y-3.7173
X7.8457Y-3.8173
X7.8457Y-3.9173
X7.8457Y-4.0173
X7.8457Y-4.1173
X7.8457Y-4.2173
X7.8457Y-4.3173
X7.8457Y-4.4173
T4
X3.9764Y-2.4181
X3.9764Y-2.5181
X3.9764Y-2.6181
X4.9409Y-2.4197
X4.9409Y-2.5197
X4.9409Y-2.6197
X5.748Y-1.3342
X5.8071Y-2.4181
X5.8071Y-2.5181
X5.8071Y-2.6181
X5.848Y-1.3342
X5.948Y-1.3342
X6.7717Y-2.4197
X6.7717Y-2.5197
X6.7717Y-2.6197
T5
X3.347Y-2.0276
X3.6422Y-2.0276
X6.885Y-5.8465
X6.985Y-5.8465
X7.085Y-5.8465
X7.185Y-5.8465
X7.3803Y-5.8465
X7.4803Y-5.8465
X7.5803Y-5.8465
X7.6803Y-5.8465
X7.8693Y-5.8465
X7.9693Y-5.8465
X8.0693Y-5.8465
X8.1496Y-4.102
X8.1496Y-4.202
X8.1496Y-4.302
X8.1496Y-4.402
X8.1555Y-3.0404
X8.1555Y-3.1404
X8.1693Y-5.8465
T7
X6.374Y-2.0157
X6.378Y-3.622
X6.378Y-3.8976
X6.378Y-4.1929
X6.378Y-4.4882
X6.378Y-4.7835
X6.378Y-5.0787
X6.378Y-5.374
X6.378Y-5.6693
X6.378Y-5.9646
X6.5709Y-2.0157
X6.5748Y-3.622
X6.5748Y-3.8976
X6.5748Y-4.1929
X6.5748Y-4.4882
X6.5748Y-4.7835
X6.5748Y-5.0787
X6.5748Y-5.374
X6.5748Y-5.6693
X6.5748Y-5.9646
T8
X7.3819Y-4.6709
X7.3819Y-5.5778
X8.1525Y-4.6734
X8.1525Y-5.5804
T9
X4.4902Y-2.0236
X4.5276Y-4.1299
X4.5276Y-5.9016
X4.5354Y-3.6772
X4.5354Y-4.5827
X4.5354Y-5.0039
X4.5354Y-5.4488
X4.7539Y-2.0236
X4.7913Y-4.1299
X4.7913Y-5.9016
X4.7992Y-3.6772
X4.7992Y-4.5827
X4.7992Y-5.0039
X4.7992Y-5.4488
T10
X5.4291Y-4.1299
X5.4291Y-5.4685
X5.4291Y-5.9213
X5.435Y-4.5827
X5.435Y-5.0157
X5.439Y-3.6772
X5.4409Y-2.0236
X5.7087Y-4.1299
X5.7087Y-5.4685
X5.7087Y-5.9213
X5.7146Y-4.5827
X5.7146Y-5.0157
X5.7185Y-3.6772
X5.7205Y-2.0236
T11
X3.5433Y-3.6654
X3.5433Y-4.1102
X3.5433Y-4.5551
X3.5433Y-5.0
X3.5433Y-5.4449
X3.5433Y-5.8898
X3.622Y-1.4961
X3.937Y-3.6654
X3.937Y-4.1102
X3.937Y-4.5551
X3.937Y-5.0
X3.937Y-5.4449
X3.937Y-5.8898
X4.0157Y-1.4961
X4.7244Y-1.4961
X5.1181Y-1.4961
T6
G00X3.6496Y-3.0945
M15
G01X3.4921Y-3.0945
M16
G05
G00X4.0157Y-3.0945
M15
G01X3.8583Y-3.0945
M16
G05
G00X4.5551Y-3.0906
M15
G01X4.3976Y-3.0906
M16
G05
G00X4.9213Y-3.0906
M15
G01X4.7638Y-3.0906
M16
G05
G00X5.4862Y-3.0866
M15
G01X5.3287Y-3.0866
M16
G05
G00X5.8524Y-3.0866
M15
G01X5.6949Y-3.0866
M16
G05
G00X6.4114Y-3.0945
M15
G01X6.2539Y-3.0945
M16
G05
G00X6.7776Y-3.0945
M15
G01X6.6201Y-3.0945
M16
G05
M30
