%TF.GenerationSoftware,KiCad,Pcbnew,8.0.5*%
%TF.CreationDate,2024-12-16T08:47:45+01:00*%
%TF.ProjectId,PowerBoard,506f7765-7242-46f6-9172-642e6b696361,rev?*%
%TF.SameCoordinates,Original*%
%TF.FileFunction,Drillmap*%
%TF.FilePolarity,Positive*%
%FSLAX45Y45*%
G04 Gerber Fmt 4.5, Leading zero omitted, Abs format (unit mm)*
G04 Created by KiCad (PCBNEW 8.0.5) date 2024-12-16 08:47:45*
%MOMM*%
%LPD*%
G01*
G04 APERTURE LIST*
%ADD10C,0.100000*%
%ADD11C,0.200000*%
%ADD12C,0.102000*%
%ADD13C,0.120000*%
%ADD14C,0.270000*%
%ADD15C,0.300000*%
%ADD16C,0.450000*%
%ADD17C,0.600000*%
G04 APERTURE END LIST*
D10*
X17525000Y-1800000D02*
X2525000Y-1800000D01*
X2525000Y-1800000D02*
X2525000Y-16800000D01*
X17525000Y-16800000D02*
X17525000Y-1800000D01*
X2525000Y-16800000D02*
X17525000Y-16800000D01*
D11*
D10*
X5140000Y-3240000D02*
X5160000Y-3260000D01*
X5160000Y-3240000D02*
X5140000Y-3260000D01*
X5190000Y-3290000D02*
X5210000Y-3310000D01*
X5210000Y-3290000D02*
X5190000Y-3310000D01*
X7040000Y-4390000D02*
X7060000Y-4410000D01*
X7060000Y-4390000D02*
X7040000Y-4410000D01*
X8090000Y-2540000D02*
X8110000Y-2560000D01*
X8110000Y-2540000D02*
X8090000Y-2560000D01*
X8140000Y-2640000D02*
X8160000Y-2660000D01*
X8160000Y-2640000D02*
X8140000Y-2660000D01*
X8240000Y-2790000D02*
X8260000Y-2810000D01*
X8260000Y-2790000D02*
X8240000Y-2810000D01*
X8290000Y-2890000D02*
X8310000Y-2910000D01*
X8310000Y-2890000D02*
X8290000Y-2910000D01*
X8340000Y-2990000D02*
X8360000Y-3010000D01*
X8360000Y-2990000D02*
X8340000Y-3010000D01*
X8390000Y-3040000D02*
X8410000Y-3060000D01*
X8410000Y-3040000D02*
X8390000Y-3060000D01*
X8590000Y-2640000D02*
X8610000Y-2660000D01*
X8610000Y-2640000D02*
X8590000Y-2660000D01*
X8740000Y-4290000D02*
X8760000Y-4310000D01*
X8760000Y-4290000D02*
X8740000Y-4310000D01*
X9090000Y-2740000D02*
X9110000Y-2760000D01*
X9110000Y-2740000D02*
X9090000Y-2760000D01*
X9240000Y-2740000D02*
X9260000Y-2760000D01*
X9260000Y-2740000D02*
X9240000Y-2760000D01*
X9240000Y-3090000D02*
X9260000Y-3110000D01*
X9260000Y-3090000D02*
X9240000Y-3110000D01*
X9290000Y-2455000D02*
X9310000Y-2475000D01*
X9310000Y-2455000D02*
X9290000Y-2475000D01*
X9290000Y-2540000D02*
X9310000Y-2560000D01*
X9310000Y-2540000D02*
X9290000Y-2560000D01*
X9290000Y-2940000D02*
X9310000Y-2960000D01*
X9310000Y-2940000D02*
X9290000Y-2960000D01*
X9330000Y-2830000D02*
X9350000Y-2850000D01*
X9350000Y-2830000D02*
X9330000Y-2850000D01*
X9340000Y-2405000D02*
X9360000Y-2425000D01*
X9360000Y-2405000D02*
X9340000Y-2425000D01*
X9693669Y-2740000D02*
X9713669Y-2760000D01*
X9713669Y-2740000D02*
X9693669Y-2760000D01*
X10040000Y-2740000D02*
X10060000Y-2760000D01*
X10060000Y-2740000D02*
X10040000Y-2760000D01*
X10140000Y-2790000D02*
X10160000Y-2810000D01*
X10160000Y-2790000D02*
X10140000Y-2810000D01*
X10140000Y-3090000D02*
X10160000Y-3110000D01*
X10160000Y-3090000D02*
X10140000Y-3110000D01*
X10190000Y-2940000D02*
X10210000Y-2960000D01*
X10210000Y-2940000D02*
X10190000Y-2960000D01*
X10690000Y-4390000D02*
X10710000Y-4410000D01*
X10710000Y-4390000D02*
X10690000Y-4410000D01*
X10940000Y-2792500D02*
X10960000Y-2812500D01*
X10960000Y-2792500D02*
X10940000Y-2812500D01*
X10990000Y-2640000D02*
X11010000Y-2660000D01*
X11010000Y-2640000D02*
X10990000Y-2660000D01*
X11040000Y-2790000D02*
X11060000Y-2810000D01*
X11060000Y-2790000D02*
X11040000Y-2810000D01*
X11040000Y-3240000D02*
X11060000Y-3260000D01*
X11060000Y-3240000D02*
X11040000Y-3260000D01*
X11090000Y-2940000D02*
X11110000Y-2960000D01*
X11110000Y-2940000D02*
X11090000Y-2960000D01*
X11240000Y-3540000D02*
X11260000Y-3560000D01*
X11260000Y-3540000D02*
X11240000Y-3560000D01*
X11390000Y-3540000D02*
X11410000Y-3560000D01*
X11410000Y-3540000D02*
X11390000Y-3560000D01*
X11440000Y-2640000D02*
X11460000Y-2660000D01*
X11460000Y-2640000D02*
X11440000Y-2660000D01*
X11740000Y-2690000D02*
X11760000Y-2710000D01*
X11760000Y-2690000D02*
X11740000Y-2710000D01*
X11840000Y-2837500D02*
X11860000Y-2857500D01*
X11860000Y-2837500D02*
X11840000Y-2857500D01*
X11940000Y-2790000D02*
X11960000Y-2810000D01*
X11960000Y-2790000D02*
X11940000Y-2810000D01*
X11940000Y-3240000D02*
X11960000Y-3260000D01*
X11960000Y-3240000D02*
X11940000Y-3260000D01*
X11990000Y-2940000D02*
X12010000Y-2960000D01*
X12010000Y-2940000D02*
X11990000Y-2960000D01*
X12190000Y-2590000D02*
X12210000Y-2610000D01*
X12210000Y-2590000D02*
X12190000Y-2610000D01*
X12590000Y-2890000D02*
X12610000Y-2910000D01*
X12610000Y-2890000D02*
X12590000Y-2910000D01*
X12640000Y-2590000D02*
X12660000Y-2610000D01*
X12660000Y-2590000D02*
X12640000Y-2610000D01*
X12640000Y-2690000D02*
X12660000Y-2710000D01*
X12660000Y-2690000D02*
X12640000Y-2710000D01*
X12890000Y-3140000D02*
X12910000Y-3160000D01*
X12910000Y-3140000D02*
X12890000Y-3160000D01*
X12990000Y-3140000D02*
X13010000Y-3160000D01*
X13010000Y-3140000D02*
X12990000Y-3160000D01*
X6840000Y-4525000D02*
G75*
G02*
X6810000Y-4525000I-15000J0D01*
G01*
X6810000Y-4525000D02*
G75*
G02*
X6840000Y-4525000I15000J0D01*
G01*
X8565000Y-4500000D02*
G75*
G02*
X8535000Y-4500000I-15000J0D01*
G01*
X8535000Y-4500000D02*
G75*
G02*
X8565000Y-4500000I15000J0D01*
G01*
X10515000Y-4500000D02*
G75*
G02*
X10485000Y-4500000I-15000J0D01*
G01*
X10485000Y-4500000D02*
G75*
G02*
X10515000Y-4500000I15000J0D01*
G01*
X10615000Y-2800000D02*
G75*
G02*
X10585000Y-2800000I-15000J0D01*
G01*
X10585000Y-2800000D02*
G75*
G02*
X10615000Y-2800000I15000J0D01*
G01*
X10865000Y-2750000D02*
G75*
G02*
X10835000Y-2750000I-15000J0D01*
G01*
X10835000Y-2750000D02*
G75*
G02*
X10865000Y-2750000I15000J0D01*
G01*
X12640000Y-4325000D02*
G75*
G02*
X12610000Y-4325000I-15000J0D01*
G01*
X12610000Y-4325000D02*
G75*
G02*
X12640000Y-4325000I15000J0D01*
G01*
X12640000Y-4475000D02*
G75*
G02*
X12610000Y-4475000I-15000J0D01*
G01*
X12610000Y-4475000D02*
G75*
G02*
X12640000Y-4475000I15000J0D01*
G01*
X12840000Y-2975000D02*
G75*
G02*
X12810000Y-2975000I-15000J0D01*
G01*
X12810000Y-2975000D02*
G75*
G02*
X12840000Y-2975000I15000J0D01*
G01*
X12865000Y-2350000D02*
G75*
G02*
X12835000Y-2350000I-15000J0D01*
G01*
X12835000Y-2350000D02*
G75*
G02*
X12865000Y-2350000I15000J0D01*
G01*
X13165000Y-2750000D02*
G75*
G02*
X13135000Y-2750000I-15000J0D01*
G01*
X13135000Y-2750000D02*
G75*
G02*
X13165000Y-2750000I15000J0D01*
G01*
X2900000Y-3180000D02*
X2900000Y-3220000D01*
X2880000Y-3200000D02*
X2920000Y-3200000D01*
X3250000Y-3630000D02*
X3250000Y-3670000D01*
X3230000Y-3650000D02*
X3270000Y-3650000D01*
X3500000Y-7130000D02*
X3500000Y-7170000D01*
X3480000Y-7150000D02*
X3520000Y-7150000D01*
X3650000Y-3670500D02*
X3650000Y-3710500D01*
X3630000Y-3690500D02*
X3670000Y-3690500D01*
X4000000Y-6280000D02*
X4000000Y-6320000D01*
X3980000Y-6300000D02*
X4020000Y-6300000D01*
X4380000Y-3530000D02*
X4380000Y-3570000D01*
X4360000Y-3550000D02*
X4400000Y-3550000D01*
X4380000Y-4030000D02*
X4380000Y-4070000D01*
X4360000Y-4050000D02*
X4400000Y-4050000D01*
X5500000Y-7130000D02*
X5500000Y-7170000D01*
X5480000Y-7150000D02*
X5520000Y-7150000D01*
X6050000Y-6280000D02*
X6050000Y-6320000D01*
X6030000Y-6300000D02*
X6070000Y-6300000D01*
X6400000Y-5680000D02*
X6400000Y-5720000D01*
X6380000Y-5700000D02*
X6420000Y-5700000D01*
X6636500Y-6043500D02*
X6636500Y-6083500D01*
X6616500Y-6063500D02*
X6656500Y-6063500D01*
X6650000Y-6180000D02*
X6650000Y-6220000D01*
X6630000Y-6200000D02*
X6670000Y-6200000D01*
X7050000Y-7180000D02*
X7050000Y-7220000D01*
X7030000Y-7200000D02*
X7070000Y-7200000D01*
X7403750Y-7133750D02*
X7403750Y-7173750D01*
X7383750Y-7153750D02*
X7423750Y-7153750D01*
X8200000Y-6280000D02*
X8200000Y-6320000D01*
X8180000Y-6300000D02*
X8220000Y-6300000D01*
X8550000Y-5680000D02*
X8550000Y-5720000D01*
X8530000Y-5700000D02*
X8570000Y-5700000D01*
X8790500Y-6170500D02*
X8790500Y-6210500D01*
X8770500Y-6190500D02*
X8810500Y-6190500D01*
X8800000Y-6030000D02*
X8800000Y-6070000D01*
X8780000Y-6050000D02*
X8820000Y-6050000D01*
X9050000Y-7180000D02*
X9050000Y-7220000D01*
X9030000Y-7200000D02*
X9070000Y-7200000D01*
X9653750Y-7183750D02*
X9653750Y-7223750D01*
X9633750Y-7203750D02*
X9673750Y-7203750D01*
X9900000Y-2330000D02*
X9900000Y-2370000D01*
X9880000Y-2350000D02*
X9920000Y-2350000D01*
X10300000Y-6280000D02*
X10300000Y-6320000D01*
X10280000Y-6300000D02*
X10320000Y-6300000D01*
X10650000Y-5730000D02*
X10650000Y-5770000D01*
X10630000Y-5750000D02*
X10670000Y-5750000D01*
X10890500Y-6220500D02*
X10890500Y-6260500D01*
X10870500Y-6240500D02*
X10910500Y-6240500D01*
X10900000Y-6080000D02*
X10900000Y-6120000D01*
X10880000Y-6100000D02*
X10920000Y-6100000D01*
X11200000Y-7180000D02*
X11200000Y-7220000D01*
X11180000Y-7200000D02*
X11220000Y-7200000D01*
X11750000Y-7183750D02*
X11750000Y-7223750D01*
X11730000Y-7203750D02*
X11770000Y-7203750D01*
X12250000Y-6330000D02*
X12250000Y-6370000D01*
X12230000Y-6350000D02*
X12270000Y-6350000D01*
X12600000Y-5730000D02*
X12600000Y-5770000D01*
X12580000Y-5750000D02*
X12620000Y-5750000D01*
X12840500Y-6220500D02*
X12840500Y-6260500D01*
X12820500Y-6240500D02*
X12860500Y-6240500D01*
X12850000Y-6080000D02*
X12850000Y-6120000D01*
X12830000Y-6100000D02*
X12870000Y-6100000D01*
X13100000Y-3330000D02*
X13100000Y-3370000D01*
X13080000Y-3350000D02*
X13120000Y-3350000D01*
X13200000Y-7180000D02*
X13200000Y-7220000D01*
X13180000Y-7200000D02*
X13220000Y-7200000D01*
X13900000Y-2630000D02*
X13900000Y-2670000D01*
X13880000Y-2650000D02*
X13920000Y-2650000D01*
X14100000Y-2230000D02*
X14100000Y-2270000D01*
X14080000Y-2250000D02*
X14120000Y-2250000D01*
X14155000Y-3075000D02*
X14155000Y-3115000D01*
X14135000Y-3095000D02*
X14175000Y-3095000D01*
X14650000Y-4980000D02*
X14650000Y-5020000D01*
X14630000Y-5000000D02*
X14670000Y-5000000D01*
X14750000Y-4880000D02*
X14750000Y-4920000D01*
X14730000Y-4900000D02*
X14770000Y-4900000D01*
X15100000Y-3480000D02*
X15100000Y-3520000D01*
X15080000Y-3500000D02*
X15120000Y-3500000D01*
X15250000Y-3830000D02*
X15250000Y-3870000D01*
X15230000Y-3850000D02*
X15270000Y-3850000D01*
X15350000Y-4680000D02*
X15350000Y-4720000D01*
X15330000Y-4700000D02*
X15370000Y-4700000D01*
X15600000Y-5030000D02*
X15600000Y-5070000D01*
X15580000Y-5050000D02*
X15620000Y-5050000D01*
X15600000Y-5130000D02*
X15600000Y-5170000D01*
X15580000Y-5150000D02*
X15620000Y-5150000D01*
D12*
X14247063Y-4223063D02*
X14247063Y-4150937D01*
X14174937Y-4150937D01*
X14174937Y-4223063D01*
X14247063Y-4223063D01*
X14247063Y-4477063D02*
X14247063Y-4404937D01*
X14174937Y-4404937D01*
X14174937Y-4477063D01*
X14247063Y-4477063D01*
X14247063Y-4731063D02*
X14247063Y-4658937D01*
X14174937Y-4658937D01*
X14174937Y-4731063D01*
X14247063Y-4731063D01*
X14247063Y-4985063D02*
X14247063Y-4912937D01*
X14174937Y-4912937D01*
X14174937Y-4985063D01*
X14247063Y-4985063D01*
X14247063Y-5239063D02*
X14247063Y-5166937D01*
X14174937Y-5166937D01*
X14174937Y-5239063D01*
X14247063Y-5239063D01*
X14247063Y-5493063D02*
X14247063Y-5420937D01*
X14174937Y-5420937D01*
X14174937Y-5493063D01*
X14247063Y-5493063D01*
X14247063Y-5747063D02*
X14247063Y-5674937D01*
X14174937Y-5674937D01*
X14174937Y-5747063D01*
X14247063Y-5747063D01*
X14247063Y-6001063D02*
X14247063Y-5928937D01*
X14174937Y-5928937D01*
X14174937Y-6001063D01*
X14247063Y-6001063D01*
X14247063Y-6255063D02*
X14247063Y-6182937D01*
X14174937Y-6182937D01*
X14174937Y-6255063D01*
X14247063Y-6255063D01*
X14247063Y-6509063D02*
X14247063Y-6436937D01*
X14174937Y-6436937D01*
X14174937Y-6509063D01*
X14247063Y-6509063D01*
X14247063Y-6763063D02*
X14247063Y-6690937D01*
X14174937Y-6690937D01*
X14174937Y-6763063D01*
X14247063Y-6763063D01*
X14247063Y-7017063D02*
X14247063Y-6944937D01*
X14174937Y-6944937D01*
X14174937Y-7017063D01*
X14247063Y-7017063D01*
X14247063Y-7271063D02*
X14247063Y-7198937D01*
X14174937Y-7198937D01*
X14174937Y-7271063D01*
X14247063Y-7271063D01*
X14247063Y-7525063D02*
X14247063Y-7452937D01*
X14174937Y-7452937D01*
X14174937Y-7525063D01*
X14247063Y-7525063D01*
X14247063Y-7779063D02*
X14247063Y-7706937D01*
X14174937Y-7706937D01*
X14174937Y-7779063D01*
X14247063Y-7779063D01*
X14247063Y-8033063D02*
X14247063Y-7960937D01*
X14174937Y-7960937D01*
X14174937Y-8033063D01*
X14247063Y-8033063D01*
X14247063Y-8287063D02*
X14247063Y-8214937D01*
X14174937Y-8214937D01*
X14174937Y-8287063D01*
X14247063Y-8287063D01*
X14247063Y-8541063D02*
X14247063Y-8468937D01*
X14174937Y-8468937D01*
X14174937Y-8541063D01*
X14247063Y-8541063D01*
X14247063Y-8795063D02*
X14247063Y-8722937D01*
X14174937Y-8722937D01*
X14174937Y-8795063D01*
X14247063Y-8795063D01*
X14247063Y-9049063D02*
X14247063Y-8976937D01*
X14174937Y-8976937D01*
X14174937Y-9049063D01*
X14247063Y-9049063D01*
X14882063Y-9026063D02*
X14882063Y-8953937D01*
X14809937Y-8953937D01*
X14809937Y-9026063D01*
X14882063Y-9026063D01*
X15136063Y-9026063D02*
X15136063Y-8953937D01*
X15063937Y-8953937D01*
X15063937Y-9026063D01*
X15136063Y-9026063D01*
X15390063Y-9026063D02*
X15390063Y-8953937D01*
X15317937Y-8953937D01*
X15317937Y-9026063D01*
X15390063Y-9026063D01*
X16025063Y-4223063D02*
X16025063Y-4150937D01*
X15952937Y-4150937D01*
X15952937Y-4223063D01*
X16025063Y-4223063D01*
X16025063Y-4477063D02*
X16025063Y-4404937D01*
X15952937Y-4404937D01*
X15952937Y-4477063D01*
X16025063Y-4477063D01*
X16025063Y-4731063D02*
X16025063Y-4658937D01*
X15952937Y-4658937D01*
X15952937Y-4731063D01*
X16025063Y-4731063D01*
X16025063Y-4985063D02*
X16025063Y-4912937D01*
X15952937Y-4912937D01*
X15952937Y-4985063D01*
X16025063Y-4985063D01*
X16025063Y-5239063D02*
X16025063Y-5166937D01*
X15952937Y-5166937D01*
X15952937Y-5239063D01*
X16025063Y-5239063D01*
X16025063Y-5493063D02*
X16025063Y-5420937D01*
X15952937Y-5420937D01*
X15952937Y-5493063D01*
X16025063Y-5493063D01*
X16025063Y-5747063D02*
X16025063Y-5674937D01*
X15952937Y-5674937D01*
X15952937Y-5747063D01*
X16025063Y-5747063D01*
X16025063Y-6001063D02*
X16025063Y-5928937D01*
X15952937Y-5928937D01*
X15952937Y-6001063D01*
X16025063Y-6001063D01*
X16025063Y-6255063D02*
X16025063Y-6182937D01*
X15952937Y-6182937D01*
X15952937Y-6255063D01*
X16025063Y-6255063D01*
X16025063Y-6509063D02*
X16025063Y-6436937D01*
X15952937Y-6436937D01*
X15952937Y-6509063D01*
X16025063Y-6509063D01*
X16025063Y-6763063D02*
X16025063Y-6690937D01*
X15952937Y-6690937D01*
X15952937Y-6763063D01*
X16025063Y-6763063D01*
X16025063Y-7017063D02*
X16025063Y-6944937D01*
X15952937Y-6944937D01*
X15952937Y-7017063D01*
X16025063Y-7017063D01*
X16025063Y-7271063D02*
X16025063Y-7198937D01*
X15952937Y-7198937D01*
X15952937Y-7271063D01*
X16025063Y-7271063D01*
X16025063Y-7525063D02*
X16025063Y-7452937D01*
X15952937Y-7452937D01*
X15952937Y-7525063D01*
X16025063Y-7525063D01*
X16025063Y-7779063D02*
X16025063Y-7706937D01*
X15952937Y-7706937D01*
X15952937Y-7779063D01*
X16025063Y-7779063D01*
X16025063Y-8033063D02*
X16025063Y-7960937D01*
X15952937Y-7960937D01*
X15952937Y-8033063D01*
X16025063Y-8033063D01*
X16025063Y-8287063D02*
X16025063Y-8214937D01*
X15952937Y-8214937D01*
X15952937Y-8287063D01*
X16025063Y-8287063D01*
X16025063Y-8541063D02*
X16025063Y-8468937D01*
X15952937Y-8468937D01*
X15952937Y-8541063D01*
X16025063Y-8541063D01*
X16025063Y-8795063D02*
X16025063Y-8722937D01*
X15952937Y-8722937D01*
X15952937Y-8795063D01*
X16025063Y-8795063D01*
X16025063Y-9049063D02*
X16025063Y-8976937D01*
X15952937Y-8976937D01*
X15952937Y-9049063D01*
X16025063Y-9049063D01*
D13*
X17015000Y-5406000D02*
X17075000Y-5346000D01*
X17015000Y-5286000D01*
X16955000Y-5346000D01*
X17015000Y-5406000D01*
X17015000Y-5660000D02*
X17075000Y-5600000D01*
X17015000Y-5540000D01*
X16955000Y-5600000D01*
X17015000Y-5660000D01*
X17015000Y-10129000D02*
X17075000Y-10069000D01*
X17015000Y-10009000D01*
X16955000Y-10069000D01*
X17015000Y-10129000D01*
X17015000Y-10383000D02*
X17075000Y-10323000D01*
X17015000Y-10263000D01*
X16955000Y-10323000D01*
X17015000Y-10383000D01*
X17015000Y-10637000D02*
X17075000Y-10577000D01*
X17015000Y-10517000D01*
X16955000Y-10577000D01*
X17015000Y-10637000D01*
X17015000Y-10891000D02*
X17075000Y-10831000D01*
X17015000Y-10771000D01*
X16955000Y-10831000D01*
X17015000Y-10891000D01*
X17015000Y-11329000D02*
X17075000Y-11269000D01*
X17015000Y-11209000D01*
X16955000Y-11269000D01*
X17015000Y-11329000D01*
X17015000Y-11583000D02*
X17075000Y-11523000D01*
X17015000Y-11463000D01*
X16955000Y-11523000D01*
X17015000Y-11583000D01*
X17015000Y-11837000D02*
X17075000Y-11777000D01*
X17015000Y-11717000D01*
X16955000Y-11777000D01*
X17015000Y-11837000D01*
X17015000Y-12091000D02*
X17075000Y-12031000D01*
X17015000Y-11971000D01*
X16955000Y-12031000D01*
X17015000Y-12091000D01*
D11*
X3285000Y-6600000D02*
X3485000Y-6800000D01*
X3485000Y-6600000D02*
X3285000Y-6800000D01*
X3485000Y-6700000D02*
G75*
G02*
X3285000Y-6700000I-100000J0D01*
G01*
X3285000Y-6700000D02*
G75*
G02*
X3485000Y-6700000I100000J0D01*
G01*
D10*
X3185000Y-6800000D02*
X3585000Y-6800000D01*
X3585000Y-6600000D02*
G75*
G02*
X3585000Y-6800000I0J-100000D01*
G01*
X3585000Y-6600000D02*
X3185000Y-6600000D01*
X3185000Y-6600000D02*
G75*
G03*
X3185000Y-6800000I0J-100000D01*
G01*
D11*
X4215000Y-6600000D02*
X4415000Y-6800000D01*
X4415000Y-6600000D02*
X4215000Y-6800000D01*
X4415000Y-6700000D02*
G75*
G02*
X4215000Y-6700000I-100000J0D01*
G01*
X4215000Y-6700000D02*
G75*
G02*
X4415000Y-6700000I100000J0D01*
G01*
D10*
X4115000Y-6800000D02*
X4515000Y-6800000D01*
X4515000Y-6600000D02*
G75*
G02*
X4515000Y-6800000I0J-100000D01*
G01*
X4515000Y-6600000D02*
X4115000Y-6600000D01*
X4115000Y-6600000D02*
G75*
G03*
X4115000Y-6800000I0J-100000D01*
G01*
D11*
X5335000Y-6600000D02*
X5535000Y-6800000D01*
X5535000Y-6600000D02*
X5335000Y-6800000D01*
X5535000Y-6700000D02*
G75*
G02*
X5335000Y-6700000I-100000J0D01*
G01*
X5335000Y-6700000D02*
G75*
G02*
X5535000Y-6700000I100000J0D01*
G01*
D10*
X5235000Y-6800000D02*
X5635000Y-6800000D01*
X5635000Y-6600000D02*
G75*
G02*
X5635000Y-6800000I0J-100000D01*
G01*
X5635000Y-6600000D02*
X5235000Y-6600000D01*
X5235000Y-6600000D02*
G75*
G03*
X5235000Y-6800000I0J-100000D01*
G01*
D11*
X6265000Y-6600000D02*
X6465000Y-6800000D01*
X6465000Y-6600000D02*
X6265000Y-6800000D01*
X6465000Y-6700000D02*
G75*
G02*
X6265000Y-6700000I-100000J0D01*
G01*
X6265000Y-6700000D02*
G75*
G02*
X6465000Y-6700000I100000J0D01*
G01*
D10*
X6165000Y-6800000D02*
X6565000Y-6800000D01*
X6565000Y-6600000D02*
G75*
G02*
X6565000Y-6800000I0J-100000D01*
G01*
X6565000Y-6600000D02*
X6165000Y-6600000D01*
X6165000Y-6600000D02*
G75*
G03*
X6165000Y-6800000I0J-100000D01*
G01*
D11*
X7385000Y-6600000D02*
X7585000Y-6800000D01*
X7585000Y-6600000D02*
X7385000Y-6800000D01*
X7585000Y-6700000D02*
G75*
G02*
X7385000Y-6700000I-100000J0D01*
G01*
X7385000Y-6700000D02*
G75*
G02*
X7585000Y-6700000I100000J0D01*
G01*
D10*
X7285000Y-6800000D02*
X7685000Y-6800000D01*
X7685000Y-6600000D02*
G75*
G02*
X7685000Y-6800000I0J-100000D01*
G01*
X7685000Y-6600000D02*
X7285000Y-6600000D01*
X7285000Y-6600000D02*
G75*
G03*
X7285000Y-6800000I0J-100000D01*
G01*
D11*
X8315000Y-6600000D02*
X8515000Y-6800000D01*
X8515000Y-6600000D02*
X8315000Y-6800000D01*
X8515000Y-6700000D02*
G75*
G02*
X8315000Y-6700000I-100000J0D01*
G01*
X8315000Y-6700000D02*
G75*
G02*
X8515000Y-6700000I100000J0D01*
G01*
D10*
X8215000Y-6800000D02*
X8615000Y-6800000D01*
X8615000Y-6600000D02*
G75*
G02*
X8615000Y-6800000I0J-100000D01*
G01*
X8615000Y-6600000D02*
X8215000Y-6600000D01*
X8215000Y-6600000D02*
G75*
G03*
X8215000Y-6800000I0J-100000D01*
G01*
D11*
X9435000Y-6600000D02*
X9635000Y-6800000D01*
X9635000Y-6600000D02*
X9435000Y-6800000D01*
X9635000Y-6700000D02*
G75*
G02*
X9435000Y-6700000I-100000J0D01*
G01*
X9435000Y-6700000D02*
G75*
G02*
X9635000Y-6700000I100000J0D01*
G01*
D10*
X9335000Y-6800000D02*
X9735000Y-6800000D01*
X9735000Y-6600000D02*
G75*
G02*
X9735000Y-6800000I0J-100000D01*
G01*
X9735000Y-6600000D02*
X9335000Y-6600000D01*
X9335000Y-6600000D02*
G75*
G03*
X9335000Y-6800000I0J-100000D01*
G01*
D11*
X10365000Y-6600000D02*
X10565000Y-6800000D01*
X10565000Y-6600000D02*
X10365000Y-6800000D01*
X10565000Y-6700000D02*
G75*
G02*
X10365000Y-6700000I-100000J0D01*
G01*
X10365000Y-6700000D02*
G75*
G02*
X10565000Y-6700000I100000J0D01*
G01*
D10*
X10265000Y-6800000D02*
X10665000Y-6800000D01*
X10665000Y-6600000D02*
G75*
G02*
X10665000Y-6800000I0J-100000D01*
G01*
X10665000Y-6600000D02*
X10265000Y-6600000D01*
X10265000Y-6600000D02*
G75*
G03*
X10265000Y-6800000I0J-100000D01*
G01*
D11*
X11485000Y-6600000D02*
X11685000Y-6800000D01*
X11685000Y-6600000D02*
X11485000Y-6800000D01*
X11685000Y-6700000D02*
G75*
G02*
X11485000Y-6700000I-100000J0D01*
G01*
X11485000Y-6700000D02*
G75*
G02*
X11685000Y-6700000I100000J0D01*
G01*
D10*
X11385000Y-6800000D02*
X11785000Y-6800000D01*
X11785000Y-6600000D02*
G75*
G02*
X11785000Y-6800000I0J-100000D01*
G01*
X11785000Y-6600000D02*
X11385000Y-6600000D01*
X11385000Y-6600000D02*
G75*
G03*
X11385000Y-6800000I0J-100000D01*
G01*
D11*
X12415000Y-6600000D02*
X12615000Y-6800000D01*
X12615000Y-6600000D02*
X12415000Y-6800000D01*
X12615000Y-6700000D02*
G75*
G02*
X12415000Y-6700000I-100000J0D01*
G01*
X12415000Y-6700000D02*
G75*
G02*
X12615000Y-6700000I100000J0D01*
G01*
D10*
X12315000Y-6800000D02*
X12715000Y-6800000D01*
X12715000Y-6600000D02*
G75*
G02*
X12715000Y-6800000I0J-100000D01*
G01*
X12715000Y-6600000D02*
X12315000Y-6600000D01*
X12315000Y-6600000D02*
G75*
G03*
X12315000Y-6800000I0J-100000D01*
G01*
D14*
X11615000Y-8015000D02*
X11885000Y-8285000D01*
X11885000Y-8015000D02*
X11615000Y-8285000D01*
X11750000Y-8015000D02*
X11750000Y-8285000D01*
X11615000Y-8150000D02*
X11885000Y-8150000D01*
X11615000Y-8715000D02*
X11885000Y-8985000D01*
X11885000Y-8715000D02*
X11615000Y-8985000D01*
X11750000Y-8715000D02*
X11750000Y-8985000D01*
X11615000Y-8850000D02*
X11885000Y-8850000D01*
X11615000Y-9415000D02*
X11885000Y-9685000D01*
X11885000Y-9415000D02*
X11615000Y-9685000D01*
X11750000Y-9415000D02*
X11750000Y-9685000D01*
X11615000Y-9550000D02*
X11885000Y-9550000D01*
X11615000Y-10115000D02*
X11885000Y-10385000D01*
X11885000Y-10115000D02*
X11615000Y-10385000D01*
X11750000Y-10115000D02*
X11750000Y-10385000D01*
X11615000Y-10250000D02*
X11885000Y-10250000D01*
X11615000Y-10815000D02*
X11885000Y-11085000D01*
X11885000Y-10815000D02*
X11615000Y-11085000D01*
X11750000Y-10815000D02*
X11750000Y-11085000D01*
X11615000Y-10950000D02*
X11885000Y-10950000D01*
X11615000Y-11515000D02*
X11885000Y-11785000D01*
X11885000Y-11515000D02*
X11615000Y-11785000D01*
X11750000Y-11515000D02*
X11750000Y-11785000D01*
X11615000Y-11650000D02*
X11885000Y-11650000D01*
X11615000Y-12215000D02*
X11885000Y-12485000D01*
X11885000Y-12215000D02*
X11615000Y-12485000D01*
X11750000Y-12215000D02*
X11750000Y-12485000D01*
X11615000Y-12350000D02*
X11885000Y-12350000D01*
X11615000Y-12915000D02*
X11885000Y-13185000D01*
X11885000Y-12915000D02*
X11615000Y-13185000D01*
X11750000Y-12915000D02*
X11750000Y-13185000D01*
X11615000Y-13050000D02*
X11885000Y-13050000D01*
X11615000Y-13615000D02*
X11885000Y-13885000D01*
X11885000Y-13615000D02*
X11615000Y-13885000D01*
X11750000Y-13615000D02*
X11750000Y-13885000D01*
X11615000Y-13750000D02*
X11885000Y-13750000D01*
X12115000Y-8015000D02*
X12385000Y-8285000D01*
X12385000Y-8015000D02*
X12115000Y-8285000D01*
X12250000Y-8015000D02*
X12250000Y-8285000D01*
X12115000Y-8150000D02*
X12385000Y-8150000D01*
X12115000Y-8715000D02*
X12385000Y-8985000D01*
X12385000Y-8715000D02*
X12115000Y-8985000D01*
X12250000Y-8715000D02*
X12250000Y-8985000D01*
X12115000Y-8850000D02*
X12385000Y-8850000D01*
X12115000Y-9415000D02*
X12385000Y-9685000D01*
X12385000Y-9415000D02*
X12115000Y-9685000D01*
X12250000Y-9415000D02*
X12250000Y-9685000D01*
X12115000Y-9550000D02*
X12385000Y-9550000D01*
X12115000Y-10115000D02*
X12385000Y-10385000D01*
X12385000Y-10115000D02*
X12115000Y-10385000D01*
X12250000Y-10115000D02*
X12250000Y-10385000D01*
X12115000Y-10250000D02*
X12385000Y-10250000D01*
X12115000Y-10815000D02*
X12385000Y-11085000D01*
X12385000Y-10815000D02*
X12115000Y-11085000D01*
X12250000Y-10815000D02*
X12250000Y-11085000D01*
X12115000Y-10950000D02*
X12385000Y-10950000D01*
X12115000Y-11515000D02*
X12385000Y-11785000D01*
X12385000Y-11515000D02*
X12115000Y-11785000D01*
X12250000Y-11515000D02*
X12250000Y-11785000D01*
X12115000Y-11650000D02*
X12385000Y-11650000D01*
X12115000Y-12215000D02*
X12385000Y-12485000D01*
X12385000Y-12215000D02*
X12115000Y-12485000D01*
X12250000Y-12215000D02*
X12250000Y-12485000D01*
X12115000Y-12350000D02*
X12385000Y-12350000D01*
X12115000Y-12915000D02*
X12385000Y-13185000D01*
X12385000Y-12915000D02*
X12115000Y-13185000D01*
X12250000Y-12915000D02*
X12250000Y-13185000D01*
X12115000Y-13050000D02*
X12385000Y-13050000D01*
X12115000Y-13615000D02*
X12385000Y-13885000D01*
X12385000Y-13615000D02*
X12115000Y-13885000D01*
X12250000Y-13615000D02*
X12250000Y-13885000D01*
X12115000Y-13750000D02*
X12385000Y-13750000D01*
D15*
X11910000Y-3590000D02*
X12210000Y-3890000D01*
X12210000Y-3590000D02*
X11910000Y-3890000D01*
X12166067Y-3846067D02*
X12166067Y-3633933D01*
X11953933Y-3633933D01*
X11953933Y-3846067D01*
X12166067Y-3846067D01*
X12410000Y-3590000D02*
X12710000Y-3890000D01*
X12710000Y-3590000D02*
X12410000Y-3890000D01*
X12666067Y-3846067D02*
X12666067Y-3633933D01*
X12453933Y-3633933D01*
X12453933Y-3846067D01*
X12666067Y-3846067D01*
D16*
X5245000Y-7875000D02*
X5695000Y-8325000D01*
X5695000Y-7875000D02*
X5245000Y-8325000D01*
X5470000Y-8325000D02*
X5695000Y-8100000D01*
X5470000Y-7875000D01*
X5245000Y-8100000D01*
X5470000Y-8325000D01*
X5245000Y-8925000D02*
X5695000Y-9375000D01*
X5695000Y-8925000D02*
X5245000Y-9375000D01*
X5470000Y-9375000D02*
X5695000Y-9150000D01*
X5470000Y-8925000D01*
X5245000Y-9150000D01*
X5470000Y-9375000D01*
X5255000Y-9975000D02*
X5705000Y-10425000D01*
X5705000Y-9975000D02*
X5255000Y-10425000D01*
X5480000Y-10425000D02*
X5705000Y-10200000D01*
X5480000Y-9975000D01*
X5255000Y-10200000D01*
X5480000Y-10425000D01*
X5255000Y-11025000D02*
X5705000Y-11475000D01*
X5705000Y-11025000D02*
X5255000Y-11475000D01*
X5480000Y-11475000D02*
X5705000Y-11250000D01*
X5480000Y-11025000D01*
X5255000Y-11250000D01*
X5480000Y-11475000D01*
X5255000Y-12075000D02*
X5705000Y-12525000D01*
X5705000Y-12075000D02*
X5255000Y-12525000D01*
X5480000Y-12525000D02*
X5705000Y-12300000D01*
X5480000Y-12075000D01*
X5255000Y-12300000D01*
X5480000Y-12525000D01*
X5255000Y-13125000D02*
X5705000Y-13575000D01*
X5705000Y-13125000D02*
X5255000Y-13575000D01*
X5480000Y-13575000D02*
X5705000Y-13350000D01*
X5480000Y-13125000D01*
X5255000Y-13350000D01*
X5480000Y-13575000D01*
X5795000Y-3525000D02*
X6245000Y-3975000D01*
X6245000Y-3525000D02*
X5795000Y-3975000D01*
X6020000Y-3975000D02*
X6245000Y-3750000D01*
X6020000Y-3525000D01*
X5795000Y-3750000D01*
X6020000Y-3975000D01*
X5915000Y-7875000D02*
X6365000Y-8325000D01*
X6365000Y-7875000D02*
X5915000Y-8325000D01*
X6140000Y-8325000D02*
X6365000Y-8100000D01*
X6140000Y-7875000D01*
X5915000Y-8100000D01*
X6140000Y-8325000D01*
X5915000Y-8925000D02*
X6365000Y-9375000D01*
X6365000Y-8925000D02*
X5915000Y-9375000D01*
X6140000Y-9375000D02*
X6365000Y-9150000D01*
X6140000Y-8925000D01*
X5915000Y-9150000D01*
X6140000Y-9375000D01*
X5925000Y-9975000D02*
X6375000Y-10425000D01*
X6375000Y-9975000D02*
X5925000Y-10425000D01*
X6150000Y-10425000D02*
X6375000Y-10200000D01*
X6150000Y-9975000D01*
X5925000Y-10200000D01*
X6150000Y-10425000D01*
X5925000Y-11025000D02*
X6375000Y-11475000D01*
X6375000Y-11025000D02*
X5925000Y-11475000D01*
X6150000Y-11475000D02*
X6375000Y-11250000D01*
X6150000Y-11025000D01*
X5925000Y-11250000D01*
X6150000Y-11475000D01*
X5925000Y-12075000D02*
X6375000Y-12525000D01*
X6375000Y-12075000D02*
X5925000Y-12525000D01*
X6150000Y-12525000D02*
X6375000Y-12300000D01*
X6150000Y-12075000D01*
X5925000Y-12300000D01*
X6150000Y-12525000D01*
X5925000Y-13125000D02*
X6375000Y-13575000D01*
X6375000Y-13125000D02*
X5925000Y-13575000D01*
X6150000Y-13575000D02*
X6375000Y-13350000D01*
X6150000Y-13125000D01*
X5925000Y-13350000D01*
X6150000Y-13575000D01*
X6465000Y-3525000D02*
X6915000Y-3975000D01*
X6915000Y-3525000D02*
X6465000Y-3975000D01*
X6690000Y-3975000D02*
X6915000Y-3750000D01*
X6690000Y-3525000D01*
X6465000Y-3750000D01*
X6690000Y-3975000D01*
X7165000Y-7875000D02*
X7615000Y-8325000D01*
X7615000Y-7875000D02*
X7165000Y-8325000D01*
X7390000Y-8325000D02*
X7615000Y-8100000D01*
X7390000Y-7875000D01*
X7165000Y-8100000D01*
X7390000Y-8325000D01*
X7165000Y-8925000D02*
X7615000Y-9375000D01*
X7615000Y-8925000D02*
X7165000Y-9375000D01*
X7390000Y-9375000D02*
X7615000Y-9150000D01*
X7390000Y-8925000D01*
X7165000Y-9150000D01*
X7390000Y-9375000D01*
X7165000Y-9975000D02*
X7615000Y-10425000D01*
X7615000Y-9975000D02*
X7165000Y-10425000D01*
X7390000Y-10425000D02*
X7615000Y-10200000D01*
X7390000Y-9975000D01*
X7165000Y-10200000D01*
X7390000Y-10425000D01*
X7165000Y-11025000D02*
X7615000Y-11475000D01*
X7615000Y-11025000D02*
X7165000Y-11475000D01*
X7390000Y-11475000D02*
X7615000Y-11250000D01*
X7390000Y-11025000D01*
X7165000Y-11250000D01*
X7390000Y-11475000D01*
X7165000Y-12075000D02*
X7615000Y-12525000D01*
X7615000Y-12075000D02*
X7165000Y-12525000D01*
X7390000Y-12525000D02*
X7615000Y-12300000D01*
X7390000Y-12075000D01*
X7165000Y-12300000D01*
X7390000Y-12525000D01*
X7165000Y-13125000D02*
X7615000Y-13575000D01*
X7615000Y-13125000D02*
X7165000Y-13575000D01*
X7390000Y-13575000D02*
X7615000Y-13350000D01*
X7390000Y-13125000D01*
X7165000Y-13350000D01*
X7390000Y-13575000D01*
X7425000Y-3525000D02*
X7875000Y-3975000D01*
X7875000Y-3525000D02*
X7425000Y-3975000D01*
X7650000Y-3975000D02*
X7875000Y-3750000D01*
X7650000Y-3525000D01*
X7425000Y-3750000D01*
X7650000Y-3975000D01*
X7885000Y-7875000D02*
X8335000Y-8325000D01*
X8335000Y-7875000D02*
X7885000Y-8325000D01*
X8110000Y-8325000D02*
X8335000Y-8100000D01*
X8110000Y-7875000D01*
X7885000Y-8100000D01*
X8110000Y-8325000D01*
X7885000Y-8925000D02*
X8335000Y-9375000D01*
X8335000Y-8925000D02*
X7885000Y-9375000D01*
X8110000Y-9375000D02*
X8335000Y-9150000D01*
X8110000Y-8925000D01*
X7885000Y-9150000D01*
X8110000Y-9375000D01*
X7885000Y-9975000D02*
X8335000Y-10425000D01*
X8335000Y-9975000D02*
X7885000Y-10425000D01*
X8110000Y-10425000D02*
X8335000Y-10200000D01*
X8110000Y-9975000D01*
X7885000Y-10200000D01*
X8110000Y-10425000D01*
X7885000Y-11025000D02*
X8335000Y-11475000D01*
X8335000Y-11025000D02*
X7885000Y-11475000D01*
X8110000Y-11475000D02*
X8335000Y-11250000D01*
X8110000Y-11025000D01*
X7885000Y-11250000D01*
X8110000Y-11475000D01*
X7885000Y-12075000D02*
X8335000Y-12525000D01*
X8335000Y-12075000D02*
X7885000Y-12525000D01*
X8110000Y-12525000D02*
X8335000Y-12300000D01*
X8110000Y-12075000D01*
X7885000Y-12300000D01*
X8110000Y-12525000D01*
X7885000Y-13125000D02*
X8335000Y-13575000D01*
X8335000Y-13125000D02*
X7885000Y-13575000D01*
X8110000Y-13575000D02*
X8335000Y-13350000D01*
X8110000Y-13125000D01*
X7885000Y-13350000D01*
X8110000Y-13575000D01*
X8145000Y-3525000D02*
X8595000Y-3975000D01*
X8595000Y-3525000D02*
X8145000Y-3975000D01*
X8370000Y-3975000D02*
X8595000Y-3750000D01*
X8370000Y-3525000D01*
X8145000Y-3750000D01*
X8370000Y-3975000D01*
X9265000Y-7875000D02*
X9715000Y-8325000D01*
X9715000Y-7875000D02*
X9265000Y-8325000D01*
X9490000Y-8325000D02*
X9715000Y-8100000D01*
X9490000Y-7875000D01*
X9265000Y-8100000D01*
X9490000Y-8325000D01*
X9265000Y-10025000D02*
X9715000Y-10475000D01*
X9715000Y-10025000D02*
X9265000Y-10475000D01*
X9490000Y-10475000D02*
X9715000Y-10250000D01*
X9490000Y-10025000D01*
X9265000Y-10250000D01*
X9490000Y-10475000D01*
X9265000Y-11075000D02*
X9715000Y-11525000D01*
X9715000Y-11075000D02*
X9265000Y-11525000D01*
X9490000Y-11525000D02*
X9715000Y-11300000D01*
X9490000Y-11075000D01*
X9265000Y-11300000D01*
X9490000Y-11525000D01*
X9265000Y-12125000D02*
X9715000Y-12575000D01*
X9715000Y-12125000D02*
X9265000Y-12575000D01*
X9490000Y-12575000D02*
X9715000Y-12350000D01*
X9490000Y-12125000D01*
X9265000Y-12350000D01*
X9490000Y-12575000D01*
X9265000Y-13175000D02*
X9715000Y-13625000D01*
X9715000Y-13175000D02*
X9265000Y-13625000D01*
X9490000Y-13625000D02*
X9715000Y-13400000D01*
X9490000Y-13175000D01*
X9265000Y-13400000D01*
X9490000Y-13625000D01*
X9265000Y-14225000D02*
X9715000Y-14675000D01*
X9715000Y-14225000D02*
X9265000Y-14675000D01*
X9490000Y-14675000D02*
X9715000Y-14450000D01*
X9490000Y-14225000D01*
X9265000Y-14450000D01*
X9490000Y-14675000D01*
X9365000Y-3525000D02*
X9815000Y-3975000D01*
X9815000Y-3525000D02*
X9365000Y-3975000D01*
X9590000Y-3975000D02*
X9815000Y-3750000D01*
X9590000Y-3525000D01*
X9365000Y-3750000D01*
X9590000Y-3975000D01*
X9985000Y-7875000D02*
X10435000Y-8325000D01*
X10435000Y-7875000D02*
X9985000Y-8325000D01*
X10210000Y-8325000D02*
X10435000Y-8100000D01*
X10210000Y-7875000D01*
X9985000Y-8100000D01*
X10210000Y-8325000D01*
X9985000Y-10025000D02*
X10435000Y-10475000D01*
X10435000Y-10025000D02*
X9985000Y-10475000D01*
X10210000Y-10475000D02*
X10435000Y-10250000D01*
X10210000Y-10025000D01*
X9985000Y-10250000D01*
X10210000Y-10475000D01*
X9985000Y-11075000D02*
X10435000Y-11525000D01*
X10435000Y-11075000D02*
X9985000Y-11525000D01*
X10210000Y-11525000D02*
X10435000Y-11300000D01*
X10210000Y-11075000D01*
X9985000Y-11300000D01*
X10210000Y-11525000D01*
X9985000Y-12125000D02*
X10435000Y-12575000D01*
X10435000Y-12125000D02*
X9985000Y-12575000D01*
X10210000Y-12575000D02*
X10435000Y-12350000D01*
X10210000Y-12125000D01*
X9985000Y-12350000D01*
X10210000Y-12575000D01*
X9985000Y-13175000D02*
X10435000Y-13625000D01*
X10435000Y-13175000D02*
X9985000Y-13625000D01*
X10210000Y-13625000D02*
X10435000Y-13400000D01*
X10210000Y-13175000D01*
X9985000Y-13400000D01*
X10210000Y-13625000D01*
X9985000Y-14225000D02*
X10435000Y-14675000D01*
X10435000Y-14225000D02*
X9985000Y-14675000D01*
X10210000Y-14675000D02*
X10435000Y-14450000D01*
X10210000Y-14225000D01*
X9985000Y-14450000D01*
X10210000Y-14675000D01*
X10085000Y-3525000D02*
X10535000Y-3975000D01*
X10535000Y-3525000D02*
X10085000Y-3975000D01*
X10310000Y-3975000D02*
X10535000Y-3750000D01*
X10310000Y-3525000D01*
X10085000Y-3750000D01*
X10310000Y-3975000D01*
D17*
X3250000Y-7800000D02*
X3250000Y-8400000D01*
X2950000Y-8100000D02*
X3550000Y-8100000D01*
X3550000Y-8100000D02*
G75*
G02*
X2950000Y-8100000I-300000J0D01*
G01*
X2950000Y-8100000D02*
G75*
G02*
X3550000Y-8100000I300000J0D01*
G01*
X3250000Y-8850000D02*
X3250000Y-9450000D01*
X2950000Y-9150000D02*
X3550000Y-9150000D01*
X3550000Y-9150000D02*
G75*
G02*
X2950000Y-9150000I-300000J0D01*
G01*
X2950000Y-9150000D02*
G75*
G02*
X3550000Y-9150000I300000J0D01*
G01*
X3250000Y-9900000D02*
X3250000Y-10500000D01*
X2950000Y-10200000D02*
X3550000Y-10200000D01*
X3550000Y-10200000D02*
G75*
G02*
X2950000Y-10200000I-300000J0D01*
G01*
X2950000Y-10200000D02*
G75*
G02*
X3550000Y-10200000I300000J0D01*
G01*
X3250000Y-10950000D02*
X3250000Y-11550000D01*
X2950000Y-11250000D02*
X3550000Y-11250000D01*
X3550000Y-11250000D02*
G75*
G02*
X2950000Y-11250000I-300000J0D01*
G01*
X2950000Y-11250000D02*
G75*
G02*
X3550000Y-11250000I300000J0D01*
G01*
X3250000Y-12000000D02*
X3250000Y-12600000D01*
X2950000Y-12300000D02*
X3550000Y-12300000D01*
X3550000Y-12300000D02*
G75*
G02*
X2950000Y-12300000I-300000J0D01*
G01*
X2950000Y-12300000D02*
G75*
G02*
X3550000Y-12300000I300000J0D01*
G01*
X3250000Y-13050000D02*
X3250000Y-13650000D01*
X2950000Y-13350000D02*
X3550000Y-13350000D01*
X3550000Y-13350000D02*
G75*
G02*
X2950000Y-13350000I-300000J0D01*
G01*
X2950000Y-13350000D02*
G75*
G02*
X3550000Y-13350000I300000J0D01*
G01*
X3250000Y-14100000D02*
X3250000Y-14700000D01*
X2950000Y-14400000D02*
X3550000Y-14400000D01*
X3550000Y-14400000D02*
G75*
G02*
X2950000Y-14400000I-300000J0D01*
G01*
X2950000Y-14400000D02*
G75*
G02*
X3550000Y-14400000I300000J0D01*
G01*
X3250000Y-15150000D02*
X3250000Y-15750000D01*
X2950000Y-15450000D02*
X3550000Y-15450000D01*
X3550000Y-15450000D02*
G75*
G02*
X2950000Y-15450000I-300000J0D01*
G01*
X2950000Y-15450000D02*
G75*
G02*
X3550000Y-15450000I300000J0D01*
G01*
X3700000Y-2350000D02*
X3700000Y-2950000D01*
X3400000Y-2650000D02*
X4000000Y-2650000D01*
X4000000Y-2650000D02*
G75*
G02*
X3400000Y-2650000I-300000J0D01*
G01*
X3400000Y-2650000D02*
G75*
G02*
X4000000Y-2650000I300000J0D01*
G01*
X4350000Y-7800000D02*
X4350000Y-8400000D01*
X4050000Y-8100000D02*
X4650000Y-8100000D01*
X4650000Y-8100000D02*
G75*
G02*
X4050000Y-8100000I-300000J0D01*
G01*
X4050000Y-8100000D02*
G75*
G02*
X4650000Y-8100000I300000J0D01*
G01*
X4350000Y-8850000D02*
X4350000Y-9450000D01*
X4050000Y-9150000D02*
X4650000Y-9150000D01*
X4650000Y-9150000D02*
G75*
G02*
X4050000Y-9150000I-300000J0D01*
G01*
X4050000Y-9150000D02*
G75*
G02*
X4650000Y-9150000I300000J0D01*
G01*
X4350000Y-9900000D02*
X4350000Y-10500000D01*
X4050000Y-10200000D02*
X4650000Y-10200000D01*
X4650000Y-10200000D02*
G75*
G02*
X4050000Y-10200000I-300000J0D01*
G01*
X4050000Y-10200000D02*
G75*
G02*
X4650000Y-10200000I300000J0D01*
G01*
X4350000Y-10950000D02*
X4350000Y-11550000D01*
X4050000Y-11250000D02*
X4650000Y-11250000D01*
X4650000Y-11250000D02*
G75*
G02*
X4050000Y-11250000I-300000J0D01*
G01*
X4050000Y-11250000D02*
G75*
G02*
X4650000Y-11250000I300000J0D01*
G01*
X4350000Y-12000000D02*
X4350000Y-12600000D01*
X4050000Y-12300000D02*
X4650000Y-12300000D01*
X4650000Y-12300000D02*
G75*
G02*
X4050000Y-12300000I-300000J0D01*
G01*
X4050000Y-12300000D02*
G75*
G02*
X4650000Y-12300000I300000J0D01*
G01*
X4350000Y-13050000D02*
X4350000Y-13650000D01*
X4050000Y-13350000D02*
X4650000Y-13350000D01*
X4650000Y-13350000D02*
G75*
G02*
X4050000Y-13350000I-300000J0D01*
G01*
X4050000Y-13350000D02*
G75*
G02*
X4650000Y-13350000I300000J0D01*
G01*
X4350000Y-14100000D02*
X4350000Y-14700000D01*
X4050000Y-14400000D02*
X4650000Y-14400000D01*
X4650000Y-14400000D02*
G75*
G02*
X4050000Y-14400000I-300000J0D01*
G01*
X4050000Y-14400000D02*
G75*
G02*
X4650000Y-14400000I300000J0D01*
G01*
X4350000Y-15150000D02*
X4350000Y-15750000D01*
X4050000Y-15450000D02*
X4650000Y-15450000D01*
X4650000Y-15450000D02*
G75*
G02*
X4050000Y-15450000I-300000J0D01*
G01*
X4050000Y-15450000D02*
G75*
G02*
X4650000Y-15450000I300000J0D01*
G01*
X4800000Y-2350000D02*
X4800000Y-2950000D01*
X4500000Y-2650000D02*
X5100000Y-2650000D01*
X5100000Y-2650000D02*
G75*
G02*
X4500000Y-2650000I-300000J0D01*
G01*
X4500000Y-2650000D02*
G75*
G02*
X5100000Y-2650000I300000J0D01*
G01*
X6450000Y-2350000D02*
X6450000Y-2950000D01*
X6150000Y-2650000D02*
X6750000Y-2650000D01*
X6750000Y-2650000D02*
G75*
G02*
X6150000Y-2650000I-300000J0D01*
G01*
X6150000Y-2650000D02*
G75*
G02*
X6750000Y-2650000I300000J0D01*
G01*
X7550000Y-2350000D02*
X7550000Y-2950000D01*
X7250000Y-2650000D02*
X7850000Y-2650000D01*
X7850000Y-2650000D02*
G75*
G02*
X7250000Y-2650000I-300000J0D01*
G01*
X7250000Y-2650000D02*
G75*
G02*
X7850000Y-2650000I300000J0D01*
G01*
D11*
X2780777Y-17116484D02*
X2780777Y-16916484D01*
X2780777Y-16916484D02*
X2828396Y-16916484D01*
X2828396Y-16916484D02*
X2856967Y-16926008D01*
X2856967Y-16926008D02*
X2876015Y-16945055D01*
X2876015Y-16945055D02*
X2885539Y-16964103D01*
X2885539Y-16964103D02*
X2895062Y-17002198D01*
X2895062Y-17002198D02*
X2895062Y-17030770D01*
X2895062Y-17030770D02*
X2885539Y-17068865D01*
X2885539Y-17068865D02*
X2876015Y-17087912D01*
X2876015Y-17087912D02*
X2856967Y-17106960D01*
X2856967Y-17106960D02*
X2828396Y-17116484D01*
X2828396Y-17116484D02*
X2780777Y-17116484D01*
X2980777Y-17116484D02*
X2980777Y-16983150D01*
X2980777Y-17021246D02*
X2990301Y-17002198D01*
X2990301Y-17002198D02*
X2999824Y-16992674D01*
X2999824Y-16992674D02*
X3018872Y-16983150D01*
X3018872Y-16983150D02*
X3037920Y-16983150D01*
X3104586Y-17116484D02*
X3104586Y-16983150D01*
X3104586Y-16916484D02*
X3095062Y-16926008D01*
X3095062Y-16926008D02*
X3104586Y-16935531D01*
X3104586Y-16935531D02*
X3114110Y-16926008D01*
X3114110Y-16926008D02*
X3104586Y-16916484D01*
X3104586Y-16916484D02*
X3104586Y-16935531D01*
X3228396Y-17116484D02*
X3209348Y-17106960D01*
X3209348Y-17106960D02*
X3199824Y-17087912D01*
X3199824Y-17087912D02*
X3199824Y-16916484D01*
X3333158Y-17116484D02*
X3314110Y-17106960D01*
X3314110Y-17106960D02*
X3304586Y-17087912D01*
X3304586Y-17087912D02*
X3304586Y-16916484D01*
X3561729Y-17116484D02*
X3561729Y-16916484D01*
X3561729Y-16916484D02*
X3628396Y-17059341D01*
X3628396Y-17059341D02*
X3695062Y-16916484D01*
X3695062Y-16916484D02*
X3695062Y-17116484D01*
X3876015Y-17116484D02*
X3876015Y-17011722D01*
X3876015Y-17011722D02*
X3866491Y-16992674D01*
X3866491Y-16992674D02*
X3847443Y-16983150D01*
X3847443Y-16983150D02*
X3809348Y-16983150D01*
X3809348Y-16983150D02*
X3790301Y-16992674D01*
X3876015Y-17106960D02*
X3856967Y-17116484D01*
X3856967Y-17116484D02*
X3809348Y-17116484D01*
X3809348Y-17116484D02*
X3790301Y-17106960D01*
X3790301Y-17106960D02*
X3780777Y-17087912D01*
X3780777Y-17087912D02*
X3780777Y-17068865D01*
X3780777Y-17068865D02*
X3790301Y-17049817D01*
X3790301Y-17049817D02*
X3809348Y-17040293D01*
X3809348Y-17040293D02*
X3856967Y-17040293D01*
X3856967Y-17040293D02*
X3876015Y-17030770D01*
X3971253Y-16983150D02*
X3971253Y-17183150D01*
X3971253Y-16992674D02*
X3990301Y-16983150D01*
X3990301Y-16983150D02*
X4028396Y-16983150D01*
X4028396Y-16983150D02*
X4047443Y-16992674D01*
X4047443Y-16992674D02*
X4056967Y-17002198D01*
X4056967Y-17002198D02*
X4066491Y-17021246D01*
X4066491Y-17021246D02*
X4066491Y-17078389D01*
X4066491Y-17078389D02*
X4056967Y-17097436D01*
X4056967Y-17097436D02*
X4047443Y-17106960D01*
X4047443Y-17106960D02*
X4028396Y-17116484D01*
X4028396Y-17116484D02*
X3990301Y-17116484D01*
X3990301Y-17116484D02*
X3971253Y-17106960D01*
X4152205Y-17097436D02*
X4161729Y-17106960D01*
X4161729Y-17106960D02*
X4152205Y-17116484D01*
X4152205Y-17116484D02*
X4142682Y-17106960D01*
X4142682Y-17106960D02*
X4152205Y-17097436D01*
X4152205Y-17097436D02*
X4152205Y-17116484D01*
X4152205Y-16992674D02*
X4161729Y-17002198D01*
X4161729Y-17002198D02*
X4152205Y-17011722D01*
X4152205Y-17011722D02*
X4142682Y-17002198D01*
X4142682Y-17002198D02*
X4152205Y-16992674D01*
X4152205Y-16992674D02*
X4152205Y-17011722D01*
D10*
X2500000Y-17435000D02*
X2520000Y-17455000D01*
X2520000Y-17435000D02*
X2500000Y-17455000D01*
D11*
X2818872Y-17336484D02*
X2837920Y-17336484D01*
X2837920Y-17336484D02*
X2856967Y-17346008D01*
X2856967Y-17346008D02*
X2866491Y-17355531D01*
X2866491Y-17355531D02*
X2876015Y-17374579D01*
X2876015Y-17374579D02*
X2885539Y-17412674D01*
X2885539Y-17412674D02*
X2885539Y-17460293D01*
X2885539Y-17460293D02*
X2876015Y-17498389D01*
X2876015Y-17498389D02*
X2866491Y-17517436D01*
X2866491Y-17517436D02*
X2856967Y-17526960D01*
X2856967Y-17526960D02*
X2837920Y-17536484D01*
X2837920Y-17536484D02*
X2818872Y-17536484D01*
X2818872Y-17536484D02*
X2799824Y-17526960D01*
X2799824Y-17526960D02*
X2790301Y-17517436D01*
X2790301Y-17517436D02*
X2780777Y-17498389D01*
X2780777Y-17498389D02*
X2771253Y-17460293D01*
X2771253Y-17460293D02*
X2771253Y-17412674D01*
X2771253Y-17412674D02*
X2780777Y-17374579D01*
X2780777Y-17374579D02*
X2790301Y-17355531D01*
X2790301Y-17355531D02*
X2799824Y-17346008D01*
X2799824Y-17346008D02*
X2818872Y-17336484D01*
X2971253Y-17517436D02*
X2980777Y-17526960D01*
X2980777Y-17526960D02*
X2971253Y-17536484D01*
X2971253Y-17536484D02*
X2961729Y-17526960D01*
X2961729Y-17526960D02*
X2971253Y-17517436D01*
X2971253Y-17517436D02*
X2971253Y-17536484D01*
X3056967Y-17355531D02*
X3066491Y-17346008D01*
X3066491Y-17346008D02*
X3085539Y-17336484D01*
X3085539Y-17336484D02*
X3133158Y-17336484D01*
X3133158Y-17336484D02*
X3152205Y-17346008D01*
X3152205Y-17346008D02*
X3161729Y-17355531D01*
X3161729Y-17355531D02*
X3171253Y-17374579D01*
X3171253Y-17374579D02*
X3171253Y-17393627D01*
X3171253Y-17393627D02*
X3161729Y-17422198D01*
X3161729Y-17422198D02*
X3047443Y-17536484D01*
X3047443Y-17536484D02*
X3171253Y-17536484D01*
X3295062Y-17336484D02*
X3314110Y-17336484D01*
X3314110Y-17336484D02*
X3333158Y-17346008D01*
X3333158Y-17346008D02*
X3342682Y-17355531D01*
X3342682Y-17355531D02*
X3352205Y-17374579D01*
X3352205Y-17374579D02*
X3361729Y-17412674D01*
X3361729Y-17412674D02*
X3361729Y-17460293D01*
X3361729Y-17460293D02*
X3352205Y-17498389D01*
X3352205Y-17498389D02*
X3342682Y-17517436D01*
X3342682Y-17517436D02*
X3333158Y-17526960D01*
X3333158Y-17526960D02*
X3314110Y-17536484D01*
X3314110Y-17536484D02*
X3295062Y-17536484D01*
X3295062Y-17536484D02*
X3276015Y-17526960D01*
X3276015Y-17526960D02*
X3266491Y-17517436D01*
X3266491Y-17517436D02*
X3256967Y-17498389D01*
X3256967Y-17498389D02*
X3247443Y-17460293D01*
X3247443Y-17460293D02*
X3247443Y-17412674D01*
X3247443Y-17412674D02*
X3256967Y-17374579D01*
X3256967Y-17374579D02*
X3266491Y-17355531D01*
X3266491Y-17355531D02*
X3276015Y-17346008D01*
X3276015Y-17346008D02*
X3295062Y-17336484D01*
X3485539Y-17336484D02*
X3504586Y-17336484D01*
X3504586Y-17336484D02*
X3523634Y-17346008D01*
X3523634Y-17346008D02*
X3533158Y-17355531D01*
X3533158Y-17355531D02*
X3542682Y-17374579D01*
X3542682Y-17374579D02*
X3552205Y-17412674D01*
X3552205Y-17412674D02*
X3552205Y-17460293D01*
X3552205Y-17460293D02*
X3542682Y-17498389D01*
X3542682Y-17498389D02*
X3533158Y-17517436D01*
X3533158Y-17517436D02*
X3523634Y-17526960D01*
X3523634Y-17526960D02*
X3504586Y-17536484D01*
X3504586Y-17536484D02*
X3485539Y-17536484D01*
X3485539Y-17536484D02*
X3466491Y-17526960D01*
X3466491Y-17526960D02*
X3456967Y-17517436D01*
X3456967Y-17517436D02*
X3447443Y-17498389D01*
X3447443Y-17498389D02*
X3437920Y-17460293D01*
X3437920Y-17460293D02*
X3437920Y-17412674D01*
X3437920Y-17412674D02*
X3447443Y-17374579D01*
X3447443Y-17374579D02*
X3456967Y-17355531D01*
X3456967Y-17355531D02*
X3466491Y-17346008D01*
X3466491Y-17346008D02*
X3485539Y-17336484D01*
X3637920Y-17536484D02*
X3637920Y-17403150D01*
X3637920Y-17422198D02*
X3647443Y-17412674D01*
X3647443Y-17412674D02*
X3666491Y-17403150D01*
X3666491Y-17403150D02*
X3695063Y-17403150D01*
X3695063Y-17403150D02*
X3714110Y-17412674D01*
X3714110Y-17412674D02*
X3723634Y-17431722D01*
X3723634Y-17431722D02*
X3723634Y-17536484D01*
X3723634Y-17431722D02*
X3733158Y-17412674D01*
X3733158Y-17412674D02*
X3752205Y-17403150D01*
X3752205Y-17403150D02*
X3780777Y-17403150D01*
X3780777Y-17403150D02*
X3799824Y-17412674D01*
X3799824Y-17412674D02*
X3809348Y-17431722D01*
X3809348Y-17431722D02*
X3809348Y-17536484D01*
X3904586Y-17536484D02*
X3904586Y-17403150D01*
X3904586Y-17422198D02*
X3914110Y-17412674D01*
X3914110Y-17412674D02*
X3933158Y-17403150D01*
X3933158Y-17403150D02*
X3961729Y-17403150D01*
X3961729Y-17403150D02*
X3980777Y-17412674D01*
X3980777Y-17412674D02*
X3990301Y-17431722D01*
X3990301Y-17431722D02*
X3990301Y-17536484D01*
X3990301Y-17431722D02*
X3999824Y-17412674D01*
X3999824Y-17412674D02*
X4018872Y-17403150D01*
X4018872Y-17403150D02*
X4047443Y-17403150D01*
X4047443Y-17403150D02*
X4066491Y-17412674D01*
X4066491Y-17412674D02*
X4076015Y-17431722D01*
X4076015Y-17431722D02*
X4076015Y-17536484D01*
X4466491Y-17326960D02*
X4295063Y-17584103D01*
X4723634Y-17336484D02*
X4742682Y-17336484D01*
X4742682Y-17336484D02*
X4761729Y-17346008D01*
X4761729Y-17346008D02*
X4771253Y-17355531D01*
X4771253Y-17355531D02*
X4780777Y-17374579D01*
X4780777Y-17374579D02*
X4790301Y-17412674D01*
X4790301Y-17412674D02*
X4790301Y-17460293D01*
X4790301Y-17460293D02*
X4780777Y-17498389D01*
X4780777Y-17498389D02*
X4771253Y-17517436D01*
X4771253Y-17517436D02*
X4761729Y-17526960D01*
X4761729Y-17526960D02*
X4742682Y-17536484D01*
X4742682Y-17536484D02*
X4723634Y-17536484D01*
X4723634Y-17536484D02*
X4704587Y-17526960D01*
X4704587Y-17526960D02*
X4695063Y-17517436D01*
X4695063Y-17517436D02*
X4685539Y-17498389D01*
X4685539Y-17498389D02*
X4676015Y-17460293D01*
X4676015Y-17460293D02*
X4676015Y-17412674D01*
X4676015Y-17412674D02*
X4685539Y-17374579D01*
X4685539Y-17374579D02*
X4695063Y-17355531D01*
X4695063Y-17355531D02*
X4704587Y-17346008D01*
X4704587Y-17346008D02*
X4723634Y-17336484D01*
X4876015Y-17517436D02*
X4885539Y-17526960D01*
X4885539Y-17526960D02*
X4876015Y-17536484D01*
X4876015Y-17536484D02*
X4866491Y-17526960D01*
X4866491Y-17526960D02*
X4876015Y-17517436D01*
X4876015Y-17517436D02*
X4876015Y-17536484D01*
X5009348Y-17336484D02*
X5028396Y-17336484D01*
X5028396Y-17336484D02*
X5047444Y-17346008D01*
X5047444Y-17346008D02*
X5056968Y-17355531D01*
X5056968Y-17355531D02*
X5066491Y-17374579D01*
X5066491Y-17374579D02*
X5076015Y-17412674D01*
X5076015Y-17412674D02*
X5076015Y-17460293D01*
X5076015Y-17460293D02*
X5066491Y-17498389D01*
X5066491Y-17498389D02*
X5056968Y-17517436D01*
X5056968Y-17517436D02*
X5047444Y-17526960D01*
X5047444Y-17526960D02*
X5028396Y-17536484D01*
X5028396Y-17536484D02*
X5009348Y-17536484D01*
X5009348Y-17536484D02*
X4990301Y-17526960D01*
X4990301Y-17526960D02*
X4980777Y-17517436D01*
X4980777Y-17517436D02*
X4971253Y-17498389D01*
X4971253Y-17498389D02*
X4961729Y-17460293D01*
X4961729Y-17460293D02*
X4961729Y-17412674D01*
X4961729Y-17412674D02*
X4971253Y-17374579D01*
X4971253Y-17374579D02*
X4980777Y-17355531D01*
X4980777Y-17355531D02*
X4990301Y-17346008D01*
X4990301Y-17346008D02*
X5009348Y-17336484D01*
X5199825Y-17336484D02*
X5218872Y-17336484D01*
X5218872Y-17336484D02*
X5237920Y-17346008D01*
X5237920Y-17346008D02*
X5247444Y-17355531D01*
X5247444Y-17355531D02*
X5256968Y-17374579D01*
X5256968Y-17374579D02*
X5266491Y-17412674D01*
X5266491Y-17412674D02*
X5266491Y-17460293D01*
X5266491Y-17460293D02*
X5256968Y-17498389D01*
X5256968Y-17498389D02*
X5247444Y-17517436D01*
X5247444Y-17517436D02*
X5237920Y-17526960D01*
X5237920Y-17526960D02*
X5218872Y-17536484D01*
X5218872Y-17536484D02*
X5199825Y-17536484D01*
X5199825Y-17536484D02*
X5180777Y-17526960D01*
X5180777Y-17526960D02*
X5171253Y-17517436D01*
X5171253Y-17517436D02*
X5161729Y-17498389D01*
X5161729Y-17498389D02*
X5152206Y-17460293D01*
X5152206Y-17460293D02*
X5152206Y-17412674D01*
X5152206Y-17412674D02*
X5161729Y-17374579D01*
X5161729Y-17374579D02*
X5171253Y-17355531D01*
X5171253Y-17355531D02*
X5180777Y-17346008D01*
X5180777Y-17346008D02*
X5199825Y-17336484D01*
X5333158Y-17336484D02*
X5466491Y-17336484D01*
X5466491Y-17336484D02*
X5380777Y-17536484D01*
X5552206Y-17536484D02*
X5590301Y-17536484D01*
X5590301Y-17536484D02*
X5609348Y-17526960D01*
X5609348Y-17526960D02*
X5618872Y-17517436D01*
X5618872Y-17517436D02*
X5637920Y-17488865D01*
X5637920Y-17488865D02*
X5647444Y-17450770D01*
X5647444Y-17450770D02*
X5647444Y-17374579D01*
X5647444Y-17374579D02*
X5637920Y-17355531D01*
X5637920Y-17355531D02*
X5628396Y-17346008D01*
X5628396Y-17346008D02*
X5609348Y-17336484D01*
X5609348Y-17336484D02*
X5571253Y-17336484D01*
X5571253Y-17336484D02*
X5552206Y-17346008D01*
X5552206Y-17346008D02*
X5542682Y-17355531D01*
X5542682Y-17355531D02*
X5533158Y-17374579D01*
X5533158Y-17374579D02*
X5533158Y-17422198D01*
X5533158Y-17422198D02*
X5542682Y-17441246D01*
X5542682Y-17441246D02*
X5552206Y-17450770D01*
X5552206Y-17450770D02*
X5571253Y-17460293D01*
X5571253Y-17460293D02*
X5609348Y-17460293D01*
X5609348Y-17460293D02*
X5628396Y-17450770D01*
X5628396Y-17450770D02*
X5637920Y-17441246D01*
X5637920Y-17441246D02*
X5647444Y-17422198D01*
X5723634Y-17336484D02*
X5723634Y-17374579D01*
X5799825Y-17336484D02*
X5799825Y-17374579D01*
X6095063Y-17612674D02*
X6085539Y-17603150D01*
X6085539Y-17603150D02*
X6066491Y-17574579D01*
X6066491Y-17574579D02*
X6056968Y-17555531D01*
X6056968Y-17555531D02*
X6047444Y-17526960D01*
X6047444Y-17526960D02*
X6037920Y-17479341D01*
X6037920Y-17479341D02*
X6037920Y-17441246D01*
X6037920Y-17441246D02*
X6047444Y-17393627D01*
X6047444Y-17393627D02*
X6056968Y-17365055D01*
X6056968Y-17365055D02*
X6066491Y-17346008D01*
X6066491Y-17346008D02*
X6085539Y-17317436D01*
X6085539Y-17317436D02*
X6095063Y-17307912D01*
X6256968Y-17403150D02*
X6256968Y-17536484D01*
X6209348Y-17326960D02*
X6161729Y-17469817D01*
X6161729Y-17469817D02*
X6285539Y-17469817D01*
X6447444Y-17403150D02*
X6447444Y-17536484D01*
X6399825Y-17326960D02*
X6352206Y-17469817D01*
X6352206Y-17469817D02*
X6476015Y-17469817D01*
X6704587Y-17536484D02*
X6704587Y-17336484D01*
X6790301Y-17536484D02*
X6790301Y-17431722D01*
X6790301Y-17431722D02*
X6780777Y-17412674D01*
X6780777Y-17412674D02*
X6761730Y-17403150D01*
X6761730Y-17403150D02*
X6733158Y-17403150D01*
X6733158Y-17403150D02*
X6714110Y-17412674D01*
X6714110Y-17412674D02*
X6704587Y-17422198D01*
X6914110Y-17536484D02*
X6895063Y-17526960D01*
X6895063Y-17526960D02*
X6885539Y-17517436D01*
X6885539Y-17517436D02*
X6876015Y-17498389D01*
X6876015Y-17498389D02*
X6876015Y-17441246D01*
X6876015Y-17441246D02*
X6885539Y-17422198D01*
X6885539Y-17422198D02*
X6895063Y-17412674D01*
X6895063Y-17412674D02*
X6914110Y-17403150D01*
X6914110Y-17403150D02*
X6942682Y-17403150D01*
X6942682Y-17403150D02*
X6961730Y-17412674D01*
X6961730Y-17412674D02*
X6971253Y-17422198D01*
X6971253Y-17422198D02*
X6980777Y-17441246D01*
X6980777Y-17441246D02*
X6980777Y-17498389D01*
X6980777Y-17498389D02*
X6971253Y-17517436D01*
X6971253Y-17517436D02*
X6961730Y-17526960D01*
X6961730Y-17526960D02*
X6942682Y-17536484D01*
X6942682Y-17536484D02*
X6914110Y-17536484D01*
X7095063Y-17536484D02*
X7076015Y-17526960D01*
X7076015Y-17526960D02*
X7066491Y-17507912D01*
X7066491Y-17507912D02*
X7066491Y-17336484D01*
X7247444Y-17526960D02*
X7228396Y-17536484D01*
X7228396Y-17536484D02*
X7190301Y-17536484D01*
X7190301Y-17536484D02*
X7171253Y-17526960D01*
X7171253Y-17526960D02*
X7161730Y-17507912D01*
X7161730Y-17507912D02*
X7161730Y-17431722D01*
X7161730Y-17431722D02*
X7171253Y-17412674D01*
X7171253Y-17412674D02*
X7190301Y-17403150D01*
X7190301Y-17403150D02*
X7228396Y-17403150D01*
X7228396Y-17403150D02*
X7247444Y-17412674D01*
X7247444Y-17412674D02*
X7256968Y-17431722D01*
X7256968Y-17431722D02*
X7256968Y-17450770D01*
X7256968Y-17450770D02*
X7161730Y-17469817D01*
X7333158Y-17526960D02*
X7352206Y-17536484D01*
X7352206Y-17536484D02*
X7390301Y-17536484D01*
X7390301Y-17536484D02*
X7409349Y-17526960D01*
X7409349Y-17526960D02*
X7418872Y-17507912D01*
X7418872Y-17507912D02*
X7418872Y-17498389D01*
X7418872Y-17498389D02*
X7409349Y-17479341D01*
X7409349Y-17479341D02*
X7390301Y-17469817D01*
X7390301Y-17469817D02*
X7361730Y-17469817D01*
X7361730Y-17469817D02*
X7342682Y-17460293D01*
X7342682Y-17460293D02*
X7333158Y-17441246D01*
X7333158Y-17441246D02*
X7333158Y-17431722D01*
X7333158Y-17431722D02*
X7342682Y-17412674D01*
X7342682Y-17412674D02*
X7361730Y-17403150D01*
X7361730Y-17403150D02*
X7390301Y-17403150D01*
X7390301Y-17403150D02*
X7409349Y-17412674D01*
X7485539Y-17612674D02*
X7495063Y-17603150D01*
X7495063Y-17603150D02*
X7514111Y-17574579D01*
X7514111Y-17574579D02*
X7523634Y-17555531D01*
X7523634Y-17555531D02*
X7533158Y-17526960D01*
X7533158Y-17526960D02*
X7542682Y-17479341D01*
X7542682Y-17479341D02*
X7542682Y-17441246D01*
X7542682Y-17441246D02*
X7533158Y-17393627D01*
X7533158Y-17393627D02*
X7523634Y-17365055D01*
X7523634Y-17365055D02*
X7514111Y-17346008D01*
X7514111Y-17346008D02*
X7495063Y-17317436D01*
X7495063Y-17317436D02*
X7485539Y-17307912D01*
D10*
X2520000Y-17709000D02*
G75*
G02*
X2490000Y-17709000I-15000J0D01*
G01*
X2490000Y-17709000D02*
G75*
G02*
X2520000Y-17709000I15000J0D01*
G01*
D11*
X2818872Y-17600484D02*
X2837920Y-17600484D01*
X2837920Y-17600484D02*
X2856967Y-17610008D01*
X2856967Y-17610008D02*
X2866491Y-17619531D01*
X2866491Y-17619531D02*
X2876015Y-17638579D01*
X2876015Y-17638579D02*
X2885539Y-17676674D01*
X2885539Y-17676674D02*
X2885539Y-17724293D01*
X2885539Y-17724293D02*
X2876015Y-17762389D01*
X2876015Y-17762389D02*
X2866491Y-17781436D01*
X2866491Y-17781436D02*
X2856967Y-17790960D01*
X2856967Y-17790960D02*
X2837920Y-17800484D01*
X2837920Y-17800484D02*
X2818872Y-17800484D01*
X2818872Y-17800484D02*
X2799824Y-17790960D01*
X2799824Y-17790960D02*
X2790301Y-17781436D01*
X2790301Y-17781436D02*
X2780777Y-17762389D01*
X2780777Y-17762389D02*
X2771253Y-17724293D01*
X2771253Y-17724293D02*
X2771253Y-17676674D01*
X2771253Y-17676674D02*
X2780777Y-17638579D01*
X2780777Y-17638579D02*
X2790301Y-17619531D01*
X2790301Y-17619531D02*
X2799824Y-17610008D01*
X2799824Y-17610008D02*
X2818872Y-17600484D01*
X2971253Y-17781436D02*
X2980777Y-17790960D01*
X2980777Y-17790960D02*
X2971253Y-17800484D01*
X2971253Y-17800484D02*
X2961729Y-17790960D01*
X2961729Y-17790960D02*
X2971253Y-17781436D01*
X2971253Y-17781436D02*
X2971253Y-17800484D01*
X3047443Y-17600484D02*
X3171253Y-17600484D01*
X3171253Y-17600484D02*
X3104586Y-17676674D01*
X3104586Y-17676674D02*
X3133158Y-17676674D01*
X3133158Y-17676674D02*
X3152205Y-17686198D01*
X3152205Y-17686198D02*
X3161729Y-17695722D01*
X3161729Y-17695722D02*
X3171253Y-17714770D01*
X3171253Y-17714770D02*
X3171253Y-17762389D01*
X3171253Y-17762389D02*
X3161729Y-17781436D01*
X3161729Y-17781436D02*
X3152205Y-17790960D01*
X3152205Y-17790960D02*
X3133158Y-17800484D01*
X3133158Y-17800484D02*
X3076015Y-17800484D01*
X3076015Y-17800484D02*
X3056967Y-17790960D01*
X3056967Y-17790960D02*
X3047443Y-17781436D01*
X3295062Y-17600484D02*
X3314110Y-17600484D01*
X3314110Y-17600484D02*
X3333158Y-17610008D01*
X3333158Y-17610008D02*
X3342682Y-17619531D01*
X3342682Y-17619531D02*
X3352205Y-17638579D01*
X3352205Y-17638579D02*
X3361729Y-17676674D01*
X3361729Y-17676674D02*
X3361729Y-17724293D01*
X3361729Y-17724293D02*
X3352205Y-17762389D01*
X3352205Y-17762389D02*
X3342682Y-17781436D01*
X3342682Y-17781436D02*
X3333158Y-17790960D01*
X3333158Y-17790960D02*
X3314110Y-17800484D01*
X3314110Y-17800484D02*
X3295062Y-17800484D01*
X3295062Y-17800484D02*
X3276015Y-17790960D01*
X3276015Y-17790960D02*
X3266491Y-17781436D01*
X3266491Y-17781436D02*
X3256967Y-17762389D01*
X3256967Y-17762389D02*
X3247443Y-17724293D01*
X3247443Y-17724293D02*
X3247443Y-17676674D01*
X3247443Y-17676674D02*
X3256967Y-17638579D01*
X3256967Y-17638579D02*
X3266491Y-17619531D01*
X3266491Y-17619531D02*
X3276015Y-17610008D01*
X3276015Y-17610008D02*
X3295062Y-17600484D01*
X3485539Y-17600484D02*
X3504586Y-17600484D01*
X3504586Y-17600484D02*
X3523634Y-17610008D01*
X3523634Y-17610008D02*
X3533158Y-17619531D01*
X3533158Y-17619531D02*
X3542682Y-17638579D01*
X3542682Y-17638579D02*
X3552205Y-17676674D01*
X3552205Y-17676674D02*
X3552205Y-17724293D01*
X3552205Y-17724293D02*
X3542682Y-17762389D01*
X3542682Y-17762389D02*
X3533158Y-17781436D01*
X3533158Y-17781436D02*
X3523634Y-17790960D01*
X3523634Y-17790960D02*
X3504586Y-17800484D01*
X3504586Y-17800484D02*
X3485539Y-17800484D01*
X3485539Y-17800484D02*
X3466491Y-17790960D01*
X3466491Y-17790960D02*
X3456967Y-17781436D01*
X3456967Y-17781436D02*
X3447443Y-17762389D01*
X3447443Y-17762389D02*
X3437920Y-17724293D01*
X3437920Y-17724293D02*
X3437920Y-17676674D01*
X3437920Y-17676674D02*
X3447443Y-17638579D01*
X3447443Y-17638579D02*
X3456967Y-17619531D01*
X3456967Y-17619531D02*
X3466491Y-17610008D01*
X3466491Y-17610008D02*
X3485539Y-17600484D01*
X3637920Y-17800484D02*
X3637920Y-17667150D01*
X3637920Y-17686198D02*
X3647443Y-17676674D01*
X3647443Y-17676674D02*
X3666491Y-17667150D01*
X3666491Y-17667150D02*
X3695063Y-17667150D01*
X3695063Y-17667150D02*
X3714110Y-17676674D01*
X3714110Y-17676674D02*
X3723634Y-17695722D01*
X3723634Y-17695722D02*
X3723634Y-17800484D01*
X3723634Y-17695722D02*
X3733158Y-17676674D01*
X3733158Y-17676674D02*
X3752205Y-17667150D01*
X3752205Y-17667150D02*
X3780777Y-17667150D01*
X3780777Y-17667150D02*
X3799824Y-17676674D01*
X3799824Y-17676674D02*
X3809348Y-17695722D01*
X3809348Y-17695722D02*
X3809348Y-17800484D01*
X3904586Y-17800484D02*
X3904586Y-17667150D01*
X3904586Y-17686198D02*
X3914110Y-17676674D01*
X3914110Y-17676674D02*
X3933158Y-17667150D01*
X3933158Y-17667150D02*
X3961729Y-17667150D01*
X3961729Y-17667150D02*
X3980777Y-17676674D01*
X3980777Y-17676674D02*
X3990301Y-17695722D01*
X3990301Y-17695722D02*
X3990301Y-17800484D01*
X3990301Y-17695722D02*
X3999824Y-17676674D01*
X3999824Y-17676674D02*
X4018872Y-17667150D01*
X4018872Y-17667150D02*
X4047443Y-17667150D01*
X4047443Y-17667150D02*
X4066491Y-17676674D01*
X4066491Y-17676674D02*
X4076015Y-17695722D01*
X4076015Y-17695722D02*
X4076015Y-17800484D01*
X4466491Y-17590960D02*
X4295063Y-17848103D01*
X4723634Y-17600484D02*
X4742682Y-17600484D01*
X4742682Y-17600484D02*
X4761729Y-17610008D01*
X4761729Y-17610008D02*
X4771253Y-17619531D01*
X4771253Y-17619531D02*
X4780777Y-17638579D01*
X4780777Y-17638579D02*
X4790301Y-17676674D01*
X4790301Y-17676674D02*
X4790301Y-17724293D01*
X4790301Y-17724293D02*
X4780777Y-17762389D01*
X4780777Y-17762389D02*
X4771253Y-17781436D01*
X4771253Y-17781436D02*
X4761729Y-17790960D01*
X4761729Y-17790960D02*
X4742682Y-17800484D01*
X4742682Y-17800484D02*
X4723634Y-17800484D01*
X4723634Y-17800484D02*
X4704587Y-17790960D01*
X4704587Y-17790960D02*
X4695063Y-17781436D01*
X4695063Y-17781436D02*
X4685539Y-17762389D01*
X4685539Y-17762389D02*
X4676015Y-17724293D01*
X4676015Y-17724293D02*
X4676015Y-17676674D01*
X4676015Y-17676674D02*
X4685539Y-17638579D01*
X4685539Y-17638579D02*
X4695063Y-17619531D01*
X4695063Y-17619531D02*
X4704587Y-17610008D01*
X4704587Y-17610008D02*
X4723634Y-17600484D01*
X4876015Y-17781436D02*
X4885539Y-17790960D01*
X4885539Y-17790960D02*
X4876015Y-17800484D01*
X4876015Y-17800484D02*
X4866491Y-17790960D01*
X4866491Y-17790960D02*
X4876015Y-17781436D01*
X4876015Y-17781436D02*
X4876015Y-17800484D01*
X5009348Y-17600484D02*
X5028396Y-17600484D01*
X5028396Y-17600484D02*
X5047444Y-17610008D01*
X5047444Y-17610008D02*
X5056968Y-17619531D01*
X5056968Y-17619531D02*
X5066491Y-17638579D01*
X5066491Y-17638579D02*
X5076015Y-17676674D01*
X5076015Y-17676674D02*
X5076015Y-17724293D01*
X5076015Y-17724293D02*
X5066491Y-17762389D01*
X5066491Y-17762389D02*
X5056968Y-17781436D01*
X5056968Y-17781436D02*
X5047444Y-17790960D01*
X5047444Y-17790960D02*
X5028396Y-17800484D01*
X5028396Y-17800484D02*
X5009348Y-17800484D01*
X5009348Y-17800484D02*
X4990301Y-17790960D01*
X4990301Y-17790960D02*
X4980777Y-17781436D01*
X4980777Y-17781436D02*
X4971253Y-17762389D01*
X4971253Y-17762389D02*
X4961729Y-17724293D01*
X4961729Y-17724293D02*
X4961729Y-17676674D01*
X4961729Y-17676674D02*
X4971253Y-17638579D01*
X4971253Y-17638579D02*
X4980777Y-17619531D01*
X4980777Y-17619531D02*
X4990301Y-17610008D01*
X4990301Y-17610008D02*
X5009348Y-17600484D01*
X5266491Y-17800484D02*
X5152206Y-17800484D01*
X5209348Y-17800484D02*
X5209348Y-17600484D01*
X5209348Y-17600484D02*
X5190301Y-17629055D01*
X5190301Y-17629055D02*
X5171253Y-17648103D01*
X5171253Y-17648103D02*
X5152206Y-17657627D01*
X5456968Y-17800484D02*
X5342682Y-17800484D01*
X5399825Y-17800484D02*
X5399825Y-17600484D01*
X5399825Y-17600484D02*
X5380777Y-17629055D01*
X5380777Y-17629055D02*
X5361729Y-17648103D01*
X5361729Y-17648103D02*
X5342682Y-17657627D01*
X5571253Y-17686198D02*
X5552206Y-17676674D01*
X5552206Y-17676674D02*
X5542682Y-17667150D01*
X5542682Y-17667150D02*
X5533158Y-17648103D01*
X5533158Y-17648103D02*
X5533158Y-17638579D01*
X5533158Y-17638579D02*
X5542682Y-17619531D01*
X5542682Y-17619531D02*
X5552206Y-17610008D01*
X5552206Y-17610008D02*
X5571253Y-17600484D01*
X5571253Y-17600484D02*
X5609348Y-17600484D01*
X5609348Y-17600484D02*
X5628396Y-17610008D01*
X5628396Y-17610008D02*
X5637920Y-17619531D01*
X5637920Y-17619531D02*
X5647444Y-17638579D01*
X5647444Y-17638579D02*
X5647444Y-17648103D01*
X5647444Y-17648103D02*
X5637920Y-17667150D01*
X5637920Y-17667150D02*
X5628396Y-17676674D01*
X5628396Y-17676674D02*
X5609348Y-17686198D01*
X5609348Y-17686198D02*
X5571253Y-17686198D01*
X5571253Y-17686198D02*
X5552206Y-17695722D01*
X5552206Y-17695722D02*
X5542682Y-17705246D01*
X5542682Y-17705246D02*
X5533158Y-17724293D01*
X5533158Y-17724293D02*
X5533158Y-17762389D01*
X5533158Y-17762389D02*
X5542682Y-17781436D01*
X5542682Y-17781436D02*
X5552206Y-17790960D01*
X5552206Y-17790960D02*
X5571253Y-17800484D01*
X5571253Y-17800484D02*
X5609348Y-17800484D01*
X5609348Y-17800484D02*
X5628396Y-17790960D01*
X5628396Y-17790960D02*
X5637920Y-17781436D01*
X5637920Y-17781436D02*
X5647444Y-17762389D01*
X5647444Y-17762389D02*
X5647444Y-17724293D01*
X5647444Y-17724293D02*
X5637920Y-17705246D01*
X5637920Y-17705246D02*
X5628396Y-17695722D01*
X5628396Y-17695722D02*
X5609348Y-17686198D01*
X5723634Y-17600484D02*
X5723634Y-17638579D01*
X5799825Y-17600484D02*
X5799825Y-17638579D01*
X6095063Y-17876674D02*
X6085539Y-17867150D01*
X6085539Y-17867150D02*
X6066491Y-17838579D01*
X6066491Y-17838579D02*
X6056968Y-17819531D01*
X6056968Y-17819531D02*
X6047444Y-17790960D01*
X6047444Y-17790960D02*
X6037920Y-17743341D01*
X6037920Y-17743341D02*
X6037920Y-17705246D01*
X6037920Y-17705246D02*
X6047444Y-17657627D01*
X6047444Y-17657627D02*
X6056968Y-17629055D01*
X6056968Y-17629055D02*
X6066491Y-17610008D01*
X6066491Y-17610008D02*
X6085539Y-17581436D01*
X6085539Y-17581436D02*
X6095063Y-17571912D01*
X6276015Y-17800484D02*
X6161729Y-17800484D01*
X6218872Y-17800484D02*
X6218872Y-17600484D01*
X6218872Y-17600484D02*
X6199825Y-17629055D01*
X6199825Y-17629055D02*
X6180777Y-17648103D01*
X6180777Y-17648103D02*
X6161729Y-17657627D01*
X6399825Y-17600484D02*
X6418872Y-17600484D01*
X6418872Y-17600484D02*
X6437920Y-17610008D01*
X6437920Y-17610008D02*
X6447444Y-17619531D01*
X6447444Y-17619531D02*
X6456968Y-17638579D01*
X6456968Y-17638579D02*
X6466491Y-17676674D01*
X6466491Y-17676674D02*
X6466491Y-17724293D01*
X6466491Y-17724293D02*
X6456968Y-17762389D01*
X6456968Y-17762389D02*
X6447444Y-17781436D01*
X6447444Y-17781436D02*
X6437920Y-17790960D01*
X6437920Y-17790960D02*
X6418872Y-17800484D01*
X6418872Y-17800484D02*
X6399825Y-17800484D01*
X6399825Y-17800484D02*
X6380777Y-17790960D01*
X6380777Y-17790960D02*
X6371253Y-17781436D01*
X6371253Y-17781436D02*
X6361729Y-17762389D01*
X6361729Y-17762389D02*
X6352206Y-17724293D01*
X6352206Y-17724293D02*
X6352206Y-17676674D01*
X6352206Y-17676674D02*
X6361729Y-17638579D01*
X6361729Y-17638579D02*
X6371253Y-17619531D01*
X6371253Y-17619531D02*
X6380777Y-17610008D01*
X6380777Y-17610008D02*
X6399825Y-17600484D01*
X6704587Y-17800484D02*
X6704587Y-17600484D01*
X6790301Y-17800484D02*
X6790301Y-17695722D01*
X6790301Y-17695722D02*
X6780777Y-17676674D01*
X6780777Y-17676674D02*
X6761730Y-17667150D01*
X6761730Y-17667150D02*
X6733158Y-17667150D01*
X6733158Y-17667150D02*
X6714110Y-17676674D01*
X6714110Y-17676674D02*
X6704587Y-17686198D01*
X6914110Y-17800484D02*
X6895063Y-17790960D01*
X6895063Y-17790960D02*
X6885539Y-17781436D01*
X6885539Y-17781436D02*
X6876015Y-17762389D01*
X6876015Y-17762389D02*
X6876015Y-17705246D01*
X6876015Y-17705246D02*
X6885539Y-17686198D01*
X6885539Y-17686198D02*
X6895063Y-17676674D01*
X6895063Y-17676674D02*
X6914110Y-17667150D01*
X6914110Y-17667150D02*
X6942682Y-17667150D01*
X6942682Y-17667150D02*
X6961730Y-17676674D01*
X6961730Y-17676674D02*
X6971253Y-17686198D01*
X6971253Y-17686198D02*
X6980777Y-17705246D01*
X6980777Y-17705246D02*
X6980777Y-17762389D01*
X6980777Y-17762389D02*
X6971253Y-17781436D01*
X6971253Y-17781436D02*
X6961730Y-17790960D01*
X6961730Y-17790960D02*
X6942682Y-17800484D01*
X6942682Y-17800484D02*
X6914110Y-17800484D01*
X7095063Y-17800484D02*
X7076015Y-17790960D01*
X7076015Y-17790960D02*
X7066491Y-17771912D01*
X7066491Y-17771912D02*
X7066491Y-17600484D01*
X7247444Y-17790960D02*
X7228396Y-17800484D01*
X7228396Y-17800484D02*
X7190301Y-17800484D01*
X7190301Y-17800484D02*
X7171253Y-17790960D01*
X7171253Y-17790960D02*
X7161730Y-17771912D01*
X7161730Y-17771912D02*
X7161730Y-17695722D01*
X7161730Y-17695722D02*
X7171253Y-17676674D01*
X7171253Y-17676674D02*
X7190301Y-17667150D01*
X7190301Y-17667150D02*
X7228396Y-17667150D01*
X7228396Y-17667150D02*
X7247444Y-17676674D01*
X7247444Y-17676674D02*
X7256968Y-17695722D01*
X7256968Y-17695722D02*
X7256968Y-17714770D01*
X7256968Y-17714770D02*
X7161730Y-17733817D01*
X7333158Y-17790960D02*
X7352206Y-17800484D01*
X7352206Y-17800484D02*
X7390301Y-17800484D01*
X7390301Y-17800484D02*
X7409349Y-17790960D01*
X7409349Y-17790960D02*
X7418872Y-17771912D01*
X7418872Y-17771912D02*
X7418872Y-17762389D01*
X7418872Y-17762389D02*
X7409349Y-17743341D01*
X7409349Y-17743341D02*
X7390301Y-17733817D01*
X7390301Y-17733817D02*
X7361730Y-17733817D01*
X7361730Y-17733817D02*
X7342682Y-17724293D01*
X7342682Y-17724293D02*
X7333158Y-17705246D01*
X7333158Y-17705246D02*
X7333158Y-17695722D01*
X7333158Y-17695722D02*
X7342682Y-17676674D01*
X7342682Y-17676674D02*
X7361730Y-17667150D01*
X7361730Y-17667150D02*
X7390301Y-17667150D01*
X7390301Y-17667150D02*
X7409349Y-17676674D01*
X7485539Y-17876674D02*
X7495063Y-17867150D01*
X7495063Y-17867150D02*
X7514111Y-17838579D01*
X7514111Y-17838579D02*
X7523634Y-17819531D01*
X7523634Y-17819531D02*
X7533158Y-17790960D01*
X7533158Y-17790960D02*
X7542682Y-17743341D01*
X7542682Y-17743341D02*
X7542682Y-17705246D01*
X7542682Y-17705246D02*
X7533158Y-17657627D01*
X7533158Y-17657627D02*
X7523634Y-17629055D01*
X7523634Y-17629055D02*
X7514111Y-17610008D01*
X7514111Y-17610008D02*
X7495063Y-17581436D01*
X7495063Y-17581436D02*
X7485539Y-17571912D01*
D10*
X2500000Y-17953000D02*
X2500000Y-17993000D01*
X2480000Y-17973000D02*
X2520000Y-17973000D01*
D11*
X2818872Y-17864484D02*
X2837920Y-17864484D01*
X2837920Y-17864484D02*
X2856967Y-17874008D01*
X2856967Y-17874008D02*
X2866491Y-17883531D01*
X2866491Y-17883531D02*
X2876015Y-17902579D01*
X2876015Y-17902579D02*
X2885539Y-17940674D01*
X2885539Y-17940674D02*
X2885539Y-17988293D01*
X2885539Y-17988293D02*
X2876015Y-18026389D01*
X2876015Y-18026389D02*
X2866491Y-18045436D01*
X2866491Y-18045436D02*
X2856967Y-18054960D01*
X2856967Y-18054960D02*
X2837920Y-18064484D01*
X2837920Y-18064484D02*
X2818872Y-18064484D01*
X2818872Y-18064484D02*
X2799824Y-18054960D01*
X2799824Y-18054960D02*
X2790301Y-18045436D01*
X2790301Y-18045436D02*
X2780777Y-18026389D01*
X2780777Y-18026389D02*
X2771253Y-17988293D01*
X2771253Y-17988293D02*
X2771253Y-17940674D01*
X2771253Y-17940674D02*
X2780777Y-17902579D01*
X2780777Y-17902579D02*
X2790301Y-17883531D01*
X2790301Y-17883531D02*
X2799824Y-17874008D01*
X2799824Y-17874008D02*
X2818872Y-17864484D01*
X2971253Y-18045436D02*
X2980777Y-18054960D01*
X2980777Y-18054960D02*
X2971253Y-18064484D01*
X2971253Y-18064484D02*
X2961729Y-18054960D01*
X2961729Y-18054960D02*
X2971253Y-18045436D01*
X2971253Y-18045436D02*
X2971253Y-18064484D01*
X3152205Y-17931150D02*
X3152205Y-18064484D01*
X3104586Y-17854960D02*
X3056967Y-17997817D01*
X3056967Y-17997817D02*
X3180777Y-17997817D01*
X3295062Y-17864484D02*
X3314110Y-17864484D01*
X3314110Y-17864484D02*
X3333158Y-17874008D01*
X3333158Y-17874008D02*
X3342682Y-17883531D01*
X3342682Y-17883531D02*
X3352205Y-17902579D01*
X3352205Y-17902579D02*
X3361729Y-17940674D01*
X3361729Y-17940674D02*
X3361729Y-17988293D01*
X3361729Y-17988293D02*
X3352205Y-18026389D01*
X3352205Y-18026389D02*
X3342682Y-18045436D01*
X3342682Y-18045436D02*
X3333158Y-18054960D01*
X3333158Y-18054960D02*
X3314110Y-18064484D01*
X3314110Y-18064484D02*
X3295062Y-18064484D01*
X3295062Y-18064484D02*
X3276015Y-18054960D01*
X3276015Y-18054960D02*
X3266491Y-18045436D01*
X3266491Y-18045436D02*
X3256967Y-18026389D01*
X3256967Y-18026389D02*
X3247443Y-17988293D01*
X3247443Y-17988293D02*
X3247443Y-17940674D01*
X3247443Y-17940674D02*
X3256967Y-17902579D01*
X3256967Y-17902579D02*
X3266491Y-17883531D01*
X3266491Y-17883531D02*
X3276015Y-17874008D01*
X3276015Y-17874008D02*
X3295062Y-17864484D01*
X3485539Y-17864484D02*
X3504586Y-17864484D01*
X3504586Y-17864484D02*
X3523634Y-17874008D01*
X3523634Y-17874008D02*
X3533158Y-17883531D01*
X3533158Y-17883531D02*
X3542682Y-17902579D01*
X3542682Y-17902579D02*
X3552205Y-17940674D01*
X3552205Y-17940674D02*
X3552205Y-17988293D01*
X3552205Y-17988293D02*
X3542682Y-18026389D01*
X3542682Y-18026389D02*
X3533158Y-18045436D01*
X3533158Y-18045436D02*
X3523634Y-18054960D01*
X3523634Y-18054960D02*
X3504586Y-18064484D01*
X3504586Y-18064484D02*
X3485539Y-18064484D01*
X3485539Y-18064484D02*
X3466491Y-18054960D01*
X3466491Y-18054960D02*
X3456967Y-18045436D01*
X3456967Y-18045436D02*
X3447443Y-18026389D01*
X3447443Y-18026389D02*
X3437920Y-17988293D01*
X3437920Y-17988293D02*
X3437920Y-17940674D01*
X3437920Y-17940674D02*
X3447443Y-17902579D01*
X3447443Y-17902579D02*
X3456967Y-17883531D01*
X3456967Y-17883531D02*
X3466491Y-17874008D01*
X3466491Y-17874008D02*
X3485539Y-17864484D01*
X3637920Y-18064484D02*
X3637920Y-17931150D01*
X3637920Y-17950198D02*
X3647443Y-17940674D01*
X3647443Y-17940674D02*
X3666491Y-17931150D01*
X3666491Y-17931150D02*
X3695063Y-17931150D01*
X3695063Y-17931150D02*
X3714110Y-17940674D01*
X3714110Y-17940674D02*
X3723634Y-17959722D01*
X3723634Y-17959722D02*
X3723634Y-18064484D01*
X3723634Y-17959722D02*
X3733158Y-17940674D01*
X3733158Y-17940674D02*
X3752205Y-17931150D01*
X3752205Y-17931150D02*
X3780777Y-17931150D01*
X3780777Y-17931150D02*
X3799824Y-17940674D01*
X3799824Y-17940674D02*
X3809348Y-17959722D01*
X3809348Y-17959722D02*
X3809348Y-18064484D01*
X3904586Y-18064484D02*
X3904586Y-17931150D01*
X3904586Y-17950198D02*
X3914110Y-17940674D01*
X3914110Y-17940674D02*
X3933158Y-17931150D01*
X3933158Y-17931150D02*
X3961729Y-17931150D01*
X3961729Y-17931150D02*
X3980777Y-17940674D01*
X3980777Y-17940674D02*
X3990301Y-17959722D01*
X3990301Y-17959722D02*
X3990301Y-18064484D01*
X3990301Y-17959722D02*
X3999824Y-17940674D01*
X3999824Y-17940674D02*
X4018872Y-17931150D01*
X4018872Y-17931150D02*
X4047443Y-17931150D01*
X4047443Y-17931150D02*
X4066491Y-17940674D01*
X4066491Y-17940674D02*
X4076015Y-17959722D01*
X4076015Y-17959722D02*
X4076015Y-18064484D01*
X4466491Y-17854960D02*
X4295063Y-18112103D01*
X4723634Y-17864484D02*
X4742682Y-17864484D01*
X4742682Y-17864484D02*
X4761729Y-17874008D01*
X4761729Y-17874008D02*
X4771253Y-17883531D01*
X4771253Y-17883531D02*
X4780777Y-17902579D01*
X4780777Y-17902579D02*
X4790301Y-17940674D01*
X4790301Y-17940674D02*
X4790301Y-17988293D01*
X4790301Y-17988293D02*
X4780777Y-18026389D01*
X4780777Y-18026389D02*
X4771253Y-18045436D01*
X4771253Y-18045436D02*
X4761729Y-18054960D01*
X4761729Y-18054960D02*
X4742682Y-18064484D01*
X4742682Y-18064484D02*
X4723634Y-18064484D01*
X4723634Y-18064484D02*
X4704587Y-18054960D01*
X4704587Y-18054960D02*
X4695063Y-18045436D01*
X4695063Y-18045436D02*
X4685539Y-18026389D01*
X4685539Y-18026389D02*
X4676015Y-17988293D01*
X4676015Y-17988293D02*
X4676015Y-17940674D01*
X4676015Y-17940674D02*
X4685539Y-17902579D01*
X4685539Y-17902579D02*
X4695063Y-17883531D01*
X4695063Y-17883531D02*
X4704587Y-17874008D01*
X4704587Y-17874008D02*
X4723634Y-17864484D01*
X4876015Y-18045436D02*
X4885539Y-18054960D01*
X4885539Y-18054960D02*
X4876015Y-18064484D01*
X4876015Y-18064484D02*
X4866491Y-18054960D01*
X4866491Y-18054960D02*
X4876015Y-18045436D01*
X4876015Y-18045436D02*
X4876015Y-18064484D01*
X5009348Y-17864484D02*
X5028396Y-17864484D01*
X5028396Y-17864484D02*
X5047444Y-17874008D01*
X5047444Y-17874008D02*
X5056968Y-17883531D01*
X5056968Y-17883531D02*
X5066491Y-17902579D01*
X5066491Y-17902579D02*
X5076015Y-17940674D01*
X5076015Y-17940674D02*
X5076015Y-17988293D01*
X5076015Y-17988293D02*
X5066491Y-18026389D01*
X5066491Y-18026389D02*
X5056968Y-18045436D01*
X5056968Y-18045436D02*
X5047444Y-18054960D01*
X5047444Y-18054960D02*
X5028396Y-18064484D01*
X5028396Y-18064484D02*
X5009348Y-18064484D01*
X5009348Y-18064484D02*
X4990301Y-18054960D01*
X4990301Y-18054960D02*
X4980777Y-18045436D01*
X4980777Y-18045436D02*
X4971253Y-18026389D01*
X4971253Y-18026389D02*
X4961729Y-17988293D01*
X4961729Y-17988293D02*
X4961729Y-17940674D01*
X4961729Y-17940674D02*
X4971253Y-17902579D01*
X4971253Y-17902579D02*
X4980777Y-17883531D01*
X4980777Y-17883531D02*
X4990301Y-17874008D01*
X4990301Y-17874008D02*
X5009348Y-17864484D01*
X5266491Y-18064484D02*
X5152206Y-18064484D01*
X5209348Y-18064484D02*
X5209348Y-17864484D01*
X5209348Y-17864484D02*
X5190301Y-17893055D01*
X5190301Y-17893055D02*
X5171253Y-17912103D01*
X5171253Y-17912103D02*
X5152206Y-17921627D01*
X5447444Y-17864484D02*
X5352206Y-17864484D01*
X5352206Y-17864484D02*
X5342682Y-17959722D01*
X5342682Y-17959722D02*
X5352206Y-17950198D01*
X5352206Y-17950198D02*
X5371253Y-17940674D01*
X5371253Y-17940674D02*
X5418872Y-17940674D01*
X5418872Y-17940674D02*
X5437920Y-17950198D01*
X5437920Y-17950198D02*
X5447444Y-17959722D01*
X5447444Y-17959722D02*
X5456968Y-17978770D01*
X5456968Y-17978770D02*
X5456968Y-18026389D01*
X5456968Y-18026389D02*
X5447444Y-18045436D01*
X5447444Y-18045436D02*
X5437920Y-18054960D01*
X5437920Y-18054960D02*
X5418872Y-18064484D01*
X5418872Y-18064484D02*
X5371253Y-18064484D01*
X5371253Y-18064484D02*
X5352206Y-18054960D01*
X5352206Y-18054960D02*
X5342682Y-18045436D01*
X5523634Y-17864484D02*
X5656967Y-17864484D01*
X5656967Y-17864484D02*
X5571253Y-18064484D01*
X5723634Y-17864484D02*
X5723634Y-17902579D01*
X5799825Y-17864484D02*
X5799825Y-17902579D01*
X6095063Y-18140674D02*
X6085539Y-18131150D01*
X6085539Y-18131150D02*
X6066491Y-18102579D01*
X6066491Y-18102579D02*
X6056968Y-18083531D01*
X6056968Y-18083531D02*
X6047444Y-18054960D01*
X6047444Y-18054960D02*
X6037920Y-18007341D01*
X6037920Y-18007341D02*
X6037920Y-17969246D01*
X6037920Y-17969246D02*
X6047444Y-17921627D01*
X6047444Y-17921627D02*
X6056968Y-17893055D01*
X6056968Y-17893055D02*
X6066491Y-17874008D01*
X6066491Y-17874008D02*
X6085539Y-17845436D01*
X6085539Y-17845436D02*
X6095063Y-17835912D01*
X6256968Y-17931150D02*
X6256968Y-18064484D01*
X6209348Y-17854960D02*
X6161729Y-17997817D01*
X6161729Y-17997817D02*
X6285539Y-17997817D01*
X6342682Y-17864484D02*
X6466491Y-17864484D01*
X6466491Y-17864484D02*
X6399825Y-17940674D01*
X6399825Y-17940674D02*
X6428396Y-17940674D01*
X6428396Y-17940674D02*
X6447444Y-17950198D01*
X6447444Y-17950198D02*
X6456968Y-17959722D01*
X6456968Y-17959722D02*
X6466491Y-17978770D01*
X6466491Y-17978770D02*
X6466491Y-18026389D01*
X6466491Y-18026389D02*
X6456968Y-18045436D01*
X6456968Y-18045436D02*
X6447444Y-18054960D01*
X6447444Y-18054960D02*
X6428396Y-18064484D01*
X6428396Y-18064484D02*
X6371253Y-18064484D01*
X6371253Y-18064484D02*
X6352206Y-18054960D01*
X6352206Y-18054960D02*
X6342682Y-18045436D01*
X6704587Y-18064484D02*
X6704587Y-17864484D01*
X6790301Y-18064484D02*
X6790301Y-17959722D01*
X6790301Y-17959722D02*
X6780777Y-17940674D01*
X6780777Y-17940674D02*
X6761730Y-17931150D01*
X6761730Y-17931150D02*
X6733158Y-17931150D01*
X6733158Y-17931150D02*
X6714110Y-17940674D01*
X6714110Y-17940674D02*
X6704587Y-17950198D01*
X6914110Y-18064484D02*
X6895063Y-18054960D01*
X6895063Y-18054960D02*
X6885539Y-18045436D01*
X6885539Y-18045436D02*
X6876015Y-18026389D01*
X6876015Y-18026389D02*
X6876015Y-17969246D01*
X6876015Y-17969246D02*
X6885539Y-17950198D01*
X6885539Y-17950198D02*
X6895063Y-17940674D01*
X6895063Y-17940674D02*
X6914110Y-17931150D01*
X6914110Y-17931150D02*
X6942682Y-17931150D01*
X6942682Y-17931150D02*
X6961730Y-17940674D01*
X6961730Y-17940674D02*
X6971253Y-17950198D01*
X6971253Y-17950198D02*
X6980777Y-17969246D01*
X6980777Y-17969246D02*
X6980777Y-18026389D01*
X6980777Y-18026389D02*
X6971253Y-18045436D01*
X6971253Y-18045436D02*
X6961730Y-18054960D01*
X6961730Y-18054960D02*
X6942682Y-18064484D01*
X6942682Y-18064484D02*
X6914110Y-18064484D01*
X7095063Y-18064484D02*
X7076015Y-18054960D01*
X7076015Y-18054960D02*
X7066491Y-18035912D01*
X7066491Y-18035912D02*
X7066491Y-17864484D01*
X7247444Y-18054960D02*
X7228396Y-18064484D01*
X7228396Y-18064484D02*
X7190301Y-18064484D01*
X7190301Y-18064484D02*
X7171253Y-18054960D01*
X7171253Y-18054960D02*
X7161730Y-18035912D01*
X7161730Y-18035912D02*
X7161730Y-17959722D01*
X7161730Y-17959722D02*
X7171253Y-17940674D01*
X7171253Y-17940674D02*
X7190301Y-17931150D01*
X7190301Y-17931150D02*
X7228396Y-17931150D01*
X7228396Y-17931150D02*
X7247444Y-17940674D01*
X7247444Y-17940674D02*
X7256968Y-17959722D01*
X7256968Y-17959722D02*
X7256968Y-17978770D01*
X7256968Y-17978770D02*
X7161730Y-17997817D01*
X7333158Y-18054960D02*
X7352206Y-18064484D01*
X7352206Y-18064484D02*
X7390301Y-18064484D01*
X7390301Y-18064484D02*
X7409349Y-18054960D01*
X7409349Y-18054960D02*
X7418872Y-18035912D01*
X7418872Y-18035912D02*
X7418872Y-18026389D01*
X7418872Y-18026389D02*
X7409349Y-18007341D01*
X7409349Y-18007341D02*
X7390301Y-17997817D01*
X7390301Y-17997817D02*
X7361730Y-17997817D01*
X7361730Y-17997817D02*
X7342682Y-17988293D01*
X7342682Y-17988293D02*
X7333158Y-17969246D01*
X7333158Y-17969246D02*
X7333158Y-17959722D01*
X7333158Y-17959722D02*
X7342682Y-17940674D01*
X7342682Y-17940674D02*
X7361730Y-17931150D01*
X7361730Y-17931150D02*
X7390301Y-17931150D01*
X7390301Y-17931150D02*
X7409349Y-17940674D01*
X7485539Y-18140674D02*
X7495063Y-18131150D01*
X7495063Y-18131150D02*
X7514111Y-18102579D01*
X7514111Y-18102579D02*
X7523634Y-18083531D01*
X7523634Y-18083531D02*
X7533158Y-18054960D01*
X7533158Y-18054960D02*
X7542682Y-18007341D01*
X7542682Y-18007341D02*
X7542682Y-17969246D01*
X7542682Y-17969246D02*
X7533158Y-17921627D01*
X7533158Y-17921627D02*
X7523634Y-17893055D01*
X7523634Y-17893055D02*
X7514111Y-17874008D01*
X7514111Y-17874008D02*
X7495063Y-17845436D01*
X7495063Y-17845436D02*
X7485539Y-17835912D01*
D12*
X2505063Y-18273063D02*
X2505063Y-18200937D01*
X2432937Y-18200937D01*
X2432937Y-18273063D01*
X2505063Y-18273063D01*
D11*
X2885539Y-18328484D02*
X2771253Y-18328484D01*
X2828396Y-18328484D02*
X2828396Y-18128484D01*
X2828396Y-18128484D02*
X2809348Y-18157055D01*
X2809348Y-18157055D02*
X2790301Y-18176103D01*
X2790301Y-18176103D02*
X2771253Y-18185627D01*
X2971253Y-18309436D02*
X2980777Y-18318960D01*
X2980777Y-18318960D02*
X2971253Y-18328484D01*
X2971253Y-18328484D02*
X2961729Y-18318960D01*
X2961729Y-18318960D02*
X2971253Y-18309436D01*
X2971253Y-18309436D02*
X2971253Y-18328484D01*
X3104586Y-18128484D02*
X3123634Y-18128484D01*
X3123634Y-18128484D02*
X3142682Y-18138008D01*
X3142682Y-18138008D02*
X3152205Y-18147531D01*
X3152205Y-18147531D02*
X3161729Y-18166579D01*
X3161729Y-18166579D02*
X3171253Y-18204674D01*
X3171253Y-18204674D02*
X3171253Y-18252293D01*
X3171253Y-18252293D02*
X3161729Y-18290389D01*
X3161729Y-18290389D02*
X3152205Y-18309436D01*
X3152205Y-18309436D02*
X3142682Y-18318960D01*
X3142682Y-18318960D02*
X3123634Y-18328484D01*
X3123634Y-18328484D02*
X3104586Y-18328484D01*
X3104586Y-18328484D02*
X3085539Y-18318960D01*
X3085539Y-18318960D02*
X3076015Y-18309436D01*
X3076015Y-18309436D02*
X3066491Y-18290389D01*
X3066491Y-18290389D02*
X3056967Y-18252293D01*
X3056967Y-18252293D02*
X3056967Y-18204674D01*
X3056967Y-18204674D02*
X3066491Y-18166579D01*
X3066491Y-18166579D02*
X3076015Y-18147531D01*
X3076015Y-18147531D02*
X3085539Y-18138008D01*
X3085539Y-18138008D02*
X3104586Y-18128484D01*
X3247443Y-18147531D02*
X3256967Y-18138008D01*
X3256967Y-18138008D02*
X3276015Y-18128484D01*
X3276015Y-18128484D02*
X3323634Y-18128484D01*
X3323634Y-18128484D02*
X3342682Y-18138008D01*
X3342682Y-18138008D02*
X3352205Y-18147531D01*
X3352205Y-18147531D02*
X3361729Y-18166579D01*
X3361729Y-18166579D02*
X3361729Y-18185627D01*
X3361729Y-18185627D02*
X3352205Y-18214198D01*
X3352205Y-18214198D02*
X3237920Y-18328484D01*
X3237920Y-18328484D02*
X3361729Y-18328484D01*
X3485539Y-18128484D02*
X3504586Y-18128484D01*
X3504586Y-18128484D02*
X3523634Y-18138008D01*
X3523634Y-18138008D02*
X3533158Y-18147531D01*
X3533158Y-18147531D02*
X3542682Y-18166579D01*
X3542682Y-18166579D02*
X3552205Y-18204674D01*
X3552205Y-18204674D02*
X3552205Y-18252293D01*
X3552205Y-18252293D02*
X3542682Y-18290389D01*
X3542682Y-18290389D02*
X3533158Y-18309436D01*
X3533158Y-18309436D02*
X3523634Y-18318960D01*
X3523634Y-18318960D02*
X3504586Y-18328484D01*
X3504586Y-18328484D02*
X3485539Y-18328484D01*
X3485539Y-18328484D02*
X3466491Y-18318960D01*
X3466491Y-18318960D02*
X3456967Y-18309436D01*
X3456967Y-18309436D02*
X3447443Y-18290389D01*
X3447443Y-18290389D02*
X3437920Y-18252293D01*
X3437920Y-18252293D02*
X3437920Y-18204674D01*
X3437920Y-18204674D02*
X3447443Y-18166579D01*
X3447443Y-18166579D02*
X3456967Y-18147531D01*
X3456967Y-18147531D02*
X3466491Y-18138008D01*
X3466491Y-18138008D02*
X3485539Y-18128484D01*
X3637920Y-18328484D02*
X3637920Y-18195150D01*
X3637920Y-18214198D02*
X3647443Y-18204674D01*
X3647443Y-18204674D02*
X3666491Y-18195150D01*
X3666491Y-18195150D02*
X3695063Y-18195150D01*
X3695063Y-18195150D02*
X3714110Y-18204674D01*
X3714110Y-18204674D02*
X3723634Y-18223722D01*
X3723634Y-18223722D02*
X3723634Y-18328484D01*
X3723634Y-18223722D02*
X3733158Y-18204674D01*
X3733158Y-18204674D02*
X3752205Y-18195150D01*
X3752205Y-18195150D02*
X3780777Y-18195150D01*
X3780777Y-18195150D02*
X3799824Y-18204674D01*
X3799824Y-18204674D02*
X3809348Y-18223722D01*
X3809348Y-18223722D02*
X3809348Y-18328484D01*
X3904586Y-18328484D02*
X3904586Y-18195150D01*
X3904586Y-18214198D02*
X3914110Y-18204674D01*
X3914110Y-18204674D02*
X3933158Y-18195150D01*
X3933158Y-18195150D02*
X3961729Y-18195150D01*
X3961729Y-18195150D02*
X3980777Y-18204674D01*
X3980777Y-18204674D02*
X3990301Y-18223722D01*
X3990301Y-18223722D02*
X3990301Y-18328484D01*
X3990301Y-18223722D02*
X3999824Y-18204674D01*
X3999824Y-18204674D02*
X4018872Y-18195150D01*
X4018872Y-18195150D02*
X4047443Y-18195150D01*
X4047443Y-18195150D02*
X4066491Y-18204674D01*
X4066491Y-18204674D02*
X4076015Y-18223722D01*
X4076015Y-18223722D02*
X4076015Y-18328484D01*
X4466491Y-18118960D02*
X4295063Y-18376103D01*
X4723634Y-18128484D02*
X4742682Y-18128484D01*
X4742682Y-18128484D02*
X4761729Y-18138008D01*
X4761729Y-18138008D02*
X4771253Y-18147531D01*
X4771253Y-18147531D02*
X4780777Y-18166579D01*
X4780777Y-18166579D02*
X4790301Y-18204674D01*
X4790301Y-18204674D02*
X4790301Y-18252293D01*
X4790301Y-18252293D02*
X4780777Y-18290389D01*
X4780777Y-18290389D02*
X4771253Y-18309436D01*
X4771253Y-18309436D02*
X4761729Y-18318960D01*
X4761729Y-18318960D02*
X4742682Y-18328484D01*
X4742682Y-18328484D02*
X4723634Y-18328484D01*
X4723634Y-18328484D02*
X4704587Y-18318960D01*
X4704587Y-18318960D02*
X4695063Y-18309436D01*
X4695063Y-18309436D02*
X4685539Y-18290389D01*
X4685539Y-18290389D02*
X4676015Y-18252293D01*
X4676015Y-18252293D02*
X4676015Y-18204674D01*
X4676015Y-18204674D02*
X4685539Y-18166579D01*
X4685539Y-18166579D02*
X4695063Y-18147531D01*
X4695063Y-18147531D02*
X4704587Y-18138008D01*
X4704587Y-18138008D02*
X4723634Y-18128484D01*
X4876015Y-18309436D02*
X4885539Y-18318960D01*
X4885539Y-18318960D02*
X4876015Y-18328484D01*
X4876015Y-18328484D02*
X4866491Y-18318960D01*
X4866491Y-18318960D02*
X4876015Y-18309436D01*
X4876015Y-18309436D02*
X4876015Y-18328484D01*
X5009348Y-18128484D02*
X5028396Y-18128484D01*
X5028396Y-18128484D02*
X5047444Y-18138008D01*
X5047444Y-18138008D02*
X5056968Y-18147531D01*
X5056968Y-18147531D02*
X5066491Y-18166579D01*
X5066491Y-18166579D02*
X5076015Y-18204674D01*
X5076015Y-18204674D02*
X5076015Y-18252293D01*
X5076015Y-18252293D02*
X5066491Y-18290389D01*
X5066491Y-18290389D02*
X5056968Y-18309436D01*
X5056968Y-18309436D02*
X5047444Y-18318960D01*
X5047444Y-18318960D02*
X5028396Y-18328484D01*
X5028396Y-18328484D02*
X5009348Y-18328484D01*
X5009348Y-18328484D02*
X4990301Y-18318960D01*
X4990301Y-18318960D02*
X4980777Y-18309436D01*
X4980777Y-18309436D02*
X4971253Y-18290389D01*
X4971253Y-18290389D02*
X4961729Y-18252293D01*
X4961729Y-18252293D02*
X4961729Y-18204674D01*
X4961729Y-18204674D02*
X4971253Y-18166579D01*
X4971253Y-18166579D02*
X4980777Y-18147531D01*
X4980777Y-18147531D02*
X4990301Y-18138008D01*
X4990301Y-18138008D02*
X5009348Y-18128484D01*
X5247444Y-18195150D02*
X5247444Y-18328484D01*
X5199825Y-18118960D02*
X5152206Y-18261817D01*
X5152206Y-18261817D02*
X5276015Y-18261817D01*
X5390301Y-18128484D02*
X5409349Y-18128484D01*
X5409349Y-18128484D02*
X5428396Y-18138008D01*
X5428396Y-18138008D02*
X5437920Y-18147531D01*
X5437920Y-18147531D02*
X5447444Y-18166579D01*
X5447444Y-18166579D02*
X5456968Y-18204674D01*
X5456968Y-18204674D02*
X5456968Y-18252293D01*
X5456968Y-18252293D02*
X5447444Y-18290389D01*
X5447444Y-18290389D02*
X5437920Y-18309436D01*
X5437920Y-18309436D02*
X5428396Y-18318960D01*
X5428396Y-18318960D02*
X5409349Y-18328484D01*
X5409349Y-18328484D02*
X5390301Y-18328484D01*
X5390301Y-18328484D02*
X5371253Y-18318960D01*
X5371253Y-18318960D02*
X5361729Y-18309436D01*
X5361729Y-18309436D02*
X5352206Y-18290389D01*
X5352206Y-18290389D02*
X5342682Y-18252293D01*
X5342682Y-18252293D02*
X5342682Y-18204674D01*
X5342682Y-18204674D02*
X5352206Y-18166579D01*
X5352206Y-18166579D02*
X5361729Y-18147531D01*
X5361729Y-18147531D02*
X5371253Y-18138008D01*
X5371253Y-18138008D02*
X5390301Y-18128484D01*
X5533158Y-18147531D02*
X5542682Y-18138008D01*
X5542682Y-18138008D02*
X5561729Y-18128484D01*
X5561729Y-18128484D02*
X5609348Y-18128484D01*
X5609348Y-18128484D02*
X5628396Y-18138008D01*
X5628396Y-18138008D02*
X5637920Y-18147531D01*
X5637920Y-18147531D02*
X5647444Y-18166579D01*
X5647444Y-18166579D02*
X5647444Y-18185627D01*
X5647444Y-18185627D02*
X5637920Y-18214198D01*
X5637920Y-18214198D02*
X5523634Y-18328484D01*
X5523634Y-18328484D02*
X5647444Y-18328484D01*
X5723634Y-18128484D02*
X5723634Y-18166579D01*
X5799825Y-18128484D02*
X5799825Y-18166579D01*
X6095063Y-18404674D02*
X6085539Y-18395150D01*
X6085539Y-18395150D02*
X6066491Y-18366579D01*
X6066491Y-18366579D02*
X6056968Y-18347531D01*
X6056968Y-18347531D02*
X6047444Y-18318960D01*
X6047444Y-18318960D02*
X6037920Y-18271341D01*
X6037920Y-18271341D02*
X6037920Y-18233246D01*
X6037920Y-18233246D02*
X6047444Y-18185627D01*
X6047444Y-18185627D02*
X6056968Y-18157055D01*
X6056968Y-18157055D02*
X6066491Y-18138008D01*
X6066491Y-18138008D02*
X6085539Y-18109436D01*
X6085539Y-18109436D02*
X6095063Y-18099912D01*
X6256968Y-18195150D02*
X6256968Y-18328484D01*
X6209348Y-18118960D02*
X6161729Y-18261817D01*
X6161729Y-18261817D02*
X6285539Y-18261817D01*
X6342682Y-18128484D02*
X6466491Y-18128484D01*
X6466491Y-18128484D02*
X6399825Y-18204674D01*
X6399825Y-18204674D02*
X6428396Y-18204674D01*
X6428396Y-18204674D02*
X6447444Y-18214198D01*
X6447444Y-18214198D02*
X6456968Y-18223722D01*
X6456968Y-18223722D02*
X6466491Y-18242770D01*
X6466491Y-18242770D02*
X6466491Y-18290389D01*
X6466491Y-18290389D02*
X6456968Y-18309436D01*
X6456968Y-18309436D02*
X6447444Y-18318960D01*
X6447444Y-18318960D02*
X6428396Y-18328484D01*
X6428396Y-18328484D02*
X6371253Y-18328484D01*
X6371253Y-18328484D02*
X6352206Y-18318960D01*
X6352206Y-18318960D02*
X6342682Y-18309436D01*
X6704587Y-18328484D02*
X6704587Y-18128484D01*
X6790301Y-18328484D02*
X6790301Y-18223722D01*
X6790301Y-18223722D02*
X6780777Y-18204674D01*
X6780777Y-18204674D02*
X6761730Y-18195150D01*
X6761730Y-18195150D02*
X6733158Y-18195150D01*
X6733158Y-18195150D02*
X6714110Y-18204674D01*
X6714110Y-18204674D02*
X6704587Y-18214198D01*
X6914110Y-18328484D02*
X6895063Y-18318960D01*
X6895063Y-18318960D02*
X6885539Y-18309436D01*
X6885539Y-18309436D02*
X6876015Y-18290389D01*
X6876015Y-18290389D02*
X6876015Y-18233246D01*
X6876015Y-18233246D02*
X6885539Y-18214198D01*
X6885539Y-18214198D02*
X6895063Y-18204674D01*
X6895063Y-18204674D02*
X6914110Y-18195150D01*
X6914110Y-18195150D02*
X6942682Y-18195150D01*
X6942682Y-18195150D02*
X6961730Y-18204674D01*
X6961730Y-18204674D02*
X6971253Y-18214198D01*
X6971253Y-18214198D02*
X6980777Y-18233246D01*
X6980777Y-18233246D02*
X6980777Y-18290389D01*
X6980777Y-18290389D02*
X6971253Y-18309436D01*
X6971253Y-18309436D02*
X6961730Y-18318960D01*
X6961730Y-18318960D02*
X6942682Y-18328484D01*
X6942682Y-18328484D02*
X6914110Y-18328484D01*
X7095063Y-18328484D02*
X7076015Y-18318960D01*
X7076015Y-18318960D02*
X7066491Y-18299912D01*
X7066491Y-18299912D02*
X7066491Y-18128484D01*
X7247444Y-18318960D02*
X7228396Y-18328484D01*
X7228396Y-18328484D02*
X7190301Y-18328484D01*
X7190301Y-18328484D02*
X7171253Y-18318960D01*
X7171253Y-18318960D02*
X7161730Y-18299912D01*
X7161730Y-18299912D02*
X7161730Y-18223722D01*
X7161730Y-18223722D02*
X7171253Y-18204674D01*
X7171253Y-18204674D02*
X7190301Y-18195150D01*
X7190301Y-18195150D02*
X7228396Y-18195150D01*
X7228396Y-18195150D02*
X7247444Y-18204674D01*
X7247444Y-18204674D02*
X7256968Y-18223722D01*
X7256968Y-18223722D02*
X7256968Y-18242770D01*
X7256968Y-18242770D02*
X7161730Y-18261817D01*
X7333158Y-18318960D02*
X7352206Y-18328484D01*
X7352206Y-18328484D02*
X7390301Y-18328484D01*
X7390301Y-18328484D02*
X7409349Y-18318960D01*
X7409349Y-18318960D02*
X7418872Y-18299912D01*
X7418872Y-18299912D02*
X7418872Y-18290389D01*
X7418872Y-18290389D02*
X7409349Y-18271341D01*
X7409349Y-18271341D02*
X7390301Y-18261817D01*
X7390301Y-18261817D02*
X7361730Y-18261817D01*
X7361730Y-18261817D02*
X7342682Y-18252293D01*
X7342682Y-18252293D02*
X7333158Y-18233246D01*
X7333158Y-18233246D02*
X7333158Y-18223722D01*
X7333158Y-18223722D02*
X7342682Y-18204674D01*
X7342682Y-18204674D02*
X7361730Y-18195150D01*
X7361730Y-18195150D02*
X7390301Y-18195150D01*
X7390301Y-18195150D02*
X7409349Y-18204674D01*
X7485539Y-18404674D02*
X7495063Y-18395150D01*
X7495063Y-18395150D02*
X7514111Y-18366579D01*
X7514111Y-18366579D02*
X7523634Y-18347531D01*
X7523634Y-18347531D02*
X7533158Y-18318960D01*
X7533158Y-18318960D02*
X7542682Y-18271341D01*
X7542682Y-18271341D02*
X7542682Y-18233246D01*
X7542682Y-18233246D02*
X7533158Y-18185627D01*
X7533158Y-18185627D02*
X7523634Y-18157055D01*
X7523634Y-18157055D02*
X7514111Y-18138008D01*
X7514111Y-18138008D02*
X7495063Y-18109436D01*
X7495063Y-18109436D02*
X7485539Y-18099912D01*
D13*
X2460000Y-18561000D02*
X2520000Y-18501000D01*
X2460000Y-18441000D01*
X2400000Y-18501000D01*
X2460000Y-18561000D01*
D11*
X2885539Y-18592484D02*
X2771253Y-18592484D01*
X2828396Y-18592484D02*
X2828396Y-18392484D01*
X2828396Y-18392484D02*
X2809348Y-18421055D01*
X2809348Y-18421055D02*
X2790301Y-18440103D01*
X2790301Y-18440103D02*
X2771253Y-18449627D01*
X2971253Y-18573436D02*
X2980777Y-18582960D01*
X2980777Y-18582960D02*
X2971253Y-18592484D01*
X2971253Y-18592484D02*
X2961729Y-18582960D01*
X2961729Y-18582960D02*
X2971253Y-18573436D01*
X2971253Y-18573436D02*
X2971253Y-18592484D01*
X3056967Y-18411531D02*
X3066491Y-18402008D01*
X3066491Y-18402008D02*
X3085539Y-18392484D01*
X3085539Y-18392484D02*
X3133158Y-18392484D01*
X3133158Y-18392484D02*
X3152205Y-18402008D01*
X3152205Y-18402008D02*
X3161729Y-18411531D01*
X3161729Y-18411531D02*
X3171253Y-18430579D01*
X3171253Y-18430579D02*
X3171253Y-18449627D01*
X3171253Y-18449627D02*
X3161729Y-18478198D01*
X3161729Y-18478198D02*
X3047443Y-18592484D01*
X3047443Y-18592484D02*
X3171253Y-18592484D01*
X3295062Y-18392484D02*
X3314110Y-18392484D01*
X3314110Y-18392484D02*
X3333158Y-18402008D01*
X3333158Y-18402008D02*
X3342682Y-18411531D01*
X3342682Y-18411531D02*
X3352205Y-18430579D01*
X3352205Y-18430579D02*
X3361729Y-18468674D01*
X3361729Y-18468674D02*
X3361729Y-18516293D01*
X3361729Y-18516293D02*
X3352205Y-18554389D01*
X3352205Y-18554389D02*
X3342682Y-18573436D01*
X3342682Y-18573436D02*
X3333158Y-18582960D01*
X3333158Y-18582960D02*
X3314110Y-18592484D01*
X3314110Y-18592484D02*
X3295062Y-18592484D01*
X3295062Y-18592484D02*
X3276015Y-18582960D01*
X3276015Y-18582960D02*
X3266491Y-18573436D01*
X3266491Y-18573436D02*
X3256967Y-18554389D01*
X3256967Y-18554389D02*
X3247443Y-18516293D01*
X3247443Y-18516293D02*
X3247443Y-18468674D01*
X3247443Y-18468674D02*
X3256967Y-18430579D01*
X3256967Y-18430579D02*
X3266491Y-18411531D01*
X3266491Y-18411531D02*
X3276015Y-18402008D01*
X3276015Y-18402008D02*
X3295062Y-18392484D01*
X3485539Y-18392484D02*
X3504586Y-18392484D01*
X3504586Y-18392484D02*
X3523634Y-18402008D01*
X3523634Y-18402008D02*
X3533158Y-18411531D01*
X3533158Y-18411531D02*
X3542682Y-18430579D01*
X3542682Y-18430579D02*
X3552205Y-18468674D01*
X3552205Y-18468674D02*
X3552205Y-18516293D01*
X3552205Y-18516293D02*
X3542682Y-18554389D01*
X3542682Y-18554389D02*
X3533158Y-18573436D01*
X3533158Y-18573436D02*
X3523634Y-18582960D01*
X3523634Y-18582960D02*
X3504586Y-18592484D01*
X3504586Y-18592484D02*
X3485539Y-18592484D01*
X3485539Y-18592484D02*
X3466491Y-18582960D01*
X3466491Y-18582960D02*
X3456967Y-18573436D01*
X3456967Y-18573436D02*
X3447443Y-18554389D01*
X3447443Y-18554389D02*
X3437920Y-18516293D01*
X3437920Y-18516293D02*
X3437920Y-18468674D01*
X3437920Y-18468674D02*
X3447443Y-18430579D01*
X3447443Y-18430579D02*
X3456967Y-18411531D01*
X3456967Y-18411531D02*
X3466491Y-18402008D01*
X3466491Y-18402008D02*
X3485539Y-18392484D01*
X3637920Y-18592484D02*
X3637920Y-18459150D01*
X3637920Y-18478198D02*
X3647443Y-18468674D01*
X3647443Y-18468674D02*
X3666491Y-18459150D01*
X3666491Y-18459150D02*
X3695063Y-18459150D01*
X3695063Y-18459150D02*
X3714110Y-18468674D01*
X3714110Y-18468674D02*
X3723634Y-18487722D01*
X3723634Y-18487722D02*
X3723634Y-18592484D01*
X3723634Y-18487722D02*
X3733158Y-18468674D01*
X3733158Y-18468674D02*
X3752205Y-18459150D01*
X3752205Y-18459150D02*
X3780777Y-18459150D01*
X3780777Y-18459150D02*
X3799824Y-18468674D01*
X3799824Y-18468674D02*
X3809348Y-18487722D01*
X3809348Y-18487722D02*
X3809348Y-18592484D01*
X3904586Y-18592484D02*
X3904586Y-18459150D01*
X3904586Y-18478198D02*
X3914110Y-18468674D01*
X3914110Y-18468674D02*
X3933158Y-18459150D01*
X3933158Y-18459150D02*
X3961729Y-18459150D01*
X3961729Y-18459150D02*
X3980777Y-18468674D01*
X3980777Y-18468674D02*
X3990301Y-18487722D01*
X3990301Y-18487722D02*
X3990301Y-18592484D01*
X3990301Y-18487722D02*
X3999824Y-18468674D01*
X3999824Y-18468674D02*
X4018872Y-18459150D01*
X4018872Y-18459150D02*
X4047443Y-18459150D01*
X4047443Y-18459150D02*
X4066491Y-18468674D01*
X4066491Y-18468674D02*
X4076015Y-18487722D01*
X4076015Y-18487722D02*
X4076015Y-18592484D01*
X4466491Y-18382960D02*
X4295063Y-18640103D01*
X4723634Y-18392484D02*
X4742682Y-18392484D01*
X4742682Y-18392484D02*
X4761729Y-18402008D01*
X4761729Y-18402008D02*
X4771253Y-18411531D01*
X4771253Y-18411531D02*
X4780777Y-18430579D01*
X4780777Y-18430579D02*
X4790301Y-18468674D01*
X4790301Y-18468674D02*
X4790301Y-18516293D01*
X4790301Y-18516293D02*
X4780777Y-18554389D01*
X4780777Y-18554389D02*
X4771253Y-18573436D01*
X4771253Y-18573436D02*
X4761729Y-18582960D01*
X4761729Y-18582960D02*
X4742682Y-18592484D01*
X4742682Y-18592484D02*
X4723634Y-18592484D01*
X4723634Y-18592484D02*
X4704587Y-18582960D01*
X4704587Y-18582960D02*
X4695063Y-18573436D01*
X4695063Y-18573436D02*
X4685539Y-18554389D01*
X4685539Y-18554389D02*
X4676015Y-18516293D01*
X4676015Y-18516293D02*
X4676015Y-18468674D01*
X4676015Y-18468674D02*
X4685539Y-18430579D01*
X4685539Y-18430579D02*
X4695063Y-18411531D01*
X4695063Y-18411531D02*
X4704587Y-18402008D01*
X4704587Y-18402008D02*
X4723634Y-18392484D01*
X4876015Y-18573436D02*
X4885539Y-18582960D01*
X4885539Y-18582960D02*
X4876015Y-18592484D01*
X4876015Y-18592484D02*
X4866491Y-18582960D01*
X4866491Y-18582960D02*
X4876015Y-18573436D01*
X4876015Y-18573436D02*
X4876015Y-18592484D01*
X5009348Y-18392484D02*
X5028396Y-18392484D01*
X5028396Y-18392484D02*
X5047444Y-18402008D01*
X5047444Y-18402008D02*
X5056968Y-18411531D01*
X5056968Y-18411531D02*
X5066491Y-18430579D01*
X5066491Y-18430579D02*
X5076015Y-18468674D01*
X5076015Y-18468674D02*
X5076015Y-18516293D01*
X5076015Y-18516293D02*
X5066491Y-18554389D01*
X5066491Y-18554389D02*
X5056968Y-18573436D01*
X5056968Y-18573436D02*
X5047444Y-18582960D01*
X5047444Y-18582960D02*
X5028396Y-18592484D01*
X5028396Y-18592484D02*
X5009348Y-18592484D01*
X5009348Y-18592484D02*
X4990301Y-18582960D01*
X4990301Y-18582960D02*
X4980777Y-18573436D01*
X4980777Y-18573436D02*
X4971253Y-18554389D01*
X4971253Y-18554389D02*
X4961729Y-18516293D01*
X4961729Y-18516293D02*
X4961729Y-18468674D01*
X4961729Y-18468674D02*
X4971253Y-18430579D01*
X4971253Y-18430579D02*
X4980777Y-18411531D01*
X4980777Y-18411531D02*
X4990301Y-18402008D01*
X4990301Y-18402008D02*
X5009348Y-18392484D01*
X5247444Y-18459150D02*
X5247444Y-18592484D01*
X5199825Y-18382960D02*
X5152206Y-18525817D01*
X5152206Y-18525817D02*
X5276015Y-18525817D01*
X5333158Y-18392484D02*
X5466491Y-18392484D01*
X5466491Y-18392484D02*
X5380777Y-18592484D01*
X5533158Y-18411531D02*
X5542682Y-18402008D01*
X5542682Y-18402008D02*
X5561729Y-18392484D01*
X5561729Y-18392484D02*
X5609348Y-18392484D01*
X5609348Y-18392484D02*
X5628396Y-18402008D01*
X5628396Y-18402008D02*
X5637920Y-18411531D01*
X5637920Y-18411531D02*
X5647444Y-18430579D01*
X5647444Y-18430579D02*
X5647444Y-18449627D01*
X5647444Y-18449627D02*
X5637920Y-18478198D01*
X5637920Y-18478198D02*
X5523634Y-18592484D01*
X5523634Y-18592484D02*
X5647444Y-18592484D01*
X5723634Y-18392484D02*
X5723634Y-18430579D01*
X5799825Y-18392484D02*
X5799825Y-18430579D01*
X6095063Y-18668674D02*
X6085539Y-18659150D01*
X6085539Y-18659150D02*
X6066491Y-18630579D01*
X6066491Y-18630579D02*
X6056968Y-18611531D01*
X6056968Y-18611531D02*
X6047444Y-18582960D01*
X6047444Y-18582960D02*
X6037920Y-18535341D01*
X6037920Y-18535341D02*
X6037920Y-18497246D01*
X6037920Y-18497246D02*
X6047444Y-18449627D01*
X6047444Y-18449627D02*
X6056968Y-18421055D01*
X6056968Y-18421055D02*
X6066491Y-18402008D01*
X6066491Y-18402008D02*
X6085539Y-18373436D01*
X6085539Y-18373436D02*
X6095063Y-18363912D01*
X6276015Y-18592484D02*
X6161729Y-18592484D01*
X6218872Y-18592484D02*
X6218872Y-18392484D01*
X6218872Y-18392484D02*
X6199825Y-18421055D01*
X6199825Y-18421055D02*
X6180777Y-18440103D01*
X6180777Y-18440103D02*
X6161729Y-18449627D01*
X6399825Y-18392484D02*
X6418872Y-18392484D01*
X6418872Y-18392484D02*
X6437920Y-18402008D01*
X6437920Y-18402008D02*
X6447444Y-18411531D01*
X6447444Y-18411531D02*
X6456968Y-18430579D01*
X6456968Y-18430579D02*
X6466491Y-18468674D01*
X6466491Y-18468674D02*
X6466491Y-18516293D01*
X6466491Y-18516293D02*
X6456968Y-18554389D01*
X6456968Y-18554389D02*
X6447444Y-18573436D01*
X6447444Y-18573436D02*
X6437920Y-18582960D01*
X6437920Y-18582960D02*
X6418872Y-18592484D01*
X6418872Y-18592484D02*
X6399825Y-18592484D01*
X6399825Y-18592484D02*
X6380777Y-18582960D01*
X6380777Y-18582960D02*
X6371253Y-18573436D01*
X6371253Y-18573436D02*
X6361729Y-18554389D01*
X6361729Y-18554389D02*
X6352206Y-18516293D01*
X6352206Y-18516293D02*
X6352206Y-18468674D01*
X6352206Y-18468674D02*
X6361729Y-18430579D01*
X6361729Y-18430579D02*
X6371253Y-18411531D01*
X6371253Y-18411531D02*
X6380777Y-18402008D01*
X6380777Y-18402008D02*
X6399825Y-18392484D01*
X6704587Y-18592484D02*
X6704587Y-18392484D01*
X6790301Y-18592484D02*
X6790301Y-18487722D01*
X6790301Y-18487722D02*
X6780777Y-18468674D01*
X6780777Y-18468674D02*
X6761730Y-18459150D01*
X6761730Y-18459150D02*
X6733158Y-18459150D01*
X6733158Y-18459150D02*
X6714110Y-18468674D01*
X6714110Y-18468674D02*
X6704587Y-18478198D01*
X6914110Y-18592484D02*
X6895063Y-18582960D01*
X6895063Y-18582960D02*
X6885539Y-18573436D01*
X6885539Y-18573436D02*
X6876015Y-18554389D01*
X6876015Y-18554389D02*
X6876015Y-18497246D01*
X6876015Y-18497246D02*
X6885539Y-18478198D01*
X6885539Y-18478198D02*
X6895063Y-18468674D01*
X6895063Y-18468674D02*
X6914110Y-18459150D01*
X6914110Y-18459150D02*
X6942682Y-18459150D01*
X6942682Y-18459150D02*
X6961730Y-18468674D01*
X6961730Y-18468674D02*
X6971253Y-18478198D01*
X6971253Y-18478198D02*
X6980777Y-18497246D01*
X6980777Y-18497246D02*
X6980777Y-18554389D01*
X6980777Y-18554389D02*
X6971253Y-18573436D01*
X6971253Y-18573436D02*
X6961730Y-18582960D01*
X6961730Y-18582960D02*
X6942682Y-18592484D01*
X6942682Y-18592484D02*
X6914110Y-18592484D01*
X7095063Y-18592484D02*
X7076015Y-18582960D01*
X7076015Y-18582960D02*
X7066491Y-18563912D01*
X7066491Y-18563912D02*
X7066491Y-18392484D01*
X7247444Y-18582960D02*
X7228396Y-18592484D01*
X7228396Y-18592484D02*
X7190301Y-18592484D01*
X7190301Y-18592484D02*
X7171253Y-18582960D01*
X7171253Y-18582960D02*
X7161730Y-18563912D01*
X7161730Y-18563912D02*
X7161730Y-18487722D01*
X7161730Y-18487722D02*
X7171253Y-18468674D01*
X7171253Y-18468674D02*
X7190301Y-18459150D01*
X7190301Y-18459150D02*
X7228396Y-18459150D01*
X7228396Y-18459150D02*
X7247444Y-18468674D01*
X7247444Y-18468674D02*
X7256968Y-18487722D01*
X7256968Y-18487722D02*
X7256968Y-18506770D01*
X7256968Y-18506770D02*
X7161730Y-18525817D01*
X7333158Y-18582960D02*
X7352206Y-18592484D01*
X7352206Y-18592484D02*
X7390301Y-18592484D01*
X7390301Y-18592484D02*
X7409349Y-18582960D01*
X7409349Y-18582960D02*
X7418872Y-18563912D01*
X7418872Y-18563912D02*
X7418872Y-18554389D01*
X7418872Y-18554389D02*
X7409349Y-18535341D01*
X7409349Y-18535341D02*
X7390301Y-18525817D01*
X7390301Y-18525817D02*
X7361730Y-18525817D01*
X7361730Y-18525817D02*
X7342682Y-18516293D01*
X7342682Y-18516293D02*
X7333158Y-18497246D01*
X7333158Y-18497246D02*
X7333158Y-18487722D01*
X7333158Y-18487722D02*
X7342682Y-18468674D01*
X7342682Y-18468674D02*
X7361730Y-18459150D01*
X7361730Y-18459150D02*
X7390301Y-18459150D01*
X7390301Y-18459150D02*
X7409349Y-18468674D01*
X7485539Y-18668674D02*
X7495063Y-18659150D01*
X7495063Y-18659150D02*
X7514111Y-18630579D01*
X7514111Y-18630579D02*
X7523634Y-18611531D01*
X7523634Y-18611531D02*
X7533158Y-18582960D01*
X7533158Y-18582960D02*
X7542682Y-18535341D01*
X7542682Y-18535341D02*
X7542682Y-18497246D01*
X7542682Y-18497246D02*
X7533158Y-18449627D01*
X7533158Y-18449627D02*
X7523634Y-18421055D01*
X7523634Y-18421055D02*
X7514111Y-18402008D01*
X7514111Y-18402008D02*
X7495063Y-18373436D01*
X7495063Y-18373436D02*
X7485539Y-18363912D01*
X2320000Y-18665000D02*
X2520000Y-18865000D01*
X2520000Y-18665000D02*
X2320000Y-18865000D01*
X2520000Y-18765000D02*
G75*
G02*
X2320000Y-18765000I-100000J0D01*
G01*
X2320000Y-18765000D02*
G75*
G02*
X2520000Y-18765000I100000J0D01*
G01*
X2771253Y-18675531D02*
X2780777Y-18666008D01*
X2780777Y-18666008D02*
X2799824Y-18656484D01*
X2799824Y-18656484D02*
X2847443Y-18656484D01*
X2847443Y-18656484D02*
X2866491Y-18666008D01*
X2866491Y-18666008D02*
X2876015Y-18675531D01*
X2876015Y-18675531D02*
X2885539Y-18694579D01*
X2885539Y-18694579D02*
X2885539Y-18713627D01*
X2885539Y-18713627D02*
X2876015Y-18742198D01*
X2876015Y-18742198D02*
X2761729Y-18856484D01*
X2761729Y-18856484D02*
X2885539Y-18856484D01*
X2971253Y-18837436D02*
X2980777Y-18846960D01*
X2980777Y-18846960D02*
X2971253Y-18856484D01*
X2971253Y-18856484D02*
X2961729Y-18846960D01*
X2961729Y-18846960D02*
X2971253Y-18837436D01*
X2971253Y-18837436D02*
X2971253Y-18856484D01*
X3104586Y-18656484D02*
X3123634Y-18656484D01*
X3123634Y-18656484D02*
X3142682Y-18666008D01*
X3142682Y-18666008D02*
X3152205Y-18675531D01*
X3152205Y-18675531D02*
X3161729Y-18694579D01*
X3161729Y-18694579D02*
X3171253Y-18732674D01*
X3171253Y-18732674D02*
X3171253Y-18780293D01*
X3171253Y-18780293D02*
X3161729Y-18818389D01*
X3161729Y-18818389D02*
X3152205Y-18837436D01*
X3152205Y-18837436D02*
X3142682Y-18846960D01*
X3142682Y-18846960D02*
X3123634Y-18856484D01*
X3123634Y-18856484D02*
X3104586Y-18856484D01*
X3104586Y-18856484D02*
X3085539Y-18846960D01*
X3085539Y-18846960D02*
X3076015Y-18837436D01*
X3076015Y-18837436D02*
X3066491Y-18818389D01*
X3066491Y-18818389D02*
X3056967Y-18780293D01*
X3056967Y-18780293D02*
X3056967Y-18732674D01*
X3056967Y-18732674D02*
X3066491Y-18694579D01*
X3066491Y-18694579D02*
X3076015Y-18675531D01*
X3076015Y-18675531D02*
X3085539Y-18666008D01*
X3085539Y-18666008D02*
X3104586Y-18656484D01*
X3295062Y-18656484D02*
X3314110Y-18656484D01*
X3314110Y-18656484D02*
X3333158Y-18666008D01*
X3333158Y-18666008D02*
X3342682Y-18675531D01*
X3342682Y-18675531D02*
X3352205Y-18694579D01*
X3352205Y-18694579D02*
X3361729Y-18732674D01*
X3361729Y-18732674D02*
X3361729Y-18780293D01*
X3361729Y-18780293D02*
X3352205Y-18818389D01*
X3352205Y-18818389D02*
X3342682Y-18837436D01*
X3342682Y-18837436D02*
X3333158Y-18846960D01*
X3333158Y-18846960D02*
X3314110Y-18856484D01*
X3314110Y-18856484D02*
X3295062Y-18856484D01*
X3295062Y-18856484D02*
X3276015Y-18846960D01*
X3276015Y-18846960D02*
X3266491Y-18837436D01*
X3266491Y-18837436D02*
X3256967Y-18818389D01*
X3256967Y-18818389D02*
X3247443Y-18780293D01*
X3247443Y-18780293D02*
X3247443Y-18732674D01*
X3247443Y-18732674D02*
X3256967Y-18694579D01*
X3256967Y-18694579D02*
X3266491Y-18675531D01*
X3266491Y-18675531D02*
X3276015Y-18666008D01*
X3276015Y-18666008D02*
X3295062Y-18656484D01*
X3485539Y-18656484D02*
X3504586Y-18656484D01*
X3504586Y-18656484D02*
X3523634Y-18666008D01*
X3523634Y-18666008D02*
X3533158Y-18675531D01*
X3533158Y-18675531D02*
X3542682Y-18694579D01*
X3542682Y-18694579D02*
X3552205Y-18732674D01*
X3552205Y-18732674D02*
X3552205Y-18780293D01*
X3552205Y-18780293D02*
X3542682Y-18818389D01*
X3542682Y-18818389D02*
X3533158Y-18837436D01*
X3533158Y-18837436D02*
X3523634Y-18846960D01*
X3523634Y-18846960D02*
X3504586Y-18856484D01*
X3504586Y-18856484D02*
X3485539Y-18856484D01*
X3485539Y-18856484D02*
X3466491Y-18846960D01*
X3466491Y-18846960D02*
X3456967Y-18837436D01*
X3456967Y-18837436D02*
X3447443Y-18818389D01*
X3447443Y-18818389D02*
X3437920Y-18780293D01*
X3437920Y-18780293D02*
X3437920Y-18732674D01*
X3437920Y-18732674D02*
X3447443Y-18694579D01*
X3447443Y-18694579D02*
X3456967Y-18675531D01*
X3456967Y-18675531D02*
X3466491Y-18666008D01*
X3466491Y-18666008D02*
X3485539Y-18656484D01*
X3637920Y-18856484D02*
X3637920Y-18723150D01*
X3637920Y-18742198D02*
X3647443Y-18732674D01*
X3647443Y-18732674D02*
X3666491Y-18723150D01*
X3666491Y-18723150D02*
X3695063Y-18723150D01*
X3695063Y-18723150D02*
X3714110Y-18732674D01*
X3714110Y-18732674D02*
X3723634Y-18751722D01*
X3723634Y-18751722D02*
X3723634Y-18856484D01*
X3723634Y-18751722D02*
X3733158Y-18732674D01*
X3733158Y-18732674D02*
X3752205Y-18723150D01*
X3752205Y-18723150D02*
X3780777Y-18723150D01*
X3780777Y-18723150D02*
X3799824Y-18732674D01*
X3799824Y-18732674D02*
X3809348Y-18751722D01*
X3809348Y-18751722D02*
X3809348Y-18856484D01*
X3904586Y-18856484D02*
X3904586Y-18723150D01*
X3904586Y-18742198D02*
X3914110Y-18732674D01*
X3914110Y-18732674D02*
X3933158Y-18723150D01*
X3933158Y-18723150D02*
X3961729Y-18723150D01*
X3961729Y-18723150D02*
X3980777Y-18732674D01*
X3980777Y-18732674D02*
X3990301Y-18751722D01*
X3990301Y-18751722D02*
X3990301Y-18856484D01*
X3990301Y-18751722D02*
X3999824Y-18732674D01*
X3999824Y-18732674D02*
X4018872Y-18723150D01*
X4018872Y-18723150D02*
X4047443Y-18723150D01*
X4047443Y-18723150D02*
X4066491Y-18732674D01*
X4066491Y-18732674D02*
X4076015Y-18751722D01*
X4076015Y-18751722D02*
X4076015Y-18856484D01*
X4466491Y-18646960D02*
X4295063Y-18904103D01*
X4723634Y-18656484D02*
X4742682Y-18656484D01*
X4742682Y-18656484D02*
X4761729Y-18666008D01*
X4761729Y-18666008D02*
X4771253Y-18675531D01*
X4771253Y-18675531D02*
X4780777Y-18694579D01*
X4780777Y-18694579D02*
X4790301Y-18732674D01*
X4790301Y-18732674D02*
X4790301Y-18780293D01*
X4790301Y-18780293D02*
X4780777Y-18818389D01*
X4780777Y-18818389D02*
X4771253Y-18837436D01*
X4771253Y-18837436D02*
X4761729Y-18846960D01*
X4761729Y-18846960D02*
X4742682Y-18856484D01*
X4742682Y-18856484D02*
X4723634Y-18856484D01*
X4723634Y-18856484D02*
X4704587Y-18846960D01*
X4704587Y-18846960D02*
X4695063Y-18837436D01*
X4695063Y-18837436D02*
X4685539Y-18818389D01*
X4685539Y-18818389D02*
X4676015Y-18780293D01*
X4676015Y-18780293D02*
X4676015Y-18732674D01*
X4676015Y-18732674D02*
X4685539Y-18694579D01*
X4685539Y-18694579D02*
X4695063Y-18675531D01*
X4695063Y-18675531D02*
X4704587Y-18666008D01*
X4704587Y-18666008D02*
X4723634Y-18656484D01*
X4876015Y-18837436D02*
X4885539Y-18846960D01*
X4885539Y-18846960D02*
X4876015Y-18856484D01*
X4876015Y-18856484D02*
X4866491Y-18846960D01*
X4866491Y-18846960D02*
X4876015Y-18837436D01*
X4876015Y-18837436D02*
X4876015Y-18856484D01*
X5009348Y-18656484D02*
X5028396Y-18656484D01*
X5028396Y-18656484D02*
X5047444Y-18666008D01*
X5047444Y-18666008D02*
X5056968Y-18675531D01*
X5056968Y-18675531D02*
X5066491Y-18694579D01*
X5066491Y-18694579D02*
X5076015Y-18732674D01*
X5076015Y-18732674D02*
X5076015Y-18780293D01*
X5076015Y-18780293D02*
X5066491Y-18818389D01*
X5066491Y-18818389D02*
X5056968Y-18837436D01*
X5056968Y-18837436D02*
X5047444Y-18846960D01*
X5047444Y-18846960D02*
X5028396Y-18856484D01*
X5028396Y-18856484D02*
X5009348Y-18856484D01*
X5009348Y-18856484D02*
X4990301Y-18846960D01*
X4990301Y-18846960D02*
X4980777Y-18837436D01*
X4980777Y-18837436D02*
X4971253Y-18818389D01*
X4971253Y-18818389D02*
X4961729Y-18780293D01*
X4961729Y-18780293D02*
X4961729Y-18732674D01*
X4961729Y-18732674D02*
X4971253Y-18694579D01*
X4971253Y-18694579D02*
X4980777Y-18675531D01*
X4980777Y-18675531D02*
X4990301Y-18666008D01*
X4990301Y-18666008D02*
X5009348Y-18656484D01*
X5142682Y-18656484D02*
X5276015Y-18656484D01*
X5276015Y-18656484D02*
X5190301Y-18856484D01*
X5380777Y-18742198D02*
X5361729Y-18732674D01*
X5361729Y-18732674D02*
X5352206Y-18723150D01*
X5352206Y-18723150D02*
X5342682Y-18704103D01*
X5342682Y-18704103D02*
X5342682Y-18694579D01*
X5342682Y-18694579D02*
X5352206Y-18675531D01*
X5352206Y-18675531D02*
X5361729Y-18666008D01*
X5361729Y-18666008D02*
X5380777Y-18656484D01*
X5380777Y-18656484D02*
X5418872Y-18656484D01*
X5418872Y-18656484D02*
X5437920Y-18666008D01*
X5437920Y-18666008D02*
X5447444Y-18675531D01*
X5447444Y-18675531D02*
X5456968Y-18694579D01*
X5456968Y-18694579D02*
X5456968Y-18704103D01*
X5456968Y-18704103D02*
X5447444Y-18723150D01*
X5447444Y-18723150D02*
X5437920Y-18732674D01*
X5437920Y-18732674D02*
X5418872Y-18742198D01*
X5418872Y-18742198D02*
X5380777Y-18742198D01*
X5380777Y-18742198D02*
X5361729Y-18751722D01*
X5361729Y-18751722D02*
X5352206Y-18761246D01*
X5352206Y-18761246D02*
X5342682Y-18780293D01*
X5342682Y-18780293D02*
X5342682Y-18818389D01*
X5342682Y-18818389D02*
X5352206Y-18837436D01*
X5352206Y-18837436D02*
X5361729Y-18846960D01*
X5361729Y-18846960D02*
X5380777Y-18856484D01*
X5380777Y-18856484D02*
X5418872Y-18856484D01*
X5418872Y-18856484D02*
X5437920Y-18846960D01*
X5437920Y-18846960D02*
X5447444Y-18837436D01*
X5447444Y-18837436D02*
X5456968Y-18818389D01*
X5456968Y-18818389D02*
X5456968Y-18780293D01*
X5456968Y-18780293D02*
X5447444Y-18761246D01*
X5447444Y-18761246D02*
X5437920Y-18751722D01*
X5437920Y-18751722D02*
X5418872Y-18742198D01*
X5523634Y-18656484D02*
X5656967Y-18656484D01*
X5656967Y-18656484D02*
X5571253Y-18856484D01*
X5723634Y-18656484D02*
X5723634Y-18694579D01*
X5799825Y-18656484D02*
X5799825Y-18694579D01*
X6095063Y-18932674D02*
X6085539Y-18923150D01*
X6085539Y-18923150D02*
X6066491Y-18894579D01*
X6066491Y-18894579D02*
X6056968Y-18875531D01*
X6056968Y-18875531D02*
X6047444Y-18846960D01*
X6047444Y-18846960D02*
X6037920Y-18799341D01*
X6037920Y-18799341D02*
X6037920Y-18761246D01*
X6037920Y-18761246D02*
X6047444Y-18713627D01*
X6047444Y-18713627D02*
X6056968Y-18685055D01*
X6056968Y-18685055D02*
X6066491Y-18666008D01*
X6066491Y-18666008D02*
X6085539Y-18637436D01*
X6085539Y-18637436D02*
X6095063Y-18627912D01*
X6209348Y-18656484D02*
X6228396Y-18656484D01*
X6228396Y-18656484D02*
X6247444Y-18666008D01*
X6247444Y-18666008D02*
X6256968Y-18675531D01*
X6256968Y-18675531D02*
X6266491Y-18694579D01*
X6266491Y-18694579D02*
X6276015Y-18732674D01*
X6276015Y-18732674D02*
X6276015Y-18780293D01*
X6276015Y-18780293D02*
X6266491Y-18818389D01*
X6266491Y-18818389D02*
X6256968Y-18837436D01*
X6256968Y-18837436D02*
X6247444Y-18846960D01*
X6247444Y-18846960D02*
X6228396Y-18856484D01*
X6228396Y-18856484D02*
X6209348Y-18856484D01*
X6209348Y-18856484D02*
X6190301Y-18846960D01*
X6190301Y-18846960D02*
X6180777Y-18837436D01*
X6180777Y-18837436D02*
X6171253Y-18818389D01*
X6171253Y-18818389D02*
X6161729Y-18780293D01*
X6161729Y-18780293D02*
X6161729Y-18732674D01*
X6161729Y-18732674D02*
X6171253Y-18694579D01*
X6171253Y-18694579D02*
X6180777Y-18675531D01*
X6180777Y-18675531D02*
X6190301Y-18666008D01*
X6190301Y-18666008D02*
X6209348Y-18656484D01*
X6514110Y-18856484D02*
X6514110Y-18656484D01*
X6599825Y-18856484D02*
X6599825Y-18751722D01*
X6599825Y-18751722D02*
X6590301Y-18732674D01*
X6590301Y-18732674D02*
X6571253Y-18723150D01*
X6571253Y-18723150D02*
X6542682Y-18723150D01*
X6542682Y-18723150D02*
X6523634Y-18732674D01*
X6523634Y-18732674D02*
X6514110Y-18742198D01*
X6723634Y-18856484D02*
X6704587Y-18846960D01*
X6704587Y-18846960D02*
X6695063Y-18837436D01*
X6695063Y-18837436D02*
X6685539Y-18818389D01*
X6685539Y-18818389D02*
X6685539Y-18761246D01*
X6685539Y-18761246D02*
X6695063Y-18742198D01*
X6695063Y-18742198D02*
X6704587Y-18732674D01*
X6704587Y-18732674D02*
X6723634Y-18723150D01*
X6723634Y-18723150D02*
X6752206Y-18723150D01*
X6752206Y-18723150D02*
X6771253Y-18732674D01*
X6771253Y-18732674D02*
X6780777Y-18742198D01*
X6780777Y-18742198D02*
X6790301Y-18761246D01*
X6790301Y-18761246D02*
X6790301Y-18818389D01*
X6790301Y-18818389D02*
X6780777Y-18837436D01*
X6780777Y-18837436D02*
X6771253Y-18846960D01*
X6771253Y-18846960D02*
X6752206Y-18856484D01*
X6752206Y-18856484D02*
X6723634Y-18856484D01*
X6904587Y-18856484D02*
X6885539Y-18846960D01*
X6885539Y-18846960D02*
X6876015Y-18827912D01*
X6876015Y-18827912D02*
X6876015Y-18656484D01*
X7056968Y-18846960D02*
X7037920Y-18856484D01*
X7037920Y-18856484D02*
X6999825Y-18856484D01*
X6999825Y-18856484D02*
X6980777Y-18846960D01*
X6980777Y-18846960D02*
X6971253Y-18827912D01*
X6971253Y-18827912D02*
X6971253Y-18751722D01*
X6971253Y-18751722D02*
X6980777Y-18732674D01*
X6980777Y-18732674D02*
X6999825Y-18723150D01*
X6999825Y-18723150D02*
X7037920Y-18723150D01*
X7037920Y-18723150D02*
X7056968Y-18732674D01*
X7056968Y-18732674D02*
X7066491Y-18751722D01*
X7066491Y-18751722D02*
X7066491Y-18770770D01*
X7066491Y-18770770D02*
X6971253Y-18789817D01*
X7142682Y-18846960D02*
X7161730Y-18856484D01*
X7161730Y-18856484D02*
X7199825Y-18856484D01*
X7199825Y-18856484D02*
X7218872Y-18846960D01*
X7218872Y-18846960D02*
X7228396Y-18827912D01*
X7228396Y-18827912D02*
X7228396Y-18818389D01*
X7228396Y-18818389D02*
X7218872Y-18799341D01*
X7218872Y-18799341D02*
X7199825Y-18789817D01*
X7199825Y-18789817D02*
X7171253Y-18789817D01*
X7171253Y-18789817D02*
X7152206Y-18780293D01*
X7152206Y-18780293D02*
X7142682Y-18761246D01*
X7142682Y-18761246D02*
X7142682Y-18751722D01*
X7142682Y-18751722D02*
X7152206Y-18732674D01*
X7152206Y-18732674D02*
X7171253Y-18723150D01*
X7171253Y-18723150D02*
X7199825Y-18723150D01*
X7199825Y-18723150D02*
X7218872Y-18732674D01*
X7466492Y-18780293D02*
X7618873Y-18780293D01*
X7542682Y-18856484D02*
X7542682Y-18704103D01*
X7971253Y-18856484D02*
X7856968Y-18856484D01*
X7914111Y-18856484D02*
X7914111Y-18656484D01*
X7914111Y-18656484D02*
X7895063Y-18685055D01*
X7895063Y-18685055D02*
X7876015Y-18704103D01*
X7876015Y-18704103D02*
X7856968Y-18713627D01*
X8095063Y-18656484D02*
X8114111Y-18656484D01*
X8114111Y-18656484D02*
X8133158Y-18666008D01*
X8133158Y-18666008D02*
X8142682Y-18675531D01*
X8142682Y-18675531D02*
X8152206Y-18694579D01*
X8152206Y-18694579D02*
X8161730Y-18732674D01*
X8161730Y-18732674D02*
X8161730Y-18780293D01*
X8161730Y-18780293D02*
X8152206Y-18818389D01*
X8152206Y-18818389D02*
X8142682Y-18837436D01*
X8142682Y-18837436D02*
X8133158Y-18846960D01*
X8133158Y-18846960D02*
X8114111Y-18856484D01*
X8114111Y-18856484D02*
X8095063Y-18856484D01*
X8095063Y-18856484D02*
X8076015Y-18846960D01*
X8076015Y-18846960D02*
X8066492Y-18837436D01*
X8066492Y-18837436D02*
X8056968Y-18818389D01*
X8056968Y-18818389D02*
X8047444Y-18780293D01*
X8047444Y-18780293D02*
X8047444Y-18732674D01*
X8047444Y-18732674D02*
X8056968Y-18694579D01*
X8056968Y-18694579D02*
X8066492Y-18675531D01*
X8066492Y-18675531D02*
X8076015Y-18666008D01*
X8076015Y-18666008D02*
X8095063Y-18656484D01*
X8390301Y-18846960D02*
X8409349Y-18856484D01*
X8409349Y-18856484D02*
X8447444Y-18856484D01*
X8447444Y-18856484D02*
X8466492Y-18846960D01*
X8466492Y-18846960D02*
X8476016Y-18827912D01*
X8476016Y-18827912D02*
X8476016Y-18818389D01*
X8476016Y-18818389D02*
X8466492Y-18799341D01*
X8466492Y-18799341D02*
X8447444Y-18789817D01*
X8447444Y-18789817D02*
X8418873Y-18789817D01*
X8418873Y-18789817D02*
X8399825Y-18780293D01*
X8399825Y-18780293D02*
X8390301Y-18761246D01*
X8390301Y-18761246D02*
X8390301Y-18751722D01*
X8390301Y-18751722D02*
X8399825Y-18732674D01*
X8399825Y-18732674D02*
X8418873Y-18723150D01*
X8418873Y-18723150D02*
X8447444Y-18723150D01*
X8447444Y-18723150D02*
X8466492Y-18732674D01*
X8590301Y-18856484D02*
X8571254Y-18846960D01*
X8571254Y-18846960D02*
X8561730Y-18827912D01*
X8561730Y-18827912D02*
X8561730Y-18656484D01*
X8695063Y-18856484D02*
X8676016Y-18846960D01*
X8676016Y-18846960D02*
X8666492Y-18837436D01*
X8666492Y-18837436D02*
X8656968Y-18818389D01*
X8656968Y-18818389D02*
X8656968Y-18761246D01*
X8656968Y-18761246D02*
X8666492Y-18742198D01*
X8666492Y-18742198D02*
X8676016Y-18732674D01*
X8676016Y-18732674D02*
X8695063Y-18723150D01*
X8695063Y-18723150D02*
X8723635Y-18723150D01*
X8723635Y-18723150D02*
X8742682Y-18732674D01*
X8742682Y-18732674D02*
X8752206Y-18742198D01*
X8752206Y-18742198D02*
X8761730Y-18761246D01*
X8761730Y-18761246D02*
X8761730Y-18818389D01*
X8761730Y-18818389D02*
X8752206Y-18837436D01*
X8752206Y-18837436D02*
X8742682Y-18846960D01*
X8742682Y-18846960D02*
X8723635Y-18856484D01*
X8723635Y-18856484D02*
X8695063Y-18856484D01*
X8818873Y-18723150D02*
X8895063Y-18723150D01*
X8847444Y-18656484D02*
X8847444Y-18827912D01*
X8847444Y-18827912D02*
X8856968Y-18846960D01*
X8856968Y-18846960D02*
X8876016Y-18856484D01*
X8876016Y-18856484D02*
X8895063Y-18856484D01*
X8952206Y-18846960D02*
X8971254Y-18856484D01*
X8971254Y-18856484D02*
X9009349Y-18856484D01*
X9009349Y-18856484D02*
X9028397Y-18846960D01*
X9028397Y-18846960D02*
X9037920Y-18827912D01*
X9037920Y-18827912D02*
X9037920Y-18818389D01*
X9037920Y-18818389D02*
X9028397Y-18799341D01*
X9028397Y-18799341D02*
X9009349Y-18789817D01*
X9009349Y-18789817D02*
X8980777Y-18789817D01*
X8980777Y-18789817D02*
X8961730Y-18780293D01*
X8961730Y-18780293D02*
X8952206Y-18761246D01*
X8952206Y-18761246D02*
X8952206Y-18751722D01*
X8952206Y-18751722D02*
X8961730Y-18732674D01*
X8961730Y-18732674D02*
X8980777Y-18723150D01*
X8980777Y-18723150D02*
X9009349Y-18723150D01*
X9009349Y-18723150D02*
X9028397Y-18732674D01*
X9104587Y-18932674D02*
X9114111Y-18923150D01*
X9114111Y-18923150D02*
X9133158Y-18894579D01*
X9133158Y-18894579D02*
X9142682Y-18875531D01*
X9142682Y-18875531D02*
X9152206Y-18846960D01*
X9152206Y-18846960D02*
X9161730Y-18799341D01*
X9161730Y-18799341D02*
X9161730Y-18761246D01*
X9161730Y-18761246D02*
X9152206Y-18713627D01*
X9152206Y-18713627D02*
X9142682Y-18685055D01*
X9142682Y-18685055D02*
X9133158Y-18666008D01*
X9133158Y-18666008D02*
X9114111Y-18637436D01*
X9114111Y-18637436D02*
X9104587Y-18627912D01*
X2320000Y-18985000D02*
X2520000Y-19185000D01*
X2520000Y-18985000D02*
X2320000Y-19185000D01*
X2420000Y-18985000D02*
X2420000Y-19185000D01*
X2320000Y-19085000D02*
X2520000Y-19085000D01*
X2771253Y-18995531D02*
X2780777Y-18986008D01*
X2780777Y-18986008D02*
X2799824Y-18976484D01*
X2799824Y-18976484D02*
X2847443Y-18976484D01*
X2847443Y-18976484D02*
X2866491Y-18986008D01*
X2866491Y-18986008D02*
X2876015Y-18995531D01*
X2876015Y-18995531D02*
X2885539Y-19014579D01*
X2885539Y-19014579D02*
X2885539Y-19033627D01*
X2885539Y-19033627D02*
X2876015Y-19062198D01*
X2876015Y-19062198D02*
X2761729Y-19176484D01*
X2761729Y-19176484D02*
X2885539Y-19176484D01*
X2971253Y-19157436D02*
X2980777Y-19166960D01*
X2980777Y-19166960D02*
X2971253Y-19176484D01*
X2971253Y-19176484D02*
X2961729Y-19166960D01*
X2961729Y-19166960D02*
X2971253Y-19157436D01*
X2971253Y-19157436D02*
X2971253Y-19176484D01*
X3047443Y-18976484D02*
X3180777Y-18976484D01*
X3180777Y-18976484D02*
X3095062Y-19176484D01*
X3295062Y-18976484D02*
X3314110Y-18976484D01*
X3314110Y-18976484D02*
X3333158Y-18986008D01*
X3333158Y-18986008D02*
X3342682Y-18995531D01*
X3342682Y-18995531D02*
X3352205Y-19014579D01*
X3352205Y-19014579D02*
X3361729Y-19052674D01*
X3361729Y-19052674D02*
X3361729Y-19100293D01*
X3361729Y-19100293D02*
X3352205Y-19138389D01*
X3352205Y-19138389D02*
X3342682Y-19157436D01*
X3342682Y-19157436D02*
X3333158Y-19166960D01*
X3333158Y-19166960D02*
X3314110Y-19176484D01*
X3314110Y-19176484D02*
X3295062Y-19176484D01*
X3295062Y-19176484D02*
X3276015Y-19166960D01*
X3276015Y-19166960D02*
X3266491Y-19157436D01*
X3266491Y-19157436D02*
X3256967Y-19138389D01*
X3256967Y-19138389D02*
X3247443Y-19100293D01*
X3247443Y-19100293D02*
X3247443Y-19052674D01*
X3247443Y-19052674D02*
X3256967Y-19014579D01*
X3256967Y-19014579D02*
X3266491Y-18995531D01*
X3266491Y-18995531D02*
X3276015Y-18986008D01*
X3276015Y-18986008D02*
X3295062Y-18976484D01*
X3485539Y-18976484D02*
X3504586Y-18976484D01*
X3504586Y-18976484D02*
X3523634Y-18986008D01*
X3523634Y-18986008D02*
X3533158Y-18995531D01*
X3533158Y-18995531D02*
X3542682Y-19014579D01*
X3542682Y-19014579D02*
X3552205Y-19052674D01*
X3552205Y-19052674D02*
X3552205Y-19100293D01*
X3552205Y-19100293D02*
X3542682Y-19138389D01*
X3542682Y-19138389D02*
X3533158Y-19157436D01*
X3533158Y-19157436D02*
X3523634Y-19166960D01*
X3523634Y-19166960D02*
X3504586Y-19176484D01*
X3504586Y-19176484D02*
X3485539Y-19176484D01*
X3485539Y-19176484D02*
X3466491Y-19166960D01*
X3466491Y-19166960D02*
X3456967Y-19157436D01*
X3456967Y-19157436D02*
X3447443Y-19138389D01*
X3447443Y-19138389D02*
X3437920Y-19100293D01*
X3437920Y-19100293D02*
X3437920Y-19052674D01*
X3437920Y-19052674D02*
X3447443Y-19014579D01*
X3447443Y-19014579D02*
X3456967Y-18995531D01*
X3456967Y-18995531D02*
X3466491Y-18986008D01*
X3466491Y-18986008D02*
X3485539Y-18976484D01*
X3637920Y-19176484D02*
X3637920Y-19043150D01*
X3637920Y-19062198D02*
X3647443Y-19052674D01*
X3647443Y-19052674D02*
X3666491Y-19043150D01*
X3666491Y-19043150D02*
X3695063Y-19043150D01*
X3695063Y-19043150D02*
X3714110Y-19052674D01*
X3714110Y-19052674D02*
X3723634Y-19071722D01*
X3723634Y-19071722D02*
X3723634Y-19176484D01*
X3723634Y-19071722D02*
X3733158Y-19052674D01*
X3733158Y-19052674D02*
X3752205Y-19043150D01*
X3752205Y-19043150D02*
X3780777Y-19043150D01*
X3780777Y-19043150D02*
X3799824Y-19052674D01*
X3799824Y-19052674D02*
X3809348Y-19071722D01*
X3809348Y-19071722D02*
X3809348Y-19176484D01*
X3904586Y-19176484D02*
X3904586Y-19043150D01*
X3904586Y-19062198D02*
X3914110Y-19052674D01*
X3914110Y-19052674D02*
X3933158Y-19043150D01*
X3933158Y-19043150D02*
X3961729Y-19043150D01*
X3961729Y-19043150D02*
X3980777Y-19052674D01*
X3980777Y-19052674D02*
X3990301Y-19071722D01*
X3990301Y-19071722D02*
X3990301Y-19176484D01*
X3990301Y-19071722D02*
X3999824Y-19052674D01*
X3999824Y-19052674D02*
X4018872Y-19043150D01*
X4018872Y-19043150D02*
X4047443Y-19043150D01*
X4047443Y-19043150D02*
X4066491Y-19052674D01*
X4066491Y-19052674D02*
X4076015Y-19071722D01*
X4076015Y-19071722D02*
X4076015Y-19176484D01*
X4466491Y-18966960D02*
X4295063Y-19224103D01*
X4723634Y-18976484D02*
X4742682Y-18976484D01*
X4742682Y-18976484D02*
X4761729Y-18986008D01*
X4761729Y-18986008D02*
X4771253Y-18995531D01*
X4771253Y-18995531D02*
X4780777Y-19014579D01*
X4780777Y-19014579D02*
X4790301Y-19052674D01*
X4790301Y-19052674D02*
X4790301Y-19100293D01*
X4790301Y-19100293D02*
X4780777Y-19138389D01*
X4780777Y-19138389D02*
X4771253Y-19157436D01*
X4771253Y-19157436D02*
X4761729Y-19166960D01*
X4761729Y-19166960D02*
X4742682Y-19176484D01*
X4742682Y-19176484D02*
X4723634Y-19176484D01*
X4723634Y-19176484D02*
X4704587Y-19166960D01*
X4704587Y-19166960D02*
X4695063Y-19157436D01*
X4695063Y-19157436D02*
X4685539Y-19138389D01*
X4685539Y-19138389D02*
X4676015Y-19100293D01*
X4676015Y-19100293D02*
X4676015Y-19052674D01*
X4676015Y-19052674D02*
X4685539Y-19014579D01*
X4685539Y-19014579D02*
X4695063Y-18995531D01*
X4695063Y-18995531D02*
X4704587Y-18986008D01*
X4704587Y-18986008D02*
X4723634Y-18976484D01*
X4876015Y-19157436D02*
X4885539Y-19166960D01*
X4885539Y-19166960D02*
X4876015Y-19176484D01*
X4876015Y-19176484D02*
X4866491Y-19166960D01*
X4866491Y-19166960D02*
X4876015Y-19157436D01*
X4876015Y-19157436D02*
X4876015Y-19176484D01*
X5076015Y-19176484D02*
X4961729Y-19176484D01*
X5018872Y-19176484D02*
X5018872Y-18976484D01*
X5018872Y-18976484D02*
X4999825Y-19005055D01*
X4999825Y-19005055D02*
X4980777Y-19024103D01*
X4980777Y-19024103D02*
X4961729Y-19033627D01*
X5199825Y-18976484D02*
X5218872Y-18976484D01*
X5218872Y-18976484D02*
X5237920Y-18986008D01*
X5237920Y-18986008D02*
X5247444Y-18995531D01*
X5247444Y-18995531D02*
X5256968Y-19014579D01*
X5256968Y-19014579D02*
X5266491Y-19052674D01*
X5266491Y-19052674D02*
X5266491Y-19100293D01*
X5266491Y-19100293D02*
X5256968Y-19138389D01*
X5256968Y-19138389D02*
X5247444Y-19157436D01*
X5247444Y-19157436D02*
X5237920Y-19166960D01*
X5237920Y-19166960D02*
X5218872Y-19176484D01*
X5218872Y-19176484D02*
X5199825Y-19176484D01*
X5199825Y-19176484D02*
X5180777Y-19166960D01*
X5180777Y-19166960D02*
X5171253Y-19157436D01*
X5171253Y-19157436D02*
X5161729Y-19138389D01*
X5161729Y-19138389D02*
X5152206Y-19100293D01*
X5152206Y-19100293D02*
X5152206Y-19052674D01*
X5152206Y-19052674D02*
X5161729Y-19014579D01*
X5161729Y-19014579D02*
X5171253Y-18995531D01*
X5171253Y-18995531D02*
X5180777Y-18986008D01*
X5180777Y-18986008D02*
X5199825Y-18976484D01*
X5437920Y-18976484D02*
X5399825Y-18976484D01*
X5399825Y-18976484D02*
X5380777Y-18986008D01*
X5380777Y-18986008D02*
X5371253Y-18995531D01*
X5371253Y-18995531D02*
X5352206Y-19024103D01*
X5352206Y-19024103D02*
X5342682Y-19062198D01*
X5342682Y-19062198D02*
X5342682Y-19138389D01*
X5342682Y-19138389D02*
X5352206Y-19157436D01*
X5352206Y-19157436D02*
X5361729Y-19166960D01*
X5361729Y-19166960D02*
X5380777Y-19176484D01*
X5380777Y-19176484D02*
X5418872Y-19176484D01*
X5418872Y-19176484D02*
X5437920Y-19166960D01*
X5437920Y-19166960D02*
X5447444Y-19157436D01*
X5447444Y-19157436D02*
X5456968Y-19138389D01*
X5456968Y-19138389D02*
X5456968Y-19090770D01*
X5456968Y-19090770D02*
X5447444Y-19071722D01*
X5447444Y-19071722D02*
X5437920Y-19062198D01*
X5437920Y-19062198D02*
X5418872Y-19052674D01*
X5418872Y-19052674D02*
X5380777Y-19052674D01*
X5380777Y-19052674D02*
X5361729Y-19062198D01*
X5361729Y-19062198D02*
X5352206Y-19071722D01*
X5352206Y-19071722D02*
X5342682Y-19090770D01*
X5523634Y-18976484D02*
X5647444Y-18976484D01*
X5647444Y-18976484D02*
X5580777Y-19052674D01*
X5580777Y-19052674D02*
X5609348Y-19052674D01*
X5609348Y-19052674D02*
X5628396Y-19062198D01*
X5628396Y-19062198D02*
X5637920Y-19071722D01*
X5637920Y-19071722D02*
X5647444Y-19090770D01*
X5647444Y-19090770D02*
X5647444Y-19138389D01*
X5647444Y-19138389D02*
X5637920Y-19157436D01*
X5637920Y-19157436D02*
X5628396Y-19166960D01*
X5628396Y-19166960D02*
X5609348Y-19176484D01*
X5609348Y-19176484D02*
X5552206Y-19176484D01*
X5552206Y-19176484D02*
X5533158Y-19166960D01*
X5533158Y-19166960D02*
X5523634Y-19157436D01*
X5723634Y-18976484D02*
X5723634Y-19014579D01*
X5799825Y-18976484D02*
X5799825Y-19014579D01*
X6095063Y-19252674D02*
X6085539Y-19243150D01*
X6085539Y-19243150D02*
X6066491Y-19214579D01*
X6066491Y-19214579D02*
X6056968Y-19195531D01*
X6056968Y-19195531D02*
X6047444Y-19166960D01*
X6047444Y-19166960D02*
X6037920Y-19119341D01*
X6037920Y-19119341D02*
X6037920Y-19081246D01*
X6037920Y-19081246D02*
X6047444Y-19033627D01*
X6047444Y-19033627D02*
X6056968Y-19005055D01*
X6056968Y-19005055D02*
X6066491Y-18986008D01*
X6066491Y-18986008D02*
X6085539Y-18957436D01*
X6085539Y-18957436D02*
X6095063Y-18947912D01*
X6276015Y-19176484D02*
X6161729Y-19176484D01*
X6218872Y-19176484D02*
X6218872Y-18976484D01*
X6218872Y-18976484D02*
X6199825Y-19005055D01*
X6199825Y-19005055D02*
X6180777Y-19024103D01*
X6180777Y-19024103D02*
X6161729Y-19033627D01*
X6390301Y-19062198D02*
X6371253Y-19052674D01*
X6371253Y-19052674D02*
X6361729Y-19043150D01*
X6361729Y-19043150D02*
X6352206Y-19024103D01*
X6352206Y-19024103D02*
X6352206Y-19014579D01*
X6352206Y-19014579D02*
X6361729Y-18995531D01*
X6361729Y-18995531D02*
X6371253Y-18986008D01*
X6371253Y-18986008D02*
X6390301Y-18976484D01*
X6390301Y-18976484D02*
X6428396Y-18976484D01*
X6428396Y-18976484D02*
X6447444Y-18986008D01*
X6447444Y-18986008D02*
X6456968Y-18995531D01*
X6456968Y-18995531D02*
X6466491Y-19014579D01*
X6466491Y-19014579D02*
X6466491Y-19024103D01*
X6466491Y-19024103D02*
X6456968Y-19043150D01*
X6456968Y-19043150D02*
X6447444Y-19052674D01*
X6447444Y-19052674D02*
X6428396Y-19062198D01*
X6428396Y-19062198D02*
X6390301Y-19062198D01*
X6390301Y-19062198D02*
X6371253Y-19071722D01*
X6371253Y-19071722D02*
X6361729Y-19081246D01*
X6361729Y-19081246D02*
X6352206Y-19100293D01*
X6352206Y-19100293D02*
X6352206Y-19138389D01*
X6352206Y-19138389D02*
X6361729Y-19157436D01*
X6361729Y-19157436D02*
X6371253Y-19166960D01*
X6371253Y-19166960D02*
X6390301Y-19176484D01*
X6390301Y-19176484D02*
X6428396Y-19176484D01*
X6428396Y-19176484D02*
X6447444Y-19166960D01*
X6447444Y-19166960D02*
X6456968Y-19157436D01*
X6456968Y-19157436D02*
X6466491Y-19138389D01*
X6466491Y-19138389D02*
X6466491Y-19100293D01*
X6466491Y-19100293D02*
X6456968Y-19081246D01*
X6456968Y-19081246D02*
X6447444Y-19071722D01*
X6447444Y-19071722D02*
X6428396Y-19062198D01*
X6704587Y-19176484D02*
X6704587Y-18976484D01*
X6790301Y-19176484D02*
X6790301Y-19071722D01*
X6790301Y-19071722D02*
X6780777Y-19052674D01*
X6780777Y-19052674D02*
X6761730Y-19043150D01*
X6761730Y-19043150D02*
X6733158Y-19043150D01*
X6733158Y-19043150D02*
X6714110Y-19052674D01*
X6714110Y-19052674D02*
X6704587Y-19062198D01*
X6914110Y-19176484D02*
X6895063Y-19166960D01*
X6895063Y-19166960D02*
X6885539Y-19157436D01*
X6885539Y-19157436D02*
X6876015Y-19138389D01*
X6876015Y-19138389D02*
X6876015Y-19081246D01*
X6876015Y-19081246D02*
X6885539Y-19062198D01*
X6885539Y-19062198D02*
X6895063Y-19052674D01*
X6895063Y-19052674D02*
X6914110Y-19043150D01*
X6914110Y-19043150D02*
X6942682Y-19043150D01*
X6942682Y-19043150D02*
X6961730Y-19052674D01*
X6961730Y-19052674D02*
X6971253Y-19062198D01*
X6971253Y-19062198D02*
X6980777Y-19081246D01*
X6980777Y-19081246D02*
X6980777Y-19138389D01*
X6980777Y-19138389D02*
X6971253Y-19157436D01*
X6971253Y-19157436D02*
X6961730Y-19166960D01*
X6961730Y-19166960D02*
X6942682Y-19176484D01*
X6942682Y-19176484D02*
X6914110Y-19176484D01*
X7095063Y-19176484D02*
X7076015Y-19166960D01*
X7076015Y-19166960D02*
X7066491Y-19147912D01*
X7066491Y-19147912D02*
X7066491Y-18976484D01*
X7247444Y-19166960D02*
X7228396Y-19176484D01*
X7228396Y-19176484D02*
X7190301Y-19176484D01*
X7190301Y-19176484D02*
X7171253Y-19166960D01*
X7171253Y-19166960D02*
X7161730Y-19147912D01*
X7161730Y-19147912D02*
X7161730Y-19071722D01*
X7161730Y-19071722D02*
X7171253Y-19052674D01*
X7171253Y-19052674D02*
X7190301Y-19043150D01*
X7190301Y-19043150D02*
X7228396Y-19043150D01*
X7228396Y-19043150D02*
X7247444Y-19052674D01*
X7247444Y-19052674D02*
X7256968Y-19071722D01*
X7256968Y-19071722D02*
X7256968Y-19090770D01*
X7256968Y-19090770D02*
X7161730Y-19109817D01*
X7333158Y-19166960D02*
X7352206Y-19176484D01*
X7352206Y-19176484D02*
X7390301Y-19176484D01*
X7390301Y-19176484D02*
X7409349Y-19166960D01*
X7409349Y-19166960D02*
X7418872Y-19147912D01*
X7418872Y-19147912D02*
X7418872Y-19138389D01*
X7418872Y-19138389D02*
X7409349Y-19119341D01*
X7409349Y-19119341D02*
X7390301Y-19109817D01*
X7390301Y-19109817D02*
X7361730Y-19109817D01*
X7361730Y-19109817D02*
X7342682Y-19100293D01*
X7342682Y-19100293D02*
X7333158Y-19081246D01*
X7333158Y-19081246D02*
X7333158Y-19071722D01*
X7333158Y-19071722D02*
X7342682Y-19052674D01*
X7342682Y-19052674D02*
X7361730Y-19043150D01*
X7361730Y-19043150D02*
X7390301Y-19043150D01*
X7390301Y-19043150D02*
X7409349Y-19052674D01*
X7485539Y-19252674D02*
X7495063Y-19243150D01*
X7495063Y-19243150D02*
X7514111Y-19214579D01*
X7514111Y-19214579D02*
X7523634Y-19195531D01*
X7523634Y-19195531D02*
X7533158Y-19166960D01*
X7533158Y-19166960D02*
X7542682Y-19119341D01*
X7542682Y-19119341D02*
X7542682Y-19081246D01*
X7542682Y-19081246D02*
X7533158Y-19033627D01*
X7533158Y-19033627D02*
X7523634Y-19005055D01*
X7523634Y-19005055D02*
X7514111Y-18986008D01*
X7514111Y-18986008D02*
X7495063Y-18957436D01*
X7495063Y-18957436D02*
X7485539Y-18947912D01*
X2320000Y-19305000D02*
X2520000Y-19505000D01*
X2520000Y-19305000D02*
X2320000Y-19505000D01*
X2490711Y-19475711D02*
X2490711Y-19334289D01*
X2349289Y-19334289D01*
X2349289Y-19475711D01*
X2490711Y-19475711D01*
X2761729Y-19296484D02*
X2885539Y-19296484D01*
X2885539Y-19296484D02*
X2818872Y-19372674D01*
X2818872Y-19372674D02*
X2847443Y-19372674D01*
X2847443Y-19372674D02*
X2866491Y-19382198D01*
X2866491Y-19382198D02*
X2876015Y-19391722D01*
X2876015Y-19391722D02*
X2885539Y-19410770D01*
X2885539Y-19410770D02*
X2885539Y-19458389D01*
X2885539Y-19458389D02*
X2876015Y-19477436D01*
X2876015Y-19477436D02*
X2866491Y-19486960D01*
X2866491Y-19486960D02*
X2847443Y-19496484D01*
X2847443Y-19496484D02*
X2790301Y-19496484D01*
X2790301Y-19496484D02*
X2771253Y-19486960D01*
X2771253Y-19486960D02*
X2761729Y-19477436D01*
X2971253Y-19477436D02*
X2980777Y-19486960D01*
X2980777Y-19486960D02*
X2971253Y-19496484D01*
X2971253Y-19496484D02*
X2961729Y-19486960D01*
X2961729Y-19486960D02*
X2971253Y-19477436D01*
X2971253Y-19477436D02*
X2971253Y-19496484D01*
X3104586Y-19296484D02*
X3123634Y-19296484D01*
X3123634Y-19296484D02*
X3142682Y-19306008D01*
X3142682Y-19306008D02*
X3152205Y-19315531D01*
X3152205Y-19315531D02*
X3161729Y-19334579D01*
X3161729Y-19334579D02*
X3171253Y-19372674D01*
X3171253Y-19372674D02*
X3171253Y-19420293D01*
X3171253Y-19420293D02*
X3161729Y-19458389D01*
X3161729Y-19458389D02*
X3152205Y-19477436D01*
X3152205Y-19477436D02*
X3142682Y-19486960D01*
X3142682Y-19486960D02*
X3123634Y-19496484D01*
X3123634Y-19496484D02*
X3104586Y-19496484D01*
X3104586Y-19496484D02*
X3085539Y-19486960D01*
X3085539Y-19486960D02*
X3076015Y-19477436D01*
X3076015Y-19477436D02*
X3066491Y-19458389D01*
X3066491Y-19458389D02*
X3056967Y-19420293D01*
X3056967Y-19420293D02*
X3056967Y-19372674D01*
X3056967Y-19372674D02*
X3066491Y-19334579D01*
X3066491Y-19334579D02*
X3076015Y-19315531D01*
X3076015Y-19315531D02*
X3085539Y-19306008D01*
X3085539Y-19306008D02*
X3104586Y-19296484D01*
X3295062Y-19296484D02*
X3314110Y-19296484D01*
X3314110Y-19296484D02*
X3333158Y-19306008D01*
X3333158Y-19306008D02*
X3342682Y-19315531D01*
X3342682Y-19315531D02*
X3352205Y-19334579D01*
X3352205Y-19334579D02*
X3361729Y-19372674D01*
X3361729Y-19372674D02*
X3361729Y-19420293D01*
X3361729Y-19420293D02*
X3352205Y-19458389D01*
X3352205Y-19458389D02*
X3342682Y-19477436D01*
X3342682Y-19477436D02*
X3333158Y-19486960D01*
X3333158Y-19486960D02*
X3314110Y-19496484D01*
X3314110Y-19496484D02*
X3295062Y-19496484D01*
X3295062Y-19496484D02*
X3276015Y-19486960D01*
X3276015Y-19486960D02*
X3266491Y-19477436D01*
X3266491Y-19477436D02*
X3256967Y-19458389D01*
X3256967Y-19458389D02*
X3247443Y-19420293D01*
X3247443Y-19420293D02*
X3247443Y-19372674D01*
X3247443Y-19372674D02*
X3256967Y-19334579D01*
X3256967Y-19334579D02*
X3266491Y-19315531D01*
X3266491Y-19315531D02*
X3276015Y-19306008D01*
X3276015Y-19306008D02*
X3295062Y-19296484D01*
X3485539Y-19296484D02*
X3504586Y-19296484D01*
X3504586Y-19296484D02*
X3523634Y-19306008D01*
X3523634Y-19306008D02*
X3533158Y-19315531D01*
X3533158Y-19315531D02*
X3542682Y-19334579D01*
X3542682Y-19334579D02*
X3552205Y-19372674D01*
X3552205Y-19372674D02*
X3552205Y-19420293D01*
X3552205Y-19420293D02*
X3542682Y-19458389D01*
X3542682Y-19458389D02*
X3533158Y-19477436D01*
X3533158Y-19477436D02*
X3523634Y-19486960D01*
X3523634Y-19486960D02*
X3504586Y-19496484D01*
X3504586Y-19496484D02*
X3485539Y-19496484D01*
X3485539Y-19496484D02*
X3466491Y-19486960D01*
X3466491Y-19486960D02*
X3456967Y-19477436D01*
X3456967Y-19477436D02*
X3447443Y-19458389D01*
X3447443Y-19458389D02*
X3437920Y-19420293D01*
X3437920Y-19420293D02*
X3437920Y-19372674D01*
X3437920Y-19372674D02*
X3447443Y-19334579D01*
X3447443Y-19334579D02*
X3456967Y-19315531D01*
X3456967Y-19315531D02*
X3466491Y-19306008D01*
X3466491Y-19306008D02*
X3485539Y-19296484D01*
X3637920Y-19496484D02*
X3637920Y-19363150D01*
X3637920Y-19382198D02*
X3647443Y-19372674D01*
X3647443Y-19372674D02*
X3666491Y-19363150D01*
X3666491Y-19363150D02*
X3695063Y-19363150D01*
X3695063Y-19363150D02*
X3714110Y-19372674D01*
X3714110Y-19372674D02*
X3723634Y-19391722D01*
X3723634Y-19391722D02*
X3723634Y-19496484D01*
X3723634Y-19391722D02*
X3733158Y-19372674D01*
X3733158Y-19372674D02*
X3752205Y-19363150D01*
X3752205Y-19363150D02*
X3780777Y-19363150D01*
X3780777Y-19363150D02*
X3799824Y-19372674D01*
X3799824Y-19372674D02*
X3809348Y-19391722D01*
X3809348Y-19391722D02*
X3809348Y-19496484D01*
X3904586Y-19496484D02*
X3904586Y-19363150D01*
X3904586Y-19382198D02*
X3914110Y-19372674D01*
X3914110Y-19372674D02*
X3933158Y-19363150D01*
X3933158Y-19363150D02*
X3961729Y-19363150D01*
X3961729Y-19363150D02*
X3980777Y-19372674D01*
X3980777Y-19372674D02*
X3990301Y-19391722D01*
X3990301Y-19391722D02*
X3990301Y-19496484D01*
X3990301Y-19391722D02*
X3999824Y-19372674D01*
X3999824Y-19372674D02*
X4018872Y-19363150D01*
X4018872Y-19363150D02*
X4047443Y-19363150D01*
X4047443Y-19363150D02*
X4066491Y-19372674D01*
X4066491Y-19372674D02*
X4076015Y-19391722D01*
X4076015Y-19391722D02*
X4076015Y-19496484D01*
X4466491Y-19286960D02*
X4295063Y-19544103D01*
X4723634Y-19296484D02*
X4742682Y-19296484D01*
X4742682Y-19296484D02*
X4761729Y-19306008D01*
X4761729Y-19306008D02*
X4771253Y-19315531D01*
X4771253Y-19315531D02*
X4780777Y-19334579D01*
X4780777Y-19334579D02*
X4790301Y-19372674D01*
X4790301Y-19372674D02*
X4790301Y-19420293D01*
X4790301Y-19420293D02*
X4780777Y-19458389D01*
X4780777Y-19458389D02*
X4771253Y-19477436D01*
X4771253Y-19477436D02*
X4761729Y-19486960D01*
X4761729Y-19486960D02*
X4742682Y-19496484D01*
X4742682Y-19496484D02*
X4723634Y-19496484D01*
X4723634Y-19496484D02*
X4704587Y-19486960D01*
X4704587Y-19486960D02*
X4695063Y-19477436D01*
X4695063Y-19477436D02*
X4685539Y-19458389D01*
X4685539Y-19458389D02*
X4676015Y-19420293D01*
X4676015Y-19420293D02*
X4676015Y-19372674D01*
X4676015Y-19372674D02*
X4685539Y-19334579D01*
X4685539Y-19334579D02*
X4695063Y-19315531D01*
X4695063Y-19315531D02*
X4704587Y-19306008D01*
X4704587Y-19306008D02*
X4723634Y-19296484D01*
X4876015Y-19477436D02*
X4885539Y-19486960D01*
X4885539Y-19486960D02*
X4876015Y-19496484D01*
X4876015Y-19496484D02*
X4866491Y-19486960D01*
X4866491Y-19486960D02*
X4876015Y-19477436D01*
X4876015Y-19477436D02*
X4876015Y-19496484D01*
X5076015Y-19496484D02*
X4961729Y-19496484D01*
X5018872Y-19496484D02*
X5018872Y-19296484D01*
X5018872Y-19296484D02*
X4999825Y-19325055D01*
X4999825Y-19325055D02*
X4980777Y-19344103D01*
X4980777Y-19344103D02*
X4961729Y-19353627D01*
X5266491Y-19496484D02*
X5152206Y-19496484D01*
X5209348Y-19496484D02*
X5209348Y-19296484D01*
X5209348Y-19296484D02*
X5190301Y-19325055D01*
X5190301Y-19325055D02*
X5171253Y-19344103D01*
X5171253Y-19344103D02*
X5152206Y-19353627D01*
X5380777Y-19382198D02*
X5361729Y-19372674D01*
X5361729Y-19372674D02*
X5352206Y-19363150D01*
X5352206Y-19363150D02*
X5342682Y-19344103D01*
X5342682Y-19344103D02*
X5342682Y-19334579D01*
X5342682Y-19334579D02*
X5352206Y-19315531D01*
X5352206Y-19315531D02*
X5361729Y-19306008D01*
X5361729Y-19306008D02*
X5380777Y-19296484D01*
X5380777Y-19296484D02*
X5418872Y-19296484D01*
X5418872Y-19296484D02*
X5437920Y-19306008D01*
X5437920Y-19306008D02*
X5447444Y-19315531D01*
X5447444Y-19315531D02*
X5456968Y-19334579D01*
X5456968Y-19334579D02*
X5456968Y-19344103D01*
X5456968Y-19344103D02*
X5447444Y-19363150D01*
X5447444Y-19363150D02*
X5437920Y-19372674D01*
X5437920Y-19372674D02*
X5418872Y-19382198D01*
X5418872Y-19382198D02*
X5380777Y-19382198D01*
X5380777Y-19382198D02*
X5361729Y-19391722D01*
X5361729Y-19391722D02*
X5352206Y-19401246D01*
X5352206Y-19401246D02*
X5342682Y-19420293D01*
X5342682Y-19420293D02*
X5342682Y-19458389D01*
X5342682Y-19458389D02*
X5352206Y-19477436D01*
X5352206Y-19477436D02*
X5361729Y-19486960D01*
X5361729Y-19486960D02*
X5380777Y-19496484D01*
X5380777Y-19496484D02*
X5418872Y-19496484D01*
X5418872Y-19496484D02*
X5437920Y-19486960D01*
X5437920Y-19486960D02*
X5447444Y-19477436D01*
X5447444Y-19477436D02*
X5456968Y-19458389D01*
X5456968Y-19458389D02*
X5456968Y-19420293D01*
X5456968Y-19420293D02*
X5447444Y-19401246D01*
X5447444Y-19401246D02*
X5437920Y-19391722D01*
X5437920Y-19391722D02*
X5418872Y-19382198D01*
X5647444Y-19496484D02*
X5533158Y-19496484D01*
X5590301Y-19496484D02*
X5590301Y-19296484D01*
X5590301Y-19296484D02*
X5571253Y-19325055D01*
X5571253Y-19325055D02*
X5552206Y-19344103D01*
X5552206Y-19344103D02*
X5533158Y-19353627D01*
X5723634Y-19296484D02*
X5723634Y-19334579D01*
X5799825Y-19296484D02*
X5799825Y-19334579D01*
X6095063Y-19572674D02*
X6085539Y-19563150D01*
X6085539Y-19563150D02*
X6066491Y-19534579D01*
X6066491Y-19534579D02*
X6056968Y-19515531D01*
X6056968Y-19515531D02*
X6047444Y-19486960D01*
X6047444Y-19486960D02*
X6037920Y-19439341D01*
X6037920Y-19439341D02*
X6037920Y-19401246D01*
X6037920Y-19401246D02*
X6047444Y-19353627D01*
X6047444Y-19353627D02*
X6056968Y-19325055D01*
X6056968Y-19325055D02*
X6066491Y-19306008D01*
X6066491Y-19306008D02*
X6085539Y-19277436D01*
X6085539Y-19277436D02*
X6095063Y-19267912D01*
X6161729Y-19315531D02*
X6171253Y-19306008D01*
X6171253Y-19306008D02*
X6190301Y-19296484D01*
X6190301Y-19296484D02*
X6237920Y-19296484D01*
X6237920Y-19296484D02*
X6256968Y-19306008D01*
X6256968Y-19306008D02*
X6266491Y-19315531D01*
X6266491Y-19315531D02*
X6276015Y-19334579D01*
X6276015Y-19334579D02*
X6276015Y-19353627D01*
X6276015Y-19353627D02*
X6266491Y-19382198D01*
X6266491Y-19382198D02*
X6152206Y-19496484D01*
X6152206Y-19496484D02*
X6276015Y-19496484D01*
X6514110Y-19496484D02*
X6514110Y-19296484D01*
X6599825Y-19496484D02*
X6599825Y-19391722D01*
X6599825Y-19391722D02*
X6590301Y-19372674D01*
X6590301Y-19372674D02*
X6571253Y-19363150D01*
X6571253Y-19363150D02*
X6542682Y-19363150D01*
X6542682Y-19363150D02*
X6523634Y-19372674D01*
X6523634Y-19372674D02*
X6514110Y-19382198D01*
X6723634Y-19496484D02*
X6704587Y-19486960D01*
X6704587Y-19486960D02*
X6695063Y-19477436D01*
X6695063Y-19477436D02*
X6685539Y-19458389D01*
X6685539Y-19458389D02*
X6685539Y-19401246D01*
X6685539Y-19401246D02*
X6695063Y-19382198D01*
X6695063Y-19382198D02*
X6704587Y-19372674D01*
X6704587Y-19372674D02*
X6723634Y-19363150D01*
X6723634Y-19363150D02*
X6752206Y-19363150D01*
X6752206Y-19363150D02*
X6771253Y-19372674D01*
X6771253Y-19372674D02*
X6780777Y-19382198D01*
X6780777Y-19382198D02*
X6790301Y-19401246D01*
X6790301Y-19401246D02*
X6790301Y-19458389D01*
X6790301Y-19458389D02*
X6780777Y-19477436D01*
X6780777Y-19477436D02*
X6771253Y-19486960D01*
X6771253Y-19486960D02*
X6752206Y-19496484D01*
X6752206Y-19496484D02*
X6723634Y-19496484D01*
X6904587Y-19496484D02*
X6885539Y-19486960D01*
X6885539Y-19486960D02*
X6876015Y-19467912D01*
X6876015Y-19467912D02*
X6876015Y-19296484D01*
X7056968Y-19486960D02*
X7037920Y-19496484D01*
X7037920Y-19496484D02*
X6999825Y-19496484D01*
X6999825Y-19496484D02*
X6980777Y-19486960D01*
X6980777Y-19486960D02*
X6971253Y-19467912D01*
X6971253Y-19467912D02*
X6971253Y-19391722D01*
X6971253Y-19391722D02*
X6980777Y-19372674D01*
X6980777Y-19372674D02*
X6999825Y-19363150D01*
X6999825Y-19363150D02*
X7037920Y-19363150D01*
X7037920Y-19363150D02*
X7056968Y-19372674D01*
X7056968Y-19372674D02*
X7066491Y-19391722D01*
X7066491Y-19391722D02*
X7066491Y-19410770D01*
X7066491Y-19410770D02*
X6971253Y-19429817D01*
X7142682Y-19486960D02*
X7161730Y-19496484D01*
X7161730Y-19496484D02*
X7199825Y-19496484D01*
X7199825Y-19496484D02*
X7218872Y-19486960D01*
X7218872Y-19486960D02*
X7228396Y-19467912D01*
X7228396Y-19467912D02*
X7228396Y-19458389D01*
X7228396Y-19458389D02*
X7218872Y-19439341D01*
X7218872Y-19439341D02*
X7199825Y-19429817D01*
X7199825Y-19429817D02*
X7171253Y-19429817D01*
X7171253Y-19429817D02*
X7152206Y-19420293D01*
X7152206Y-19420293D02*
X7142682Y-19401246D01*
X7142682Y-19401246D02*
X7142682Y-19391722D01*
X7142682Y-19391722D02*
X7152206Y-19372674D01*
X7152206Y-19372674D02*
X7171253Y-19363150D01*
X7171253Y-19363150D02*
X7199825Y-19363150D01*
X7199825Y-19363150D02*
X7218872Y-19372674D01*
X7295063Y-19572674D02*
X7304587Y-19563150D01*
X7304587Y-19563150D02*
X7323634Y-19534579D01*
X7323634Y-19534579D02*
X7333158Y-19515531D01*
X7333158Y-19515531D02*
X7342682Y-19486960D01*
X7342682Y-19486960D02*
X7352206Y-19439341D01*
X7352206Y-19439341D02*
X7352206Y-19401246D01*
X7352206Y-19401246D02*
X7342682Y-19353627D01*
X7342682Y-19353627D02*
X7333158Y-19325055D01*
X7333158Y-19325055D02*
X7323634Y-19306008D01*
X7323634Y-19306008D02*
X7304587Y-19277436D01*
X7304587Y-19277436D02*
X7295063Y-19267912D01*
X2320000Y-19625000D02*
X2520000Y-19825000D01*
X2520000Y-19625000D02*
X2320000Y-19825000D01*
X2420000Y-19825000D02*
X2520000Y-19725000D01*
X2420000Y-19625000D01*
X2320000Y-19725000D01*
X2420000Y-19825000D01*
X2866491Y-19683150D02*
X2866491Y-19816484D01*
X2818872Y-19606960D02*
X2771253Y-19749817D01*
X2771253Y-19749817D02*
X2895062Y-19749817D01*
X2971253Y-19797436D02*
X2980777Y-19806960D01*
X2980777Y-19806960D02*
X2971253Y-19816484D01*
X2971253Y-19816484D02*
X2961729Y-19806960D01*
X2961729Y-19806960D02*
X2971253Y-19797436D01*
X2971253Y-19797436D02*
X2971253Y-19816484D01*
X3161729Y-19616484D02*
X3066491Y-19616484D01*
X3066491Y-19616484D02*
X3056967Y-19711722D01*
X3056967Y-19711722D02*
X3066491Y-19702198D01*
X3066491Y-19702198D02*
X3085539Y-19692674D01*
X3085539Y-19692674D02*
X3133158Y-19692674D01*
X3133158Y-19692674D02*
X3152205Y-19702198D01*
X3152205Y-19702198D02*
X3161729Y-19711722D01*
X3161729Y-19711722D02*
X3171253Y-19730770D01*
X3171253Y-19730770D02*
X3171253Y-19778389D01*
X3171253Y-19778389D02*
X3161729Y-19797436D01*
X3161729Y-19797436D02*
X3152205Y-19806960D01*
X3152205Y-19806960D02*
X3133158Y-19816484D01*
X3133158Y-19816484D02*
X3085539Y-19816484D01*
X3085539Y-19816484D02*
X3066491Y-19806960D01*
X3066491Y-19806960D02*
X3056967Y-19797436D01*
X3295062Y-19616484D02*
X3314110Y-19616484D01*
X3314110Y-19616484D02*
X3333158Y-19626008D01*
X3333158Y-19626008D02*
X3342682Y-19635531D01*
X3342682Y-19635531D02*
X3352205Y-19654579D01*
X3352205Y-19654579D02*
X3361729Y-19692674D01*
X3361729Y-19692674D02*
X3361729Y-19740293D01*
X3361729Y-19740293D02*
X3352205Y-19778389D01*
X3352205Y-19778389D02*
X3342682Y-19797436D01*
X3342682Y-19797436D02*
X3333158Y-19806960D01*
X3333158Y-19806960D02*
X3314110Y-19816484D01*
X3314110Y-19816484D02*
X3295062Y-19816484D01*
X3295062Y-19816484D02*
X3276015Y-19806960D01*
X3276015Y-19806960D02*
X3266491Y-19797436D01*
X3266491Y-19797436D02*
X3256967Y-19778389D01*
X3256967Y-19778389D02*
X3247443Y-19740293D01*
X3247443Y-19740293D02*
X3247443Y-19692674D01*
X3247443Y-19692674D02*
X3256967Y-19654579D01*
X3256967Y-19654579D02*
X3266491Y-19635531D01*
X3266491Y-19635531D02*
X3276015Y-19626008D01*
X3276015Y-19626008D02*
X3295062Y-19616484D01*
X3485539Y-19616484D02*
X3504586Y-19616484D01*
X3504586Y-19616484D02*
X3523634Y-19626008D01*
X3523634Y-19626008D02*
X3533158Y-19635531D01*
X3533158Y-19635531D02*
X3542682Y-19654579D01*
X3542682Y-19654579D02*
X3552205Y-19692674D01*
X3552205Y-19692674D02*
X3552205Y-19740293D01*
X3552205Y-19740293D02*
X3542682Y-19778389D01*
X3542682Y-19778389D02*
X3533158Y-19797436D01*
X3533158Y-19797436D02*
X3523634Y-19806960D01*
X3523634Y-19806960D02*
X3504586Y-19816484D01*
X3504586Y-19816484D02*
X3485539Y-19816484D01*
X3485539Y-19816484D02*
X3466491Y-19806960D01*
X3466491Y-19806960D02*
X3456967Y-19797436D01*
X3456967Y-19797436D02*
X3447443Y-19778389D01*
X3447443Y-19778389D02*
X3437920Y-19740293D01*
X3437920Y-19740293D02*
X3437920Y-19692674D01*
X3437920Y-19692674D02*
X3447443Y-19654579D01*
X3447443Y-19654579D02*
X3456967Y-19635531D01*
X3456967Y-19635531D02*
X3466491Y-19626008D01*
X3466491Y-19626008D02*
X3485539Y-19616484D01*
X3637920Y-19816484D02*
X3637920Y-19683150D01*
X3637920Y-19702198D02*
X3647443Y-19692674D01*
X3647443Y-19692674D02*
X3666491Y-19683150D01*
X3666491Y-19683150D02*
X3695063Y-19683150D01*
X3695063Y-19683150D02*
X3714110Y-19692674D01*
X3714110Y-19692674D02*
X3723634Y-19711722D01*
X3723634Y-19711722D02*
X3723634Y-19816484D01*
X3723634Y-19711722D02*
X3733158Y-19692674D01*
X3733158Y-19692674D02*
X3752205Y-19683150D01*
X3752205Y-19683150D02*
X3780777Y-19683150D01*
X3780777Y-19683150D02*
X3799824Y-19692674D01*
X3799824Y-19692674D02*
X3809348Y-19711722D01*
X3809348Y-19711722D02*
X3809348Y-19816484D01*
X3904586Y-19816484D02*
X3904586Y-19683150D01*
X3904586Y-19702198D02*
X3914110Y-19692674D01*
X3914110Y-19692674D02*
X3933158Y-19683150D01*
X3933158Y-19683150D02*
X3961729Y-19683150D01*
X3961729Y-19683150D02*
X3980777Y-19692674D01*
X3980777Y-19692674D02*
X3990301Y-19711722D01*
X3990301Y-19711722D02*
X3990301Y-19816484D01*
X3990301Y-19711722D02*
X3999824Y-19692674D01*
X3999824Y-19692674D02*
X4018872Y-19683150D01*
X4018872Y-19683150D02*
X4047443Y-19683150D01*
X4047443Y-19683150D02*
X4066491Y-19692674D01*
X4066491Y-19692674D02*
X4076015Y-19711722D01*
X4076015Y-19711722D02*
X4076015Y-19816484D01*
X4466491Y-19606960D02*
X4295063Y-19864103D01*
X4723634Y-19616484D02*
X4742682Y-19616484D01*
X4742682Y-19616484D02*
X4761729Y-19626008D01*
X4761729Y-19626008D02*
X4771253Y-19635531D01*
X4771253Y-19635531D02*
X4780777Y-19654579D01*
X4780777Y-19654579D02*
X4790301Y-19692674D01*
X4790301Y-19692674D02*
X4790301Y-19740293D01*
X4790301Y-19740293D02*
X4780777Y-19778389D01*
X4780777Y-19778389D02*
X4771253Y-19797436D01*
X4771253Y-19797436D02*
X4761729Y-19806960D01*
X4761729Y-19806960D02*
X4742682Y-19816484D01*
X4742682Y-19816484D02*
X4723634Y-19816484D01*
X4723634Y-19816484D02*
X4704587Y-19806960D01*
X4704587Y-19806960D02*
X4695063Y-19797436D01*
X4695063Y-19797436D02*
X4685539Y-19778389D01*
X4685539Y-19778389D02*
X4676015Y-19740293D01*
X4676015Y-19740293D02*
X4676015Y-19692674D01*
X4676015Y-19692674D02*
X4685539Y-19654579D01*
X4685539Y-19654579D02*
X4695063Y-19635531D01*
X4695063Y-19635531D02*
X4704587Y-19626008D01*
X4704587Y-19626008D02*
X4723634Y-19616484D01*
X4876015Y-19797436D02*
X4885539Y-19806960D01*
X4885539Y-19806960D02*
X4876015Y-19816484D01*
X4876015Y-19816484D02*
X4866491Y-19806960D01*
X4866491Y-19806960D02*
X4876015Y-19797436D01*
X4876015Y-19797436D02*
X4876015Y-19816484D01*
X5076015Y-19816484D02*
X4961729Y-19816484D01*
X5018872Y-19816484D02*
X5018872Y-19616484D01*
X5018872Y-19616484D02*
X4999825Y-19645055D01*
X4999825Y-19645055D02*
X4980777Y-19664103D01*
X4980777Y-19664103D02*
X4961729Y-19673627D01*
X5142682Y-19616484D02*
X5276015Y-19616484D01*
X5276015Y-19616484D02*
X5190301Y-19816484D01*
X5333158Y-19616484D02*
X5466491Y-19616484D01*
X5466491Y-19616484D02*
X5380777Y-19816484D01*
X5533158Y-19635531D02*
X5542682Y-19626008D01*
X5542682Y-19626008D02*
X5561729Y-19616484D01*
X5561729Y-19616484D02*
X5609348Y-19616484D01*
X5609348Y-19616484D02*
X5628396Y-19626008D01*
X5628396Y-19626008D02*
X5637920Y-19635531D01*
X5637920Y-19635531D02*
X5647444Y-19654579D01*
X5647444Y-19654579D02*
X5647444Y-19673627D01*
X5647444Y-19673627D02*
X5637920Y-19702198D01*
X5637920Y-19702198D02*
X5523634Y-19816484D01*
X5523634Y-19816484D02*
X5647444Y-19816484D01*
X5723634Y-19616484D02*
X5723634Y-19654579D01*
X5799825Y-19616484D02*
X5799825Y-19654579D01*
X6095063Y-19892674D02*
X6085539Y-19883150D01*
X6085539Y-19883150D02*
X6066491Y-19854579D01*
X6066491Y-19854579D02*
X6056968Y-19835531D01*
X6056968Y-19835531D02*
X6047444Y-19806960D01*
X6047444Y-19806960D02*
X6037920Y-19759341D01*
X6037920Y-19759341D02*
X6037920Y-19721246D01*
X6037920Y-19721246D02*
X6047444Y-19673627D01*
X6047444Y-19673627D02*
X6056968Y-19645055D01*
X6056968Y-19645055D02*
X6066491Y-19626008D01*
X6066491Y-19626008D02*
X6085539Y-19597436D01*
X6085539Y-19597436D02*
X6095063Y-19587912D01*
X6256968Y-19683150D02*
X6256968Y-19816484D01*
X6209348Y-19606960D02*
X6161729Y-19749817D01*
X6161729Y-19749817D02*
X6285539Y-19749817D01*
X6352206Y-19635531D02*
X6361729Y-19626008D01*
X6361729Y-19626008D02*
X6380777Y-19616484D01*
X6380777Y-19616484D02*
X6428396Y-19616484D01*
X6428396Y-19616484D02*
X6447444Y-19626008D01*
X6447444Y-19626008D02*
X6456968Y-19635531D01*
X6456968Y-19635531D02*
X6466491Y-19654579D01*
X6466491Y-19654579D02*
X6466491Y-19673627D01*
X6466491Y-19673627D02*
X6456968Y-19702198D01*
X6456968Y-19702198D02*
X6342682Y-19816484D01*
X6342682Y-19816484D02*
X6466491Y-19816484D01*
X6704587Y-19816484D02*
X6704587Y-19616484D01*
X6790301Y-19816484D02*
X6790301Y-19711722D01*
X6790301Y-19711722D02*
X6780777Y-19692674D01*
X6780777Y-19692674D02*
X6761730Y-19683150D01*
X6761730Y-19683150D02*
X6733158Y-19683150D01*
X6733158Y-19683150D02*
X6714110Y-19692674D01*
X6714110Y-19692674D02*
X6704587Y-19702198D01*
X6914110Y-19816484D02*
X6895063Y-19806960D01*
X6895063Y-19806960D02*
X6885539Y-19797436D01*
X6885539Y-19797436D02*
X6876015Y-19778389D01*
X6876015Y-19778389D02*
X6876015Y-19721246D01*
X6876015Y-19721246D02*
X6885539Y-19702198D01*
X6885539Y-19702198D02*
X6895063Y-19692674D01*
X6895063Y-19692674D02*
X6914110Y-19683150D01*
X6914110Y-19683150D02*
X6942682Y-19683150D01*
X6942682Y-19683150D02*
X6961730Y-19692674D01*
X6961730Y-19692674D02*
X6971253Y-19702198D01*
X6971253Y-19702198D02*
X6980777Y-19721246D01*
X6980777Y-19721246D02*
X6980777Y-19778389D01*
X6980777Y-19778389D02*
X6971253Y-19797436D01*
X6971253Y-19797436D02*
X6961730Y-19806960D01*
X6961730Y-19806960D02*
X6942682Y-19816484D01*
X6942682Y-19816484D02*
X6914110Y-19816484D01*
X7095063Y-19816484D02*
X7076015Y-19806960D01*
X7076015Y-19806960D02*
X7066491Y-19787912D01*
X7066491Y-19787912D02*
X7066491Y-19616484D01*
X7247444Y-19806960D02*
X7228396Y-19816484D01*
X7228396Y-19816484D02*
X7190301Y-19816484D01*
X7190301Y-19816484D02*
X7171253Y-19806960D01*
X7171253Y-19806960D02*
X7161730Y-19787912D01*
X7161730Y-19787912D02*
X7161730Y-19711722D01*
X7161730Y-19711722D02*
X7171253Y-19692674D01*
X7171253Y-19692674D02*
X7190301Y-19683150D01*
X7190301Y-19683150D02*
X7228396Y-19683150D01*
X7228396Y-19683150D02*
X7247444Y-19692674D01*
X7247444Y-19692674D02*
X7256968Y-19711722D01*
X7256968Y-19711722D02*
X7256968Y-19730770D01*
X7256968Y-19730770D02*
X7161730Y-19749817D01*
X7333158Y-19806960D02*
X7352206Y-19816484D01*
X7352206Y-19816484D02*
X7390301Y-19816484D01*
X7390301Y-19816484D02*
X7409349Y-19806960D01*
X7409349Y-19806960D02*
X7418872Y-19787912D01*
X7418872Y-19787912D02*
X7418872Y-19778389D01*
X7418872Y-19778389D02*
X7409349Y-19759341D01*
X7409349Y-19759341D02*
X7390301Y-19749817D01*
X7390301Y-19749817D02*
X7361730Y-19749817D01*
X7361730Y-19749817D02*
X7342682Y-19740293D01*
X7342682Y-19740293D02*
X7333158Y-19721246D01*
X7333158Y-19721246D02*
X7333158Y-19711722D01*
X7333158Y-19711722D02*
X7342682Y-19692674D01*
X7342682Y-19692674D02*
X7361730Y-19683150D01*
X7361730Y-19683150D02*
X7390301Y-19683150D01*
X7390301Y-19683150D02*
X7409349Y-19692674D01*
X7485539Y-19892674D02*
X7495063Y-19883150D01*
X7495063Y-19883150D02*
X7514111Y-19854579D01*
X7514111Y-19854579D02*
X7523634Y-19835531D01*
X7523634Y-19835531D02*
X7533158Y-19806960D01*
X7533158Y-19806960D02*
X7542682Y-19759341D01*
X7542682Y-19759341D02*
X7542682Y-19721246D01*
X7542682Y-19721246D02*
X7533158Y-19673627D01*
X7533158Y-19673627D02*
X7523634Y-19645055D01*
X7523634Y-19645055D02*
X7514111Y-19626008D01*
X7514111Y-19626008D02*
X7495063Y-19597436D01*
X7495063Y-19597436D02*
X7485539Y-19587912D01*
X2420000Y-19945000D02*
X2420000Y-20145000D01*
X2320000Y-20045000D02*
X2520000Y-20045000D01*
X2520000Y-20045000D02*
G75*
G02*
X2320000Y-20045000I-100000J0D01*
G01*
X2320000Y-20045000D02*
G75*
G02*
X2520000Y-20045000I100000J0D01*
G01*
X2866491Y-19936484D02*
X2828396Y-19936484D01*
X2828396Y-19936484D02*
X2809348Y-19946008D01*
X2809348Y-19946008D02*
X2799824Y-19955531D01*
X2799824Y-19955531D02*
X2780777Y-19984103D01*
X2780777Y-19984103D02*
X2771253Y-20022198D01*
X2771253Y-20022198D02*
X2771253Y-20098389D01*
X2771253Y-20098389D02*
X2780777Y-20117436D01*
X2780777Y-20117436D02*
X2790301Y-20126960D01*
X2790301Y-20126960D02*
X2809348Y-20136484D01*
X2809348Y-20136484D02*
X2847443Y-20136484D01*
X2847443Y-20136484D02*
X2866491Y-20126960D01*
X2866491Y-20126960D02*
X2876015Y-20117436D01*
X2876015Y-20117436D02*
X2885539Y-20098389D01*
X2885539Y-20098389D02*
X2885539Y-20050770D01*
X2885539Y-20050770D02*
X2876015Y-20031722D01*
X2876015Y-20031722D02*
X2866491Y-20022198D01*
X2866491Y-20022198D02*
X2847443Y-20012674D01*
X2847443Y-20012674D02*
X2809348Y-20012674D01*
X2809348Y-20012674D02*
X2790301Y-20022198D01*
X2790301Y-20022198D02*
X2780777Y-20031722D01*
X2780777Y-20031722D02*
X2771253Y-20050770D01*
X2971253Y-20117436D02*
X2980777Y-20126960D01*
X2980777Y-20126960D02*
X2971253Y-20136484D01*
X2971253Y-20136484D02*
X2961729Y-20126960D01*
X2961729Y-20126960D02*
X2971253Y-20117436D01*
X2971253Y-20117436D02*
X2971253Y-20136484D01*
X3104586Y-19936484D02*
X3123634Y-19936484D01*
X3123634Y-19936484D02*
X3142682Y-19946008D01*
X3142682Y-19946008D02*
X3152205Y-19955531D01*
X3152205Y-19955531D02*
X3161729Y-19974579D01*
X3161729Y-19974579D02*
X3171253Y-20012674D01*
X3171253Y-20012674D02*
X3171253Y-20060293D01*
X3171253Y-20060293D02*
X3161729Y-20098389D01*
X3161729Y-20098389D02*
X3152205Y-20117436D01*
X3152205Y-20117436D02*
X3142682Y-20126960D01*
X3142682Y-20126960D02*
X3123634Y-20136484D01*
X3123634Y-20136484D02*
X3104586Y-20136484D01*
X3104586Y-20136484D02*
X3085539Y-20126960D01*
X3085539Y-20126960D02*
X3076015Y-20117436D01*
X3076015Y-20117436D02*
X3066491Y-20098389D01*
X3066491Y-20098389D02*
X3056967Y-20060293D01*
X3056967Y-20060293D02*
X3056967Y-20012674D01*
X3056967Y-20012674D02*
X3066491Y-19974579D01*
X3066491Y-19974579D02*
X3076015Y-19955531D01*
X3076015Y-19955531D02*
X3085539Y-19946008D01*
X3085539Y-19946008D02*
X3104586Y-19936484D01*
X3295062Y-19936484D02*
X3314110Y-19936484D01*
X3314110Y-19936484D02*
X3333158Y-19946008D01*
X3333158Y-19946008D02*
X3342682Y-19955531D01*
X3342682Y-19955531D02*
X3352205Y-19974579D01*
X3352205Y-19974579D02*
X3361729Y-20012674D01*
X3361729Y-20012674D02*
X3361729Y-20060293D01*
X3361729Y-20060293D02*
X3352205Y-20098389D01*
X3352205Y-20098389D02*
X3342682Y-20117436D01*
X3342682Y-20117436D02*
X3333158Y-20126960D01*
X3333158Y-20126960D02*
X3314110Y-20136484D01*
X3314110Y-20136484D02*
X3295062Y-20136484D01*
X3295062Y-20136484D02*
X3276015Y-20126960D01*
X3276015Y-20126960D02*
X3266491Y-20117436D01*
X3266491Y-20117436D02*
X3256967Y-20098389D01*
X3256967Y-20098389D02*
X3247443Y-20060293D01*
X3247443Y-20060293D02*
X3247443Y-20012674D01*
X3247443Y-20012674D02*
X3256967Y-19974579D01*
X3256967Y-19974579D02*
X3266491Y-19955531D01*
X3266491Y-19955531D02*
X3276015Y-19946008D01*
X3276015Y-19946008D02*
X3295062Y-19936484D01*
X3485539Y-19936484D02*
X3504586Y-19936484D01*
X3504586Y-19936484D02*
X3523634Y-19946008D01*
X3523634Y-19946008D02*
X3533158Y-19955531D01*
X3533158Y-19955531D02*
X3542682Y-19974579D01*
X3542682Y-19974579D02*
X3552205Y-20012674D01*
X3552205Y-20012674D02*
X3552205Y-20060293D01*
X3552205Y-20060293D02*
X3542682Y-20098389D01*
X3542682Y-20098389D02*
X3533158Y-20117436D01*
X3533158Y-20117436D02*
X3523634Y-20126960D01*
X3523634Y-20126960D02*
X3504586Y-20136484D01*
X3504586Y-20136484D02*
X3485539Y-20136484D01*
X3485539Y-20136484D02*
X3466491Y-20126960D01*
X3466491Y-20126960D02*
X3456967Y-20117436D01*
X3456967Y-20117436D02*
X3447443Y-20098389D01*
X3447443Y-20098389D02*
X3437920Y-20060293D01*
X3437920Y-20060293D02*
X3437920Y-20012674D01*
X3437920Y-20012674D02*
X3447443Y-19974579D01*
X3447443Y-19974579D02*
X3456967Y-19955531D01*
X3456967Y-19955531D02*
X3466491Y-19946008D01*
X3466491Y-19946008D02*
X3485539Y-19936484D01*
X3637920Y-20136484D02*
X3637920Y-20003150D01*
X3637920Y-20022198D02*
X3647443Y-20012674D01*
X3647443Y-20012674D02*
X3666491Y-20003150D01*
X3666491Y-20003150D02*
X3695063Y-20003150D01*
X3695063Y-20003150D02*
X3714110Y-20012674D01*
X3714110Y-20012674D02*
X3723634Y-20031722D01*
X3723634Y-20031722D02*
X3723634Y-20136484D01*
X3723634Y-20031722D02*
X3733158Y-20012674D01*
X3733158Y-20012674D02*
X3752205Y-20003150D01*
X3752205Y-20003150D02*
X3780777Y-20003150D01*
X3780777Y-20003150D02*
X3799824Y-20012674D01*
X3799824Y-20012674D02*
X3809348Y-20031722D01*
X3809348Y-20031722D02*
X3809348Y-20136484D01*
X3904586Y-20136484D02*
X3904586Y-20003150D01*
X3904586Y-20022198D02*
X3914110Y-20012674D01*
X3914110Y-20012674D02*
X3933158Y-20003150D01*
X3933158Y-20003150D02*
X3961729Y-20003150D01*
X3961729Y-20003150D02*
X3980777Y-20012674D01*
X3980777Y-20012674D02*
X3990301Y-20031722D01*
X3990301Y-20031722D02*
X3990301Y-20136484D01*
X3990301Y-20031722D02*
X3999824Y-20012674D01*
X3999824Y-20012674D02*
X4018872Y-20003150D01*
X4018872Y-20003150D02*
X4047443Y-20003150D01*
X4047443Y-20003150D02*
X4066491Y-20012674D01*
X4066491Y-20012674D02*
X4076015Y-20031722D01*
X4076015Y-20031722D02*
X4076015Y-20136484D01*
X4466491Y-19926960D02*
X4295063Y-20184103D01*
X4723634Y-19936484D02*
X4742682Y-19936484D01*
X4742682Y-19936484D02*
X4761729Y-19946008D01*
X4761729Y-19946008D02*
X4771253Y-19955531D01*
X4771253Y-19955531D02*
X4780777Y-19974579D01*
X4780777Y-19974579D02*
X4790301Y-20012674D01*
X4790301Y-20012674D02*
X4790301Y-20060293D01*
X4790301Y-20060293D02*
X4780777Y-20098389D01*
X4780777Y-20098389D02*
X4771253Y-20117436D01*
X4771253Y-20117436D02*
X4761729Y-20126960D01*
X4761729Y-20126960D02*
X4742682Y-20136484D01*
X4742682Y-20136484D02*
X4723634Y-20136484D01*
X4723634Y-20136484D02*
X4704587Y-20126960D01*
X4704587Y-20126960D02*
X4695063Y-20117436D01*
X4695063Y-20117436D02*
X4685539Y-20098389D01*
X4685539Y-20098389D02*
X4676015Y-20060293D01*
X4676015Y-20060293D02*
X4676015Y-20012674D01*
X4676015Y-20012674D02*
X4685539Y-19974579D01*
X4685539Y-19974579D02*
X4695063Y-19955531D01*
X4695063Y-19955531D02*
X4704587Y-19946008D01*
X4704587Y-19946008D02*
X4723634Y-19936484D01*
X4876015Y-20117436D02*
X4885539Y-20126960D01*
X4885539Y-20126960D02*
X4876015Y-20136484D01*
X4876015Y-20136484D02*
X4866491Y-20126960D01*
X4866491Y-20126960D02*
X4876015Y-20117436D01*
X4876015Y-20117436D02*
X4876015Y-20136484D01*
X4961729Y-19955531D02*
X4971253Y-19946008D01*
X4971253Y-19946008D02*
X4990301Y-19936484D01*
X4990301Y-19936484D02*
X5037920Y-19936484D01*
X5037920Y-19936484D02*
X5056968Y-19946008D01*
X5056968Y-19946008D02*
X5066491Y-19955531D01*
X5066491Y-19955531D02*
X5076015Y-19974579D01*
X5076015Y-19974579D02*
X5076015Y-19993627D01*
X5076015Y-19993627D02*
X5066491Y-20022198D01*
X5066491Y-20022198D02*
X4952206Y-20136484D01*
X4952206Y-20136484D02*
X5076015Y-20136484D01*
X5142682Y-19936484D02*
X5266491Y-19936484D01*
X5266491Y-19936484D02*
X5199825Y-20012674D01*
X5199825Y-20012674D02*
X5228396Y-20012674D01*
X5228396Y-20012674D02*
X5247444Y-20022198D01*
X5247444Y-20022198D02*
X5256968Y-20031722D01*
X5256968Y-20031722D02*
X5266491Y-20050770D01*
X5266491Y-20050770D02*
X5266491Y-20098389D01*
X5266491Y-20098389D02*
X5256968Y-20117436D01*
X5256968Y-20117436D02*
X5247444Y-20126960D01*
X5247444Y-20126960D02*
X5228396Y-20136484D01*
X5228396Y-20136484D02*
X5171253Y-20136484D01*
X5171253Y-20136484D02*
X5152206Y-20126960D01*
X5152206Y-20126960D02*
X5142682Y-20117436D01*
X5437920Y-19936484D02*
X5399825Y-19936484D01*
X5399825Y-19936484D02*
X5380777Y-19946008D01*
X5380777Y-19946008D02*
X5371253Y-19955531D01*
X5371253Y-19955531D02*
X5352206Y-19984103D01*
X5352206Y-19984103D02*
X5342682Y-20022198D01*
X5342682Y-20022198D02*
X5342682Y-20098389D01*
X5342682Y-20098389D02*
X5352206Y-20117436D01*
X5352206Y-20117436D02*
X5361729Y-20126960D01*
X5361729Y-20126960D02*
X5380777Y-20136484D01*
X5380777Y-20136484D02*
X5418872Y-20136484D01*
X5418872Y-20136484D02*
X5437920Y-20126960D01*
X5437920Y-20126960D02*
X5447444Y-20117436D01*
X5447444Y-20117436D02*
X5456968Y-20098389D01*
X5456968Y-20098389D02*
X5456968Y-20050770D01*
X5456968Y-20050770D02*
X5447444Y-20031722D01*
X5447444Y-20031722D02*
X5437920Y-20022198D01*
X5437920Y-20022198D02*
X5418872Y-20012674D01*
X5418872Y-20012674D02*
X5380777Y-20012674D01*
X5380777Y-20012674D02*
X5361729Y-20022198D01*
X5361729Y-20022198D02*
X5352206Y-20031722D01*
X5352206Y-20031722D02*
X5342682Y-20050770D01*
X5533158Y-19955531D02*
X5542682Y-19946008D01*
X5542682Y-19946008D02*
X5561729Y-19936484D01*
X5561729Y-19936484D02*
X5609348Y-19936484D01*
X5609348Y-19936484D02*
X5628396Y-19946008D01*
X5628396Y-19946008D02*
X5637920Y-19955531D01*
X5637920Y-19955531D02*
X5647444Y-19974579D01*
X5647444Y-19974579D02*
X5647444Y-19993627D01*
X5647444Y-19993627D02*
X5637920Y-20022198D01*
X5637920Y-20022198D02*
X5523634Y-20136484D01*
X5523634Y-20136484D02*
X5647444Y-20136484D01*
X5723634Y-19936484D02*
X5723634Y-19974579D01*
X5799825Y-19936484D02*
X5799825Y-19974579D01*
X6095063Y-20212674D02*
X6085539Y-20203150D01*
X6085539Y-20203150D02*
X6066491Y-20174579D01*
X6066491Y-20174579D02*
X6056968Y-20155531D01*
X6056968Y-20155531D02*
X6047444Y-20126960D01*
X6047444Y-20126960D02*
X6037920Y-20079341D01*
X6037920Y-20079341D02*
X6037920Y-20041246D01*
X6037920Y-20041246D02*
X6047444Y-19993627D01*
X6047444Y-19993627D02*
X6056968Y-19965055D01*
X6056968Y-19965055D02*
X6066491Y-19946008D01*
X6066491Y-19946008D02*
X6085539Y-19917436D01*
X6085539Y-19917436D02*
X6095063Y-19907912D01*
X6161729Y-19955531D02*
X6171253Y-19946008D01*
X6171253Y-19946008D02*
X6190301Y-19936484D01*
X6190301Y-19936484D02*
X6237920Y-19936484D01*
X6237920Y-19936484D02*
X6256968Y-19946008D01*
X6256968Y-19946008D02*
X6266491Y-19955531D01*
X6266491Y-19955531D02*
X6276015Y-19974579D01*
X6276015Y-19974579D02*
X6276015Y-19993627D01*
X6276015Y-19993627D02*
X6266491Y-20022198D01*
X6266491Y-20022198D02*
X6152206Y-20136484D01*
X6152206Y-20136484D02*
X6276015Y-20136484D01*
X6399825Y-19936484D02*
X6418872Y-19936484D01*
X6418872Y-19936484D02*
X6437920Y-19946008D01*
X6437920Y-19946008D02*
X6447444Y-19955531D01*
X6447444Y-19955531D02*
X6456968Y-19974579D01*
X6456968Y-19974579D02*
X6466491Y-20012674D01*
X6466491Y-20012674D02*
X6466491Y-20060293D01*
X6466491Y-20060293D02*
X6456968Y-20098389D01*
X6456968Y-20098389D02*
X6447444Y-20117436D01*
X6447444Y-20117436D02*
X6437920Y-20126960D01*
X6437920Y-20126960D02*
X6418872Y-20136484D01*
X6418872Y-20136484D02*
X6399825Y-20136484D01*
X6399825Y-20136484D02*
X6380777Y-20126960D01*
X6380777Y-20126960D02*
X6371253Y-20117436D01*
X6371253Y-20117436D02*
X6361729Y-20098389D01*
X6361729Y-20098389D02*
X6352206Y-20060293D01*
X6352206Y-20060293D02*
X6352206Y-20012674D01*
X6352206Y-20012674D02*
X6361729Y-19974579D01*
X6361729Y-19974579D02*
X6371253Y-19955531D01*
X6371253Y-19955531D02*
X6380777Y-19946008D01*
X6380777Y-19946008D02*
X6399825Y-19936484D01*
X6704587Y-20136484D02*
X6704587Y-19936484D01*
X6790301Y-20136484D02*
X6790301Y-20031722D01*
X6790301Y-20031722D02*
X6780777Y-20012674D01*
X6780777Y-20012674D02*
X6761730Y-20003150D01*
X6761730Y-20003150D02*
X6733158Y-20003150D01*
X6733158Y-20003150D02*
X6714110Y-20012674D01*
X6714110Y-20012674D02*
X6704587Y-20022198D01*
X6914110Y-20136484D02*
X6895063Y-20126960D01*
X6895063Y-20126960D02*
X6885539Y-20117436D01*
X6885539Y-20117436D02*
X6876015Y-20098389D01*
X6876015Y-20098389D02*
X6876015Y-20041246D01*
X6876015Y-20041246D02*
X6885539Y-20022198D01*
X6885539Y-20022198D02*
X6895063Y-20012674D01*
X6895063Y-20012674D02*
X6914110Y-20003150D01*
X6914110Y-20003150D02*
X6942682Y-20003150D01*
X6942682Y-20003150D02*
X6961730Y-20012674D01*
X6961730Y-20012674D02*
X6971253Y-20022198D01*
X6971253Y-20022198D02*
X6980777Y-20041246D01*
X6980777Y-20041246D02*
X6980777Y-20098389D01*
X6980777Y-20098389D02*
X6971253Y-20117436D01*
X6971253Y-20117436D02*
X6961730Y-20126960D01*
X6961730Y-20126960D02*
X6942682Y-20136484D01*
X6942682Y-20136484D02*
X6914110Y-20136484D01*
X7095063Y-20136484D02*
X7076015Y-20126960D01*
X7076015Y-20126960D02*
X7066491Y-20107912D01*
X7066491Y-20107912D02*
X7066491Y-19936484D01*
X7247444Y-20126960D02*
X7228396Y-20136484D01*
X7228396Y-20136484D02*
X7190301Y-20136484D01*
X7190301Y-20136484D02*
X7171253Y-20126960D01*
X7171253Y-20126960D02*
X7161730Y-20107912D01*
X7161730Y-20107912D02*
X7161730Y-20031722D01*
X7161730Y-20031722D02*
X7171253Y-20012674D01*
X7171253Y-20012674D02*
X7190301Y-20003150D01*
X7190301Y-20003150D02*
X7228396Y-20003150D01*
X7228396Y-20003150D02*
X7247444Y-20012674D01*
X7247444Y-20012674D02*
X7256968Y-20031722D01*
X7256968Y-20031722D02*
X7256968Y-20050770D01*
X7256968Y-20050770D02*
X7161730Y-20069817D01*
X7333158Y-20126960D02*
X7352206Y-20136484D01*
X7352206Y-20136484D02*
X7390301Y-20136484D01*
X7390301Y-20136484D02*
X7409349Y-20126960D01*
X7409349Y-20126960D02*
X7418872Y-20107912D01*
X7418872Y-20107912D02*
X7418872Y-20098389D01*
X7418872Y-20098389D02*
X7409349Y-20079341D01*
X7409349Y-20079341D02*
X7390301Y-20069817D01*
X7390301Y-20069817D02*
X7361730Y-20069817D01*
X7361730Y-20069817D02*
X7342682Y-20060293D01*
X7342682Y-20060293D02*
X7333158Y-20041246D01*
X7333158Y-20041246D02*
X7333158Y-20031722D01*
X7333158Y-20031722D02*
X7342682Y-20012674D01*
X7342682Y-20012674D02*
X7361730Y-20003150D01*
X7361730Y-20003150D02*
X7390301Y-20003150D01*
X7390301Y-20003150D02*
X7409349Y-20012674D01*
X7485539Y-20212674D02*
X7495063Y-20203150D01*
X7495063Y-20203150D02*
X7514111Y-20174579D01*
X7514111Y-20174579D02*
X7523634Y-20155531D01*
X7523634Y-20155531D02*
X7533158Y-20126960D01*
X7533158Y-20126960D02*
X7542682Y-20079341D01*
X7542682Y-20079341D02*
X7542682Y-20041246D01*
X7542682Y-20041246D02*
X7533158Y-19993627D01*
X7533158Y-19993627D02*
X7523634Y-19965055D01*
X7523634Y-19965055D02*
X7514111Y-19946008D01*
X7514111Y-19946008D02*
X7495063Y-19917436D01*
X7495063Y-19917436D02*
X7485539Y-19907912D01*
M02*
