%TF.GenerationSoftware,KiCad,Pcbnew,8.0.5*%
%TF.CreationDate,2024-12-16T08:47:45+01:00*%
%TF.ProjectId,PowerBoard,506f7765-7242-46f6-9172-642e6b696361,rev?*%
%TF.SameCoordinates,Original*%
%TF.FileFunction,Drillmap*%
%TF.FilePolarity,Positive*%
%FSLAX45Y45*%
G04 Gerber Fmt 4.5, Leading zero omitted, Abs format (unit mm)*
G04 Created by KiCad (PCBNEW 8.0.5) date 2024-12-16 08:47:45*
%MOMM*%
%LPD*%
G01*
G04 APERTURE LIST*
%ADD10C,0.100000*%
%ADD11C,0.200000*%
%ADD12C,0.150000*%
%ADD13C,0.180000*%
%ADD14C,0.320000*%
G04 APERTURE END LIST*
D10*
X17525000Y-1800000D02*
X2525000Y-1800000D01*
X2525000Y-1800000D02*
X2525000Y-16800000D01*
X17525000Y-16800000D02*
X17525000Y-1800000D01*
X2525000Y-16800000D02*
X17525000Y-16800000D01*
D11*
D12*
X14782500Y-4428000D02*
X14932500Y-4578000D01*
X14932500Y-4428000D02*
X14782500Y-4578000D01*
X15267500Y-4428000D02*
X15417500Y-4578000D01*
X15417500Y-4428000D02*
X15267500Y-4578000D01*
D13*
X14917500Y-4200000D02*
G75*
G02*
X14737500Y-4200000I-90000J0D01*
G01*
X14737500Y-4200000D02*
G75*
G02*
X14917500Y-4200000I90000J0D01*
G01*
X15462500Y-4200000D02*
G75*
G02*
X15282500Y-4200000I-90000J0D01*
G01*
X15282500Y-4200000D02*
G75*
G02*
X15462500Y-4200000I90000J0D01*
G01*
D14*
X2875000Y-1990000D02*
X2875000Y-2310000D01*
X2715000Y-2150000D02*
X3035000Y-2150000D01*
X2875000Y-16290000D02*
X2875000Y-16610000D01*
X2715000Y-16450000D02*
X3035000Y-16450000D01*
X10025000Y-9140000D02*
X10025000Y-9460000D01*
X9865000Y-9300000D02*
X10185000Y-9300000D01*
X17175000Y-1990000D02*
X17175000Y-2310000D01*
X17015000Y-2150000D02*
X17335000Y-2150000D01*
X17175000Y-16290000D02*
X17175000Y-16610000D01*
X17015000Y-16450000D02*
X17335000Y-16450000D01*
D11*
X2780777Y-17116484D02*
X2780777Y-16916484D01*
X2780777Y-16916484D02*
X2828396Y-16916484D01*
X2828396Y-16916484D02*
X2856967Y-16926008D01*
X2856967Y-16926008D02*
X2876015Y-16945055D01*
X2876015Y-16945055D02*
X2885539Y-16964103D01*
X2885539Y-16964103D02*
X2895062Y-17002198D01*
X2895062Y-17002198D02*
X2895062Y-17030770D01*
X2895062Y-17030770D02*
X2885539Y-17068865D01*
X2885539Y-17068865D02*
X2876015Y-17087912D01*
X2876015Y-17087912D02*
X2856967Y-17106960D01*
X2856967Y-17106960D02*
X2828396Y-17116484D01*
X2828396Y-17116484D02*
X2780777Y-17116484D01*
X2980777Y-17116484D02*
X2980777Y-16983150D01*
X2980777Y-17021246D02*
X2990301Y-17002198D01*
X2990301Y-17002198D02*
X2999824Y-16992674D01*
X2999824Y-16992674D02*
X3018872Y-16983150D01*
X3018872Y-16983150D02*
X3037920Y-16983150D01*
X3104586Y-17116484D02*
X3104586Y-16983150D01*
X3104586Y-16916484D02*
X3095062Y-16926008D01*
X3095062Y-16926008D02*
X3104586Y-16935531D01*
X3104586Y-16935531D02*
X3114110Y-16926008D01*
X3114110Y-16926008D02*
X3104586Y-16916484D01*
X3104586Y-16916484D02*
X3104586Y-16935531D01*
X3228396Y-17116484D02*
X3209348Y-17106960D01*
X3209348Y-17106960D02*
X3199824Y-17087912D01*
X3199824Y-17087912D02*
X3199824Y-16916484D01*
X3333158Y-17116484D02*
X3314110Y-17106960D01*
X3314110Y-17106960D02*
X3304586Y-17087912D01*
X3304586Y-17087912D02*
X3304586Y-16916484D01*
X3561729Y-17116484D02*
X3561729Y-16916484D01*
X3561729Y-16916484D02*
X3628396Y-17059341D01*
X3628396Y-17059341D02*
X3695062Y-16916484D01*
X3695062Y-16916484D02*
X3695062Y-17116484D01*
X3876015Y-17116484D02*
X3876015Y-17011722D01*
X3876015Y-17011722D02*
X3866491Y-16992674D01*
X3866491Y-16992674D02*
X3847443Y-16983150D01*
X3847443Y-16983150D02*
X3809348Y-16983150D01*
X3809348Y-16983150D02*
X3790301Y-16992674D01*
X3876015Y-17106960D02*
X3856967Y-17116484D01*
X3856967Y-17116484D02*
X3809348Y-17116484D01*
X3809348Y-17116484D02*
X3790301Y-17106960D01*
X3790301Y-17106960D02*
X3780777Y-17087912D01*
X3780777Y-17087912D02*
X3780777Y-17068865D01*
X3780777Y-17068865D02*
X3790301Y-17049817D01*
X3790301Y-17049817D02*
X3809348Y-17040293D01*
X3809348Y-17040293D02*
X3856967Y-17040293D01*
X3856967Y-17040293D02*
X3876015Y-17030770D01*
X3971253Y-16983150D02*
X3971253Y-17183150D01*
X3971253Y-16992674D02*
X3990301Y-16983150D01*
X3990301Y-16983150D02*
X4028396Y-16983150D01*
X4028396Y-16983150D02*
X4047443Y-16992674D01*
X4047443Y-16992674D02*
X4056967Y-17002198D01*
X4056967Y-17002198D02*
X4066491Y-17021246D01*
X4066491Y-17021246D02*
X4066491Y-17078389D01*
X4066491Y-17078389D02*
X4056967Y-17097436D01*
X4056967Y-17097436D02*
X4047443Y-17106960D01*
X4047443Y-17106960D02*
X4028396Y-17116484D01*
X4028396Y-17116484D02*
X3990301Y-17116484D01*
X3990301Y-17116484D02*
X3971253Y-17106960D01*
X4152205Y-17097436D02*
X4161729Y-17106960D01*
X4161729Y-17106960D02*
X4152205Y-17116484D01*
X4152205Y-17116484D02*
X4142682Y-17106960D01*
X4142682Y-17106960D02*
X4152205Y-17097436D01*
X4152205Y-17097436D02*
X4152205Y-17116484D01*
X4152205Y-16992674D02*
X4161729Y-17002198D01*
X4161729Y-17002198D02*
X4152205Y-17011722D01*
X4152205Y-17011722D02*
X4142682Y-17002198D01*
X4142682Y-17002198D02*
X4152205Y-16992674D01*
X4152205Y-16992674D02*
X4152205Y-17011722D01*
D12*
X2370000Y-17370000D02*
X2520000Y-17520000D01*
X2520000Y-17370000D02*
X2370000Y-17520000D01*
D11*
X2885539Y-17536484D02*
X2771253Y-17536484D01*
X2828396Y-17536484D02*
X2828396Y-17336484D01*
X2828396Y-17336484D02*
X2809348Y-17365055D01*
X2809348Y-17365055D02*
X2790301Y-17384103D01*
X2790301Y-17384103D02*
X2771253Y-17393627D01*
X2971253Y-17517436D02*
X2980777Y-17526960D01*
X2980777Y-17526960D02*
X2971253Y-17536484D01*
X2971253Y-17536484D02*
X2961729Y-17526960D01*
X2961729Y-17526960D02*
X2971253Y-17517436D01*
X2971253Y-17517436D02*
X2971253Y-17536484D01*
X3161729Y-17336484D02*
X3066491Y-17336484D01*
X3066491Y-17336484D02*
X3056967Y-17431722D01*
X3056967Y-17431722D02*
X3066491Y-17422198D01*
X3066491Y-17422198D02*
X3085539Y-17412674D01*
X3085539Y-17412674D02*
X3133158Y-17412674D01*
X3133158Y-17412674D02*
X3152205Y-17422198D01*
X3152205Y-17422198D02*
X3161729Y-17431722D01*
X3161729Y-17431722D02*
X3171253Y-17450770D01*
X3171253Y-17450770D02*
X3171253Y-17498389D01*
X3171253Y-17498389D02*
X3161729Y-17517436D01*
X3161729Y-17517436D02*
X3152205Y-17526960D01*
X3152205Y-17526960D02*
X3133158Y-17536484D01*
X3133158Y-17536484D02*
X3085539Y-17536484D01*
X3085539Y-17536484D02*
X3066491Y-17526960D01*
X3066491Y-17526960D02*
X3056967Y-17517436D01*
X3295062Y-17336484D02*
X3314110Y-17336484D01*
X3314110Y-17336484D02*
X3333158Y-17346008D01*
X3333158Y-17346008D02*
X3342682Y-17355531D01*
X3342682Y-17355531D02*
X3352205Y-17374579D01*
X3352205Y-17374579D02*
X3361729Y-17412674D01*
X3361729Y-17412674D02*
X3361729Y-17460293D01*
X3361729Y-17460293D02*
X3352205Y-17498389D01*
X3352205Y-17498389D02*
X3342682Y-17517436D01*
X3342682Y-17517436D02*
X3333158Y-17526960D01*
X3333158Y-17526960D02*
X3314110Y-17536484D01*
X3314110Y-17536484D02*
X3295062Y-17536484D01*
X3295062Y-17536484D02*
X3276015Y-17526960D01*
X3276015Y-17526960D02*
X3266491Y-17517436D01*
X3266491Y-17517436D02*
X3256967Y-17498389D01*
X3256967Y-17498389D02*
X3247443Y-17460293D01*
X3247443Y-17460293D02*
X3247443Y-17412674D01*
X3247443Y-17412674D02*
X3256967Y-17374579D01*
X3256967Y-17374579D02*
X3266491Y-17355531D01*
X3266491Y-17355531D02*
X3276015Y-17346008D01*
X3276015Y-17346008D02*
X3295062Y-17336484D01*
X3485539Y-17336484D02*
X3504586Y-17336484D01*
X3504586Y-17336484D02*
X3523634Y-17346008D01*
X3523634Y-17346008D02*
X3533158Y-17355531D01*
X3533158Y-17355531D02*
X3542682Y-17374579D01*
X3542682Y-17374579D02*
X3552205Y-17412674D01*
X3552205Y-17412674D02*
X3552205Y-17460293D01*
X3552205Y-17460293D02*
X3542682Y-17498389D01*
X3542682Y-17498389D02*
X3533158Y-17517436D01*
X3533158Y-17517436D02*
X3523634Y-17526960D01*
X3523634Y-17526960D02*
X3504586Y-17536484D01*
X3504586Y-17536484D02*
X3485539Y-17536484D01*
X3485539Y-17536484D02*
X3466491Y-17526960D01*
X3466491Y-17526960D02*
X3456967Y-17517436D01*
X3456967Y-17517436D02*
X3447443Y-17498389D01*
X3447443Y-17498389D02*
X3437920Y-17460293D01*
X3437920Y-17460293D02*
X3437920Y-17412674D01*
X3437920Y-17412674D02*
X3447443Y-17374579D01*
X3447443Y-17374579D02*
X3456967Y-17355531D01*
X3456967Y-17355531D02*
X3466491Y-17346008D01*
X3466491Y-17346008D02*
X3485539Y-17336484D01*
X3637920Y-17536484D02*
X3637920Y-17403150D01*
X3637920Y-17422198D02*
X3647443Y-17412674D01*
X3647443Y-17412674D02*
X3666491Y-17403150D01*
X3666491Y-17403150D02*
X3695063Y-17403150D01*
X3695063Y-17403150D02*
X3714110Y-17412674D01*
X3714110Y-17412674D02*
X3723634Y-17431722D01*
X3723634Y-17431722D02*
X3723634Y-17536484D01*
X3723634Y-17431722D02*
X3733158Y-17412674D01*
X3733158Y-17412674D02*
X3752205Y-17403150D01*
X3752205Y-17403150D02*
X3780777Y-17403150D01*
X3780777Y-17403150D02*
X3799824Y-17412674D01*
X3799824Y-17412674D02*
X3809348Y-17431722D01*
X3809348Y-17431722D02*
X3809348Y-17536484D01*
X3904586Y-17536484D02*
X3904586Y-17403150D01*
X3904586Y-17422198D02*
X3914110Y-17412674D01*
X3914110Y-17412674D02*
X3933158Y-17403150D01*
X3933158Y-17403150D02*
X3961729Y-17403150D01*
X3961729Y-17403150D02*
X3980777Y-17412674D01*
X3980777Y-17412674D02*
X3990301Y-17431722D01*
X3990301Y-17431722D02*
X3990301Y-17536484D01*
X3990301Y-17431722D02*
X3999824Y-17412674D01*
X3999824Y-17412674D02*
X4018872Y-17403150D01*
X4018872Y-17403150D02*
X4047443Y-17403150D01*
X4047443Y-17403150D02*
X4066491Y-17412674D01*
X4066491Y-17412674D02*
X4076015Y-17431722D01*
X4076015Y-17431722D02*
X4076015Y-17536484D01*
X4466491Y-17326960D02*
X4295063Y-17584103D01*
X4723634Y-17336484D02*
X4742682Y-17336484D01*
X4742682Y-17336484D02*
X4761729Y-17346008D01*
X4761729Y-17346008D02*
X4771253Y-17355531D01*
X4771253Y-17355531D02*
X4780777Y-17374579D01*
X4780777Y-17374579D02*
X4790301Y-17412674D01*
X4790301Y-17412674D02*
X4790301Y-17460293D01*
X4790301Y-17460293D02*
X4780777Y-17498389D01*
X4780777Y-17498389D02*
X4771253Y-17517436D01*
X4771253Y-17517436D02*
X4761729Y-17526960D01*
X4761729Y-17526960D02*
X4742682Y-17536484D01*
X4742682Y-17536484D02*
X4723634Y-17536484D01*
X4723634Y-17536484D02*
X4704587Y-17526960D01*
X4704587Y-17526960D02*
X4695063Y-17517436D01*
X4695063Y-17517436D02*
X4685539Y-17498389D01*
X4685539Y-17498389D02*
X4676015Y-17460293D01*
X4676015Y-17460293D02*
X4676015Y-17412674D01*
X4676015Y-17412674D02*
X4685539Y-17374579D01*
X4685539Y-17374579D02*
X4695063Y-17355531D01*
X4695063Y-17355531D02*
X4704587Y-17346008D01*
X4704587Y-17346008D02*
X4723634Y-17336484D01*
X4876015Y-17517436D02*
X4885539Y-17526960D01*
X4885539Y-17526960D02*
X4876015Y-17536484D01*
X4876015Y-17536484D02*
X4866491Y-17526960D01*
X4866491Y-17526960D02*
X4876015Y-17517436D01*
X4876015Y-17517436D02*
X4876015Y-17536484D01*
X5009348Y-17336484D02*
X5028396Y-17336484D01*
X5028396Y-17336484D02*
X5047444Y-17346008D01*
X5047444Y-17346008D02*
X5056968Y-17355531D01*
X5056968Y-17355531D02*
X5066491Y-17374579D01*
X5066491Y-17374579D02*
X5076015Y-17412674D01*
X5076015Y-17412674D02*
X5076015Y-17460293D01*
X5076015Y-17460293D02*
X5066491Y-17498389D01*
X5066491Y-17498389D02*
X5056968Y-17517436D01*
X5056968Y-17517436D02*
X5047444Y-17526960D01*
X5047444Y-17526960D02*
X5028396Y-17536484D01*
X5028396Y-17536484D02*
X5009348Y-17536484D01*
X5009348Y-17536484D02*
X4990301Y-17526960D01*
X4990301Y-17526960D02*
X4980777Y-17517436D01*
X4980777Y-17517436D02*
X4971253Y-17498389D01*
X4971253Y-17498389D02*
X4961729Y-17460293D01*
X4961729Y-17460293D02*
X4961729Y-17412674D01*
X4961729Y-17412674D02*
X4971253Y-17374579D01*
X4971253Y-17374579D02*
X4980777Y-17355531D01*
X4980777Y-17355531D02*
X4990301Y-17346008D01*
X4990301Y-17346008D02*
X5009348Y-17336484D01*
X5256968Y-17336484D02*
X5161729Y-17336484D01*
X5161729Y-17336484D02*
X5152206Y-17431722D01*
X5152206Y-17431722D02*
X5161729Y-17422198D01*
X5161729Y-17422198D02*
X5180777Y-17412674D01*
X5180777Y-17412674D02*
X5228396Y-17412674D01*
X5228396Y-17412674D02*
X5247444Y-17422198D01*
X5247444Y-17422198D02*
X5256968Y-17431722D01*
X5256968Y-17431722D02*
X5266491Y-17450770D01*
X5266491Y-17450770D02*
X5266491Y-17498389D01*
X5266491Y-17498389D02*
X5256968Y-17517436D01*
X5256968Y-17517436D02*
X5247444Y-17526960D01*
X5247444Y-17526960D02*
X5228396Y-17536484D01*
X5228396Y-17536484D02*
X5180777Y-17536484D01*
X5180777Y-17536484D02*
X5161729Y-17526960D01*
X5161729Y-17526960D02*
X5152206Y-17517436D01*
X5361729Y-17536484D02*
X5399825Y-17536484D01*
X5399825Y-17536484D02*
X5418872Y-17526960D01*
X5418872Y-17526960D02*
X5428396Y-17517436D01*
X5428396Y-17517436D02*
X5447444Y-17488865D01*
X5447444Y-17488865D02*
X5456968Y-17450770D01*
X5456968Y-17450770D02*
X5456968Y-17374579D01*
X5456968Y-17374579D02*
X5447444Y-17355531D01*
X5447444Y-17355531D02*
X5437920Y-17346008D01*
X5437920Y-17346008D02*
X5418872Y-17336484D01*
X5418872Y-17336484D02*
X5380777Y-17336484D01*
X5380777Y-17336484D02*
X5361729Y-17346008D01*
X5361729Y-17346008D02*
X5352206Y-17355531D01*
X5352206Y-17355531D02*
X5342682Y-17374579D01*
X5342682Y-17374579D02*
X5342682Y-17422198D01*
X5342682Y-17422198D02*
X5352206Y-17441246D01*
X5352206Y-17441246D02*
X5361729Y-17450770D01*
X5361729Y-17450770D02*
X5380777Y-17460293D01*
X5380777Y-17460293D02*
X5418872Y-17460293D01*
X5418872Y-17460293D02*
X5437920Y-17450770D01*
X5437920Y-17450770D02*
X5447444Y-17441246D01*
X5447444Y-17441246D02*
X5456968Y-17422198D01*
X5647444Y-17536484D02*
X5533158Y-17536484D01*
X5590301Y-17536484D02*
X5590301Y-17336484D01*
X5590301Y-17336484D02*
X5571253Y-17365055D01*
X5571253Y-17365055D02*
X5552206Y-17384103D01*
X5552206Y-17384103D02*
X5533158Y-17393627D01*
X5723634Y-17336484D02*
X5723634Y-17374579D01*
X5799825Y-17336484D02*
X5799825Y-17374579D01*
X6095063Y-17612674D02*
X6085539Y-17603150D01*
X6085539Y-17603150D02*
X6066491Y-17574579D01*
X6066491Y-17574579D02*
X6056968Y-17555531D01*
X6056968Y-17555531D02*
X6047444Y-17526960D01*
X6047444Y-17526960D02*
X6037920Y-17479341D01*
X6037920Y-17479341D02*
X6037920Y-17441246D01*
X6037920Y-17441246D02*
X6047444Y-17393627D01*
X6047444Y-17393627D02*
X6056968Y-17365055D01*
X6056968Y-17365055D02*
X6066491Y-17346008D01*
X6066491Y-17346008D02*
X6085539Y-17317436D01*
X6085539Y-17317436D02*
X6095063Y-17307912D01*
X6161729Y-17355531D02*
X6171253Y-17346008D01*
X6171253Y-17346008D02*
X6190301Y-17336484D01*
X6190301Y-17336484D02*
X6237920Y-17336484D01*
X6237920Y-17336484D02*
X6256968Y-17346008D01*
X6256968Y-17346008D02*
X6266491Y-17355531D01*
X6266491Y-17355531D02*
X6276015Y-17374579D01*
X6276015Y-17374579D02*
X6276015Y-17393627D01*
X6276015Y-17393627D02*
X6266491Y-17422198D01*
X6266491Y-17422198D02*
X6152206Y-17536484D01*
X6152206Y-17536484D02*
X6276015Y-17536484D01*
X6514110Y-17536484D02*
X6514110Y-17336484D01*
X6599825Y-17536484D02*
X6599825Y-17431722D01*
X6599825Y-17431722D02*
X6590301Y-17412674D01*
X6590301Y-17412674D02*
X6571253Y-17403150D01*
X6571253Y-17403150D02*
X6542682Y-17403150D01*
X6542682Y-17403150D02*
X6523634Y-17412674D01*
X6523634Y-17412674D02*
X6514110Y-17422198D01*
X6723634Y-17536484D02*
X6704587Y-17526960D01*
X6704587Y-17526960D02*
X6695063Y-17517436D01*
X6695063Y-17517436D02*
X6685539Y-17498389D01*
X6685539Y-17498389D02*
X6685539Y-17441246D01*
X6685539Y-17441246D02*
X6695063Y-17422198D01*
X6695063Y-17422198D02*
X6704587Y-17412674D01*
X6704587Y-17412674D02*
X6723634Y-17403150D01*
X6723634Y-17403150D02*
X6752206Y-17403150D01*
X6752206Y-17403150D02*
X6771253Y-17412674D01*
X6771253Y-17412674D02*
X6780777Y-17422198D01*
X6780777Y-17422198D02*
X6790301Y-17441246D01*
X6790301Y-17441246D02*
X6790301Y-17498389D01*
X6790301Y-17498389D02*
X6780777Y-17517436D01*
X6780777Y-17517436D02*
X6771253Y-17526960D01*
X6771253Y-17526960D02*
X6752206Y-17536484D01*
X6752206Y-17536484D02*
X6723634Y-17536484D01*
X6904587Y-17536484D02*
X6885539Y-17526960D01*
X6885539Y-17526960D02*
X6876015Y-17507912D01*
X6876015Y-17507912D02*
X6876015Y-17336484D01*
X7056968Y-17526960D02*
X7037920Y-17536484D01*
X7037920Y-17536484D02*
X6999825Y-17536484D01*
X6999825Y-17536484D02*
X6980777Y-17526960D01*
X6980777Y-17526960D02*
X6971253Y-17507912D01*
X6971253Y-17507912D02*
X6971253Y-17431722D01*
X6971253Y-17431722D02*
X6980777Y-17412674D01*
X6980777Y-17412674D02*
X6999825Y-17403150D01*
X6999825Y-17403150D02*
X7037920Y-17403150D01*
X7037920Y-17403150D02*
X7056968Y-17412674D01*
X7056968Y-17412674D02*
X7066491Y-17431722D01*
X7066491Y-17431722D02*
X7066491Y-17450770D01*
X7066491Y-17450770D02*
X6971253Y-17469817D01*
X7142682Y-17526960D02*
X7161730Y-17536484D01*
X7161730Y-17536484D02*
X7199825Y-17536484D01*
X7199825Y-17536484D02*
X7218872Y-17526960D01*
X7218872Y-17526960D02*
X7228396Y-17507912D01*
X7228396Y-17507912D02*
X7228396Y-17498389D01*
X7228396Y-17498389D02*
X7218872Y-17479341D01*
X7218872Y-17479341D02*
X7199825Y-17469817D01*
X7199825Y-17469817D02*
X7171253Y-17469817D01*
X7171253Y-17469817D02*
X7152206Y-17460293D01*
X7152206Y-17460293D02*
X7142682Y-17441246D01*
X7142682Y-17441246D02*
X7142682Y-17431722D01*
X7142682Y-17431722D02*
X7152206Y-17412674D01*
X7152206Y-17412674D02*
X7171253Y-17403150D01*
X7171253Y-17403150D02*
X7199825Y-17403150D01*
X7199825Y-17403150D02*
X7218872Y-17412674D01*
X7295063Y-17612674D02*
X7304587Y-17603150D01*
X7304587Y-17603150D02*
X7323634Y-17574579D01*
X7323634Y-17574579D02*
X7333158Y-17555531D01*
X7333158Y-17555531D02*
X7342682Y-17526960D01*
X7342682Y-17526960D02*
X7352206Y-17479341D01*
X7352206Y-17479341D02*
X7352206Y-17441246D01*
X7352206Y-17441246D02*
X7342682Y-17393627D01*
X7342682Y-17393627D02*
X7333158Y-17365055D01*
X7333158Y-17365055D02*
X7323634Y-17346008D01*
X7323634Y-17346008D02*
X7304587Y-17317436D01*
X7304587Y-17317436D02*
X7295063Y-17307912D01*
X7656968Y-17612674D02*
X7647444Y-17603150D01*
X7647444Y-17603150D02*
X7628396Y-17574579D01*
X7628396Y-17574579D02*
X7618872Y-17555531D01*
X7618872Y-17555531D02*
X7609349Y-17526960D01*
X7609349Y-17526960D02*
X7599825Y-17479341D01*
X7599825Y-17479341D02*
X7599825Y-17441246D01*
X7599825Y-17441246D02*
X7609349Y-17393627D01*
X7609349Y-17393627D02*
X7618872Y-17365055D01*
X7618872Y-17365055D02*
X7628396Y-17346008D01*
X7628396Y-17346008D02*
X7647444Y-17317436D01*
X7647444Y-17317436D02*
X7656968Y-17307912D01*
X7733158Y-17403150D02*
X7733158Y-17536484D01*
X7733158Y-17422198D02*
X7742682Y-17412674D01*
X7742682Y-17412674D02*
X7761730Y-17403150D01*
X7761730Y-17403150D02*
X7790301Y-17403150D01*
X7790301Y-17403150D02*
X7809349Y-17412674D01*
X7809349Y-17412674D02*
X7818872Y-17431722D01*
X7818872Y-17431722D02*
X7818872Y-17536484D01*
X7942682Y-17536484D02*
X7923634Y-17526960D01*
X7923634Y-17526960D02*
X7914111Y-17517436D01*
X7914111Y-17517436D02*
X7904587Y-17498389D01*
X7904587Y-17498389D02*
X7904587Y-17441246D01*
X7904587Y-17441246D02*
X7914111Y-17422198D01*
X7914111Y-17422198D02*
X7923634Y-17412674D01*
X7923634Y-17412674D02*
X7942682Y-17403150D01*
X7942682Y-17403150D02*
X7971253Y-17403150D01*
X7971253Y-17403150D02*
X7990301Y-17412674D01*
X7990301Y-17412674D02*
X7999825Y-17422198D01*
X7999825Y-17422198D02*
X8009349Y-17441246D01*
X8009349Y-17441246D02*
X8009349Y-17498389D01*
X8009349Y-17498389D02*
X7999825Y-17517436D01*
X7999825Y-17517436D02*
X7990301Y-17526960D01*
X7990301Y-17526960D02*
X7971253Y-17536484D01*
X7971253Y-17536484D02*
X7942682Y-17536484D01*
X8066492Y-17403150D02*
X8142682Y-17403150D01*
X8095063Y-17336484D02*
X8095063Y-17507912D01*
X8095063Y-17507912D02*
X8104587Y-17526960D01*
X8104587Y-17526960D02*
X8123634Y-17536484D01*
X8123634Y-17536484D02*
X8142682Y-17536484D01*
X8361730Y-17403150D02*
X8361730Y-17603150D01*
X8361730Y-17412674D02*
X8380777Y-17403150D01*
X8380777Y-17403150D02*
X8418873Y-17403150D01*
X8418873Y-17403150D02*
X8437920Y-17412674D01*
X8437920Y-17412674D02*
X8447444Y-17422198D01*
X8447444Y-17422198D02*
X8456968Y-17441246D01*
X8456968Y-17441246D02*
X8456968Y-17498389D01*
X8456968Y-17498389D02*
X8447444Y-17517436D01*
X8447444Y-17517436D02*
X8437920Y-17526960D01*
X8437920Y-17526960D02*
X8418873Y-17536484D01*
X8418873Y-17536484D02*
X8380777Y-17536484D01*
X8380777Y-17536484D02*
X8361730Y-17526960D01*
X8571254Y-17536484D02*
X8552206Y-17526960D01*
X8552206Y-17526960D02*
X8542682Y-17507912D01*
X8542682Y-17507912D02*
X8542682Y-17336484D01*
X8733158Y-17536484D02*
X8733158Y-17431722D01*
X8733158Y-17431722D02*
X8723635Y-17412674D01*
X8723635Y-17412674D02*
X8704587Y-17403150D01*
X8704587Y-17403150D02*
X8666492Y-17403150D01*
X8666492Y-17403150D02*
X8647444Y-17412674D01*
X8733158Y-17526960D02*
X8714111Y-17536484D01*
X8714111Y-17536484D02*
X8666492Y-17536484D01*
X8666492Y-17536484D02*
X8647444Y-17526960D01*
X8647444Y-17526960D02*
X8637920Y-17507912D01*
X8637920Y-17507912D02*
X8637920Y-17488865D01*
X8637920Y-17488865D02*
X8647444Y-17469817D01*
X8647444Y-17469817D02*
X8666492Y-17460293D01*
X8666492Y-17460293D02*
X8714111Y-17460293D01*
X8714111Y-17460293D02*
X8733158Y-17450770D01*
X8799825Y-17403150D02*
X8876015Y-17403150D01*
X8828396Y-17336484D02*
X8828396Y-17507912D01*
X8828396Y-17507912D02*
X8837920Y-17526960D01*
X8837920Y-17526960D02*
X8856968Y-17536484D01*
X8856968Y-17536484D02*
X8876015Y-17536484D01*
X9018873Y-17526960D02*
X8999825Y-17536484D01*
X8999825Y-17536484D02*
X8961730Y-17536484D01*
X8961730Y-17536484D02*
X8942682Y-17526960D01*
X8942682Y-17526960D02*
X8933158Y-17507912D01*
X8933158Y-17507912D02*
X8933158Y-17431722D01*
X8933158Y-17431722D02*
X8942682Y-17412674D01*
X8942682Y-17412674D02*
X8961730Y-17403150D01*
X8961730Y-17403150D02*
X8999825Y-17403150D01*
X8999825Y-17403150D02*
X9018873Y-17412674D01*
X9018873Y-17412674D02*
X9028396Y-17431722D01*
X9028396Y-17431722D02*
X9028396Y-17450770D01*
X9028396Y-17450770D02*
X8933158Y-17469817D01*
X9199825Y-17536484D02*
X9199825Y-17336484D01*
X9199825Y-17526960D02*
X9180777Y-17536484D01*
X9180777Y-17536484D02*
X9142682Y-17536484D01*
X9142682Y-17536484D02*
X9123635Y-17526960D01*
X9123635Y-17526960D02*
X9114111Y-17517436D01*
X9114111Y-17517436D02*
X9104587Y-17498389D01*
X9104587Y-17498389D02*
X9104587Y-17441246D01*
X9104587Y-17441246D02*
X9114111Y-17422198D01*
X9114111Y-17422198D02*
X9123635Y-17412674D01*
X9123635Y-17412674D02*
X9142682Y-17403150D01*
X9142682Y-17403150D02*
X9180777Y-17403150D01*
X9180777Y-17403150D02*
X9199825Y-17412674D01*
X9276016Y-17612674D02*
X9285539Y-17603150D01*
X9285539Y-17603150D02*
X9304587Y-17574579D01*
X9304587Y-17574579D02*
X9314111Y-17555531D01*
X9314111Y-17555531D02*
X9323635Y-17526960D01*
X9323635Y-17526960D02*
X9333158Y-17479341D01*
X9333158Y-17479341D02*
X9333158Y-17441246D01*
X9333158Y-17441246D02*
X9323635Y-17393627D01*
X9323635Y-17393627D02*
X9314111Y-17365055D01*
X9314111Y-17365055D02*
X9304587Y-17346008D01*
X9304587Y-17346008D02*
X9285539Y-17317436D01*
X9285539Y-17317436D02*
X9276016Y-17307912D01*
D13*
X2520000Y-17715000D02*
G75*
G02*
X2340000Y-17715000I-90000J0D01*
G01*
X2340000Y-17715000D02*
G75*
G02*
X2520000Y-17715000I90000J0D01*
G01*
D11*
X2885539Y-17806484D02*
X2771253Y-17806484D01*
X2828396Y-17806484D02*
X2828396Y-17606484D01*
X2828396Y-17606484D02*
X2809348Y-17635055D01*
X2809348Y-17635055D02*
X2790301Y-17654103D01*
X2790301Y-17654103D02*
X2771253Y-17663627D01*
X2971253Y-17787436D02*
X2980777Y-17796960D01*
X2980777Y-17796960D02*
X2971253Y-17806484D01*
X2971253Y-17806484D02*
X2961729Y-17796960D01*
X2961729Y-17796960D02*
X2971253Y-17787436D01*
X2971253Y-17787436D02*
X2971253Y-17806484D01*
X3095062Y-17692198D02*
X3076015Y-17682674D01*
X3076015Y-17682674D02*
X3066491Y-17673150D01*
X3066491Y-17673150D02*
X3056967Y-17654103D01*
X3056967Y-17654103D02*
X3056967Y-17644579D01*
X3056967Y-17644579D02*
X3066491Y-17625531D01*
X3066491Y-17625531D02*
X3076015Y-17616008D01*
X3076015Y-17616008D02*
X3095062Y-17606484D01*
X3095062Y-17606484D02*
X3133158Y-17606484D01*
X3133158Y-17606484D02*
X3152205Y-17616008D01*
X3152205Y-17616008D02*
X3161729Y-17625531D01*
X3161729Y-17625531D02*
X3171253Y-17644579D01*
X3171253Y-17644579D02*
X3171253Y-17654103D01*
X3171253Y-17654103D02*
X3161729Y-17673150D01*
X3161729Y-17673150D02*
X3152205Y-17682674D01*
X3152205Y-17682674D02*
X3133158Y-17692198D01*
X3133158Y-17692198D02*
X3095062Y-17692198D01*
X3095062Y-17692198D02*
X3076015Y-17701722D01*
X3076015Y-17701722D02*
X3066491Y-17711246D01*
X3066491Y-17711246D02*
X3056967Y-17730293D01*
X3056967Y-17730293D02*
X3056967Y-17768389D01*
X3056967Y-17768389D02*
X3066491Y-17787436D01*
X3066491Y-17787436D02*
X3076015Y-17796960D01*
X3076015Y-17796960D02*
X3095062Y-17806484D01*
X3095062Y-17806484D02*
X3133158Y-17806484D01*
X3133158Y-17806484D02*
X3152205Y-17796960D01*
X3152205Y-17796960D02*
X3161729Y-17787436D01*
X3161729Y-17787436D02*
X3171253Y-17768389D01*
X3171253Y-17768389D02*
X3171253Y-17730293D01*
X3171253Y-17730293D02*
X3161729Y-17711246D01*
X3161729Y-17711246D02*
X3152205Y-17701722D01*
X3152205Y-17701722D02*
X3133158Y-17692198D01*
X3295062Y-17606484D02*
X3314110Y-17606484D01*
X3314110Y-17606484D02*
X3333158Y-17616008D01*
X3333158Y-17616008D02*
X3342682Y-17625531D01*
X3342682Y-17625531D02*
X3352205Y-17644579D01*
X3352205Y-17644579D02*
X3361729Y-17682674D01*
X3361729Y-17682674D02*
X3361729Y-17730293D01*
X3361729Y-17730293D02*
X3352205Y-17768389D01*
X3352205Y-17768389D02*
X3342682Y-17787436D01*
X3342682Y-17787436D02*
X3333158Y-17796960D01*
X3333158Y-17796960D02*
X3314110Y-17806484D01*
X3314110Y-17806484D02*
X3295062Y-17806484D01*
X3295062Y-17806484D02*
X3276015Y-17796960D01*
X3276015Y-17796960D02*
X3266491Y-17787436D01*
X3266491Y-17787436D02*
X3256967Y-17768389D01*
X3256967Y-17768389D02*
X3247443Y-17730293D01*
X3247443Y-17730293D02*
X3247443Y-17682674D01*
X3247443Y-17682674D02*
X3256967Y-17644579D01*
X3256967Y-17644579D02*
X3266491Y-17625531D01*
X3266491Y-17625531D02*
X3276015Y-17616008D01*
X3276015Y-17616008D02*
X3295062Y-17606484D01*
X3485539Y-17606484D02*
X3504586Y-17606484D01*
X3504586Y-17606484D02*
X3523634Y-17616008D01*
X3523634Y-17616008D02*
X3533158Y-17625531D01*
X3533158Y-17625531D02*
X3542682Y-17644579D01*
X3542682Y-17644579D02*
X3552205Y-17682674D01*
X3552205Y-17682674D02*
X3552205Y-17730293D01*
X3552205Y-17730293D02*
X3542682Y-17768389D01*
X3542682Y-17768389D02*
X3533158Y-17787436D01*
X3533158Y-17787436D02*
X3523634Y-17796960D01*
X3523634Y-17796960D02*
X3504586Y-17806484D01*
X3504586Y-17806484D02*
X3485539Y-17806484D01*
X3485539Y-17806484D02*
X3466491Y-17796960D01*
X3466491Y-17796960D02*
X3456967Y-17787436D01*
X3456967Y-17787436D02*
X3447443Y-17768389D01*
X3447443Y-17768389D02*
X3437920Y-17730293D01*
X3437920Y-17730293D02*
X3437920Y-17682674D01*
X3437920Y-17682674D02*
X3447443Y-17644579D01*
X3447443Y-17644579D02*
X3456967Y-17625531D01*
X3456967Y-17625531D02*
X3466491Y-17616008D01*
X3466491Y-17616008D02*
X3485539Y-17606484D01*
X3637920Y-17806484D02*
X3637920Y-17673150D01*
X3637920Y-17692198D02*
X3647443Y-17682674D01*
X3647443Y-17682674D02*
X3666491Y-17673150D01*
X3666491Y-17673150D02*
X3695063Y-17673150D01*
X3695063Y-17673150D02*
X3714110Y-17682674D01*
X3714110Y-17682674D02*
X3723634Y-17701722D01*
X3723634Y-17701722D02*
X3723634Y-17806484D01*
X3723634Y-17701722D02*
X3733158Y-17682674D01*
X3733158Y-17682674D02*
X3752205Y-17673150D01*
X3752205Y-17673150D02*
X3780777Y-17673150D01*
X3780777Y-17673150D02*
X3799824Y-17682674D01*
X3799824Y-17682674D02*
X3809348Y-17701722D01*
X3809348Y-17701722D02*
X3809348Y-17806484D01*
X3904586Y-17806484D02*
X3904586Y-17673150D01*
X3904586Y-17692198D02*
X3914110Y-17682674D01*
X3914110Y-17682674D02*
X3933158Y-17673150D01*
X3933158Y-17673150D02*
X3961729Y-17673150D01*
X3961729Y-17673150D02*
X3980777Y-17682674D01*
X3980777Y-17682674D02*
X3990301Y-17701722D01*
X3990301Y-17701722D02*
X3990301Y-17806484D01*
X3990301Y-17701722D02*
X3999824Y-17682674D01*
X3999824Y-17682674D02*
X4018872Y-17673150D01*
X4018872Y-17673150D02*
X4047443Y-17673150D01*
X4047443Y-17673150D02*
X4066491Y-17682674D01*
X4066491Y-17682674D02*
X4076015Y-17701722D01*
X4076015Y-17701722D02*
X4076015Y-17806484D01*
X4466491Y-17596960D02*
X4295063Y-17854103D01*
X4723634Y-17606484D02*
X4742682Y-17606484D01*
X4742682Y-17606484D02*
X4761729Y-17616008D01*
X4761729Y-17616008D02*
X4771253Y-17625531D01*
X4771253Y-17625531D02*
X4780777Y-17644579D01*
X4780777Y-17644579D02*
X4790301Y-17682674D01*
X4790301Y-17682674D02*
X4790301Y-17730293D01*
X4790301Y-17730293D02*
X4780777Y-17768389D01*
X4780777Y-17768389D02*
X4771253Y-17787436D01*
X4771253Y-17787436D02*
X4761729Y-17796960D01*
X4761729Y-17796960D02*
X4742682Y-17806484D01*
X4742682Y-17806484D02*
X4723634Y-17806484D01*
X4723634Y-17806484D02*
X4704587Y-17796960D01*
X4704587Y-17796960D02*
X4695063Y-17787436D01*
X4695063Y-17787436D02*
X4685539Y-17768389D01*
X4685539Y-17768389D02*
X4676015Y-17730293D01*
X4676015Y-17730293D02*
X4676015Y-17682674D01*
X4676015Y-17682674D02*
X4685539Y-17644579D01*
X4685539Y-17644579D02*
X4695063Y-17625531D01*
X4695063Y-17625531D02*
X4704587Y-17616008D01*
X4704587Y-17616008D02*
X4723634Y-17606484D01*
X4876015Y-17787436D02*
X4885539Y-17796960D01*
X4885539Y-17796960D02*
X4876015Y-17806484D01*
X4876015Y-17806484D02*
X4866491Y-17796960D01*
X4866491Y-17796960D02*
X4876015Y-17787436D01*
X4876015Y-17787436D02*
X4876015Y-17806484D01*
X5009348Y-17606484D02*
X5028396Y-17606484D01*
X5028396Y-17606484D02*
X5047444Y-17616008D01*
X5047444Y-17616008D02*
X5056968Y-17625531D01*
X5056968Y-17625531D02*
X5066491Y-17644579D01*
X5066491Y-17644579D02*
X5076015Y-17682674D01*
X5076015Y-17682674D02*
X5076015Y-17730293D01*
X5076015Y-17730293D02*
X5066491Y-17768389D01*
X5066491Y-17768389D02*
X5056968Y-17787436D01*
X5056968Y-17787436D02*
X5047444Y-17796960D01*
X5047444Y-17796960D02*
X5028396Y-17806484D01*
X5028396Y-17806484D02*
X5009348Y-17806484D01*
X5009348Y-17806484D02*
X4990301Y-17796960D01*
X4990301Y-17796960D02*
X4980777Y-17787436D01*
X4980777Y-17787436D02*
X4971253Y-17768389D01*
X4971253Y-17768389D02*
X4961729Y-17730293D01*
X4961729Y-17730293D02*
X4961729Y-17682674D01*
X4961729Y-17682674D02*
X4971253Y-17644579D01*
X4971253Y-17644579D02*
X4980777Y-17625531D01*
X4980777Y-17625531D02*
X4990301Y-17616008D01*
X4990301Y-17616008D02*
X5009348Y-17606484D01*
X5142682Y-17606484D02*
X5276015Y-17606484D01*
X5276015Y-17606484D02*
X5190301Y-17806484D01*
X5390301Y-17606484D02*
X5409349Y-17606484D01*
X5409349Y-17606484D02*
X5428396Y-17616008D01*
X5428396Y-17616008D02*
X5437920Y-17625531D01*
X5437920Y-17625531D02*
X5447444Y-17644579D01*
X5447444Y-17644579D02*
X5456968Y-17682674D01*
X5456968Y-17682674D02*
X5456968Y-17730293D01*
X5456968Y-17730293D02*
X5447444Y-17768389D01*
X5447444Y-17768389D02*
X5437920Y-17787436D01*
X5437920Y-17787436D02*
X5428396Y-17796960D01*
X5428396Y-17796960D02*
X5409349Y-17806484D01*
X5409349Y-17806484D02*
X5390301Y-17806484D01*
X5390301Y-17806484D02*
X5371253Y-17796960D01*
X5371253Y-17796960D02*
X5361729Y-17787436D01*
X5361729Y-17787436D02*
X5352206Y-17768389D01*
X5352206Y-17768389D02*
X5342682Y-17730293D01*
X5342682Y-17730293D02*
X5342682Y-17682674D01*
X5342682Y-17682674D02*
X5352206Y-17644579D01*
X5352206Y-17644579D02*
X5361729Y-17625531D01*
X5361729Y-17625531D02*
X5371253Y-17616008D01*
X5371253Y-17616008D02*
X5390301Y-17606484D01*
X5552206Y-17806484D02*
X5590301Y-17806484D01*
X5590301Y-17806484D02*
X5609348Y-17796960D01*
X5609348Y-17796960D02*
X5618872Y-17787436D01*
X5618872Y-17787436D02*
X5637920Y-17758865D01*
X5637920Y-17758865D02*
X5647444Y-17720770D01*
X5647444Y-17720770D02*
X5647444Y-17644579D01*
X5647444Y-17644579D02*
X5637920Y-17625531D01*
X5637920Y-17625531D02*
X5628396Y-17616008D01*
X5628396Y-17616008D02*
X5609348Y-17606484D01*
X5609348Y-17606484D02*
X5571253Y-17606484D01*
X5571253Y-17606484D02*
X5552206Y-17616008D01*
X5552206Y-17616008D02*
X5542682Y-17625531D01*
X5542682Y-17625531D02*
X5533158Y-17644579D01*
X5533158Y-17644579D02*
X5533158Y-17692198D01*
X5533158Y-17692198D02*
X5542682Y-17711246D01*
X5542682Y-17711246D02*
X5552206Y-17720770D01*
X5552206Y-17720770D02*
X5571253Y-17730293D01*
X5571253Y-17730293D02*
X5609348Y-17730293D01*
X5609348Y-17730293D02*
X5628396Y-17720770D01*
X5628396Y-17720770D02*
X5637920Y-17711246D01*
X5637920Y-17711246D02*
X5647444Y-17692198D01*
X5723634Y-17606484D02*
X5723634Y-17644579D01*
X5799825Y-17606484D02*
X5799825Y-17644579D01*
X6095063Y-17882674D02*
X6085539Y-17873150D01*
X6085539Y-17873150D02*
X6066491Y-17844579D01*
X6066491Y-17844579D02*
X6056968Y-17825531D01*
X6056968Y-17825531D02*
X6047444Y-17796960D01*
X6047444Y-17796960D02*
X6037920Y-17749341D01*
X6037920Y-17749341D02*
X6037920Y-17711246D01*
X6037920Y-17711246D02*
X6047444Y-17663627D01*
X6047444Y-17663627D02*
X6056968Y-17635055D01*
X6056968Y-17635055D02*
X6066491Y-17616008D01*
X6066491Y-17616008D02*
X6085539Y-17587436D01*
X6085539Y-17587436D02*
X6095063Y-17577912D01*
X6161729Y-17625531D02*
X6171253Y-17616008D01*
X6171253Y-17616008D02*
X6190301Y-17606484D01*
X6190301Y-17606484D02*
X6237920Y-17606484D01*
X6237920Y-17606484D02*
X6256968Y-17616008D01*
X6256968Y-17616008D02*
X6266491Y-17625531D01*
X6266491Y-17625531D02*
X6276015Y-17644579D01*
X6276015Y-17644579D02*
X6276015Y-17663627D01*
X6276015Y-17663627D02*
X6266491Y-17692198D01*
X6266491Y-17692198D02*
X6152206Y-17806484D01*
X6152206Y-17806484D02*
X6276015Y-17806484D01*
X6514110Y-17806484D02*
X6514110Y-17606484D01*
X6599825Y-17806484D02*
X6599825Y-17701722D01*
X6599825Y-17701722D02*
X6590301Y-17682674D01*
X6590301Y-17682674D02*
X6571253Y-17673150D01*
X6571253Y-17673150D02*
X6542682Y-17673150D01*
X6542682Y-17673150D02*
X6523634Y-17682674D01*
X6523634Y-17682674D02*
X6514110Y-17692198D01*
X6723634Y-17806484D02*
X6704587Y-17796960D01*
X6704587Y-17796960D02*
X6695063Y-17787436D01*
X6695063Y-17787436D02*
X6685539Y-17768389D01*
X6685539Y-17768389D02*
X6685539Y-17711246D01*
X6685539Y-17711246D02*
X6695063Y-17692198D01*
X6695063Y-17692198D02*
X6704587Y-17682674D01*
X6704587Y-17682674D02*
X6723634Y-17673150D01*
X6723634Y-17673150D02*
X6752206Y-17673150D01*
X6752206Y-17673150D02*
X6771253Y-17682674D01*
X6771253Y-17682674D02*
X6780777Y-17692198D01*
X6780777Y-17692198D02*
X6790301Y-17711246D01*
X6790301Y-17711246D02*
X6790301Y-17768389D01*
X6790301Y-17768389D02*
X6780777Y-17787436D01*
X6780777Y-17787436D02*
X6771253Y-17796960D01*
X6771253Y-17796960D02*
X6752206Y-17806484D01*
X6752206Y-17806484D02*
X6723634Y-17806484D01*
X6904587Y-17806484D02*
X6885539Y-17796960D01*
X6885539Y-17796960D02*
X6876015Y-17777912D01*
X6876015Y-17777912D02*
X6876015Y-17606484D01*
X7056968Y-17796960D02*
X7037920Y-17806484D01*
X7037920Y-17806484D02*
X6999825Y-17806484D01*
X6999825Y-17806484D02*
X6980777Y-17796960D01*
X6980777Y-17796960D02*
X6971253Y-17777912D01*
X6971253Y-17777912D02*
X6971253Y-17701722D01*
X6971253Y-17701722D02*
X6980777Y-17682674D01*
X6980777Y-17682674D02*
X6999825Y-17673150D01*
X6999825Y-17673150D02*
X7037920Y-17673150D01*
X7037920Y-17673150D02*
X7056968Y-17682674D01*
X7056968Y-17682674D02*
X7066491Y-17701722D01*
X7066491Y-17701722D02*
X7066491Y-17720770D01*
X7066491Y-17720770D02*
X6971253Y-17739817D01*
X7142682Y-17796960D02*
X7161730Y-17806484D01*
X7161730Y-17806484D02*
X7199825Y-17806484D01*
X7199825Y-17806484D02*
X7218872Y-17796960D01*
X7218872Y-17796960D02*
X7228396Y-17777912D01*
X7228396Y-17777912D02*
X7228396Y-17768389D01*
X7228396Y-17768389D02*
X7218872Y-17749341D01*
X7218872Y-17749341D02*
X7199825Y-17739817D01*
X7199825Y-17739817D02*
X7171253Y-17739817D01*
X7171253Y-17739817D02*
X7152206Y-17730293D01*
X7152206Y-17730293D02*
X7142682Y-17711246D01*
X7142682Y-17711246D02*
X7142682Y-17701722D01*
X7142682Y-17701722D02*
X7152206Y-17682674D01*
X7152206Y-17682674D02*
X7171253Y-17673150D01*
X7171253Y-17673150D02*
X7199825Y-17673150D01*
X7199825Y-17673150D02*
X7218872Y-17682674D01*
X7295063Y-17882674D02*
X7304587Y-17873150D01*
X7304587Y-17873150D02*
X7323634Y-17844579D01*
X7323634Y-17844579D02*
X7333158Y-17825531D01*
X7333158Y-17825531D02*
X7342682Y-17796960D01*
X7342682Y-17796960D02*
X7352206Y-17749341D01*
X7352206Y-17749341D02*
X7352206Y-17711246D01*
X7352206Y-17711246D02*
X7342682Y-17663627D01*
X7342682Y-17663627D02*
X7333158Y-17635055D01*
X7333158Y-17635055D02*
X7323634Y-17616008D01*
X7323634Y-17616008D02*
X7304587Y-17587436D01*
X7304587Y-17587436D02*
X7295063Y-17577912D01*
X7656968Y-17882674D02*
X7647444Y-17873150D01*
X7647444Y-17873150D02*
X7628396Y-17844579D01*
X7628396Y-17844579D02*
X7618872Y-17825531D01*
X7618872Y-17825531D02*
X7609349Y-17796960D01*
X7609349Y-17796960D02*
X7599825Y-17749341D01*
X7599825Y-17749341D02*
X7599825Y-17711246D01*
X7599825Y-17711246D02*
X7609349Y-17663627D01*
X7609349Y-17663627D02*
X7618872Y-17635055D01*
X7618872Y-17635055D02*
X7628396Y-17616008D01*
X7628396Y-17616008D02*
X7647444Y-17587436D01*
X7647444Y-17587436D02*
X7656968Y-17577912D01*
X7733158Y-17673150D02*
X7733158Y-17806484D01*
X7733158Y-17692198D02*
X7742682Y-17682674D01*
X7742682Y-17682674D02*
X7761730Y-17673150D01*
X7761730Y-17673150D02*
X7790301Y-17673150D01*
X7790301Y-17673150D02*
X7809349Y-17682674D01*
X7809349Y-17682674D02*
X7818872Y-17701722D01*
X7818872Y-17701722D02*
X7818872Y-17806484D01*
X7942682Y-17806484D02*
X7923634Y-17796960D01*
X7923634Y-17796960D02*
X7914111Y-17787436D01*
X7914111Y-17787436D02*
X7904587Y-17768389D01*
X7904587Y-17768389D02*
X7904587Y-17711246D01*
X7904587Y-17711246D02*
X7914111Y-17692198D01*
X7914111Y-17692198D02*
X7923634Y-17682674D01*
X7923634Y-17682674D02*
X7942682Y-17673150D01*
X7942682Y-17673150D02*
X7971253Y-17673150D01*
X7971253Y-17673150D02*
X7990301Y-17682674D01*
X7990301Y-17682674D02*
X7999825Y-17692198D01*
X7999825Y-17692198D02*
X8009349Y-17711246D01*
X8009349Y-17711246D02*
X8009349Y-17768389D01*
X8009349Y-17768389D02*
X7999825Y-17787436D01*
X7999825Y-17787436D02*
X7990301Y-17796960D01*
X7990301Y-17796960D02*
X7971253Y-17806484D01*
X7971253Y-17806484D02*
X7942682Y-17806484D01*
X8066492Y-17673150D02*
X8142682Y-17673150D01*
X8095063Y-17606484D02*
X8095063Y-17777912D01*
X8095063Y-17777912D02*
X8104587Y-17796960D01*
X8104587Y-17796960D02*
X8123634Y-17806484D01*
X8123634Y-17806484D02*
X8142682Y-17806484D01*
X8361730Y-17673150D02*
X8361730Y-17873150D01*
X8361730Y-17682674D02*
X8380777Y-17673150D01*
X8380777Y-17673150D02*
X8418873Y-17673150D01*
X8418873Y-17673150D02*
X8437920Y-17682674D01*
X8437920Y-17682674D02*
X8447444Y-17692198D01*
X8447444Y-17692198D02*
X8456968Y-17711246D01*
X8456968Y-17711246D02*
X8456968Y-17768389D01*
X8456968Y-17768389D02*
X8447444Y-17787436D01*
X8447444Y-17787436D02*
X8437920Y-17796960D01*
X8437920Y-17796960D02*
X8418873Y-17806484D01*
X8418873Y-17806484D02*
X8380777Y-17806484D01*
X8380777Y-17806484D02*
X8361730Y-17796960D01*
X8571254Y-17806484D02*
X8552206Y-17796960D01*
X8552206Y-17796960D02*
X8542682Y-17777912D01*
X8542682Y-17777912D02*
X8542682Y-17606484D01*
X8733158Y-17806484D02*
X8733158Y-17701722D01*
X8733158Y-17701722D02*
X8723635Y-17682674D01*
X8723635Y-17682674D02*
X8704587Y-17673150D01*
X8704587Y-17673150D02*
X8666492Y-17673150D01*
X8666492Y-17673150D02*
X8647444Y-17682674D01*
X8733158Y-17796960D02*
X8714111Y-17806484D01*
X8714111Y-17806484D02*
X8666492Y-17806484D01*
X8666492Y-17806484D02*
X8647444Y-17796960D01*
X8647444Y-17796960D02*
X8637920Y-17777912D01*
X8637920Y-17777912D02*
X8637920Y-17758865D01*
X8637920Y-17758865D02*
X8647444Y-17739817D01*
X8647444Y-17739817D02*
X8666492Y-17730293D01*
X8666492Y-17730293D02*
X8714111Y-17730293D01*
X8714111Y-17730293D02*
X8733158Y-17720770D01*
X8799825Y-17673150D02*
X8876015Y-17673150D01*
X8828396Y-17606484D02*
X8828396Y-17777912D01*
X8828396Y-17777912D02*
X8837920Y-17796960D01*
X8837920Y-17796960D02*
X8856968Y-17806484D01*
X8856968Y-17806484D02*
X8876015Y-17806484D01*
X9018873Y-17796960D02*
X8999825Y-17806484D01*
X8999825Y-17806484D02*
X8961730Y-17806484D01*
X8961730Y-17806484D02*
X8942682Y-17796960D01*
X8942682Y-17796960D02*
X8933158Y-17777912D01*
X8933158Y-17777912D02*
X8933158Y-17701722D01*
X8933158Y-17701722D02*
X8942682Y-17682674D01*
X8942682Y-17682674D02*
X8961730Y-17673150D01*
X8961730Y-17673150D02*
X8999825Y-17673150D01*
X8999825Y-17673150D02*
X9018873Y-17682674D01*
X9018873Y-17682674D02*
X9028396Y-17701722D01*
X9028396Y-17701722D02*
X9028396Y-17720770D01*
X9028396Y-17720770D02*
X8933158Y-17739817D01*
X9199825Y-17806484D02*
X9199825Y-17606484D01*
X9199825Y-17796960D02*
X9180777Y-17806484D01*
X9180777Y-17806484D02*
X9142682Y-17806484D01*
X9142682Y-17806484D02*
X9123635Y-17796960D01*
X9123635Y-17796960D02*
X9114111Y-17787436D01*
X9114111Y-17787436D02*
X9104587Y-17768389D01*
X9104587Y-17768389D02*
X9104587Y-17711246D01*
X9104587Y-17711246D02*
X9114111Y-17692198D01*
X9114111Y-17692198D02*
X9123635Y-17682674D01*
X9123635Y-17682674D02*
X9142682Y-17673150D01*
X9142682Y-17673150D02*
X9180777Y-17673150D01*
X9180777Y-17673150D02*
X9199825Y-17682674D01*
X9276016Y-17882674D02*
X9285539Y-17873150D01*
X9285539Y-17873150D02*
X9304587Y-17844579D01*
X9304587Y-17844579D02*
X9314111Y-17825531D01*
X9314111Y-17825531D02*
X9323635Y-17796960D01*
X9323635Y-17796960D02*
X9333158Y-17749341D01*
X9333158Y-17749341D02*
X9333158Y-17711246D01*
X9333158Y-17711246D02*
X9323635Y-17663627D01*
X9323635Y-17663627D02*
X9314111Y-17635055D01*
X9314111Y-17635055D02*
X9304587Y-17616008D01*
X9304587Y-17616008D02*
X9285539Y-17587436D01*
X9285539Y-17587436D02*
X9276016Y-17577912D01*
X2420000Y-17915000D02*
X2420000Y-18115000D01*
X2320000Y-18015000D02*
X2520000Y-18015000D01*
X2761729Y-17906484D02*
X2885539Y-17906484D01*
X2885539Y-17906484D02*
X2818872Y-17982674D01*
X2818872Y-17982674D02*
X2847443Y-17982674D01*
X2847443Y-17982674D02*
X2866491Y-17992198D01*
X2866491Y-17992198D02*
X2876015Y-18001722D01*
X2876015Y-18001722D02*
X2885539Y-18020770D01*
X2885539Y-18020770D02*
X2885539Y-18068389D01*
X2885539Y-18068389D02*
X2876015Y-18087436D01*
X2876015Y-18087436D02*
X2866491Y-18096960D01*
X2866491Y-18096960D02*
X2847443Y-18106484D01*
X2847443Y-18106484D02*
X2790301Y-18106484D01*
X2790301Y-18106484D02*
X2771253Y-18096960D01*
X2771253Y-18096960D02*
X2761729Y-18087436D01*
X2971253Y-18087436D02*
X2980777Y-18096960D01*
X2980777Y-18096960D02*
X2971253Y-18106484D01*
X2971253Y-18106484D02*
X2961729Y-18096960D01*
X2961729Y-18096960D02*
X2971253Y-18087436D01*
X2971253Y-18087436D02*
X2971253Y-18106484D01*
X3056967Y-17925531D02*
X3066491Y-17916008D01*
X3066491Y-17916008D02*
X3085539Y-17906484D01*
X3085539Y-17906484D02*
X3133158Y-17906484D01*
X3133158Y-17906484D02*
X3152205Y-17916008D01*
X3152205Y-17916008D02*
X3161729Y-17925531D01*
X3161729Y-17925531D02*
X3171253Y-17944579D01*
X3171253Y-17944579D02*
X3171253Y-17963627D01*
X3171253Y-17963627D02*
X3161729Y-17992198D01*
X3161729Y-17992198D02*
X3047443Y-18106484D01*
X3047443Y-18106484D02*
X3171253Y-18106484D01*
X3295062Y-17906484D02*
X3314110Y-17906484D01*
X3314110Y-17906484D02*
X3333158Y-17916008D01*
X3333158Y-17916008D02*
X3342682Y-17925531D01*
X3342682Y-17925531D02*
X3352205Y-17944579D01*
X3352205Y-17944579D02*
X3361729Y-17982674D01*
X3361729Y-17982674D02*
X3361729Y-18030293D01*
X3361729Y-18030293D02*
X3352205Y-18068389D01*
X3352205Y-18068389D02*
X3342682Y-18087436D01*
X3342682Y-18087436D02*
X3333158Y-18096960D01*
X3333158Y-18096960D02*
X3314110Y-18106484D01*
X3314110Y-18106484D02*
X3295062Y-18106484D01*
X3295062Y-18106484D02*
X3276015Y-18096960D01*
X3276015Y-18096960D02*
X3266491Y-18087436D01*
X3266491Y-18087436D02*
X3256967Y-18068389D01*
X3256967Y-18068389D02*
X3247443Y-18030293D01*
X3247443Y-18030293D02*
X3247443Y-17982674D01*
X3247443Y-17982674D02*
X3256967Y-17944579D01*
X3256967Y-17944579D02*
X3266491Y-17925531D01*
X3266491Y-17925531D02*
X3276015Y-17916008D01*
X3276015Y-17916008D02*
X3295062Y-17906484D01*
X3485539Y-17906484D02*
X3504586Y-17906484D01*
X3504586Y-17906484D02*
X3523634Y-17916008D01*
X3523634Y-17916008D02*
X3533158Y-17925531D01*
X3533158Y-17925531D02*
X3542682Y-17944579D01*
X3542682Y-17944579D02*
X3552205Y-17982674D01*
X3552205Y-17982674D02*
X3552205Y-18030293D01*
X3552205Y-18030293D02*
X3542682Y-18068389D01*
X3542682Y-18068389D02*
X3533158Y-18087436D01*
X3533158Y-18087436D02*
X3523634Y-18096960D01*
X3523634Y-18096960D02*
X3504586Y-18106484D01*
X3504586Y-18106484D02*
X3485539Y-18106484D01*
X3485539Y-18106484D02*
X3466491Y-18096960D01*
X3466491Y-18096960D02*
X3456967Y-18087436D01*
X3456967Y-18087436D02*
X3447443Y-18068389D01*
X3447443Y-18068389D02*
X3437920Y-18030293D01*
X3437920Y-18030293D02*
X3437920Y-17982674D01*
X3437920Y-17982674D02*
X3447443Y-17944579D01*
X3447443Y-17944579D02*
X3456967Y-17925531D01*
X3456967Y-17925531D02*
X3466491Y-17916008D01*
X3466491Y-17916008D02*
X3485539Y-17906484D01*
X3637920Y-18106484D02*
X3637920Y-17973150D01*
X3637920Y-17992198D02*
X3647443Y-17982674D01*
X3647443Y-17982674D02*
X3666491Y-17973150D01*
X3666491Y-17973150D02*
X3695063Y-17973150D01*
X3695063Y-17973150D02*
X3714110Y-17982674D01*
X3714110Y-17982674D02*
X3723634Y-18001722D01*
X3723634Y-18001722D02*
X3723634Y-18106484D01*
X3723634Y-18001722D02*
X3733158Y-17982674D01*
X3733158Y-17982674D02*
X3752205Y-17973150D01*
X3752205Y-17973150D02*
X3780777Y-17973150D01*
X3780777Y-17973150D02*
X3799824Y-17982674D01*
X3799824Y-17982674D02*
X3809348Y-18001722D01*
X3809348Y-18001722D02*
X3809348Y-18106484D01*
X3904586Y-18106484D02*
X3904586Y-17973150D01*
X3904586Y-17992198D02*
X3914110Y-17982674D01*
X3914110Y-17982674D02*
X3933158Y-17973150D01*
X3933158Y-17973150D02*
X3961729Y-17973150D01*
X3961729Y-17973150D02*
X3980777Y-17982674D01*
X3980777Y-17982674D02*
X3990301Y-18001722D01*
X3990301Y-18001722D02*
X3990301Y-18106484D01*
X3990301Y-18001722D02*
X3999824Y-17982674D01*
X3999824Y-17982674D02*
X4018872Y-17973150D01*
X4018872Y-17973150D02*
X4047443Y-17973150D01*
X4047443Y-17973150D02*
X4066491Y-17982674D01*
X4066491Y-17982674D02*
X4076015Y-18001722D01*
X4076015Y-18001722D02*
X4076015Y-18106484D01*
X4466491Y-17896960D02*
X4295063Y-18154103D01*
X4723634Y-17906484D02*
X4742682Y-17906484D01*
X4742682Y-17906484D02*
X4761729Y-17916008D01*
X4761729Y-17916008D02*
X4771253Y-17925531D01*
X4771253Y-17925531D02*
X4780777Y-17944579D01*
X4780777Y-17944579D02*
X4790301Y-17982674D01*
X4790301Y-17982674D02*
X4790301Y-18030293D01*
X4790301Y-18030293D02*
X4780777Y-18068389D01*
X4780777Y-18068389D02*
X4771253Y-18087436D01*
X4771253Y-18087436D02*
X4761729Y-18096960D01*
X4761729Y-18096960D02*
X4742682Y-18106484D01*
X4742682Y-18106484D02*
X4723634Y-18106484D01*
X4723634Y-18106484D02*
X4704587Y-18096960D01*
X4704587Y-18096960D02*
X4695063Y-18087436D01*
X4695063Y-18087436D02*
X4685539Y-18068389D01*
X4685539Y-18068389D02*
X4676015Y-18030293D01*
X4676015Y-18030293D02*
X4676015Y-17982674D01*
X4676015Y-17982674D02*
X4685539Y-17944579D01*
X4685539Y-17944579D02*
X4695063Y-17925531D01*
X4695063Y-17925531D02*
X4704587Y-17916008D01*
X4704587Y-17916008D02*
X4723634Y-17906484D01*
X4876015Y-18087436D02*
X4885539Y-18096960D01*
X4885539Y-18096960D02*
X4876015Y-18106484D01*
X4876015Y-18106484D02*
X4866491Y-18096960D01*
X4866491Y-18096960D02*
X4876015Y-18087436D01*
X4876015Y-18087436D02*
X4876015Y-18106484D01*
X5076015Y-18106484D02*
X4961729Y-18106484D01*
X5018872Y-18106484D02*
X5018872Y-17906484D01*
X5018872Y-17906484D02*
X4999825Y-17935055D01*
X4999825Y-17935055D02*
X4980777Y-17954103D01*
X4980777Y-17954103D02*
X4961729Y-17963627D01*
X5152206Y-17925531D02*
X5161729Y-17916008D01*
X5161729Y-17916008D02*
X5180777Y-17906484D01*
X5180777Y-17906484D02*
X5228396Y-17906484D01*
X5228396Y-17906484D02*
X5247444Y-17916008D01*
X5247444Y-17916008D02*
X5256968Y-17925531D01*
X5256968Y-17925531D02*
X5266491Y-17944579D01*
X5266491Y-17944579D02*
X5266491Y-17963627D01*
X5266491Y-17963627D02*
X5256968Y-17992198D01*
X5256968Y-17992198D02*
X5142682Y-18106484D01*
X5142682Y-18106484D02*
X5266491Y-18106484D01*
X5437920Y-17906484D02*
X5399825Y-17906484D01*
X5399825Y-17906484D02*
X5380777Y-17916008D01*
X5380777Y-17916008D02*
X5371253Y-17925531D01*
X5371253Y-17925531D02*
X5352206Y-17954103D01*
X5352206Y-17954103D02*
X5342682Y-17992198D01*
X5342682Y-17992198D02*
X5342682Y-18068389D01*
X5342682Y-18068389D02*
X5352206Y-18087436D01*
X5352206Y-18087436D02*
X5361729Y-18096960D01*
X5361729Y-18096960D02*
X5380777Y-18106484D01*
X5380777Y-18106484D02*
X5418872Y-18106484D01*
X5418872Y-18106484D02*
X5437920Y-18096960D01*
X5437920Y-18096960D02*
X5447444Y-18087436D01*
X5447444Y-18087436D02*
X5456968Y-18068389D01*
X5456968Y-18068389D02*
X5456968Y-18020770D01*
X5456968Y-18020770D02*
X5447444Y-18001722D01*
X5447444Y-18001722D02*
X5437920Y-17992198D01*
X5437920Y-17992198D02*
X5418872Y-17982674D01*
X5418872Y-17982674D02*
X5380777Y-17982674D01*
X5380777Y-17982674D02*
X5361729Y-17992198D01*
X5361729Y-17992198D02*
X5352206Y-18001722D01*
X5352206Y-18001722D02*
X5342682Y-18020770D01*
X5580777Y-17906484D02*
X5599825Y-17906484D01*
X5599825Y-17906484D02*
X5618872Y-17916008D01*
X5618872Y-17916008D02*
X5628396Y-17925531D01*
X5628396Y-17925531D02*
X5637920Y-17944579D01*
X5637920Y-17944579D02*
X5647444Y-17982674D01*
X5647444Y-17982674D02*
X5647444Y-18030293D01*
X5647444Y-18030293D02*
X5637920Y-18068389D01*
X5637920Y-18068389D02*
X5628396Y-18087436D01*
X5628396Y-18087436D02*
X5618872Y-18096960D01*
X5618872Y-18096960D02*
X5599825Y-18106484D01*
X5599825Y-18106484D02*
X5580777Y-18106484D01*
X5580777Y-18106484D02*
X5561729Y-18096960D01*
X5561729Y-18096960D02*
X5552206Y-18087436D01*
X5552206Y-18087436D02*
X5542682Y-18068389D01*
X5542682Y-18068389D02*
X5533158Y-18030293D01*
X5533158Y-18030293D02*
X5533158Y-17982674D01*
X5533158Y-17982674D02*
X5542682Y-17944579D01*
X5542682Y-17944579D02*
X5552206Y-17925531D01*
X5552206Y-17925531D02*
X5561729Y-17916008D01*
X5561729Y-17916008D02*
X5580777Y-17906484D01*
X5723634Y-17906484D02*
X5723634Y-17944579D01*
X5799825Y-17906484D02*
X5799825Y-17944579D01*
X6095063Y-18182674D02*
X6085539Y-18173150D01*
X6085539Y-18173150D02*
X6066491Y-18144579D01*
X6066491Y-18144579D02*
X6056968Y-18125531D01*
X6056968Y-18125531D02*
X6047444Y-18096960D01*
X6047444Y-18096960D02*
X6037920Y-18049341D01*
X6037920Y-18049341D02*
X6037920Y-18011246D01*
X6037920Y-18011246D02*
X6047444Y-17963627D01*
X6047444Y-17963627D02*
X6056968Y-17935055D01*
X6056968Y-17935055D02*
X6066491Y-17916008D01*
X6066491Y-17916008D02*
X6085539Y-17887436D01*
X6085539Y-17887436D02*
X6095063Y-17877912D01*
X6266491Y-17906484D02*
X6171253Y-17906484D01*
X6171253Y-17906484D02*
X6161729Y-18001722D01*
X6161729Y-18001722D02*
X6171253Y-17992198D01*
X6171253Y-17992198D02*
X6190301Y-17982674D01*
X6190301Y-17982674D02*
X6237920Y-17982674D01*
X6237920Y-17982674D02*
X6256968Y-17992198D01*
X6256968Y-17992198D02*
X6266491Y-18001722D01*
X6266491Y-18001722D02*
X6276015Y-18020770D01*
X6276015Y-18020770D02*
X6276015Y-18068389D01*
X6276015Y-18068389D02*
X6266491Y-18087436D01*
X6266491Y-18087436D02*
X6256968Y-18096960D01*
X6256968Y-18096960D02*
X6237920Y-18106484D01*
X6237920Y-18106484D02*
X6190301Y-18106484D01*
X6190301Y-18106484D02*
X6171253Y-18096960D01*
X6171253Y-18096960D02*
X6161729Y-18087436D01*
X6514110Y-18106484D02*
X6514110Y-17906484D01*
X6599825Y-18106484D02*
X6599825Y-18001722D01*
X6599825Y-18001722D02*
X6590301Y-17982674D01*
X6590301Y-17982674D02*
X6571253Y-17973150D01*
X6571253Y-17973150D02*
X6542682Y-17973150D01*
X6542682Y-17973150D02*
X6523634Y-17982674D01*
X6523634Y-17982674D02*
X6514110Y-17992198D01*
X6723634Y-18106484D02*
X6704587Y-18096960D01*
X6704587Y-18096960D02*
X6695063Y-18087436D01*
X6695063Y-18087436D02*
X6685539Y-18068389D01*
X6685539Y-18068389D02*
X6685539Y-18011246D01*
X6685539Y-18011246D02*
X6695063Y-17992198D01*
X6695063Y-17992198D02*
X6704587Y-17982674D01*
X6704587Y-17982674D02*
X6723634Y-17973150D01*
X6723634Y-17973150D02*
X6752206Y-17973150D01*
X6752206Y-17973150D02*
X6771253Y-17982674D01*
X6771253Y-17982674D02*
X6780777Y-17992198D01*
X6780777Y-17992198D02*
X6790301Y-18011246D01*
X6790301Y-18011246D02*
X6790301Y-18068389D01*
X6790301Y-18068389D02*
X6780777Y-18087436D01*
X6780777Y-18087436D02*
X6771253Y-18096960D01*
X6771253Y-18096960D02*
X6752206Y-18106484D01*
X6752206Y-18106484D02*
X6723634Y-18106484D01*
X6904587Y-18106484D02*
X6885539Y-18096960D01*
X6885539Y-18096960D02*
X6876015Y-18077912D01*
X6876015Y-18077912D02*
X6876015Y-17906484D01*
X7056968Y-18096960D02*
X7037920Y-18106484D01*
X7037920Y-18106484D02*
X6999825Y-18106484D01*
X6999825Y-18106484D02*
X6980777Y-18096960D01*
X6980777Y-18096960D02*
X6971253Y-18077912D01*
X6971253Y-18077912D02*
X6971253Y-18001722D01*
X6971253Y-18001722D02*
X6980777Y-17982674D01*
X6980777Y-17982674D02*
X6999825Y-17973150D01*
X6999825Y-17973150D02*
X7037920Y-17973150D01*
X7037920Y-17973150D02*
X7056968Y-17982674D01*
X7056968Y-17982674D02*
X7066491Y-18001722D01*
X7066491Y-18001722D02*
X7066491Y-18020770D01*
X7066491Y-18020770D02*
X6971253Y-18039817D01*
X7142682Y-18096960D02*
X7161730Y-18106484D01*
X7161730Y-18106484D02*
X7199825Y-18106484D01*
X7199825Y-18106484D02*
X7218872Y-18096960D01*
X7218872Y-18096960D02*
X7228396Y-18077912D01*
X7228396Y-18077912D02*
X7228396Y-18068389D01*
X7228396Y-18068389D02*
X7218872Y-18049341D01*
X7218872Y-18049341D02*
X7199825Y-18039817D01*
X7199825Y-18039817D02*
X7171253Y-18039817D01*
X7171253Y-18039817D02*
X7152206Y-18030293D01*
X7152206Y-18030293D02*
X7142682Y-18011246D01*
X7142682Y-18011246D02*
X7142682Y-18001722D01*
X7142682Y-18001722D02*
X7152206Y-17982674D01*
X7152206Y-17982674D02*
X7171253Y-17973150D01*
X7171253Y-17973150D02*
X7199825Y-17973150D01*
X7199825Y-17973150D02*
X7218872Y-17982674D01*
X7295063Y-18182674D02*
X7304587Y-18173150D01*
X7304587Y-18173150D02*
X7323634Y-18144579D01*
X7323634Y-18144579D02*
X7333158Y-18125531D01*
X7333158Y-18125531D02*
X7342682Y-18096960D01*
X7342682Y-18096960D02*
X7352206Y-18049341D01*
X7352206Y-18049341D02*
X7352206Y-18011246D01*
X7352206Y-18011246D02*
X7342682Y-17963627D01*
X7342682Y-17963627D02*
X7333158Y-17935055D01*
X7333158Y-17935055D02*
X7323634Y-17916008D01*
X7323634Y-17916008D02*
X7304587Y-17887436D01*
X7304587Y-17887436D02*
X7295063Y-17877912D01*
X7656968Y-18182674D02*
X7647444Y-18173150D01*
X7647444Y-18173150D02*
X7628396Y-18144579D01*
X7628396Y-18144579D02*
X7618872Y-18125531D01*
X7618872Y-18125531D02*
X7609349Y-18096960D01*
X7609349Y-18096960D02*
X7599825Y-18049341D01*
X7599825Y-18049341D02*
X7599825Y-18011246D01*
X7599825Y-18011246D02*
X7609349Y-17963627D01*
X7609349Y-17963627D02*
X7618872Y-17935055D01*
X7618872Y-17935055D02*
X7628396Y-17916008D01*
X7628396Y-17916008D02*
X7647444Y-17887436D01*
X7647444Y-17887436D02*
X7656968Y-17877912D01*
X7733158Y-17973150D02*
X7733158Y-18106484D01*
X7733158Y-17992198D02*
X7742682Y-17982674D01*
X7742682Y-17982674D02*
X7761730Y-17973150D01*
X7761730Y-17973150D02*
X7790301Y-17973150D01*
X7790301Y-17973150D02*
X7809349Y-17982674D01*
X7809349Y-17982674D02*
X7818872Y-18001722D01*
X7818872Y-18001722D02*
X7818872Y-18106484D01*
X7942682Y-18106484D02*
X7923634Y-18096960D01*
X7923634Y-18096960D02*
X7914111Y-18087436D01*
X7914111Y-18087436D02*
X7904587Y-18068389D01*
X7904587Y-18068389D02*
X7904587Y-18011246D01*
X7904587Y-18011246D02*
X7914111Y-17992198D01*
X7914111Y-17992198D02*
X7923634Y-17982674D01*
X7923634Y-17982674D02*
X7942682Y-17973150D01*
X7942682Y-17973150D02*
X7971253Y-17973150D01*
X7971253Y-17973150D02*
X7990301Y-17982674D01*
X7990301Y-17982674D02*
X7999825Y-17992198D01*
X7999825Y-17992198D02*
X8009349Y-18011246D01*
X8009349Y-18011246D02*
X8009349Y-18068389D01*
X8009349Y-18068389D02*
X7999825Y-18087436D01*
X7999825Y-18087436D02*
X7990301Y-18096960D01*
X7990301Y-18096960D02*
X7971253Y-18106484D01*
X7971253Y-18106484D02*
X7942682Y-18106484D01*
X8066492Y-17973150D02*
X8142682Y-17973150D01*
X8095063Y-17906484D02*
X8095063Y-18077912D01*
X8095063Y-18077912D02*
X8104587Y-18096960D01*
X8104587Y-18096960D02*
X8123634Y-18106484D01*
X8123634Y-18106484D02*
X8142682Y-18106484D01*
X8361730Y-17973150D02*
X8361730Y-18173150D01*
X8361730Y-17982674D02*
X8380777Y-17973150D01*
X8380777Y-17973150D02*
X8418873Y-17973150D01*
X8418873Y-17973150D02*
X8437920Y-17982674D01*
X8437920Y-17982674D02*
X8447444Y-17992198D01*
X8447444Y-17992198D02*
X8456968Y-18011246D01*
X8456968Y-18011246D02*
X8456968Y-18068389D01*
X8456968Y-18068389D02*
X8447444Y-18087436D01*
X8447444Y-18087436D02*
X8437920Y-18096960D01*
X8437920Y-18096960D02*
X8418873Y-18106484D01*
X8418873Y-18106484D02*
X8380777Y-18106484D01*
X8380777Y-18106484D02*
X8361730Y-18096960D01*
X8571254Y-18106484D02*
X8552206Y-18096960D01*
X8552206Y-18096960D02*
X8542682Y-18077912D01*
X8542682Y-18077912D02*
X8542682Y-17906484D01*
X8733158Y-18106484D02*
X8733158Y-18001722D01*
X8733158Y-18001722D02*
X8723635Y-17982674D01*
X8723635Y-17982674D02*
X8704587Y-17973150D01*
X8704587Y-17973150D02*
X8666492Y-17973150D01*
X8666492Y-17973150D02*
X8647444Y-17982674D01*
X8733158Y-18096960D02*
X8714111Y-18106484D01*
X8714111Y-18106484D02*
X8666492Y-18106484D01*
X8666492Y-18106484D02*
X8647444Y-18096960D01*
X8647444Y-18096960D02*
X8637920Y-18077912D01*
X8637920Y-18077912D02*
X8637920Y-18058865D01*
X8637920Y-18058865D02*
X8647444Y-18039817D01*
X8647444Y-18039817D02*
X8666492Y-18030293D01*
X8666492Y-18030293D02*
X8714111Y-18030293D01*
X8714111Y-18030293D02*
X8733158Y-18020770D01*
X8799825Y-17973150D02*
X8876015Y-17973150D01*
X8828396Y-17906484D02*
X8828396Y-18077912D01*
X8828396Y-18077912D02*
X8837920Y-18096960D01*
X8837920Y-18096960D02*
X8856968Y-18106484D01*
X8856968Y-18106484D02*
X8876015Y-18106484D01*
X9018873Y-18096960D02*
X8999825Y-18106484D01*
X8999825Y-18106484D02*
X8961730Y-18106484D01*
X8961730Y-18106484D02*
X8942682Y-18096960D01*
X8942682Y-18096960D02*
X8933158Y-18077912D01*
X8933158Y-18077912D02*
X8933158Y-18001722D01*
X8933158Y-18001722D02*
X8942682Y-17982674D01*
X8942682Y-17982674D02*
X8961730Y-17973150D01*
X8961730Y-17973150D02*
X8999825Y-17973150D01*
X8999825Y-17973150D02*
X9018873Y-17982674D01*
X9018873Y-17982674D02*
X9028396Y-18001722D01*
X9028396Y-18001722D02*
X9028396Y-18020770D01*
X9028396Y-18020770D02*
X8933158Y-18039817D01*
X9199825Y-18106484D02*
X9199825Y-17906484D01*
X9199825Y-18096960D02*
X9180777Y-18106484D01*
X9180777Y-18106484D02*
X9142682Y-18106484D01*
X9142682Y-18106484D02*
X9123635Y-18096960D01*
X9123635Y-18096960D02*
X9114111Y-18087436D01*
X9114111Y-18087436D02*
X9104587Y-18068389D01*
X9104587Y-18068389D02*
X9104587Y-18011246D01*
X9104587Y-18011246D02*
X9114111Y-17992198D01*
X9114111Y-17992198D02*
X9123635Y-17982674D01*
X9123635Y-17982674D02*
X9142682Y-17973150D01*
X9142682Y-17973150D02*
X9180777Y-17973150D01*
X9180777Y-17973150D02*
X9199825Y-17982674D01*
X9276016Y-18182674D02*
X9285539Y-18173150D01*
X9285539Y-18173150D02*
X9304587Y-18144579D01*
X9304587Y-18144579D02*
X9314111Y-18125531D01*
X9314111Y-18125531D02*
X9323635Y-18096960D01*
X9323635Y-18096960D02*
X9333158Y-18049341D01*
X9333158Y-18049341D02*
X9333158Y-18011246D01*
X9333158Y-18011246D02*
X9323635Y-17963627D01*
X9323635Y-17963627D02*
X9314111Y-17935055D01*
X9314111Y-17935055D02*
X9304587Y-17916008D01*
X9304587Y-17916008D02*
X9285539Y-17887436D01*
X9285539Y-17887436D02*
X9276016Y-17877912D01*
M02*
