%TF.GenerationSoftware,KiCad,Pcbnew,8.0.5*%
%TF.CreationDate,2024-12-16T08:47:40+01:00*%
%TF.ProjectId,PowerBoard,506f7765-7242-46f6-9172-642e6b696361,rev?*%
%TF.SameCoordinates,Original*%
%TF.FileFunction,Soldermask,Top*%
%TF.FilePolarity,Negative*%
%FSLAX46Y46*%
G04 Gerber Fmt 4.6, Leading zero omitted, Abs format (unit mm)*
G04 Created by KiCad (PCBNEW 8.0.5) date 2024-12-16 08:47:40*
%MOMM*%
%LPD*%
G01*
G04 APERTURE LIST*
G04 Aperture macros list*
%AMRoundRect*
0 Rectangle with rounded corners*
0 $1 Rounding radius*
0 $2 $3 $4 $5 $6 $7 $8 $9 X,Y pos of 4 corners*
0 Add a 4 corners polygon primitive as box body*
4,1,4,$2,$3,$4,$5,$6,$7,$8,$9,$2,$3,0*
0 Add four circle primitives for the rounded corners*
1,1,$1+$1,$2,$3*
1,1,$1+$1,$4,$5*
1,1,$1+$1,$6,$7*
1,1,$1+$1,$8,$9*
0 Add four rect primitives between the rounded corners*
20,1,$1+$1,$2,$3,$4,$5,0*
20,1,$1+$1,$4,$5,$6,$7,0*
20,1,$1+$1,$6,$7,$8,$9,0*
20,1,$1+$1,$8,$9,$2,$3,0*%
G04 Aperture macros list end*
%ADD10R,3.800000X3.800000*%
%ADD11C,4.000000*%
%ADD12RoundRect,0.250000X2.050000X0.300000X-2.050000X0.300000X-2.050000X-0.300000X2.050000X-0.300000X0*%
%ADD13RoundRect,0.250002X4.449998X5.149998X-4.449998X5.149998X-4.449998X-5.149998X4.449998X-5.149998X0*%
%ADD14RoundRect,0.250000X0.312500X0.625000X-0.312500X0.625000X-0.312500X-0.625000X0.312500X-0.625000X0*%
%ADD15RoundRect,0.250000X0.650000X-0.325000X0.650000X0.325000X-0.650000X0.325000X-0.650000X-0.325000X0*%
%ADD16C,3.200000*%
%ADD17RoundRect,1.500000X-1.500000X-1.500000X1.500000X-1.500000X1.500000X1.500000X-1.500000X1.500000X0*%
%ADD18C,6.000000*%
%ADD19RoundRect,0.250000X0.650000X-1.000000X0.650000X1.000000X-0.650000X1.000000X-0.650000X-1.000000X0*%
%ADD20RoundRect,0.250000X-0.650000X0.325000X-0.650000X-0.325000X0.650000X-0.325000X0.650000X0.325000X0*%
%ADD21RoundRect,0.250000X2.325000X-0.987500X2.325000X0.987500X-2.325000X0.987500X-2.325000X-0.987500X0*%
%ADD22RoundRect,0.250000X0.625000X-0.312500X0.625000X0.312500X-0.625000X0.312500X-0.625000X-0.312500X0*%
%ADD23R,1.850000X1.200000*%
%ADD24RoundRect,0.250000X-0.625000X0.312500X-0.625000X-0.312500X0.625000X-0.312500X0.625000X0.312500X0*%
%ADD25R,1.526000X0.650000*%
%ADD26RoundRect,0.250000X-0.650000X1.000000X-0.650000X-1.000000X0.650000X-1.000000X0.650000X1.000000X0*%
%ADD27RoundRect,0.250000X0.625000X-0.375000X0.625000X0.375000X-0.625000X0.375000X-0.625000X-0.375000X0*%
%ADD28C,8.000000*%
%ADD29O,8.000000X3.800000*%
%ADD30RoundRect,0.250000X-0.625000X0.375000X-0.625000X-0.375000X0.625000X-0.375000X0.625000X0.375000X0*%
%ADD31R,2.000000X2.000000*%
%ADD32C,2.000000*%
%ADD33RoundRect,0.075000X-0.650000X-0.075000X0.650000X-0.075000X0.650000X0.075000X-0.650000X0.075000X0*%
%ADD34R,4.850000X2.300000*%
%ADD35RoundRect,0.637500X-2.162500X0.637500X-2.162500X-0.637500X2.162500X-0.637500X2.162500X0.637500X0*%
%ADD36RoundRect,0.225000X-0.225000X1.050000X-0.225000X-1.050000X0.225000X-1.050000X0.225000X1.050000X0*%
%ADD37O,1.800000X1.800000*%
%ADD38O,1.500000X1.500000*%
%ADD39O,1.700000X1.700000*%
%ADD40R,3.500000X1.700000*%
%ADD41R,1.700000X1.700000*%
%ADD42R,1.700000X3.500000*%
%ADD43RoundRect,0.250000X0.325000X0.650000X-0.325000X0.650000X-0.325000X-0.650000X0.325000X-0.650000X0*%
%ADD44RoundRect,0.250000X-0.312500X-0.625000X0.312500X-0.625000X0.312500X0.625000X-0.312500X0.625000X0*%
%ADD45R,4.600000X0.800000*%
%ADD46R,9.400000X10.800000*%
%ADD47RoundRect,0.250000X-0.325000X-0.650000X0.325000X-0.650000X0.325000X0.650000X-0.325000X0.650000X0*%
%ADD48R,0.700000X0.300000*%
%ADD49R,1.000000X2.100000*%
G04 APERTURE END LIST*
D10*
%TO.C,J37*%
X117500000Y-116500000D03*
D11*
X122500000Y-116500000D03*
%TD*%
D10*
%TO.C,J36*%
X117500000Y-109500000D03*
D11*
X122500000Y-109500000D03*
%TD*%
D10*
%TO.C,J35*%
X117500000Y-102500000D03*
D11*
X122500000Y-102500000D03*
%TD*%
D12*
%TO.C,Q5*%
X64650000Y-53040000D03*
D13*
X55500000Y-50500000D03*
D12*
X64650000Y-47960000D03*
%TD*%
D14*
%TO.C,R16*%
X141462500Y-33500000D03*
X138537500Y-33500000D03*
%TD*%
D15*
%TO.C,C7*%
X137500000Y-28475000D03*
X137500000Y-25525000D03*
%TD*%
D16*
%TO.C,H4*%
X171750000Y-21500000D03*
%TD*%
D17*
%TO.C,J31*%
X94900000Y-144500000D03*
D18*
X102100000Y-144500000D03*
%TD*%
D19*
%TO.C,D14*%
X129000000Y-76000000D03*
X129000000Y-72000000D03*
%TD*%
D17*
%TO.C,J30*%
X94900000Y-134000000D03*
D18*
X102100000Y-134000000D03*
%TD*%
D10*
%TO.C,J33*%
X117500000Y-88500000D03*
D11*
X122500000Y-88500000D03*
%TD*%
D20*
%TO.C,C8*%
X133000000Y-31525000D03*
X133000000Y-34475000D03*
%TD*%
D18*
%TO.C,J18*%
X54800000Y-123000000D03*
X61500000Y-123000000D03*
%TD*%
%TO.C,J19*%
X54800000Y-133500000D03*
X61500000Y-133500000D03*
%TD*%
D21*
%TO.C,D2*%
X56350000Y-29650000D03*
X56350000Y-23275000D03*
%TD*%
D22*
%TO.C,R5*%
X76000000Y-74462500D03*
X76000000Y-71537500D03*
%TD*%
D20*
%TO.C,C5*%
X62500000Y-58525000D03*
X62500000Y-61475000D03*
%TD*%
D23*
%TO.C,R8*%
X125500000Y-42500000D03*
X125500000Y-45500000D03*
%TD*%
D24*
%TO.C,R2*%
X81500000Y-58537500D03*
X81500000Y-61462500D03*
%TD*%
D17*
%TO.C,J22*%
X73900000Y-102000000D03*
D18*
X81100000Y-102000000D03*
%TD*%
D25*
%TO.C,IC4*%
X107288000Y-58595000D03*
X107288000Y-59865000D03*
X107288000Y-61135000D03*
X107288000Y-62405000D03*
X112712000Y-62405000D03*
X112712000Y-61135000D03*
X112712000Y-59865000D03*
X112712000Y-58595000D03*
%TD*%
D26*
%TO.C,D11*%
X109000000Y-72000000D03*
X109000000Y-76000000D03*
%TD*%
D25*
%TO.C,IC3*%
X34288000Y-33095000D03*
X34288000Y-34365000D03*
X34288000Y-35635000D03*
X34288000Y-36905000D03*
X39712000Y-36905000D03*
X39712000Y-35635000D03*
X39712000Y-34365000D03*
X39712000Y-33095000D03*
%TD*%
D27*
%TO.C,D19*%
X168500000Y-83400000D03*
X168500000Y-80600000D03*
%TD*%
D28*
%TO.C,J9*%
X43500000Y-112500000D03*
X32500000Y-112500000D03*
%TD*%
D29*
%TO.C,F5*%
X54350000Y-67000000D03*
X63650000Y-67000000D03*
%TD*%
D30*
%TO.C,D13*%
X57000000Y-58600000D03*
X57000000Y-61400000D03*
%TD*%
D29*
%TO.C,F4*%
X95350000Y-67000000D03*
X104650000Y-67000000D03*
%TD*%
D31*
%TO.C,GND1*%
X170150000Y-112690000D03*
D32*
X170150000Y-115230000D03*
X170150000Y-117770000D03*
X170150000Y-120310000D03*
%TD*%
D22*
%TO.C,R17*%
X135500000Y-34462500D03*
X135500000Y-31537500D03*
%TD*%
D17*
%TO.C,J29*%
X94900000Y-123500000D03*
D18*
X102100000Y-123500000D03*
%TD*%
D27*
%TO.C,D16*%
X59500000Y-74400000D03*
X59500000Y-71600000D03*
%TD*%
D28*
%TO.C,J7*%
X43500000Y-91500000D03*
X32500000Y-91500000D03*
%TD*%
D16*
%TO.C,H3*%
X171750000Y-164500000D03*
%TD*%
D17*
%TO.C,J41*%
X76500000Y-37500000D03*
D18*
X83700000Y-37500000D03*
%TD*%
D24*
%TO.C,R19*%
X167000000Y-45537500D03*
X167000000Y-48462500D03*
%TD*%
D33*
%TO.C,U4*%
X102800000Y-26000000D03*
X102800000Y-26500000D03*
X102800000Y-27000000D03*
X102800000Y-27500000D03*
X102800000Y-28000000D03*
X107200000Y-28000000D03*
X107200000Y-27500000D03*
X107200000Y-27000000D03*
X107200000Y-26500000D03*
X107200000Y-26000000D03*
%TD*%
D29*
%TO.C,F2*%
X115850000Y-67000000D03*
X125150000Y-67000000D03*
%TD*%
D33*
%TO.C,U3*%
X93800000Y-26000000D03*
X93800000Y-26500000D03*
X93800000Y-27000000D03*
X93800000Y-27500000D03*
X93800000Y-28000000D03*
X98200000Y-28000000D03*
X98200000Y-27500000D03*
X98200000Y-27000000D03*
X98200000Y-26500000D03*
X98200000Y-26000000D03*
%TD*%
D16*
%TO.C,H2*%
X28750000Y-164500000D03*
%TD*%
D34*
%TO.C,L1*%
X147500000Y-25500000D03*
X147500000Y-21600000D03*
%TD*%
D33*
%TO.C,U2*%
X85000000Y-26000000D03*
X85000000Y-26500000D03*
X85000000Y-27000000D03*
X85000000Y-27500000D03*
X85000000Y-28000000D03*
X89400000Y-28000000D03*
X89400000Y-27500000D03*
X89400000Y-27000000D03*
X89400000Y-26500000D03*
X89400000Y-26000000D03*
%TD*%
D28*
%TO.C,J6*%
X43500000Y-81000000D03*
X32500000Y-81000000D03*
%TD*%
D23*
%TO.C,R11*%
X67500000Y-46000000D03*
X67500000Y-43000000D03*
%TD*%
D20*
%TO.C,C4*%
X105000000Y-58525000D03*
X105000000Y-61475000D03*
%TD*%
D24*
%TO.C,R10*%
X102468750Y-58500000D03*
X102468750Y-61425000D03*
%TD*%
D22*
%TO.C,R15*%
X57000000Y-74462500D03*
X57000000Y-71537500D03*
%TD*%
D17*
%TO.C,J27*%
X94900000Y-102500000D03*
D18*
X102100000Y-102500000D03*
%TD*%
D11*
%TO.C,J4*%
X125600000Y-37400000D03*
X120600000Y-37400000D03*
%TD*%
D25*
%TO.C,IC2*%
X126788000Y-58595000D03*
X126788000Y-59865000D03*
X126788000Y-61135000D03*
X126788000Y-62405000D03*
X132212000Y-62405000D03*
X132212000Y-61135000D03*
X132212000Y-59865000D03*
X132212000Y-58595000D03*
%TD*%
D23*
%TO.C,R7*%
X84500000Y-43000000D03*
X84500000Y-46000000D03*
%TD*%
D12*
%TO.C,Q4*%
X105150000Y-53540000D03*
D13*
X96000000Y-51000000D03*
D12*
X105150000Y-48460000D03*
%TD*%
D18*
%TO.C,J2*%
X60200000Y-37500000D03*
X66900000Y-37500000D03*
%TD*%
%TO.C,J15*%
X54700000Y-91500000D03*
X61400000Y-91500000D03*
%TD*%
D12*
%TO.C,Q3*%
X126725000Y-53765000D03*
D13*
X117575000Y-51225000D03*
D12*
X126725000Y-48685000D03*
%TD*%
D27*
%TO.C,D7*%
X122000000Y-74900000D03*
X122000000Y-72100000D03*
%TD*%
D20*
%TO.C,C2*%
X124500000Y-59025000D03*
X124500000Y-61975000D03*
%TD*%
D10*
%TO.C,J39*%
X117500000Y-130500000D03*
D11*
X122500000Y-130500000D03*
%TD*%
D31*
%TO.C,I2C1*%
X170150000Y-53460000D03*
D32*
X170150000Y-56000000D03*
%TD*%
D28*
%TO.C,J8*%
X43500000Y-102000000D03*
X32500000Y-102000000D03*
%TD*%
D26*
%TO.C,D9*%
X68000000Y-72000000D03*
X68000000Y-76000000D03*
%TD*%
D20*
%TO.C,C10*%
X147000000Y-32025000D03*
X147000000Y-34975000D03*
%TD*%
D25*
%TO.C,IC5*%
X64788000Y-58095000D03*
X64788000Y-59365000D03*
X64788000Y-60635000D03*
X64788000Y-61905000D03*
X70212000Y-61905000D03*
X70212000Y-60635000D03*
X70212000Y-59365000D03*
X70212000Y-58095000D03*
%TD*%
D15*
%TO.C,C3*%
X31000000Y-35500000D03*
X31000000Y-32550000D03*
%TD*%
D26*
%TO.C,D10*%
X88000000Y-72000000D03*
X88000000Y-76000000D03*
%TD*%
D28*
%TO.C,J5*%
X64500000Y-26500000D03*
X75500000Y-26500000D03*
%TD*%
D23*
%TO.C,R14*%
X104000000Y-43000000D03*
X104000000Y-46000000D03*
%TD*%
D25*
%TO.C,IC1*%
X86288000Y-58095000D03*
X86288000Y-59365000D03*
X86288000Y-60635000D03*
X86288000Y-61905000D03*
X91712000Y-61905000D03*
X91712000Y-60635000D03*
X91712000Y-59365000D03*
X91712000Y-58095000D03*
%TD*%
D24*
%TO.C,R18*%
X170000000Y-45537500D03*
X170000000Y-48462500D03*
%TD*%
D22*
%TO.C,R13*%
X98500000Y-74962500D03*
X98500000Y-72037500D03*
%TD*%
D28*
%TO.C,J13*%
X43500000Y-154500000D03*
X32500000Y-154500000D03*
%TD*%
D17*
%TO.C,J21*%
X73900000Y-91500000D03*
D18*
X81100000Y-91500000D03*
%TD*%
%TO.C,J17*%
X54800000Y-112500000D03*
X61500000Y-112500000D03*
%TD*%
D30*
%TO.C,D4*%
X119000000Y-59100000D03*
X119000000Y-61900000D03*
%TD*%
D24*
%TO.C,R12*%
X60000000Y-58537500D03*
X60000000Y-61462500D03*
%TD*%
D35*
%TO.C,R1*%
X47850000Y-33975000D03*
D36*
X43800000Y-33975000D03*
X43800000Y-42025000D03*
D35*
X47850000Y-42025000D03*
%TD*%
D28*
%TO.C,J1*%
X48000000Y-26500000D03*
X37000000Y-26500000D03*
%TD*%
D37*
%TO.C,U1*%
X148275000Y-42000000D03*
D38*
X148575000Y-45030000D03*
X153425000Y-45030000D03*
D37*
X153725000Y-42000000D03*
D39*
X142110000Y-41870000D03*
D40*
X141210000Y-41870000D03*
D39*
X142110000Y-44410000D03*
D40*
X141210000Y-44410000D03*
D41*
X142110000Y-46950000D03*
D40*
X141210000Y-46950000D03*
D39*
X142110000Y-49490000D03*
D40*
X141210000Y-49490000D03*
D39*
X142110000Y-52030000D03*
D40*
X141210000Y-52030000D03*
D39*
X142110000Y-54570000D03*
D40*
X141210000Y-54570000D03*
D39*
X142110000Y-57110000D03*
D40*
X141210000Y-57110000D03*
D41*
X142110000Y-59650000D03*
D40*
X141210000Y-59650000D03*
D39*
X142110000Y-62190000D03*
D40*
X141210000Y-62190000D03*
D39*
X142110000Y-64730000D03*
D40*
X141210000Y-64730000D03*
D39*
X142110000Y-67270000D03*
D40*
X141210000Y-67270000D03*
D39*
X142110000Y-69810000D03*
D40*
X141210000Y-69810000D03*
D41*
X142110000Y-72350000D03*
D40*
X141210000Y-72350000D03*
D39*
X142110000Y-74890000D03*
D40*
X141210000Y-74890000D03*
D39*
X142110000Y-77430000D03*
D40*
X141210000Y-77430000D03*
D39*
X142110000Y-79970000D03*
D40*
X141210000Y-79970000D03*
D39*
X142110000Y-82510000D03*
D40*
X141210000Y-82510000D03*
D41*
X142110000Y-85050000D03*
D40*
X141210000Y-85050000D03*
D39*
X142110000Y-87590000D03*
D40*
X141210000Y-87590000D03*
D39*
X142110000Y-90130000D03*
D40*
X141210000Y-90130000D03*
D39*
X159890000Y-90130000D03*
D40*
X160790000Y-90130000D03*
D39*
X159890000Y-87590000D03*
D40*
X160790000Y-87590000D03*
D41*
X159890000Y-85050000D03*
D40*
X160790000Y-85050000D03*
D39*
X159890000Y-82510000D03*
D40*
X160790000Y-82510000D03*
D39*
X159890000Y-79970000D03*
D40*
X160790000Y-79970000D03*
D39*
X159890000Y-77430000D03*
D40*
X160790000Y-77430000D03*
D39*
X159890000Y-74890000D03*
D40*
X160790000Y-74890000D03*
D41*
X159890000Y-72350000D03*
D40*
X160790000Y-72350000D03*
D39*
X159890000Y-69810000D03*
D40*
X160790000Y-69810000D03*
D39*
X159890000Y-67270000D03*
D40*
X160790000Y-67270000D03*
D39*
X159890000Y-64730000D03*
D40*
X160790000Y-64730000D03*
D39*
X159890000Y-62190000D03*
D40*
X160790000Y-62190000D03*
D41*
X159890000Y-59650000D03*
D40*
X160790000Y-59650000D03*
D39*
X159890000Y-57110000D03*
D40*
X160790000Y-57110000D03*
D39*
X159890000Y-54570000D03*
D40*
X160790000Y-54570000D03*
D39*
X159890000Y-52030000D03*
D40*
X160790000Y-52030000D03*
D39*
X159890000Y-49490000D03*
D40*
X160790000Y-49490000D03*
D41*
X159890000Y-46950000D03*
D40*
X160790000Y-46950000D03*
D39*
X159890000Y-44410000D03*
D40*
X160790000Y-44410000D03*
D39*
X159890000Y-41870000D03*
D40*
X160790000Y-41870000D03*
D39*
X148460000Y-89900000D03*
D42*
X148460000Y-90800000D03*
D41*
X151000000Y-89900000D03*
D42*
X151000000Y-90800000D03*
D39*
X153540000Y-89900000D03*
D42*
X153540000Y-90800000D03*
%TD*%
D22*
%TO.C,R24*%
X171500000Y-83462500D03*
X171500000Y-80537500D03*
%TD*%
D30*
%TO.C,D5*%
X37500000Y-58600000D03*
X37500000Y-61400000D03*
%TD*%
D43*
%TO.C,C12*%
X142475000Y-24500000D03*
X139525000Y-24500000D03*
%TD*%
D33*
%TO.C,U5*%
X111800000Y-26000000D03*
X111800000Y-26500000D03*
X111800000Y-27000000D03*
X111800000Y-27500000D03*
X111800000Y-28000000D03*
X116200000Y-28000000D03*
X116200000Y-27500000D03*
X116200000Y-27000000D03*
X116200000Y-26500000D03*
X116200000Y-26000000D03*
%TD*%
D22*
%TO.C,R22*%
X171500000Y-72462500D03*
X171500000Y-69537500D03*
%TD*%
D27*
%TO.C,D17*%
X168500000Y-72400000D03*
X168500000Y-69600000D03*
%TD*%
D18*
%TO.C,J16*%
X54800000Y-102000000D03*
X61500000Y-102000000D03*
%TD*%
D24*
%TO.C,R3*%
X122000000Y-59037500D03*
X122000000Y-61962500D03*
%TD*%
D28*
%TO.C,J10*%
X43500000Y-123000000D03*
X32500000Y-123000000D03*
%TD*%
D17*
%TO.C,J3*%
X95900000Y-37500000D03*
D18*
X103100000Y-37500000D03*
%TD*%
D17*
%TO.C,J20*%
X73900000Y-81000000D03*
D18*
X81100000Y-81000000D03*
%TD*%
D29*
%TO.C,F3*%
X33850000Y-67000000D03*
X43150000Y-67000000D03*
%TD*%
D22*
%TO.C,R9*%
X37000000Y-74462500D03*
X37000000Y-71537500D03*
%TD*%
D27*
%TO.C,D6*%
X78500000Y-74400000D03*
X78500000Y-71600000D03*
%TD*%
D16*
%TO.C,H1*%
X28750000Y-21500000D03*
%TD*%
D29*
%TO.C,F1*%
X74850000Y-67000000D03*
X84150000Y-67000000D03*
%TD*%
D26*
%TO.C,D1*%
X53000000Y-36500000D03*
X53000000Y-40500000D03*
%TD*%
D20*
%TO.C,C1*%
X84000000Y-58525000D03*
X84000000Y-61475000D03*
%TD*%
D22*
%TO.C,R23*%
X171500000Y-77962500D03*
X171500000Y-75037500D03*
%TD*%
D18*
%TO.C,J14*%
X54700000Y-81000000D03*
X61400000Y-81000000D03*
%TD*%
D44*
%TO.C,R21*%
X146537500Y-30000000D03*
X149462500Y-30000000D03*
%TD*%
D33*
%TO.C,U6*%
X120800000Y-26000000D03*
X120800000Y-26500000D03*
X120800000Y-27000000D03*
X120800000Y-27500000D03*
X120800000Y-28000000D03*
X125200000Y-28000000D03*
X125200000Y-27500000D03*
X125200000Y-27000000D03*
X125200000Y-26500000D03*
X125200000Y-26000000D03*
%TD*%
D45*
%TO.C,Q1*%
X34350000Y-46690000D03*
X34350000Y-47960000D03*
X34350000Y-49230000D03*
D46*
X43500000Y-50500000D03*
D45*
X34350000Y-51770000D03*
X34350000Y-53040000D03*
X34350000Y-54310000D03*
%TD*%
D12*
%TO.C,Q2*%
X85650000Y-53540000D03*
D13*
X76500000Y-51000000D03*
D12*
X85650000Y-48460000D03*
%TD*%
D30*
%TO.C,D3*%
X79000000Y-58600000D03*
X79000000Y-61400000D03*
%TD*%
D27*
%TO.C,D18*%
X168500000Y-77900000D03*
X168500000Y-75100000D03*
%TD*%
%TO.C,D8*%
X39500000Y-74400000D03*
X39500000Y-71600000D03*
%TD*%
D28*
%TO.C,J11*%
X43500000Y-133500000D03*
X32500000Y-133500000D03*
%TD*%
%TO.C,J12*%
X43500000Y-144000000D03*
X32500000Y-144000000D03*
%TD*%
D47*
%TO.C,C13*%
X128525000Y-26000000D03*
X131475000Y-26000000D03*
%TD*%
D10*
%TO.C,J34*%
X117500000Y-95500000D03*
D11*
X122500000Y-95500000D03*
%TD*%
D20*
%TO.C,C9*%
X144500000Y-32025000D03*
X144500000Y-34975000D03*
%TD*%
D10*
%TO.C,J32*%
X117500000Y-81500000D03*
D11*
X122500000Y-81500000D03*
%TD*%
D48*
%TO.C,IC7*%
X140500000Y-28050000D03*
X140500000Y-28550000D03*
X140500000Y-29050000D03*
X140500000Y-29550000D03*
X140500000Y-30050000D03*
X142600000Y-30050000D03*
X142600000Y-29550000D03*
X142600000Y-29050000D03*
X142600000Y-28550000D03*
X142600000Y-28050000D03*
D49*
X141550000Y-29050000D03*
%TD*%
D17*
%TO.C,J25*%
X73900000Y-133500000D03*
D18*
X81100000Y-133500000D03*
%TD*%
D22*
%TO.C,R6*%
X119500000Y-74962500D03*
X119500000Y-72037500D03*
%TD*%
D17*
%TO.C,J26*%
X94900000Y-81000000D03*
D18*
X102100000Y-81000000D03*
%TD*%
D20*
%TO.C,C11*%
X149500000Y-32025000D03*
X149500000Y-34975000D03*
%TD*%
D30*
%TO.C,D12*%
X99468750Y-58562500D03*
X99468750Y-61362500D03*
%TD*%
D31*
%TO.C,VCC1*%
X170150000Y-100690000D03*
D32*
X170150000Y-103230000D03*
X170150000Y-105770000D03*
X170150000Y-108310000D03*
%TD*%
D17*
%TO.C,J23*%
X73900000Y-112500000D03*
D18*
X81100000Y-112500000D03*
%TD*%
D27*
%TO.C,D15*%
X101000000Y-74900000D03*
X101000000Y-72100000D03*
%TD*%
D16*
%TO.C,H5*%
X100250000Y-93000000D03*
%TD*%
D24*
%TO.C,R4*%
X40000000Y-58537500D03*
X40000000Y-61462500D03*
%TD*%
D17*
%TO.C,J24*%
X73900000Y-123000000D03*
D18*
X81100000Y-123000000D03*
%TD*%
D10*
%TO.C,J38*%
X117500000Y-123500000D03*
D11*
X122500000Y-123500000D03*
%TD*%
D10*
%TO.C,J40*%
X117500000Y-137500000D03*
D11*
X122500000Y-137500000D03*
%TD*%
D17*
%TO.C,J28*%
X94900000Y-113000000D03*
D18*
X102100000Y-113000000D03*
%TD*%
M02*
