%TF.GenerationSoftware,KiCad,Pcbnew,8.0.6*%
%TF.CreationDate,2024-12-28T22:05:25+01:00*%
%TF.ProjectId,PowerBoard,506f7765-7242-46f6-9172-642e6b696361,rev?*%
%TF.SameCoordinates,Original*%
%TF.FileFunction,Legend,Bot*%
%TF.FilePolarity,Positive*%
%FSLAX46Y46*%
G04 Gerber Fmt 4.6, Leading zero omitted, Abs format (unit mm)*
G04 Created by KiCad (PCBNEW 8.0.6) date 2024-12-28 22:05:25*
%MOMM*%
%LPD*%
G01*
G04 APERTURE LIST*
%ADD10C,0.150000*%
%ADD11C,0.120000*%
G04 APERTURE END LIST*
D10*
X173642857Y-91954819D02*
X173976190Y-91478628D01*
X174214285Y-91954819D02*
X174214285Y-90954819D01*
X174214285Y-90954819D02*
X173833333Y-90954819D01*
X173833333Y-90954819D02*
X173738095Y-91002438D01*
X173738095Y-91002438D02*
X173690476Y-91050057D01*
X173690476Y-91050057D02*
X173642857Y-91145295D01*
X173642857Y-91145295D02*
X173642857Y-91288152D01*
X173642857Y-91288152D02*
X173690476Y-91383390D01*
X173690476Y-91383390D02*
X173738095Y-91431009D01*
X173738095Y-91431009D02*
X173833333Y-91478628D01*
X173833333Y-91478628D02*
X174214285Y-91478628D01*
X173261904Y-91050057D02*
X173214285Y-91002438D01*
X173214285Y-91002438D02*
X173119047Y-90954819D01*
X173119047Y-90954819D02*
X172880952Y-90954819D01*
X172880952Y-90954819D02*
X172785714Y-91002438D01*
X172785714Y-91002438D02*
X172738095Y-91050057D01*
X172738095Y-91050057D02*
X172690476Y-91145295D01*
X172690476Y-91145295D02*
X172690476Y-91240533D01*
X172690476Y-91240533D02*
X172738095Y-91383390D01*
X172738095Y-91383390D02*
X173309523Y-91954819D01*
X173309523Y-91954819D02*
X172690476Y-91954819D01*
X172214285Y-91954819D02*
X172023809Y-91954819D01*
X172023809Y-91954819D02*
X171928571Y-91907200D01*
X171928571Y-91907200D02*
X171880952Y-91859580D01*
X171880952Y-91859580D02*
X171785714Y-91716723D01*
X171785714Y-91716723D02*
X171738095Y-91526247D01*
X171738095Y-91526247D02*
X171738095Y-91145295D01*
X171738095Y-91145295D02*
X171785714Y-91050057D01*
X171785714Y-91050057D02*
X171833333Y-91002438D01*
X171833333Y-91002438D02*
X171928571Y-90954819D01*
X171928571Y-90954819D02*
X172119047Y-90954819D01*
X172119047Y-90954819D02*
X172214285Y-91002438D01*
X172214285Y-91002438D02*
X172261904Y-91050057D01*
X172261904Y-91050057D02*
X172309523Y-91145295D01*
X172309523Y-91145295D02*
X172309523Y-91383390D01*
X172309523Y-91383390D02*
X172261904Y-91478628D01*
X172261904Y-91478628D02*
X172214285Y-91526247D01*
X172214285Y-91526247D02*
X172119047Y-91573866D01*
X172119047Y-91573866D02*
X171928571Y-91573866D01*
X171928571Y-91573866D02*
X171833333Y-91526247D01*
X171833333Y-91526247D02*
X171785714Y-91478628D01*
X171785714Y-91478628D02*
X171738095Y-91383390D01*
X167642857Y-91992319D02*
X167976190Y-91516128D01*
X168214285Y-91992319D02*
X168214285Y-90992319D01*
X168214285Y-90992319D02*
X167833333Y-90992319D01*
X167833333Y-90992319D02*
X167738095Y-91039938D01*
X167738095Y-91039938D02*
X167690476Y-91087557D01*
X167690476Y-91087557D02*
X167642857Y-91182795D01*
X167642857Y-91182795D02*
X167642857Y-91325652D01*
X167642857Y-91325652D02*
X167690476Y-91420890D01*
X167690476Y-91420890D02*
X167738095Y-91468509D01*
X167738095Y-91468509D02*
X167833333Y-91516128D01*
X167833333Y-91516128D02*
X168214285Y-91516128D01*
X167261904Y-91087557D02*
X167214285Y-91039938D01*
X167214285Y-91039938D02*
X167119047Y-90992319D01*
X167119047Y-90992319D02*
X166880952Y-90992319D01*
X166880952Y-90992319D02*
X166785714Y-91039938D01*
X166785714Y-91039938D02*
X166738095Y-91087557D01*
X166738095Y-91087557D02*
X166690476Y-91182795D01*
X166690476Y-91182795D02*
X166690476Y-91278033D01*
X166690476Y-91278033D02*
X166738095Y-91420890D01*
X166738095Y-91420890D02*
X167309523Y-91992319D01*
X167309523Y-91992319D02*
X166690476Y-91992319D01*
X166357142Y-90992319D02*
X165690476Y-90992319D01*
X165690476Y-90992319D02*
X166119047Y-91992319D01*
X170642857Y-91992319D02*
X170976190Y-91516128D01*
X171214285Y-91992319D02*
X171214285Y-90992319D01*
X171214285Y-90992319D02*
X170833333Y-90992319D01*
X170833333Y-90992319D02*
X170738095Y-91039938D01*
X170738095Y-91039938D02*
X170690476Y-91087557D01*
X170690476Y-91087557D02*
X170642857Y-91182795D01*
X170642857Y-91182795D02*
X170642857Y-91325652D01*
X170642857Y-91325652D02*
X170690476Y-91420890D01*
X170690476Y-91420890D02*
X170738095Y-91468509D01*
X170738095Y-91468509D02*
X170833333Y-91516128D01*
X170833333Y-91516128D02*
X171214285Y-91516128D01*
X170261904Y-91087557D02*
X170214285Y-91039938D01*
X170214285Y-91039938D02*
X170119047Y-90992319D01*
X170119047Y-90992319D02*
X169880952Y-90992319D01*
X169880952Y-90992319D02*
X169785714Y-91039938D01*
X169785714Y-91039938D02*
X169738095Y-91087557D01*
X169738095Y-91087557D02*
X169690476Y-91182795D01*
X169690476Y-91182795D02*
X169690476Y-91278033D01*
X169690476Y-91278033D02*
X169738095Y-91420890D01*
X169738095Y-91420890D02*
X170309523Y-91992319D01*
X170309523Y-91992319D02*
X169690476Y-91992319D01*
X169119047Y-91420890D02*
X169214285Y-91373271D01*
X169214285Y-91373271D02*
X169261904Y-91325652D01*
X169261904Y-91325652D02*
X169309523Y-91230414D01*
X169309523Y-91230414D02*
X169309523Y-91182795D01*
X169309523Y-91182795D02*
X169261904Y-91087557D01*
X169261904Y-91087557D02*
X169214285Y-91039938D01*
X169214285Y-91039938D02*
X169119047Y-90992319D01*
X169119047Y-90992319D02*
X168928571Y-90992319D01*
X168928571Y-90992319D02*
X168833333Y-91039938D01*
X168833333Y-91039938D02*
X168785714Y-91087557D01*
X168785714Y-91087557D02*
X168738095Y-91182795D01*
X168738095Y-91182795D02*
X168738095Y-91230414D01*
X168738095Y-91230414D02*
X168785714Y-91325652D01*
X168785714Y-91325652D02*
X168833333Y-91373271D01*
X168833333Y-91373271D02*
X168928571Y-91420890D01*
X168928571Y-91420890D02*
X169119047Y-91420890D01*
X169119047Y-91420890D02*
X169214285Y-91468509D01*
X169214285Y-91468509D02*
X169261904Y-91516128D01*
X169261904Y-91516128D02*
X169309523Y-91611366D01*
X169309523Y-91611366D02*
X169309523Y-91801842D01*
X169309523Y-91801842D02*
X169261904Y-91897080D01*
X169261904Y-91897080D02*
X169214285Y-91944700D01*
X169214285Y-91944700D02*
X169119047Y-91992319D01*
X169119047Y-91992319D02*
X168928571Y-91992319D01*
X168928571Y-91992319D02*
X168833333Y-91944700D01*
X168833333Y-91944700D02*
X168785714Y-91897080D01*
X168785714Y-91897080D02*
X168738095Y-91801842D01*
X168738095Y-91801842D02*
X168738095Y-91611366D01*
X168738095Y-91611366D02*
X168785714Y-91516128D01*
X168785714Y-91516128D02*
X168833333Y-91468509D01*
X168833333Y-91468509D02*
X168928571Y-91420890D01*
X144992319Y-98357142D02*
X144516128Y-98023809D01*
X144992319Y-97785714D02*
X143992319Y-97785714D01*
X143992319Y-97785714D02*
X143992319Y-98166666D01*
X143992319Y-98166666D02*
X144039938Y-98261904D01*
X144039938Y-98261904D02*
X144087557Y-98309523D01*
X144087557Y-98309523D02*
X144182795Y-98357142D01*
X144182795Y-98357142D02*
X144325652Y-98357142D01*
X144325652Y-98357142D02*
X144420890Y-98309523D01*
X144420890Y-98309523D02*
X144468509Y-98261904D01*
X144468509Y-98261904D02*
X144516128Y-98166666D01*
X144516128Y-98166666D02*
X144516128Y-97785714D01*
X144087557Y-98738095D02*
X144039938Y-98785714D01*
X144039938Y-98785714D02*
X143992319Y-98880952D01*
X143992319Y-98880952D02*
X143992319Y-99119047D01*
X143992319Y-99119047D02*
X144039938Y-99214285D01*
X144039938Y-99214285D02*
X144087557Y-99261904D01*
X144087557Y-99261904D02*
X144182795Y-99309523D01*
X144182795Y-99309523D02*
X144278033Y-99309523D01*
X144278033Y-99309523D02*
X144420890Y-99261904D01*
X144420890Y-99261904D02*
X144992319Y-98690476D01*
X144992319Y-98690476D02*
X144992319Y-99309523D01*
X143992319Y-99928571D02*
X143992319Y-100023809D01*
X143992319Y-100023809D02*
X144039938Y-100119047D01*
X144039938Y-100119047D02*
X144087557Y-100166666D01*
X144087557Y-100166666D02*
X144182795Y-100214285D01*
X144182795Y-100214285D02*
X144373271Y-100261904D01*
X144373271Y-100261904D02*
X144611366Y-100261904D01*
X144611366Y-100261904D02*
X144801842Y-100214285D01*
X144801842Y-100214285D02*
X144897080Y-100166666D01*
X144897080Y-100166666D02*
X144944700Y-100119047D01*
X144944700Y-100119047D02*
X144992319Y-100023809D01*
X144992319Y-100023809D02*
X144992319Y-99928571D01*
X144992319Y-99928571D02*
X144944700Y-99833333D01*
X144944700Y-99833333D02*
X144897080Y-99785714D01*
X144897080Y-99785714D02*
X144801842Y-99738095D01*
X144801842Y-99738095D02*
X144611366Y-99690476D01*
X144611366Y-99690476D02*
X144373271Y-99690476D01*
X144373271Y-99690476D02*
X144182795Y-99738095D01*
X144182795Y-99738095D02*
X144087557Y-99785714D01*
X144087557Y-99785714D02*
X144039938Y-99833333D01*
X144039938Y-99833333D02*
X143992319Y-99928571D01*
X144992319Y-95357142D02*
X144516128Y-95023809D01*
X144992319Y-94785714D02*
X143992319Y-94785714D01*
X143992319Y-94785714D02*
X143992319Y-95166666D01*
X143992319Y-95166666D02*
X144039938Y-95261904D01*
X144039938Y-95261904D02*
X144087557Y-95309523D01*
X144087557Y-95309523D02*
X144182795Y-95357142D01*
X144182795Y-95357142D02*
X144325652Y-95357142D01*
X144325652Y-95357142D02*
X144420890Y-95309523D01*
X144420890Y-95309523D02*
X144468509Y-95261904D01*
X144468509Y-95261904D02*
X144516128Y-95166666D01*
X144516128Y-95166666D02*
X144516128Y-94785714D01*
X144087557Y-95738095D02*
X144039938Y-95785714D01*
X144039938Y-95785714D02*
X143992319Y-95880952D01*
X143992319Y-95880952D02*
X143992319Y-96119047D01*
X143992319Y-96119047D02*
X144039938Y-96214285D01*
X144039938Y-96214285D02*
X144087557Y-96261904D01*
X144087557Y-96261904D02*
X144182795Y-96309523D01*
X144182795Y-96309523D02*
X144278033Y-96309523D01*
X144278033Y-96309523D02*
X144420890Y-96261904D01*
X144420890Y-96261904D02*
X144992319Y-95690476D01*
X144992319Y-95690476D02*
X144992319Y-96309523D01*
X143992319Y-97166666D02*
X143992319Y-96976190D01*
X143992319Y-96976190D02*
X144039938Y-96880952D01*
X144039938Y-96880952D02*
X144087557Y-96833333D01*
X144087557Y-96833333D02*
X144230414Y-96738095D01*
X144230414Y-96738095D02*
X144420890Y-96690476D01*
X144420890Y-96690476D02*
X144801842Y-96690476D01*
X144801842Y-96690476D02*
X144897080Y-96738095D01*
X144897080Y-96738095D02*
X144944700Y-96785714D01*
X144944700Y-96785714D02*
X144992319Y-96880952D01*
X144992319Y-96880952D02*
X144992319Y-97071428D01*
X144992319Y-97071428D02*
X144944700Y-97166666D01*
X144944700Y-97166666D02*
X144897080Y-97214285D01*
X144897080Y-97214285D02*
X144801842Y-97261904D01*
X144801842Y-97261904D02*
X144563747Y-97261904D01*
X144563747Y-97261904D02*
X144468509Y-97214285D01*
X144468509Y-97214285D02*
X144420890Y-97166666D01*
X144420890Y-97166666D02*
X144373271Y-97071428D01*
X144373271Y-97071428D02*
X144373271Y-96880952D01*
X144373271Y-96880952D02*
X144420890Y-96785714D01*
X144420890Y-96785714D02*
X144468509Y-96738095D01*
X144468509Y-96738095D02*
X144563747Y-96690476D01*
D11*
%TO.C,R29*%
X172090000Y-87772936D02*
X172090000Y-89227064D01*
X173910000Y-87772936D02*
X173910000Y-89227064D01*
%TO.C,R27*%
X166090000Y-87810436D02*
X166090000Y-89264564D01*
X167910000Y-87810436D02*
X167910000Y-89264564D01*
%TO.C,R28*%
X169090000Y-87810436D02*
X169090000Y-89264564D01*
X170910000Y-87810436D02*
X170910000Y-89264564D01*
%TO.C,R20*%
X140810436Y-98090000D02*
X142264564Y-98090000D01*
X140810436Y-99910000D02*
X142264564Y-99910000D01*
%TO.C,R26*%
X140810436Y-95090000D02*
X142264564Y-95090000D01*
X140810436Y-96910000D02*
X142264564Y-96910000D01*
%TD*%
M02*
