%TF.GenerationSoftware,KiCad,Pcbnew,8.0.5*%
%TF.CreationDate,2024-12-16T08:47:40+01:00*%
%TF.ProjectId,PowerBoard,506f7765-7242-46f6-9172-642e6b696361,rev?*%
%TF.SameCoordinates,Original*%
%TF.FileFunction,Soldermask,Bot*%
%TF.FilePolarity,Negative*%
%FSLAX46Y46*%
G04 Gerber Fmt 4.6, Leading zero omitted, Abs format (unit mm)*
G04 Created by KiCad (PCBNEW 8.0.5) date 2024-12-16 08:47:40*
%MOMM*%
%LPD*%
G01*
G04 APERTURE LIST*
G04 Aperture macros list*
%AMRoundRect*
0 Rectangle with rounded corners*
0 $1 Rounding radius*
0 $2 $3 $4 $5 $6 $7 $8 $9 X,Y pos of 4 corners*
0 Add a 4 corners polygon primitive as box body*
4,1,4,$2,$3,$4,$5,$6,$7,$8,$9,$2,$3,0*
0 Add four circle primitives for the rounded corners*
1,1,$1+$1,$2,$3*
1,1,$1+$1,$4,$5*
1,1,$1+$1,$6,$7*
1,1,$1+$1,$8,$9*
0 Add four rect primitives between the rounded corners*
20,1,$1+$1,$2,$3,$4,$5,0*
20,1,$1+$1,$4,$5,$6,$7,0*
20,1,$1+$1,$6,$7,$8,$9,0*
20,1,$1+$1,$8,$9,$2,$3,0*%
G04 Aperture macros list end*
%ADD10R,3.800000X3.800000*%
%ADD11C,4.000000*%
%ADD12C,3.200000*%
%ADD13RoundRect,1.500000X-1.500000X-1.500000X1.500000X-1.500000X1.500000X1.500000X-1.500000X1.500000X0*%
%ADD14C,6.000000*%
%ADD15C,8.000000*%
%ADD16O,8.000000X3.800000*%
%ADD17R,2.000000X2.000000*%
%ADD18C,2.000000*%
%ADD19O,1.800000X1.800000*%
%ADD20O,1.500000X1.500000*%
%ADD21O,1.700000X1.700000*%
%ADD22R,1.700000X1.700000*%
%ADD23RoundRect,0.250000X0.625000X-0.312500X0.625000X0.312500X-0.625000X0.312500X-0.625000X-0.312500X0*%
%ADD24RoundRect,0.250000X0.312500X0.625000X-0.312500X0.625000X-0.312500X-0.625000X0.312500X-0.625000X0*%
G04 APERTURE END LIST*
D10*
%TO.C,J37*%
X117500000Y-116500000D03*
D11*
X122500000Y-116500000D03*
%TD*%
D10*
%TO.C,J36*%
X117500000Y-109500000D03*
D11*
X122500000Y-109500000D03*
%TD*%
D10*
%TO.C,J35*%
X117500000Y-102500000D03*
D11*
X122500000Y-102500000D03*
%TD*%
D12*
%TO.C,H4*%
X171750000Y-21500000D03*
%TD*%
D13*
%TO.C,J31*%
X94900000Y-144500000D03*
D14*
X102100000Y-144500000D03*
%TD*%
D13*
%TO.C,J30*%
X94900000Y-134000000D03*
D14*
X102100000Y-134000000D03*
%TD*%
D10*
%TO.C,J33*%
X117500000Y-88500000D03*
D11*
X122500000Y-88500000D03*
%TD*%
D14*
%TO.C,J18*%
X54800000Y-123000000D03*
X61500000Y-123000000D03*
%TD*%
%TO.C,J19*%
X54800000Y-133500000D03*
X61500000Y-133500000D03*
%TD*%
D13*
%TO.C,J22*%
X73900000Y-102000000D03*
D14*
X81100000Y-102000000D03*
%TD*%
D15*
%TO.C,J9*%
X43500000Y-112500000D03*
X32500000Y-112500000D03*
%TD*%
D16*
%TO.C,F5*%
X54350000Y-67000000D03*
X63650000Y-67000000D03*
%TD*%
%TO.C,F4*%
X95350000Y-67000000D03*
X104650000Y-67000000D03*
%TD*%
D17*
%TO.C,GND1*%
X170150000Y-112690000D03*
D18*
X170150000Y-115230000D03*
X170150000Y-117770000D03*
X170150000Y-120310000D03*
%TD*%
D13*
%TO.C,J29*%
X94900000Y-123500000D03*
D14*
X102100000Y-123500000D03*
%TD*%
D15*
%TO.C,J7*%
X43500000Y-91500000D03*
X32500000Y-91500000D03*
%TD*%
D12*
%TO.C,H3*%
X171750000Y-164500000D03*
%TD*%
D13*
%TO.C,J41*%
X76500000Y-37500000D03*
D14*
X83700000Y-37500000D03*
%TD*%
D16*
%TO.C,F2*%
X115850000Y-67000000D03*
X125150000Y-67000000D03*
%TD*%
D12*
%TO.C,H2*%
X28750000Y-164500000D03*
%TD*%
D15*
%TO.C,J6*%
X43500000Y-81000000D03*
X32500000Y-81000000D03*
%TD*%
D13*
%TO.C,J27*%
X94900000Y-102500000D03*
D14*
X102100000Y-102500000D03*
%TD*%
D11*
%TO.C,J4*%
X125600000Y-37400000D03*
X120600000Y-37400000D03*
%TD*%
D14*
%TO.C,J2*%
X60200000Y-37500000D03*
X66900000Y-37500000D03*
%TD*%
%TO.C,J15*%
X54700000Y-91500000D03*
X61400000Y-91500000D03*
%TD*%
D10*
%TO.C,J39*%
X117500000Y-130500000D03*
D11*
X122500000Y-130500000D03*
%TD*%
D17*
%TO.C,I2C1*%
X170150000Y-53460000D03*
D18*
X170150000Y-56000000D03*
%TD*%
D15*
%TO.C,J8*%
X43500000Y-102000000D03*
X32500000Y-102000000D03*
%TD*%
%TO.C,J5*%
X64500000Y-26500000D03*
X75500000Y-26500000D03*
%TD*%
%TO.C,J13*%
X43500000Y-154500000D03*
X32500000Y-154500000D03*
%TD*%
D13*
%TO.C,J21*%
X73900000Y-91500000D03*
D14*
X81100000Y-91500000D03*
%TD*%
%TO.C,J17*%
X54800000Y-112500000D03*
X61500000Y-112500000D03*
%TD*%
D15*
%TO.C,J1*%
X48000000Y-26500000D03*
X37000000Y-26500000D03*
%TD*%
D19*
%TO.C,U1*%
X148275000Y-42000000D03*
D20*
X148575000Y-45030000D03*
X153425000Y-45030000D03*
D19*
X153725000Y-42000000D03*
D21*
X142110000Y-41870000D03*
X142110000Y-44410000D03*
D22*
X142110000Y-46950000D03*
D21*
X142110000Y-49490000D03*
X142110000Y-52030000D03*
X142110000Y-54570000D03*
X142110000Y-57110000D03*
D22*
X142110000Y-59650000D03*
D21*
X142110000Y-62190000D03*
X142110000Y-64730000D03*
X142110000Y-67270000D03*
X142110000Y-69810000D03*
D22*
X142110000Y-72350000D03*
D21*
X142110000Y-74890000D03*
X142110000Y-77430000D03*
X142110000Y-79970000D03*
X142110000Y-82510000D03*
D22*
X142110000Y-85050000D03*
D21*
X142110000Y-87590000D03*
X142110000Y-90130000D03*
X159890000Y-90130000D03*
X159890000Y-87590000D03*
D22*
X159890000Y-85050000D03*
D21*
X159890000Y-82510000D03*
X159890000Y-79970000D03*
X159890000Y-77430000D03*
X159890000Y-74890000D03*
D22*
X159890000Y-72350000D03*
D21*
X159890000Y-69810000D03*
X159890000Y-67270000D03*
X159890000Y-64730000D03*
X159890000Y-62190000D03*
D22*
X159890000Y-59650000D03*
D21*
X159890000Y-57110000D03*
X159890000Y-54570000D03*
X159890000Y-52030000D03*
X159890000Y-49490000D03*
D22*
X159890000Y-46950000D03*
D21*
X159890000Y-44410000D03*
X159890000Y-41870000D03*
X148460000Y-89900000D03*
D22*
X151000000Y-89900000D03*
D21*
X153540000Y-89900000D03*
%TD*%
D14*
%TO.C,J16*%
X54800000Y-102000000D03*
X61500000Y-102000000D03*
%TD*%
D15*
%TO.C,J10*%
X43500000Y-123000000D03*
X32500000Y-123000000D03*
%TD*%
D13*
%TO.C,J3*%
X95900000Y-37500000D03*
D14*
X103100000Y-37500000D03*
%TD*%
D13*
%TO.C,J20*%
X73900000Y-81000000D03*
D14*
X81100000Y-81000000D03*
%TD*%
D16*
%TO.C,F3*%
X33850000Y-67000000D03*
X43150000Y-67000000D03*
%TD*%
D12*
%TO.C,H1*%
X28750000Y-21500000D03*
%TD*%
D16*
%TO.C,F1*%
X74850000Y-67000000D03*
X84150000Y-67000000D03*
%TD*%
D14*
%TO.C,J14*%
X54700000Y-81000000D03*
X61400000Y-81000000D03*
%TD*%
D15*
%TO.C,J11*%
X43500000Y-133500000D03*
X32500000Y-133500000D03*
%TD*%
%TO.C,J12*%
X43500000Y-144000000D03*
X32500000Y-144000000D03*
%TD*%
D10*
%TO.C,J34*%
X117500000Y-95500000D03*
D11*
X122500000Y-95500000D03*
%TD*%
D10*
%TO.C,J32*%
X117500000Y-81500000D03*
D11*
X122500000Y-81500000D03*
%TD*%
D13*
%TO.C,J25*%
X73900000Y-133500000D03*
D14*
X81100000Y-133500000D03*
%TD*%
D13*
%TO.C,J26*%
X94900000Y-81000000D03*
D14*
X102100000Y-81000000D03*
%TD*%
D17*
%TO.C,VCC1*%
X170150000Y-100690000D03*
D18*
X170150000Y-103230000D03*
X170150000Y-105770000D03*
X170150000Y-108310000D03*
%TD*%
D13*
%TO.C,J23*%
X73900000Y-112500000D03*
D14*
X81100000Y-112500000D03*
%TD*%
D12*
%TO.C,H5*%
X100250000Y-93000000D03*
%TD*%
D13*
%TO.C,J24*%
X73900000Y-123000000D03*
D14*
X81100000Y-123000000D03*
%TD*%
D10*
%TO.C,J38*%
X117500000Y-123500000D03*
D11*
X122500000Y-123500000D03*
%TD*%
D10*
%TO.C,J40*%
X117500000Y-137500000D03*
D11*
X122500000Y-137500000D03*
%TD*%
D13*
%TO.C,J28*%
X94900000Y-113000000D03*
D14*
X102100000Y-113000000D03*
%TD*%
D23*
%TO.C,R29*%
X173000000Y-89962500D03*
X173000000Y-87037500D03*
%TD*%
%TO.C,R27*%
X167000000Y-90000000D03*
X167000000Y-87075000D03*
%TD*%
%TO.C,R28*%
X170000000Y-90000000D03*
X170000000Y-87075000D03*
%TD*%
D24*
%TO.C,R20*%
X143000000Y-99000000D03*
X140075000Y-99000000D03*
%TD*%
%TO.C,R26*%
X143000000Y-96000000D03*
X140075000Y-96000000D03*
%TD*%
M02*
