%TF.GenerationSoftware,KiCad,Pcbnew,8.0.5*%
%TF.CreationDate,2025-01-28T10:33:57+01:00*%
%TF.ProjectId,PowerBoard,506f7765-7242-46f6-9172-642e6b696361,rev?*%
%TF.SameCoordinates,Original*%
%TF.FileFunction,Drillmap*%
%TF.FilePolarity,Positive*%
%FSLAX45Y45*%
G04 Gerber Fmt 4.5, Leading zero omitted, Abs format (unit mm)*
G04 Created by KiCad (PCBNEW 8.0.5) date 2025-01-28 10:33:57*
%MOMM*%
%LPD*%
G01*
G04 APERTURE LIST*
%ADD10C,0.100000*%
%ADD11C,0.200000*%
%ADD12C,0.320000*%
G04 APERTURE END LIST*
D10*
X17525000Y-1800000D02*
X2525000Y-1800000D01*
X2525000Y-1800000D02*
X2525000Y-16800000D01*
X17525000Y-16800000D02*
X17525000Y-1800000D01*
X2525000Y-16800000D02*
X17525000Y-16800000D01*
D11*
D12*
X2715000Y-1990000D02*
X3035000Y-2310000D01*
X3035000Y-1990000D02*
X2715000Y-2310000D01*
X2715000Y-16290000D02*
X3035000Y-16610000D01*
X3035000Y-16290000D02*
X2715000Y-16610000D01*
X9865000Y-9140000D02*
X10185000Y-9460000D01*
X10185000Y-9140000D02*
X9865000Y-9460000D01*
X17015000Y-1990000D02*
X17335000Y-2310000D01*
X17335000Y-1990000D02*
X17015000Y-2310000D01*
X17015000Y-16290000D02*
X17335000Y-16610000D01*
X17335000Y-16290000D02*
X17015000Y-16610000D01*
D11*
X2780777Y-17116484D02*
X2780777Y-16916484D01*
X2780777Y-16916484D02*
X2828396Y-16916484D01*
X2828396Y-16916484D02*
X2856967Y-16926008D01*
X2856967Y-16926008D02*
X2876015Y-16945055D01*
X2876015Y-16945055D02*
X2885539Y-16964103D01*
X2885539Y-16964103D02*
X2895062Y-17002198D01*
X2895062Y-17002198D02*
X2895062Y-17030770D01*
X2895062Y-17030770D02*
X2885539Y-17068865D01*
X2885539Y-17068865D02*
X2876015Y-17087912D01*
X2876015Y-17087912D02*
X2856967Y-17106960D01*
X2856967Y-17106960D02*
X2828396Y-17116484D01*
X2828396Y-17116484D02*
X2780777Y-17116484D01*
X2980777Y-17116484D02*
X2980777Y-16983150D01*
X2980777Y-17021246D02*
X2990301Y-17002198D01*
X2990301Y-17002198D02*
X2999824Y-16992674D01*
X2999824Y-16992674D02*
X3018872Y-16983150D01*
X3018872Y-16983150D02*
X3037920Y-16983150D01*
X3104586Y-17116484D02*
X3104586Y-16983150D01*
X3104586Y-16916484D02*
X3095062Y-16926008D01*
X3095062Y-16926008D02*
X3104586Y-16935531D01*
X3104586Y-16935531D02*
X3114110Y-16926008D01*
X3114110Y-16926008D02*
X3104586Y-16916484D01*
X3104586Y-16916484D02*
X3104586Y-16935531D01*
X3228396Y-17116484D02*
X3209348Y-17106960D01*
X3209348Y-17106960D02*
X3199824Y-17087912D01*
X3199824Y-17087912D02*
X3199824Y-16916484D01*
X3333158Y-17116484D02*
X3314110Y-17106960D01*
X3314110Y-17106960D02*
X3304586Y-17087912D01*
X3304586Y-17087912D02*
X3304586Y-16916484D01*
X3561729Y-17116484D02*
X3561729Y-16916484D01*
X3561729Y-16916484D02*
X3628396Y-17059341D01*
X3628396Y-17059341D02*
X3695062Y-16916484D01*
X3695062Y-16916484D02*
X3695062Y-17116484D01*
X3876015Y-17116484D02*
X3876015Y-17011722D01*
X3876015Y-17011722D02*
X3866491Y-16992674D01*
X3866491Y-16992674D02*
X3847443Y-16983150D01*
X3847443Y-16983150D02*
X3809348Y-16983150D01*
X3809348Y-16983150D02*
X3790301Y-16992674D01*
X3876015Y-17106960D02*
X3856967Y-17116484D01*
X3856967Y-17116484D02*
X3809348Y-17116484D01*
X3809348Y-17116484D02*
X3790301Y-17106960D01*
X3790301Y-17106960D02*
X3780777Y-17087912D01*
X3780777Y-17087912D02*
X3780777Y-17068865D01*
X3780777Y-17068865D02*
X3790301Y-17049817D01*
X3790301Y-17049817D02*
X3809348Y-17040293D01*
X3809348Y-17040293D02*
X3856967Y-17040293D01*
X3856967Y-17040293D02*
X3876015Y-17030770D01*
X3971253Y-16983150D02*
X3971253Y-17183150D01*
X3971253Y-16992674D02*
X3990301Y-16983150D01*
X3990301Y-16983150D02*
X4028396Y-16983150D01*
X4028396Y-16983150D02*
X4047443Y-16992674D01*
X4047443Y-16992674D02*
X4056967Y-17002198D01*
X4056967Y-17002198D02*
X4066491Y-17021246D01*
X4066491Y-17021246D02*
X4066491Y-17078389D01*
X4066491Y-17078389D02*
X4056967Y-17097436D01*
X4056967Y-17097436D02*
X4047443Y-17106960D01*
X4047443Y-17106960D02*
X4028396Y-17116484D01*
X4028396Y-17116484D02*
X3990301Y-17116484D01*
X3990301Y-17116484D02*
X3971253Y-17106960D01*
X4152205Y-17097436D02*
X4161729Y-17106960D01*
X4161729Y-17106960D02*
X4152205Y-17116484D01*
X4152205Y-17116484D02*
X4142682Y-17106960D01*
X4142682Y-17106960D02*
X4152205Y-17097436D01*
X4152205Y-17097436D02*
X4152205Y-17116484D01*
X4152205Y-16992674D02*
X4161729Y-17002198D01*
X4161729Y-17002198D02*
X4152205Y-17011722D01*
X4152205Y-17011722D02*
X4142682Y-17002198D01*
X4142682Y-17002198D02*
X4152205Y-16992674D01*
X4152205Y-16992674D02*
X4152205Y-17011722D01*
X2320000Y-17345000D02*
X2520000Y-17545000D01*
X2520000Y-17345000D02*
X2320000Y-17545000D01*
X2761729Y-17336484D02*
X2885539Y-17336484D01*
X2885539Y-17336484D02*
X2818872Y-17412674D01*
X2818872Y-17412674D02*
X2847443Y-17412674D01*
X2847443Y-17412674D02*
X2866491Y-17422198D01*
X2866491Y-17422198D02*
X2876015Y-17431722D01*
X2876015Y-17431722D02*
X2885539Y-17450770D01*
X2885539Y-17450770D02*
X2885539Y-17498389D01*
X2885539Y-17498389D02*
X2876015Y-17517436D01*
X2876015Y-17517436D02*
X2866491Y-17526960D01*
X2866491Y-17526960D02*
X2847443Y-17536484D01*
X2847443Y-17536484D02*
X2790301Y-17536484D01*
X2790301Y-17536484D02*
X2771253Y-17526960D01*
X2771253Y-17526960D02*
X2761729Y-17517436D01*
X2971253Y-17517436D02*
X2980777Y-17526960D01*
X2980777Y-17526960D02*
X2971253Y-17536484D01*
X2971253Y-17536484D02*
X2961729Y-17526960D01*
X2961729Y-17526960D02*
X2971253Y-17517436D01*
X2971253Y-17517436D02*
X2971253Y-17536484D01*
X3056967Y-17355531D02*
X3066491Y-17346008D01*
X3066491Y-17346008D02*
X3085539Y-17336484D01*
X3085539Y-17336484D02*
X3133158Y-17336484D01*
X3133158Y-17336484D02*
X3152205Y-17346008D01*
X3152205Y-17346008D02*
X3161729Y-17355531D01*
X3161729Y-17355531D02*
X3171253Y-17374579D01*
X3171253Y-17374579D02*
X3171253Y-17393627D01*
X3171253Y-17393627D02*
X3161729Y-17422198D01*
X3161729Y-17422198D02*
X3047443Y-17536484D01*
X3047443Y-17536484D02*
X3171253Y-17536484D01*
X3295062Y-17336484D02*
X3314110Y-17336484D01*
X3314110Y-17336484D02*
X3333158Y-17346008D01*
X3333158Y-17346008D02*
X3342682Y-17355531D01*
X3342682Y-17355531D02*
X3352205Y-17374579D01*
X3352205Y-17374579D02*
X3361729Y-17412674D01*
X3361729Y-17412674D02*
X3361729Y-17460293D01*
X3361729Y-17460293D02*
X3352205Y-17498389D01*
X3352205Y-17498389D02*
X3342682Y-17517436D01*
X3342682Y-17517436D02*
X3333158Y-17526960D01*
X3333158Y-17526960D02*
X3314110Y-17536484D01*
X3314110Y-17536484D02*
X3295062Y-17536484D01*
X3295062Y-17536484D02*
X3276015Y-17526960D01*
X3276015Y-17526960D02*
X3266491Y-17517436D01*
X3266491Y-17517436D02*
X3256967Y-17498389D01*
X3256967Y-17498389D02*
X3247443Y-17460293D01*
X3247443Y-17460293D02*
X3247443Y-17412674D01*
X3247443Y-17412674D02*
X3256967Y-17374579D01*
X3256967Y-17374579D02*
X3266491Y-17355531D01*
X3266491Y-17355531D02*
X3276015Y-17346008D01*
X3276015Y-17346008D02*
X3295062Y-17336484D01*
X3485539Y-17336484D02*
X3504586Y-17336484D01*
X3504586Y-17336484D02*
X3523634Y-17346008D01*
X3523634Y-17346008D02*
X3533158Y-17355531D01*
X3533158Y-17355531D02*
X3542682Y-17374579D01*
X3542682Y-17374579D02*
X3552205Y-17412674D01*
X3552205Y-17412674D02*
X3552205Y-17460293D01*
X3552205Y-17460293D02*
X3542682Y-17498389D01*
X3542682Y-17498389D02*
X3533158Y-17517436D01*
X3533158Y-17517436D02*
X3523634Y-17526960D01*
X3523634Y-17526960D02*
X3504586Y-17536484D01*
X3504586Y-17536484D02*
X3485539Y-17536484D01*
X3485539Y-17536484D02*
X3466491Y-17526960D01*
X3466491Y-17526960D02*
X3456967Y-17517436D01*
X3456967Y-17517436D02*
X3447443Y-17498389D01*
X3447443Y-17498389D02*
X3437920Y-17460293D01*
X3437920Y-17460293D02*
X3437920Y-17412674D01*
X3437920Y-17412674D02*
X3447443Y-17374579D01*
X3447443Y-17374579D02*
X3456967Y-17355531D01*
X3456967Y-17355531D02*
X3466491Y-17346008D01*
X3466491Y-17346008D02*
X3485539Y-17336484D01*
X3637920Y-17536484D02*
X3637920Y-17403150D01*
X3637920Y-17422198D02*
X3647443Y-17412674D01*
X3647443Y-17412674D02*
X3666491Y-17403150D01*
X3666491Y-17403150D02*
X3695063Y-17403150D01*
X3695063Y-17403150D02*
X3714110Y-17412674D01*
X3714110Y-17412674D02*
X3723634Y-17431722D01*
X3723634Y-17431722D02*
X3723634Y-17536484D01*
X3723634Y-17431722D02*
X3733158Y-17412674D01*
X3733158Y-17412674D02*
X3752205Y-17403150D01*
X3752205Y-17403150D02*
X3780777Y-17403150D01*
X3780777Y-17403150D02*
X3799824Y-17412674D01*
X3799824Y-17412674D02*
X3809348Y-17431722D01*
X3809348Y-17431722D02*
X3809348Y-17536484D01*
X3904586Y-17536484D02*
X3904586Y-17403150D01*
X3904586Y-17422198D02*
X3914110Y-17412674D01*
X3914110Y-17412674D02*
X3933158Y-17403150D01*
X3933158Y-17403150D02*
X3961729Y-17403150D01*
X3961729Y-17403150D02*
X3980777Y-17412674D01*
X3980777Y-17412674D02*
X3990301Y-17431722D01*
X3990301Y-17431722D02*
X3990301Y-17536484D01*
X3990301Y-17431722D02*
X3999824Y-17412674D01*
X3999824Y-17412674D02*
X4018872Y-17403150D01*
X4018872Y-17403150D02*
X4047443Y-17403150D01*
X4047443Y-17403150D02*
X4066491Y-17412674D01*
X4066491Y-17412674D02*
X4076015Y-17431722D01*
X4076015Y-17431722D02*
X4076015Y-17536484D01*
X4466491Y-17326960D02*
X4295063Y-17584103D01*
X4723634Y-17336484D02*
X4742682Y-17336484D01*
X4742682Y-17336484D02*
X4761729Y-17346008D01*
X4761729Y-17346008D02*
X4771253Y-17355531D01*
X4771253Y-17355531D02*
X4780777Y-17374579D01*
X4780777Y-17374579D02*
X4790301Y-17412674D01*
X4790301Y-17412674D02*
X4790301Y-17460293D01*
X4790301Y-17460293D02*
X4780777Y-17498389D01*
X4780777Y-17498389D02*
X4771253Y-17517436D01*
X4771253Y-17517436D02*
X4761729Y-17526960D01*
X4761729Y-17526960D02*
X4742682Y-17536484D01*
X4742682Y-17536484D02*
X4723634Y-17536484D01*
X4723634Y-17536484D02*
X4704587Y-17526960D01*
X4704587Y-17526960D02*
X4695063Y-17517436D01*
X4695063Y-17517436D02*
X4685539Y-17498389D01*
X4685539Y-17498389D02*
X4676015Y-17460293D01*
X4676015Y-17460293D02*
X4676015Y-17412674D01*
X4676015Y-17412674D02*
X4685539Y-17374579D01*
X4685539Y-17374579D02*
X4695063Y-17355531D01*
X4695063Y-17355531D02*
X4704587Y-17346008D01*
X4704587Y-17346008D02*
X4723634Y-17336484D01*
X4876015Y-17517436D02*
X4885539Y-17526960D01*
X4885539Y-17526960D02*
X4876015Y-17536484D01*
X4876015Y-17536484D02*
X4866491Y-17526960D01*
X4866491Y-17526960D02*
X4876015Y-17517436D01*
X4876015Y-17517436D02*
X4876015Y-17536484D01*
X5076015Y-17536484D02*
X4961729Y-17536484D01*
X5018872Y-17536484D02*
X5018872Y-17336484D01*
X5018872Y-17336484D02*
X4999825Y-17365055D01*
X4999825Y-17365055D02*
X4980777Y-17384103D01*
X4980777Y-17384103D02*
X4961729Y-17393627D01*
X5152206Y-17355531D02*
X5161729Y-17346008D01*
X5161729Y-17346008D02*
X5180777Y-17336484D01*
X5180777Y-17336484D02*
X5228396Y-17336484D01*
X5228396Y-17336484D02*
X5247444Y-17346008D01*
X5247444Y-17346008D02*
X5256968Y-17355531D01*
X5256968Y-17355531D02*
X5266491Y-17374579D01*
X5266491Y-17374579D02*
X5266491Y-17393627D01*
X5266491Y-17393627D02*
X5256968Y-17422198D01*
X5256968Y-17422198D02*
X5142682Y-17536484D01*
X5142682Y-17536484D02*
X5266491Y-17536484D01*
X5437920Y-17336484D02*
X5399825Y-17336484D01*
X5399825Y-17336484D02*
X5380777Y-17346008D01*
X5380777Y-17346008D02*
X5371253Y-17355531D01*
X5371253Y-17355531D02*
X5352206Y-17384103D01*
X5352206Y-17384103D02*
X5342682Y-17422198D01*
X5342682Y-17422198D02*
X5342682Y-17498389D01*
X5342682Y-17498389D02*
X5352206Y-17517436D01*
X5352206Y-17517436D02*
X5361729Y-17526960D01*
X5361729Y-17526960D02*
X5380777Y-17536484D01*
X5380777Y-17536484D02*
X5418872Y-17536484D01*
X5418872Y-17536484D02*
X5437920Y-17526960D01*
X5437920Y-17526960D02*
X5447444Y-17517436D01*
X5447444Y-17517436D02*
X5456968Y-17498389D01*
X5456968Y-17498389D02*
X5456968Y-17450770D01*
X5456968Y-17450770D02*
X5447444Y-17431722D01*
X5447444Y-17431722D02*
X5437920Y-17422198D01*
X5437920Y-17422198D02*
X5418872Y-17412674D01*
X5418872Y-17412674D02*
X5380777Y-17412674D01*
X5380777Y-17412674D02*
X5361729Y-17422198D01*
X5361729Y-17422198D02*
X5352206Y-17431722D01*
X5352206Y-17431722D02*
X5342682Y-17450770D01*
X5580777Y-17336484D02*
X5599825Y-17336484D01*
X5599825Y-17336484D02*
X5618872Y-17346008D01*
X5618872Y-17346008D02*
X5628396Y-17355531D01*
X5628396Y-17355531D02*
X5637920Y-17374579D01*
X5637920Y-17374579D02*
X5647444Y-17412674D01*
X5647444Y-17412674D02*
X5647444Y-17460293D01*
X5647444Y-17460293D02*
X5637920Y-17498389D01*
X5637920Y-17498389D02*
X5628396Y-17517436D01*
X5628396Y-17517436D02*
X5618872Y-17526960D01*
X5618872Y-17526960D02*
X5599825Y-17536484D01*
X5599825Y-17536484D02*
X5580777Y-17536484D01*
X5580777Y-17536484D02*
X5561729Y-17526960D01*
X5561729Y-17526960D02*
X5552206Y-17517436D01*
X5552206Y-17517436D02*
X5542682Y-17498389D01*
X5542682Y-17498389D02*
X5533158Y-17460293D01*
X5533158Y-17460293D02*
X5533158Y-17412674D01*
X5533158Y-17412674D02*
X5542682Y-17374579D01*
X5542682Y-17374579D02*
X5552206Y-17355531D01*
X5552206Y-17355531D02*
X5561729Y-17346008D01*
X5561729Y-17346008D02*
X5580777Y-17336484D01*
X5723634Y-17336484D02*
X5723634Y-17374579D01*
X5799825Y-17336484D02*
X5799825Y-17374579D01*
X6095063Y-17612674D02*
X6085539Y-17603150D01*
X6085539Y-17603150D02*
X6066491Y-17574579D01*
X6066491Y-17574579D02*
X6056968Y-17555531D01*
X6056968Y-17555531D02*
X6047444Y-17526960D01*
X6047444Y-17526960D02*
X6037920Y-17479341D01*
X6037920Y-17479341D02*
X6037920Y-17441246D01*
X6037920Y-17441246D02*
X6047444Y-17393627D01*
X6047444Y-17393627D02*
X6056968Y-17365055D01*
X6056968Y-17365055D02*
X6066491Y-17346008D01*
X6066491Y-17346008D02*
X6085539Y-17317436D01*
X6085539Y-17317436D02*
X6095063Y-17307912D01*
X6266491Y-17336484D02*
X6171253Y-17336484D01*
X6171253Y-17336484D02*
X6161729Y-17431722D01*
X6161729Y-17431722D02*
X6171253Y-17422198D01*
X6171253Y-17422198D02*
X6190301Y-17412674D01*
X6190301Y-17412674D02*
X6237920Y-17412674D01*
X6237920Y-17412674D02*
X6256968Y-17422198D01*
X6256968Y-17422198D02*
X6266491Y-17431722D01*
X6266491Y-17431722D02*
X6276015Y-17450770D01*
X6276015Y-17450770D02*
X6276015Y-17498389D01*
X6276015Y-17498389D02*
X6266491Y-17517436D01*
X6266491Y-17517436D02*
X6256968Y-17526960D01*
X6256968Y-17526960D02*
X6237920Y-17536484D01*
X6237920Y-17536484D02*
X6190301Y-17536484D01*
X6190301Y-17536484D02*
X6171253Y-17526960D01*
X6171253Y-17526960D02*
X6161729Y-17517436D01*
X6514110Y-17536484D02*
X6514110Y-17336484D01*
X6599825Y-17536484D02*
X6599825Y-17431722D01*
X6599825Y-17431722D02*
X6590301Y-17412674D01*
X6590301Y-17412674D02*
X6571253Y-17403150D01*
X6571253Y-17403150D02*
X6542682Y-17403150D01*
X6542682Y-17403150D02*
X6523634Y-17412674D01*
X6523634Y-17412674D02*
X6514110Y-17422198D01*
X6723634Y-17536484D02*
X6704587Y-17526960D01*
X6704587Y-17526960D02*
X6695063Y-17517436D01*
X6695063Y-17517436D02*
X6685539Y-17498389D01*
X6685539Y-17498389D02*
X6685539Y-17441246D01*
X6685539Y-17441246D02*
X6695063Y-17422198D01*
X6695063Y-17422198D02*
X6704587Y-17412674D01*
X6704587Y-17412674D02*
X6723634Y-17403150D01*
X6723634Y-17403150D02*
X6752206Y-17403150D01*
X6752206Y-17403150D02*
X6771253Y-17412674D01*
X6771253Y-17412674D02*
X6780777Y-17422198D01*
X6780777Y-17422198D02*
X6790301Y-17441246D01*
X6790301Y-17441246D02*
X6790301Y-17498389D01*
X6790301Y-17498389D02*
X6780777Y-17517436D01*
X6780777Y-17517436D02*
X6771253Y-17526960D01*
X6771253Y-17526960D02*
X6752206Y-17536484D01*
X6752206Y-17536484D02*
X6723634Y-17536484D01*
X6904587Y-17536484D02*
X6885539Y-17526960D01*
X6885539Y-17526960D02*
X6876015Y-17507912D01*
X6876015Y-17507912D02*
X6876015Y-17336484D01*
X7056968Y-17526960D02*
X7037920Y-17536484D01*
X7037920Y-17536484D02*
X6999825Y-17536484D01*
X6999825Y-17536484D02*
X6980777Y-17526960D01*
X6980777Y-17526960D02*
X6971253Y-17507912D01*
X6971253Y-17507912D02*
X6971253Y-17431722D01*
X6971253Y-17431722D02*
X6980777Y-17412674D01*
X6980777Y-17412674D02*
X6999825Y-17403150D01*
X6999825Y-17403150D02*
X7037920Y-17403150D01*
X7037920Y-17403150D02*
X7056968Y-17412674D01*
X7056968Y-17412674D02*
X7066491Y-17431722D01*
X7066491Y-17431722D02*
X7066491Y-17450770D01*
X7066491Y-17450770D02*
X6971253Y-17469817D01*
X7142682Y-17526960D02*
X7161730Y-17536484D01*
X7161730Y-17536484D02*
X7199825Y-17536484D01*
X7199825Y-17536484D02*
X7218872Y-17526960D01*
X7218872Y-17526960D02*
X7228396Y-17507912D01*
X7228396Y-17507912D02*
X7228396Y-17498389D01*
X7228396Y-17498389D02*
X7218872Y-17479341D01*
X7218872Y-17479341D02*
X7199825Y-17469817D01*
X7199825Y-17469817D02*
X7171253Y-17469817D01*
X7171253Y-17469817D02*
X7152206Y-17460293D01*
X7152206Y-17460293D02*
X7142682Y-17441246D01*
X7142682Y-17441246D02*
X7142682Y-17431722D01*
X7142682Y-17431722D02*
X7152206Y-17412674D01*
X7152206Y-17412674D02*
X7171253Y-17403150D01*
X7171253Y-17403150D02*
X7199825Y-17403150D01*
X7199825Y-17403150D02*
X7218872Y-17412674D01*
X7295063Y-17612674D02*
X7304587Y-17603150D01*
X7304587Y-17603150D02*
X7323634Y-17574579D01*
X7323634Y-17574579D02*
X7333158Y-17555531D01*
X7333158Y-17555531D02*
X7342682Y-17526960D01*
X7342682Y-17526960D02*
X7352206Y-17479341D01*
X7352206Y-17479341D02*
X7352206Y-17441246D01*
X7352206Y-17441246D02*
X7342682Y-17393627D01*
X7342682Y-17393627D02*
X7333158Y-17365055D01*
X7333158Y-17365055D02*
X7323634Y-17346008D01*
X7323634Y-17346008D02*
X7304587Y-17317436D01*
X7304587Y-17317436D02*
X7295063Y-17307912D01*
X7656968Y-17612674D02*
X7647444Y-17603150D01*
X7647444Y-17603150D02*
X7628396Y-17574579D01*
X7628396Y-17574579D02*
X7618872Y-17555531D01*
X7618872Y-17555531D02*
X7609349Y-17526960D01*
X7609349Y-17526960D02*
X7599825Y-17479341D01*
X7599825Y-17479341D02*
X7599825Y-17441246D01*
X7599825Y-17441246D02*
X7609349Y-17393627D01*
X7609349Y-17393627D02*
X7618872Y-17365055D01*
X7618872Y-17365055D02*
X7628396Y-17346008D01*
X7628396Y-17346008D02*
X7647444Y-17317436D01*
X7647444Y-17317436D02*
X7656968Y-17307912D01*
X7733158Y-17403150D02*
X7733158Y-17536484D01*
X7733158Y-17422198D02*
X7742682Y-17412674D01*
X7742682Y-17412674D02*
X7761730Y-17403150D01*
X7761730Y-17403150D02*
X7790301Y-17403150D01*
X7790301Y-17403150D02*
X7809349Y-17412674D01*
X7809349Y-17412674D02*
X7818872Y-17431722D01*
X7818872Y-17431722D02*
X7818872Y-17536484D01*
X7942682Y-17536484D02*
X7923634Y-17526960D01*
X7923634Y-17526960D02*
X7914111Y-17517436D01*
X7914111Y-17517436D02*
X7904587Y-17498389D01*
X7904587Y-17498389D02*
X7904587Y-17441246D01*
X7904587Y-17441246D02*
X7914111Y-17422198D01*
X7914111Y-17422198D02*
X7923634Y-17412674D01*
X7923634Y-17412674D02*
X7942682Y-17403150D01*
X7942682Y-17403150D02*
X7971253Y-17403150D01*
X7971253Y-17403150D02*
X7990301Y-17412674D01*
X7990301Y-17412674D02*
X7999825Y-17422198D01*
X7999825Y-17422198D02*
X8009349Y-17441246D01*
X8009349Y-17441246D02*
X8009349Y-17498389D01*
X8009349Y-17498389D02*
X7999825Y-17517436D01*
X7999825Y-17517436D02*
X7990301Y-17526960D01*
X7990301Y-17526960D02*
X7971253Y-17536484D01*
X7971253Y-17536484D02*
X7942682Y-17536484D01*
X8066492Y-17403150D02*
X8142682Y-17403150D01*
X8095063Y-17336484D02*
X8095063Y-17507912D01*
X8095063Y-17507912D02*
X8104587Y-17526960D01*
X8104587Y-17526960D02*
X8123634Y-17536484D01*
X8123634Y-17536484D02*
X8142682Y-17536484D01*
X8361730Y-17403150D02*
X8361730Y-17603150D01*
X8361730Y-17412674D02*
X8380777Y-17403150D01*
X8380777Y-17403150D02*
X8418873Y-17403150D01*
X8418873Y-17403150D02*
X8437920Y-17412674D01*
X8437920Y-17412674D02*
X8447444Y-17422198D01*
X8447444Y-17422198D02*
X8456968Y-17441246D01*
X8456968Y-17441246D02*
X8456968Y-17498389D01*
X8456968Y-17498389D02*
X8447444Y-17517436D01*
X8447444Y-17517436D02*
X8437920Y-17526960D01*
X8437920Y-17526960D02*
X8418873Y-17536484D01*
X8418873Y-17536484D02*
X8380777Y-17536484D01*
X8380777Y-17536484D02*
X8361730Y-17526960D01*
X8571254Y-17536484D02*
X8552206Y-17526960D01*
X8552206Y-17526960D02*
X8542682Y-17507912D01*
X8542682Y-17507912D02*
X8542682Y-17336484D01*
X8733158Y-17536484D02*
X8733158Y-17431722D01*
X8733158Y-17431722D02*
X8723635Y-17412674D01*
X8723635Y-17412674D02*
X8704587Y-17403150D01*
X8704587Y-17403150D02*
X8666492Y-17403150D01*
X8666492Y-17403150D02*
X8647444Y-17412674D01*
X8733158Y-17526960D02*
X8714111Y-17536484D01*
X8714111Y-17536484D02*
X8666492Y-17536484D01*
X8666492Y-17536484D02*
X8647444Y-17526960D01*
X8647444Y-17526960D02*
X8637920Y-17507912D01*
X8637920Y-17507912D02*
X8637920Y-17488865D01*
X8637920Y-17488865D02*
X8647444Y-17469817D01*
X8647444Y-17469817D02*
X8666492Y-17460293D01*
X8666492Y-17460293D02*
X8714111Y-17460293D01*
X8714111Y-17460293D02*
X8733158Y-17450770D01*
X8799825Y-17403150D02*
X8876015Y-17403150D01*
X8828396Y-17336484D02*
X8828396Y-17507912D01*
X8828396Y-17507912D02*
X8837920Y-17526960D01*
X8837920Y-17526960D02*
X8856968Y-17536484D01*
X8856968Y-17536484D02*
X8876015Y-17536484D01*
X9018873Y-17526960D02*
X8999825Y-17536484D01*
X8999825Y-17536484D02*
X8961730Y-17536484D01*
X8961730Y-17536484D02*
X8942682Y-17526960D01*
X8942682Y-17526960D02*
X8933158Y-17507912D01*
X8933158Y-17507912D02*
X8933158Y-17431722D01*
X8933158Y-17431722D02*
X8942682Y-17412674D01*
X8942682Y-17412674D02*
X8961730Y-17403150D01*
X8961730Y-17403150D02*
X8999825Y-17403150D01*
X8999825Y-17403150D02*
X9018873Y-17412674D01*
X9018873Y-17412674D02*
X9028396Y-17431722D01*
X9028396Y-17431722D02*
X9028396Y-17450770D01*
X9028396Y-17450770D02*
X8933158Y-17469817D01*
X9199825Y-17536484D02*
X9199825Y-17336484D01*
X9199825Y-17526960D02*
X9180777Y-17536484D01*
X9180777Y-17536484D02*
X9142682Y-17536484D01*
X9142682Y-17536484D02*
X9123635Y-17526960D01*
X9123635Y-17526960D02*
X9114111Y-17517436D01*
X9114111Y-17517436D02*
X9104587Y-17498389D01*
X9104587Y-17498389D02*
X9104587Y-17441246D01*
X9104587Y-17441246D02*
X9114111Y-17422198D01*
X9114111Y-17422198D02*
X9123635Y-17412674D01*
X9123635Y-17412674D02*
X9142682Y-17403150D01*
X9142682Y-17403150D02*
X9180777Y-17403150D01*
X9180777Y-17403150D02*
X9199825Y-17412674D01*
X9276016Y-17612674D02*
X9285539Y-17603150D01*
X9285539Y-17603150D02*
X9304587Y-17574579D01*
X9304587Y-17574579D02*
X9314111Y-17555531D01*
X9314111Y-17555531D02*
X9323635Y-17526960D01*
X9323635Y-17526960D02*
X9333158Y-17479341D01*
X9333158Y-17479341D02*
X9333158Y-17441246D01*
X9333158Y-17441246D02*
X9323635Y-17393627D01*
X9323635Y-17393627D02*
X9314111Y-17365055D01*
X9314111Y-17365055D02*
X9304587Y-17346008D01*
X9304587Y-17346008D02*
X9285539Y-17317436D01*
X9285539Y-17317436D02*
X9276016Y-17307912D01*
M02*
