M48
; DRILL file {KiCad 8.0.5} date 2025-06-20T13:32:48+0200
; FORMAT={-:-/ absolute / metric / decimal}
; #@! TF.CreationDate,2025-06-20T13:32:48+02:00
; #@! TF.GenerationSoftware,Kicad,Pcbnew,8.0.5
; #@! TF.FileFunction,Plated,1,2,PTH
FMAT,2
METRIC
; #@! TA.AperFunction,Plated,PTH,ViaDrill
T1C0.300
; #@! TA.AperFunction,Plated,PTH,ViaDrill
T2C0.400
; #@! TA.AperFunction,Plated,PTH,ComponentDrill
T3C1.020
; #@! TA.AperFunction,Plated,PTH,ComponentDrill
T4C1.200
; #@! TA.AperFunction,Plated,PTH,ComponentDrill
T5C2.000
; #@! TA.AperFunction,Plated,PTH,ComponentDrill
T6C2.700
; #@! TA.AperFunction,Plated,PTH,ComponentDrill
T7C4.500
; #@! TA.AperFunction,Plated,PTH,ComponentDrill
T8C6.000
%
G90
G05
T1
X51.5Y-32.5
X52.0Y-33.0
X57.712Y-45.0
X57.712Y-46.0
X69.0Y-46.0
X72.439Y-46.0
X72.5Y-50.0
X75.5Y-46.884
X77.0Y-53.0
X78.5Y-56.0
X81.0Y-25.5
X81.566Y-26.5
X82.25Y-28.25
X82.71Y-28.71
X83.5Y-29.5
X83.5Y-30.5
X86.0Y-26.5
X88.5Y-45.0
X90.5Y-27.525
X92.0Y-52.5
X92.5Y-24.65
X92.5Y-27.5
X92.5Y-31.0
X93.0Y-25.5
X93.0Y-29.45
X93.4Y-28.4
X93.5Y-24.15
X95.0Y-46.0
X95.0Y-47.0
X97.0Y-52.0
X97.037Y-27.5
X98.0Y-52.5
X98.5Y-56.5
X98.975Y-56.025
X100.5Y-27.5
X101.5Y-28.0
X101.5Y-31.0
X102.0Y-29.45
X106.0Y-28.0
X108.5Y-27.5
X109.5Y-28.025
X109.5Y-39.0
X110.0Y-26.5
X110.475Y-32.475
X110.5Y-28.0
X111.0Y-29.45
X112.5Y-35.5
X114.0Y-35.5
X114.5Y-26.5
X117.0Y-46.0
X117.5Y-27.0
X118.0Y-41.95
X118.571Y-28.214
X119.5Y-28.0
X119.5Y-32.5
X119.5Y-58.055
X120.0Y-29.45
X122.0Y-26.0
X122.0Y-46.0
X126.0Y-29.0
X126.3Y-43.234
X126.5Y-25.5
X126.75Y-27.25
X127.0Y-44.0
X128.0Y-29.5
X128.5Y-23.5
X129.0Y-31.5
X130.0Y-31.5
X131.5Y-27.5
X135.5Y-36.5
X135.5Y-37.5
X135.5Y-38.5
X137.977Y-38.437
X138.508Y-38.062
X139.188Y-37.227
T2
X27.65Y-47.5
X28.6Y-30.85
X29.325Y-40.5
X30.25Y-37.0
X33.0Y-50.5
X33.5Y-36.905
X35.0Y-71.5
X37.0Y-44.5
X43.8Y-35.5
X43.8Y-40.5
X52.5Y-42.5
X52.5Y-49.5
X55.0Y-71.5
X70.5Y-72.0
X74.037Y-71.537
X90.5Y-72.0
X96.537Y-72.037
X99.0Y-23.5
X112.0Y-72.0
X117.5Y-72.037
X131.0Y-33.5
X132.0Y-72.0
X137.5Y-26.5
X138.0Y-23.5
X141.55Y-30.95
X146.5Y-66.0
X147.435Y-49.725
X148.275Y-49.0
X150.25Y-34.25
X152.0Y-65.5
X152.5Y-38.5
X153.0Y-56.0
X153.5Y-47.0
X153.5Y-53.0
X154.5Y-51.0
X155.5Y-48.5
X155.5Y-53.5
X155.5Y-55.0
X171.5Y-66.0
T3
X142.11Y-41.87
X142.11Y-44.41
X142.11Y-46.95
X142.11Y-49.49
X142.11Y-52.03
X142.11Y-54.57
X142.11Y-57.11
X142.11Y-59.65
X142.11Y-62.19
X142.11Y-64.73
X142.11Y-67.27
X142.11Y-69.81
X142.11Y-72.35
X142.11Y-74.89
X142.11Y-77.43
X142.11Y-79.97
X142.11Y-82.51
X142.11Y-85.05
X142.11Y-87.59
X142.11Y-90.13
X148.46Y-89.9
X151.0Y-89.9
X153.54Y-89.9
X159.89Y-41.87
X159.89Y-44.41
X159.89Y-46.95
X159.89Y-49.49
X159.89Y-52.03
X159.89Y-54.57
X159.89Y-57.11
X159.89Y-59.65
X159.89Y-62.19
X159.89Y-64.73
X159.89Y-67.27
X159.89Y-69.81
X159.89Y-72.35
X159.89Y-74.89
X159.89Y-77.43
X159.89Y-79.97
X159.89Y-82.51
X159.89Y-85.05
X159.89Y-87.59
X159.89Y-90.13
T4
X170.0Y-36.5
X170.0Y-39.04
X170.15Y-53.46
X170.15Y-56.0
X170.15Y-100.69
X170.15Y-103.23
X170.15Y-105.77
X170.15Y-108.31
X170.15Y-112.69
X170.15Y-115.23
X170.15Y-117.77
X170.15Y-120.31
T6
X117.5Y-81.5
X117.5Y-88.5
X117.5Y-95.5
X117.5Y-102.5
X117.5Y-109.5
X117.5Y-116.5
X117.5Y-123.5
X117.5Y-130.5
X117.5Y-137.5
X117.5Y-144.5
X117.5Y-151.5
X120.5Y-37.0
X122.5Y-81.5
X122.5Y-88.5
X122.5Y-95.5
X122.5Y-102.5
X122.5Y-109.5
X122.5Y-116.5
X122.5Y-123.5
X122.5Y-130.5
X122.5Y-137.5
X122.5Y-144.5
X122.5Y-151.5
X125.5Y-37.0
T7
X54.7Y-81.0
X54.7Y-91.5
X54.7Y-144.0
X54.7Y-154.5
X54.8Y-102.0
X54.8Y-112.5
X54.8Y-123.0
X54.8Y-133.5
X60.2Y-37.5
X61.4Y-81.0
X61.4Y-91.5
X61.4Y-144.0
X61.4Y-154.5
X61.5Y-102.0
X61.5Y-112.5
X61.5Y-123.0
X61.5Y-133.5
X66.9Y-37.5
X73.9Y-81.0
X73.9Y-91.5
X73.9Y-102.0
X73.9Y-112.5
X73.9Y-123.0
X73.9Y-133.5
X73.9Y-144.0
X73.9Y-154.5
X76.5Y-37.5
X81.1Y-81.0
X81.1Y-91.5
X81.1Y-102.0
X81.1Y-112.5
X81.1Y-123.0
X81.1Y-133.5
X81.1Y-144.0
X81.1Y-154.5
X83.7Y-37.5
X94.9Y-81.0
X94.9Y-102.5
X94.9Y-113.0
X94.9Y-123.5
X94.9Y-134.0
X94.9Y-144.5
X94.9Y-155.0
X96.3Y-37.5
X102.1Y-81.0
X102.1Y-102.5
X102.1Y-113.0
X102.1Y-123.5
X102.1Y-134.0
X102.1Y-144.5
X102.1Y-155.0
X103.5Y-37.5
T8
X32.5Y-81.0
X32.5Y-91.5
X32.5Y-102.0
X32.5Y-112.5
X32.5Y-123.0
X32.5Y-133.5
X32.5Y-144.0
X32.5Y-154.5
X37.0Y-26.5
X43.5Y-81.0
X43.5Y-91.5
X43.5Y-102.0
X43.5Y-112.5
X43.5Y-123.0
X43.5Y-133.5
X43.5Y-144.0
X43.5Y-154.5
X48.0Y-26.5
X64.5Y-26.5
X75.5Y-26.5
T5
G00X31.85Y-67.0
M15
G01X35.85Y-67.0
M16
G05
G00X41.15Y-67.0
M15
G01X45.15Y-67.0
M16
G05
G00X52.35Y-67.0
M15
G01X56.35Y-67.0
M16
G05
G00X61.65Y-67.0
M15
G01X65.65Y-67.0
M16
G05
G00X72.85Y-67.0
M15
G01X76.85Y-67.0
M16
G05
G00X82.15Y-67.0
M15
G01X86.15Y-67.0
M16
G05
G00X93.35Y-67.0
M15
G01X97.35Y-67.0
M16
G05
G00X102.65Y-67.0
M15
G01X106.65Y-67.0
M16
G05
G00X113.85Y-67.0
M15
G01X117.85Y-67.0
M16
G05
G00X123.15Y-67.0
M15
G01X127.15Y-67.0
M16
G05
M30
