%TF.GenerationSoftware,KiCad,Pcbnew,8.0.5*%
%TF.CreationDate,2025-06-20T11:11:49+02:00*%
%TF.ProjectId,PowerBoard,506f7765-7242-46f6-9172-642e6b696361,rev?*%
%TF.SameCoordinates,Original*%
%TF.FileFunction,Legend,Bot*%
%TF.FilePolarity,Positive*%
%FSLAX46Y46*%
G04 Gerber Fmt 4.6, Leading zero omitted, Abs format (unit mm)*
G04 Created by KiCad (PCBNEW 8.0.5) date 2025-06-20 11:11:49*
%MOMM*%
%LPD*%
G01*
G04 APERTURE LIST*
%ADD10C,0.150000*%
%ADD11C,0.120000*%
G04 APERTURE END LIST*
D10*
X160992319Y-38067142D02*
X160516128Y-37733809D01*
X160992319Y-37495714D02*
X159992319Y-37495714D01*
X159992319Y-37495714D02*
X159992319Y-37876666D01*
X159992319Y-37876666D02*
X160039938Y-37971904D01*
X160039938Y-37971904D02*
X160087557Y-38019523D01*
X160087557Y-38019523D02*
X160182795Y-38067142D01*
X160182795Y-38067142D02*
X160325652Y-38067142D01*
X160325652Y-38067142D02*
X160420890Y-38019523D01*
X160420890Y-38019523D02*
X160468509Y-37971904D01*
X160468509Y-37971904D02*
X160516128Y-37876666D01*
X160516128Y-37876666D02*
X160516128Y-37495714D01*
X160325652Y-38924285D02*
X160992319Y-38924285D01*
X159944700Y-38686190D02*
X160658985Y-38448095D01*
X160658985Y-38448095D02*
X160658985Y-39067142D01*
X160992319Y-39971904D02*
X160992319Y-39400476D01*
X160992319Y-39686190D02*
X159992319Y-39686190D01*
X159992319Y-39686190D02*
X160135176Y-39590952D01*
X160135176Y-39590952D02*
X160230414Y-39495714D01*
X160230414Y-39495714D02*
X160278033Y-39400476D01*
X173642857Y-91954819D02*
X173976190Y-91478628D01*
X174214285Y-91954819D02*
X174214285Y-90954819D01*
X174214285Y-90954819D02*
X173833333Y-90954819D01*
X173833333Y-90954819D02*
X173738095Y-91002438D01*
X173738095Y-91002438D02*
X173690476Y-91050057D01*
X173690476Y-91050057D02*
X173642857Y-91145295D01*
X173642857Y-91145295D02*
X173642857Y-91288152D01*
X173642857Y-91288152D02*
X173690476Y-91383390D01*
X173690476Y-91383390D02*
X173738095Y-91431009D01*
X173738095Y-91431009D02*
X173833333Y-91478628D01*
X173833333Y-91478628D02*
X174214285Y-91478628D01*
X173261904Y-91050057D02*
X173214285Y-91002438D01*
X173214285Y-91002438D02*
X173119047Y-90954819D01*
X173119047Y-90954819D02*
X172880952Y-90954819D01*
X172880952Y-90954819D02*
X172785714Y-91002438D01*
X172785714Y-91002438D02*
X172738095Y-91050057D01*
X172738095Y-91050057D02*
X172690476Y-91145295D01*
X172690476Y-91145295D02*
X172690476Y-91240533D01*
X172690476Y-91240533D02*
X172738095Y-91383390D01*
X172738095Y-91383390D02*
X173309523Y-91954819D01*
X173309523Y-91954819D02*
X172690476Y-91954819D01*
X172214285Y-91954819D02*
X172023809Y-91954819D01*
X172023809Y-91954819D02*
X171928571Y-91907200D01*
X171928571Y-91907200D02*
X171880952Y-91859580D01*
X171880952Y-91859580D02*
X171785714Y-91716723D01*
X171785714Y-91716723D02*
X171738095Y-91526247D01*
X171738095Y-91526247D02*
X171738095Y-91145295D01*
X171738095Y-91145295D02*
X171785714Y-91050057D01*
X171785714Y-91050057D02*
X171833333Y-91002438D01*
X171833333Y-91002438D02*
X171928571Y-90954819D01*
X171928571Y-90954819D02*
X172119047Y-90954819D01*
X172119047Y-90954819D02*
X172214285Y-91002438D01*
X172214285Y-91002438D02*
X172261904Y-91050057D01*
X172261904Y-91050057D02*
X172309523Y-91145295D01*
X172309523Y-91145295D02*
X172309523Y-91383390D01*
X172309523Y-91383390D02*
X172261904Y-91478628D01*
X172261904Y-91478628D02*
X172214285Y-91526247D01*
X172214285Y-91526247D02*
X172119047Y-91573866D01*
X172119047Y-91573866D02*
X171928571Y-91573866D01*
X171928571Y-91573866D02*
X171833333Y-91526247D01*
X171833333Y-91526247D02*
X171785714Y-91478628D01*
X171785714Y-91478628D02*
X171738095Y-91383390D01*
X139454819Y-54357142D02*
X138978628Y-54023809D01*
X139454819Y-53785714D02*
X138454819Y-53785714D01*
X138454819Y-53785714D02*
X138454819Y-54166666D01*
X138454819Y-54166666D02*
X138502438Y-54261904D01*
X138502438Y-54261904D02*
X138550057Y-54309523D01*
X138550057Y-54309523D02*
X138645295Y-54357142D01*
X138645295Y-54357142D02*
X138788152Y-54357142D01*
X138788152Y-54357142D02*
X138883390Y-54309523D01*
X138883390Y-54309523D02*
X138931009Y-54261904D01*
X138931009Y-54261904D02*
X138978628Y-54166666D01*
X138978628Y-54166666D02*
X138978628Y-53785714D01*
X138454819Y-54690476D02*
X138454819Y-55309523D01*
X138454819Y-55309523D02*
X138835771Y-54976190D01*
X138835771Y-54976190D02*
X138835771Y-55119047D01*
X138835771Y-55119047D02*
X138883390Y-55214285D01*
X138883390Y-55214285D02*
X138931009Y-55261904D01*
X138931009Y-55261904D02*
X139026247Y-55309523D01*
X139026247Y-55309523D02*
X139264342Y-55309523D01*
X139264342Y-55309523D02*
X139359580Y-55261904D01*
X139359580Y-55261904D02*
X139407200Y-55214285D01*
X139407200Y-55214285D02*
X139454819Y-55119047D01*
X139454819Y-55119047D02*
X139454819Y-54833333D01*
X139454819Y-54833333D02*
X139407200Y-54738095D01*
X139407200Y-54738095D02*
X139359580Y-54690476D01*
X138883390Y-55880952D02*
X138835771Y-55785714D01*
X138835771Y-55785714D02*
X138788152Y-55738095D01*
X138788152Y-55738095D02*
X138692914Y-55690476D01*
X138692914Y-55690476D02*
X138645295Y-55690476D01*
X138645295Y-55690476D02*
X138550057Y-55738095D01*
X138550057Y-55738095D02*
X138502438Y-55785714D01*
X138502438Y-55785714D02*
X138454819Y-55880952D01*
X138454819Y-55880952D02*
X138454819Y-56071428D01*
X138454819Y-56071428D02*
X138502438Y-56166666D01*
X138502438Y-56166666D02*
X138550057Y-56214285D01*
X138550057Y-56214285D02*
X138645295Y-56261904D01*
X138645295Y-56261904D02*
X138692914Y-56261904D01*
X138692914Y-56261904D02*
X138788152Y-56214285D01*
X138788152Y-56214285D02*
X138835771Y-56166666D01*
X138835771Y-56166666D02*
X138883390Y-56071428D01*
X138883390Y-56071428D02*
X138883390Y-55880952D01*
X138883390Y-55880952D02*
X138931009Y-55785714D01*
X138931009Y-55785714D02*
X138978628Y-55738095D01*
X138978628Y-55738095D02*
X139073866Y-55690476D01*
X139073866Y-55690476D02*
X139264342Y-55690476D01*
X139264342Y-55690476D02*
X139359580Y-55738095D01*
X139359580Y-55738095D02*
X139407200Y-55785714D01*
X139407200Y-55785714D02*
X139454819Y-55880952D01*
X139454819Y-55880952D02*
X139454819Y-56071428D01*
X139454819Y-56071428D02*
X139407200Y-56166666D01*
X139407200Y-56166666D02*
X139359580Y-56214285D01*
X139359580Y-56214285D02*
X139264342Y-56261904D01*
X139264342Y-56261904D02*
X139073866Y-56261904D01*
X139073866Y-56261904D02*
X138978628Y-56214285D01*
X138978628Y-56214285D02*
X138931009Y-56166666D01*
X138931009Y-56166666D02*
X138883390Y-56071428D01*
X167642857Y-91992319D02*
X167976190Y-91516128D01*
X168214285Y-91992319D02*
X168214285Y-90992319D01*
X168214285Y-90992319D02*
X167833333Y-90992319D01*
X167833333Y-90992319D02*
X167738095Y-91039938D01*
X167738095Y-91039938D02*
X167690476Y-91087557D01*
X167690476Y-91087557D02*
X167642857Y-91182795D01*
X167642857Y-91182795D02*
X167642857Y-91325652D01*
X167642857Y-91325652D02*
X167690476Y-91420890D01*
X167690476Y-91420890D02*
X167738095Y-91468509D01*
X167738095Y-91468509D02*
X167833333Y-91516128D01*
X167833333Y-91516128D02*
X168214285Y-91516128D01*
X167261904Y-91087557D02*
X167214285Y-91039938D01*
X167214285Y-91039938D02*
X167119047Y-90992319D01*
X167119047Y-90992319D02*
X166880952Y-90992319D01*
X166880952Y-90992319D02*
X166785714Y-91039938D01*
X166785714Y-91039938D02*
X166738095Y-91087557D01*
X166738095Y-91087557D02*
X166690476Y-91182795D01*
X166690476Y-91182795D02*
X166690476Y-91278033D01*
X166690476Y-91278033D02*
X166738095Y-91420890D01*
X166738095Y-91420890D02*
X167309523Y-91992319D01*
X167309523Y-91992319D02*
X166690476Y-91992319D01*
X166357142Y-90992319D02*
X165690476Y-90992319D01*
X165690476Y-90992319D02*
X166119047Y-91992319D01*
X170642857Y-91992319D02*
X170976190Y-91516128D01*
X171214285Y-91992319D02*
X171214285Y-90992319D01*
X171214285Y-90992319D02*
X170833333Y-90992319D01*
X170833333Y-90992319D02*
X170738095Y-91039938D01*
X170738095Y-91039938D02*
X170690476Y-91087557D01*
X170690476Y-91087557D02*
X170642857Y-91182795D01*
X170642857Y-91182795D02*
X170642857Y-91325652D01*
X170642857Y-91325652D02*
X170690476Y-91420890D01*
X170690476Y-91420890D02*
X170738095Y-91468509D01*
X170738095Y-91468509D02*
X170833333Y-91516128D01*
X170833333Y-91516128D02*
X171214285Y-91516128D01*
X170261904Y-91087557D02*
X170214285Y-91039938D01*
X170214285Y-91039938D02*
X170119047Y-90992319D01*
X170119047Y-90992319D02*
X169880952Y-90992319D01*
X169880952Y-90992319D02*
X169785714Y-91039938D01*
X169785714Y-91039938D02*
X169738095Y-91087557D01*
X169738095Y-91087557D02*
X169690476Y-91182795D01*
X169690476Y-91182795D02*
X169690476Y-91278033D01*
X169690476Y-91278033D02*
X169738095Y-91420890D01*
X169738095Y-91420890D02*
X170309523Y-91992319D01*
X170309523Y-91992319D02*
X169690476Y-91992319D01*
X169119047Y-91420890D02*
X169214285Y-91373271D01*
X169214285Y-91373271D02*
X169261904Y-91325652D01*
X169261904Y-91325652D02*
X169309523Y-91230414D01*
X169309523Y-91230414D02*
X169309523Y-91182795D01*
X169309523Y-91182795D02*
X169261904Y-91087557D01*
X169261904Y-91087557D02*
X169214285Y-91039938D01*
X169214285Y-91039938D02*
X169119047Y-90992319D01*
X169119047Y-90992319D02*
X168928571Y-90992319D01*
X168928571Y-90992319D02*
X168833333Y-91039938D01*
X168833333Y-91039938D02*
X168785714Y-91087557D01*
X168785714Y-91087557D02*
X168738095Y-91182795D01*
X168738095Y-91182795D02*
X168738095Y-91230414D01*
X168738095Y-91230414D02*
X168785714Y-91325652D01*
X168785714Y-91325652D02*
X168833333Y-91373271D01*
X168833333Y-91373271D02*
X168928571Y-91420890D01*
X168928571Y-91420890D02*
X169119047Y-91420890D01*
X169119047Y-91420890D02*
X169214285Y-91468509D01*
X169214285Y-91468509D02*
X169261904Y-91516128D01*
X169261904Y-91516128D02*
X169309523Y-91611366D01*
X169309523Y-91611366D02*
X169309523Y-91801842D01*
X169309523Y-91801842D02*
X169261904Y-91897080D01*
X169261904Y-91897080D02*
X169214285Y-91944700D01*
X169214285Y-91944700D02*
X169119047Y-91992319D01*
X169119047Y-91992319D02*
X168928571Y-91992319D01*
X168928571Y-91992319D02*
X168833333Y-91944700D01*
X168833333Y-91944700D02*
X168785714Y-91897080D01*
X168785714Y-91897080D02*
X168738095Y-91801842D01*
X168738095Y-91801842D02*
X168738095Y-91611366D01*
X168738095Y-91611366D02*
X168785714Y-91516128D01*
X168785714Y-91516128D02*
X168833333Y-91468509D01*
X168833333Y-91468509D02*
X168928571Y-91420890D01*
X139454819Y-49357142D02*
X138978628Y-49023809D01*
X139454819Y-48785714D02*
X138454819Y-48785714D01*
X138454819Y-48785714D02*
X138454819Y-49166666D01*
X138454819Y-49166666D02*
X138502438Y-49261904D01*
X138502438Y-49261904D02*
X138550057Y-49309523D01*
X138550057Y-49309523D02*
X138645295Y-49357142D01*
X138645295Y-49357142D02*
X138788152Y-49357142D01*
X138788152Y-49357142D02*
X138883390Y-49309523D01*
X138883390Y-49309523D02*
X138931009Y-49261904D01*
X138931009Y-49261904D02*
X138978628Y-49166666D01*
X138978628Y-49166666D02*
X138978628Y-48785714D01*
X138454819Y-49690476D02*
X138454819Y-50309523D01*
X138454819Y-50309523D02*
X138835771Y-49976190D01*
X138835771Y-49976190D02*
X138835771Y-50119047D01*
X138835771Y-50119047D02*
X138883390Y-50214285D01*
X138883390Y-50214285D02*
X138931009Y-50261904D01*
X138931009Y-50261904D02*
X139026247Y-50309523D01*
X139026247Y-50309523D02*
X139264342Y-50309523D01*
X139264342Y-50309523D02*
X139359580Y-50261904D01*
X139359580Y-50261904D02*
X139407200Y-50214285D01*
X139407200Y-50214285D02*
X139454819Y-50119047D01*
X139454819Y-50119047D02*
X139454819Y-49833333D01*
X139454819Y-49833333D02*
X139407200Y-49738095D01*
X139407200Y-49738095D02*
X139359580Y-49690476D01*
X138454819Y-51166666D02*
X138454819Y-50976190D01*
X138454819Y-50976190D02*
X138502438Y-50880952D01*
X138502438Y-50880952D02*
X138550057Y-50833333D01*
X138550057Y-50833333D02*
X138692914Y-50738095D01*
X138692914Y-50738095D02*
X138883390Y-50690476D01*
X138883390Y-50690476D02*
X139264342Y-50690476D01*
X139264342Y-50690476D02*
X139359580Y-50738095D01*
X139359580Y-50738095D02*
X139407200Y-50785714D01*
X139407200Y-50785714D02*
X139454819Y-50880952D01*
X139454819Y-50880952D02*
X139454819Y-51071428D01*
X139454819Y-51071428D02*
X139407200Y-51166666D01*
X139407200Y-51166666D02*
X139359580Y-51214285D01*
X139359580Y-51214285D02*
X139264342Y-51261904D01*
X139264342Y-51261904D02*
X139026247Y-51261904D01*
X139026247Y-51261904D02*
X138931009Y-51214285D01*
X138931009Y-51214285D02*
X138883390Y-51166666D01*
X138883390Y-51166666D02*
X138835771Y-51071428D01*
X138835771Y-51071428D02*
X138835771Y-50880952D01*
X138835771Y-50880952D02*
X138883390Y-50785714D01*
X138883390Y-50785714D02*
X138931009Y-50738095D01*
X138931009Y-50738095D02*
X139026247Y-50690476D01*
X144992319Y-98357142D02*
X144516128Y-98023809D01*
X144992319Y-97785714D02*
X143992319Y-97785714D01*
X143992319Y-97785714D02*
X143992319Y-98166666D01*
X143992319Y-98166666D02*
X144039938Y-98261904D01*
X144039938Y-98261904D02*
X144087557Y-98309523D01*
X144087557Y-98309523D02*
X144182795Y-98357142D01*
X144182795Y-98357142D02*
X144325652Y-98357142D01*
X144325652Y-98357142D02*
X144420890Y-98309523D01*
X144420890Y-98309523D02*
X144468509Y-98261904D01*
X144468509Y-98261904D02*
X144516128Y-98166666D01*
X144516128Y-98166666D02*
X144516128Y-97785714D01*
X144087557Y-98738095D02*
X144039938Y-98785714D01*
X144039938Y-98785714D02*
X143992319Y-98880952D01*
X143992319Y-98880952D02*
X143992319Y-99119047D01*
X143992319Y-99119047D02*
X144039938Y-99214285D01*
X144039938Y-99214285D02*
X144087557Y-99261904D01*
X144087557Y-99261904D02*
X144182795Y-99309523D01*
X144182795Y-99309523D02*
X144278033Y-99309523D01*
X144278033Y-99309523D02*
X144420890Y-99261904D01*
X144420890Y-99261904D02*
X144992319Y-98690476D01*
X144992319Y-98690476D02*
X144992319Y-99309523D01*
X143992319Y-99928571D02*
X143992319Y-100023809D01*
X143992319Y-100023809D02*
X144039938Y-100119047D01*
X144039938Y-100119047D02*
X144087557Y-100166666D01*
X144087557Y-100166666D02*
X144182795Y-100214285D01*
X144182795Y-100214285D02*
X144373271Y-100261904D01*
X144373271Y-100261904D02*
X144611366Y-100261904D01*
X144611366Y-100261904D02*
X144801842Y-100214285D01*
X144801842Y-100214285D02*
X144897080Y-100166666D01*
X144897080Y-100166666D02*
X144944700Y-100119047D01*
X144944700Y-100119047D02*
X144992319Y-100023809D01*
X144992319Y-100023809D02*
X144992319Y-99928571D01*
X144992319Y-99928571D02*
X144944700Y-99833333D01*
X144944700Y-99833333D02*
X144897080Y-99785714D01*
X144897080Y-99785714D02*
X144801842Y-99738095D01*
X144801842Y-99738095D02*
X144611366Y-99690476D01*
X144611366Y-99690476D02*
X144373271Y-99690476D01*
X144373271Y-99690476D02*
X144182795Y-99738095D01*
X144182795Y-99738095D02*
X144087557Y-99785714D01*
X144087557Y-99785714D02*
X144039938Y-99833333D01*
X144039938Y-99833333D02*
X143992319Y-99928571D01*
X160992319Y-34567142D02*
X160516128Y-34233809D01*
X160992319Y-33995714D02*
X159992319Y-33995714D01*
X159992319Y-33995714D02*
X159992319Y-34376666D01*
X159992319Y-34376666D02*
X160039938Y-34471904D01*
X160039938Y-34471904D02*
X160087557Y-34519523D01*
X160087557Y-34519523D02*
X160182795Y-34567142D01*
X160182795Y-34567142D02*
X160325652Y-34567142D01*
X160325652Y-34567142D02*
X160420890Y-34519523D01*
X160420890Y-34519523D02*
X160468509Y-34471904D01*
X160468509Y-34471904D02*
X160516128Y-34376666D01*
X160516128Y-34376666D02*
X160516128Y-33995714D01*
X160325652Y-35424285D02*
X160992319Y-35424285D01*
X159944700Y-35186190D02*
X160658985Y-34948095D01*
X160658985Y-34948095D02*
X160658985Y-35567142D01*
X160087557Y-35900476D02*
X160039938Y-35948095D01*
X160039938Y-35948095D02*
X159992319Y-36043333D01*
X159992319Y-36043333D02*
X159992319Y-36281428D01*
X159992319Y-36281428D02*
X160039938Y-36376666D01*
X160039938Y-36376666D02*
X160087557Y-36424285D01*
X160087557Y-36424285D02*
X160182795Y-36471904D01*
X160182795Y-36471904D02*
X160278033Y-36471904D01*
X160278033Y-36471904D02*
X160420890Y-36424285D01*
X160420890Y-36424285D02*
X160992319Y-35852857D01*
X160992319Y-35852857D02*
X160992319Y-36471904D01*
X132954819Y-51857142D02*
X132478628Y-51523809D01*
X132954819Y-51285714D02*
X131954819Y-51285714D01*
X131954819Y-51285714D02*
X131954819Y-51666666D01*
X131954819Y-51666666D02*
X132002438Y-51761904D01*
X132002438Y-51761904D02*
X132050057Y-51809523D01*
X132050057Y-51809523D02*
X132145295Y-51857142D01*
X132145295Y-51857142D02*
X132288152Y-51857142D01*
X132288152Y-51857142D02*
X132383390Y-51809523D01*
X132383390Y-51809523D02*
X132431009Y-51761904D01*
X132431009Y-51761904D02*
X132478628Y-51666666D01*
X132478628Y-51666666D02*
X132478628Y-51285714D01*
X131954819Y-52190476D02*
X131954819Y-52809523D01*
X131954819Y-52809523D02*
X132335771Y-52476190D01*
X132335771Y-52476190D02*
X132335771Y-52619047D01*
X132335771Y-52619047D02*
X132383390Y-52714285D01*
X132383390Y-52714285D02*
X132431009Y-52761904D01*
X132431009Y-52761904D02*
X132526247Y-52809523D01*
X132526247Y-52809523D02*
X132764342Y-52809523D01*
X132764342Y-52809523D02*
X132859580Y-52761904D01*
X132859580Y-52761904D02*
X132907200Y-52714285D01*
X132907200Y-52714285D02*
X132954819Y-52619047D01*
X132954819Y-52619047D02*
X132954819Y-52333333D01*
X132954819Y-52333333D02*
X132907200Y-52238095D01*
X132907200Y-52238095D02*
X132859580Y-52190476D01*
X131954819Y-53142857D02*
X131954819Y-53809523D01*
X131954819Y-53809523D02*
X132954819Y-53380952D01*
X132954819Y-56857142D02*
X132478628Y-56523809D01*
X132954819Y-56285714D02*
X131954819Y-56285714D01*
X131954819Y-56285714D02*
X131954819Y-56666666D01*
X131954819Y-56666666D02*
X132002438Y-56761904D01*
X132002438Y-56761904D02*
X132050057Y-56809523D01*
X132050057Y-56809523D02*
X132145295Y-56857142D01*
X132145295Y-56857142D02*
X132288152Y-56857142D01*
X132288152Y-56857142D02*
X132383390Y-56809523D01*
X132383390Y-56809523D02*
X132431009Y-56761904D01*
X132431009Y-56761904D02*
X132478628Y-56666666D01*
X132478628Y-56666666D02*
X132478628Y-56285714D01*
X131954819Y-57190476D02*
X131954819Y-57809523D01*
X131954819Y-57809523D02*
X132335771Y-57476190D01*
X132335771Y-57476190D02*
X132335771Y-57619047D01*
X132335771Y-57619047D02*
X132383390Y-57714285D01*
X132383390Y-57714285D02*
X132431009Y-57761904D01*
X132431009Y-57761904D02*
X132526247Y-57809523D01*
X132526247Y-57809523D02*
X132764342Y-57809523D01*
X132764342Y-57809523D02*
X132859580Y-57761904D01*
X132859580Y-57761904D02*
X132907200Y-57714285D01*
X132907200Y-57714285D02*
X132954819Y-57619047D01*
X132954819Y-57619047D02*
X132954819Y-57333333D01*
X132954819Y-57333333D02*
X132907200Y-57238095D01*
X132907200Y-57238095D02*
X132859580Y-57190476D01*
X132954819Y-58285714D02*
X132954819Y-58476190D01*
X132954819Y-58476190D02*
X132907200Y-58571428D01*
X132907200Y-58571428D02*
X132859580Y-58619047D01*
X132859580Y-58619047D02*
X132716723Y-58714285D01*
X132716723Y-58714285D02*
X132526247Y-58761904D01*
X132526247Y-58761904D02*
X132145295Y-58761904D01*
X132145295Y-58761904D02*
X132050057Y-58714285D01*
X132050057Y-58714285D02*
X132002438Y-58666666D01*
X132002438Y-58666666D02*
X131954819Y-58571428D01*
X131954819Y-58571428D02*
X131954819Y-58380952D01*
X131954819Y-58380952D02*
X132002438Y-58285714D01*
X132002438Y-58285714D02*
X132050057Y-58238095D01*
X132050057Y-58238095D02*
X132145295Y-58190476D01*
X132145295Y-58190476D02*
X132383390Y-58190476D01*
X132383390Y-58190476D02*
X132478628Y-58238095D01*
X132478628Y-58238095D02*
X132526247Y-58285714D01*
X132526247Y-58285714D02*
X132573866Y-58380952D01*
X132573866Y-58380952D02*
X132573866Y-58571428D01*
X132573866Y-58571428D02*
X132526247Y-58666666D01*
X132526247Y-58666666D02*
X132478628Y-58714285D01*
X132478628Y-58714285D02*
X132383390Y-58761904D01*
X139454819Y-59357142D02*
X138978628Y-59023809D01*
X139454819Y-58785714D02*
X138454819Y-58785714D01*
X138454819Y-58785714D02*
X138454819Y-59166666D01*
X138454819Y-59166666D02*
X138502438Y-59261904D01*
X138502438Y-59261904D02*
X138550057Y-59309523D01*
X138550057Y-59309523D02*
X138645295Y-59357142D01*
X138645295Y-59357142D02*
X138788152Y-59357142D01*
X138788152Y-59357142D02*
X138883390Y-59309523D01*
X138883390Y-59309523D02*
X138931009Y-59261904D01*
X138931009Y-59261904D02*
X138978628Y-59166666D01*
X138978628Y-59166666D02*
X138978628Y-58785714D01*
X138788152Y-60214285D02*
X139454819Y-60214285D01*
X138407200Y-59976190D02*
X139121485Y-59738095D01*
X139121485Y-59738095D02*
X139121485Y-60357142D01*
X138454819Y-60928571D02*
X138454819Y-61023809D01*
X138454819Y-61023809D02*
X138502438Y-61119047D01*
X138502438Y-61119047D02*
X138550057Y-61166666D01*
X138550057Y-61166666D02*
X138645295Y-61214285D01*
X138645295Y-61214285D02*
X138835771Y-61261904D01*
X138835771Y-61261904D02*
X139073866Y-61261904D01*
X139073866Y-61261904D02*
X139264342Y-61214285D01*
X139264342Y-61214285D02*
X139359580Y-61166666D01*
X139359580Y-61166666D02*
X139407200Y-61119047D01*
X139407200Y-61119047D02*
X139454819Y-61023809D01*
X139454819Y-61023809D02*
X139454819Y-60928571D01*
X139454819Y-60928571D02*
X139407200Y-60833333D01*
X139407200Y-60833333D02*
X139359580Y-60785714D01*
X139359580Y-60785714D02*
X139264342Y-60738095D01*
X139264342Y-60738095D02*
X139073866Y-60690476D01*
X139073866Y-60690476D02*
X138835771Y-60690476D01*
X138835771Y-60690476D02*
X138645295Y-60738095D01*
X138645295Y-60738095D02*
X138550057Y-60785714D01*
X138550057Y-60785714D02*
X138502438Y-60833333D01*
X138502438Y-60833333D02*
X138454819Y-60928571D01*
X144992319Y-95357142D02*
X144516128Y-95023809D01*
X144992319Y-94785714D02*
X143992319Y-94785714D01*
X143992319Y-94785714D02*
X143992319Y-95166666D01*
X143992319Y-95166666D02*
X144039938Y-95261904D01*
X144039938Y-95261904D02*
X144087557Y-95309523D01*
X144087557Y-95309523D02*
X144182795Y-95357142D01*
X144182795Y-95357142D02*
X144325652Y-95357142D01*
X144325652Y-95357142D02*
X144420890Y-95309523D01*
X144420890Y-95309523D02*
X144468509Y-95261904D01*
X144468509Y-95261904D02*
X144516128Y-95166666D01*
X144516128Y-95166666D02*
X144516128Y-94785714D01*
X144087557Y-95738095D02*
X144039938Y-95785714D01*
X144039938Y-95785714D02*
X143992319Y-95880952D01*
X143992319Y-95880952D02*
X143992319Y-96119047D01*
X143992319Y-96119047D02*
X144039938Y-96214285D01*
X144039938Y-96214285D02*
X144087557Y-96261904D01*
X144087557Y-96261904D02*
X144182795Y-96309523D01*
X144182795Y-96309523D02*
X144278033Y-96309523D01*
X144278033Y-96309523D02*
X144420890Y-96261904D01*
X144420890Y-96261904D02*
X144992319Y-95690476D01*
X144992319Y-95690476D02*
X144992319Y-96309523D01*
X143992319Y-97166666D02*
X143992319Y-96976190D01*
X143992319Y-96976190D02*
X144039938Y-96880952D01*
X144039938Y-96880952D02*
X144087557Y-96833333D01*
X144087557Y-96833333D02*
X144230414Y-96738095D01*
X144230414Y-96738095D02*
X144420890Y-96690476D01*
X144420890Y-96690476D02*
X144801842Y-96690476D01*
X144801842Y-96690476D02*
X144897080Y-96738095D01*
X144897080Y-96738095D02*
X144944700Y-96785714D01*
X144944700Y-96785714D02*
X144992319Y-96880952D01*
X144992319Y-96880952D02*
X144992319Y-97071428D01*
X144992319Y-97071428D02*
X144944700Y-97166666D01*
X144944700Y-97166666D02*
X144897080Y-97214285D01*
X144897080Y-97214285D02*
X144801842Y-97261904D01*
X144801842Y-97261904D02*
X144563747Y-97261904D01*
X144563747Y-97261904D02*
X144468509Y-97214285D01*
X144468509Y-97214285D02*
X144420890Y-97166666D01*
X144420890Y-97166666D02*
X144373271Y-97071428D01*
X144373271Y-97071428D02*
X144373271Y-96880952D01*
X144373271Y-96880952D02*
X144420890Y-96785714D01*
X144420890Y-96785714D02*
X144468509Y-96738095D01*
X144468509Y-96738095D02*
X144563747Y-96690476D01*
D11*
%TO.C,R41*%
X164264564Y-39410000D02*
X162810436Y-39410000D01*
X164264564Y-37590000D02*
X162810436Y-37590000D01*
%TO.C,R29*%
X173910000Y-87772936D02*
X173910000Y-89227064D01*
X172090000Y-87772936D02*
X172090000Y-89227064D01*
%TO.C,R38*%
X136227064Y-55910000D02*
X134772936Y-55910000D01*
X136227064Y-54090000D02*
X134772936Y-54090000D01*
%TO.C,R27*%
X167910000Y-87810436D02*
X167910000Y-89264564D01*
X166090000Y-87810436D02*
X166090000Y-89264564D01*
%TO.C,R28*%
X169090000Y-87810436D02*
X169090000Y-89264564D01*
X170910000Y-87810436D02*
X170910000Y-89264564D01*
%TO.C,R36*%
X136227064Y-50910000D02*
X134772936Y-50910000D01*
X136227064Y-49090000D02*
X134772936Y-49090000D01*
%TO.C,R20*%
X140810436Y-99910000D02*
X142264564Y-99910000D01*
X140810436Y-98090000D02*
X142264564Y-98090000D01*
%TO.C,R42*%
X164302064Y-36120000D02*
X162847936Y-36120000D01*
X164302064Y-34300000D02*
X162847936Y-34300000D01*
%TO.C,R37*%
X136227064Y-53410000D02*
X134772936Y-53410000D01*
X136227064Y-51590000D02*
X134772936Y-51590000D01*
%TO.C,R39*%
X136264564Y-58410000D02*
X134810436Y-58410000D01*
X136264564Y-56590000D02*
X134810436Y-56590000D01*
%TO.C,R40*%
X136227064Y-59090000D02*
X134772936Y-59090000D01*
X136227064Y-60910000D02*
X134772936Y-60910000D01*
%TO.C,R26*%
X140810436Y-95090000D02*
X142264564Y-95090000D01*
X140810436Y-96910000D02*
X142264564Y-96910000D01*
%TD*%
M02*
