%TF.GenerationSoftware,KiCad,Pcbnew,8.0.5*%
%TF.CreationDate,2025-06-20T11:11:49+02:00*%
%TF.ProjectId,PowerBoard,506f7765-7242-46f6-9172-642e6b696361,rev?*%
%TF.SameCoordinates,Original*%
%TF.FileFunction,Soldermask,Top*%
%TF.FilePolarity,Negative*%
%FSLAX46Y46*%
G04 Gerber Fmt 4.6, Leading zero omitted, Abs format (unit mm)*
G04 Created by KiCad (PCBNEW 8.0.5) date 2025-06-20 11:11:49*
%MOMM*%
%LPD*%
G01*
G04 APERTURE LIST*
G04 Aperture macros list*
%AMRoundRect*
0 Rectangle with rounded corners*
0 $1 Rounding radius*
0 $2 $3 $4 $5 $6 $7 $8 $9 X,Y pos of 4 corners*
0 Add a 4 corners polygon primitive as box body*
4,1,4,$2,$3,$4,$5,$6,$7,$8,$9,$2,$3,0*
0 Add four circle primitives for the rounded corners*
1,1,$1+$1,$2,$3*
1,1,$1+$1,$4,$5*
1,1,$1+$1,$6,$7*
1,1,$1+$1,$8,$9*
0 Add four rect primitives between the rounded corners*
20,1,$1+$1,$2,$3,$4,$5,0*
20,1,$1+$1,$4,$5,$6,$7,0*
20,1,$1+$1,$6,$7,$8,$9,0*
20,1,$1+$1,$8,$9,$2,$3,0*%
G04 Aperture macros list end*
%ADD10R,1.850000X1.200000*%
%ADD11R,4.600000X0.800000*%
%ADD12R,9.400000X10.800000*%
%ADD13R,4.850000X2.300000*%
%ADD14C,6.000000*%
%ADD15R,0.700000X0.300000*%
%ADD16R,1.000000X2.100000*%
%ADD17R,1.526000X0.650000*%
%ADD18R,3.800000X3.800000*%
%ADD19C,4.000000*%
%ADD20RoundRect,1.500000X-1.500000X-1.500000X1.500000X-1.500000X1.500000X1.500000X-1.500000X1.500000X0*%
%ADD21RoundRect,0.200000X-0.275000X0.200000X-0.275000X-0.200000X0.275000X-0.200000X0.275000X0.200000X0*%
%ADD22RoundRect,0.200000X-0.200000X-0.275000X0.200000X-0.275000X0.200000X0.275000X-0.200000X0.275000X0*%
%ADD23RoundRect,0.200000X0.275000X-0.200000X0.275000X0.200000X-0.275000X0.200000X-0.275000X-0.200000X0*%
%ADD24RoundRect,0.150000X-0.150000X-0.200000X0.150000X-0.200000X0.150000X0.200000X-0.150000X0.200000X0*%
%ADD25RoundRect,0.150000X-0.200000X0.150000X-0.200000X-0.150000X0.200000X-0.150000X0.200000X0.150000X0*%
%ADD26RoundRect,0.225000X0.250000X-0.225000X0.250000X0.225000X-0.250000X0.225000X-0.250000X-0.225000X0*%
%ADD27RoundRect,0.225000X-0.250000X0.225000X-0.250000X-0.225000X0.250000X-0.225000X0.250000X0.225000X0*%
%ADD28RoundRect,0.150000X0.200000X-0.150000X0.200000X0.150000X-0.200000X0.150000X-0.200000X-0.150000X0*%
%ADD29RoundRect,0.250000X0.625000X-0.312500X0.625000X0.312500X-0.625000X0.312500X-0.625000X-0.312500X0*%
%ADD30RoundRect,0.250000X-2.050000X-0.300000X2.050000X-0.300000X2.050000X0.300000X-2.050000X0.300000X0*%
%ADD31RoundRect,0.250002X-4.449998X-5.149998X4.449998X-5.149998X4.449998X5.149998X-4.449998X5.149998X0*%
%ADD32RoundRect,0.200000X0.200000X0.275000X-0.200000X0.275000X-0.200000X-0.275000X0.200000X-0.275000X0*%
%ADD33RoundRect,0.225000X-0.225000X-0.250000X0.225000X-0.250000X0.225000X0.250000X-0.225000X0.250000X0*%
%ADD34C,3.200000*%
%ADD35RoundRect,0.250000X-0.625000X0.312500X-0.625000X-0.312500X0.625000X-0.312500X0.625000X0.312500X0*%
%ADD36RoundRect,0.250000X-0.650000X1.000000X-0.650000X-1.000000X0.650000X-1.000000X0.650000X1.000000X0*%
%ADD37RoundRect,0.250000X0.625000X-0.375000X0.625000X0.375000X-0.625000X0.375000X-0.625000X-0.375000X0*%
%ADD38C,8.000000*%
%ADD39O,8.000000X3.800000*%
%ADD40R,2.000000X2.000000*%
%ADD41C,2.000000*%
%ADD42RoundRect,0.075000X-0.650000X-0.075000X0.650000X-0.075000X0.650000X0.075000X-0.650000X0.075000X0*%
%ADD43RoundRect,0.250000X0.375000X0.625000X-0.375000X0.625000X-0.375000X-0.625000X0.375000X-0.625000X0*%
%ADD44RoundRect,0.250000X-0.625000X0.375000X-0.625000X-0.375000X0.625000X-0.375000X0.625000X0.375000X0*%
%ADD45RoundRect,0.637500X-2.162500X0.637500X-2.162500X-0.637500X2.162500X-0.637500X2.162500X0.637500X0*%
%ADD46RoundRect,0.225000X-0.225000X1.050000X-0.225000X-1.050000X0.225000X-1.050000X0.225000X1.050000X0*%
%ADD47RoundRect,0.250000X-0.375000X-0.625000X0.375000X-0.625000X0.375000X0.625000X-0.375000X0.625000X0*%
%ADD48RoundRect,0.225000X0.225000X0.250000X-0.225000X0.250000X-0.225000X-0.250000X0.225000X-0.250000X0*%
%ADD49O,1.700000X1.700000*%
%ADD50R,3.500000X1.700000*%
%ADD51R,1.700000X1.700000*%
%ADD52R,1.700000X3.500000*%
%ADD53RoundRect,0.760000X-1.140000X-1.140000X1.140000X-1.140000X1.140000X1.140000X-1.140000X1.140000X0*%
%ADD54RoundRect,0.250000X0.650000X-1.000000X0.650000X1.000000X-0.650000X1.000000X-0.650000X-1.000000X0*%
%ADD55RoundRect,0.250000X2.325000X-0.987500X2.325000X0.987500X-2.325000X0.987500X-2.325000X-0.987500X0*%
%ADD56RoundRect,0.250000X-0.325000X-0.650000X0.325000X-0.650000X0.325000X0.650000X-0.325000X0.650000X0*%
G04 APERTURE END LIST*
D10*
%TO.C,R14*%
X104000000Y-43000000D03*
X104000000Y-46000000D03*
%TD*%
%TO.C,R11*%
X66886875Y-46000000D03*
X66886875Y-43000000D03*
%TD*%
%TO.C,R8*%
X125500000Y-42000000D03*
X125500000Y-45000000D03*
%TD*%
%TO.C,R7*%
X85500000Y-43000000D03*
X85500000Y-46000000D03*
%TD*%
D11*
%TO.C,Q1*%
X34463192Y-51924001D03*
X34463192Y-53194001D03*
X34463192Y-54464001D03*
D12*
X43613192Y-55734001D03*
D11*
X34463192Y-57004001D03*
X34463192Y-58274001D03*
X34463192Y-59544001D03*
%TD*%
D13*
%TO.C,L1*%
X143000000Y-24450000D03*
X143000000Y-20550000D03*
%TD*%
D14*
%TO.C,J43*%
X54700000Y-154500000D03*
X61400000Y-154500000D03*
%TD*%
%TO.C,J42*%
X54700000Y-144000000D03*
X61400000Y-144000000D03*
%TD*%
D15*
%TO.C,IC7*%
X140500000Y-28050000D03*
X140500000Y-28550000D03*
X140500000Y-29050000D03*
X140500000Y-29550000D03*
X140500000Y-30050000D03*
X142600000Y-30050000D03*
X142600000Y-29550000D03*
X142600000Y-29050000D03*
X142600000Y-28550000D03*
X142600000Y-28050000D03*
D16*
X141550000Y-29050000D03*
%TD*%
D17*
%TO.C,IC5*%
X56000000Y-42595000D03*
X56000000Y-43865000D03*
X56000000Y-45135000D03*
X56000000Y-46405000D03*
X61424000Y-46405000D03*
X61424000Y-45135000D03*
X61424000Y-43865000D03*
X61424000Y-42595000D03*
%TD*%
%TO.C,IC4*%
X93288000Y-43595000D03*
X93288000Y-44865000D03*
X93288000Y-46135000D03*
X93288000Y-47405000D03*
X98712000Y-47405000D03*
X98712000Y-46135000D03*
X98712000Y-44865000D03*
X98712000Y-43595000D03*
%TD*%
%TO.C,IC3*%
X31788000Y-33095000D03*
X31788000Y-34365000D03*
X31788000Y-35635000D03*
X31788000Y-36905000D03*
X37212000Y-36905000D03*
X37212000Y-35635000D03*
X37212000Y-34365000D03*
X37212000Y-33095000D03*
%TD*%
%TO.C,IC2*%
X113288000Y-41595000D03*
X113288000Y-42865000D03*
X113288000Y-44135000D03*
X113288000Y-45405000D03*
X118712000Y-45405000D03*
X118712000Y-44135000D03*
X118712000Y-42865000D03*
X118712000Y-41595000D03*
%TD*%
%TO.C,IC1*%
X73788000Y-43384004D03*
X73788000Y-44654004D03*
X73788000Y-45924004D03*
X73788000Y-47194004D03*
X79212000Y-47194004D03*
X79212000Y-45924004D03*
X79212000Y-44654004D03*
X79212000Y-43384004D03*
%TD*%
D18*
%TO.C,J48*%
X117500000Y-151500000D03*
D19*
X122500000Y-151500000D03*
%TD*%
D18*
%TO.C,J47*%
X117500000Y-144500000D03*
D19*
X122500000Y-144500000D03*
%TD*%
D20*
%TO.C,J46*%
X94900000Y-155000000D03*
D14*
X102100000Y-155000000D03*
%TD*%
D20*
%TO.C,J45*%
X73900000Y-154500000D03*
D14*
X81100000Y-154500000D03*
%TD*%
D20*
%TO.C,J44*%
X73900000Y-144000000D03*
D14*
X81100000Y-144000000D03*
%TD*%
D21*
%TO.C,R52*%
X115016492Y-47405492D03*
X115016492Y-49055492D03*
%TD*%
%TO.C,R51*%
X121000000Y-44478650D03*
X121000000Y-46128650D03*
%TD*%
D22*
%TO.C,R33*%
X116500000Y-47500000D03*
X118150000Y-47500000D03*
%TD*%
D23*
%TO.C,R3*%
X110000000Y-45650000D03*
X110000000Y-44000000D03*
%TD*%
D24*
%TO.C,D30*%
X118000000Y-49000000D03*
X116600000Y-49000000D03*
%TD*%
D25*
%TO.C,D29*%
X122760709Y-45000000D03*
X122760709Y-43600000D03*
%TD*%
D26*
%TO.C,C22*%
X113500000Y-49000000D03*
X113500000Y-47450000D03*
%TD*%
D27*
%TO.C,C21*%
X121000000Y-41459534D03*
X121000000Y-43009534D03*
%TD*%
D26*
%TO.C,C2*%
X111500000Y-43000000D03*
X111500000Y-41450000D03*
%TD*%
D21*
%TO.C,R50*%
X94240945Y-49432912D03*
X94240945Y-51082912D03*
%TD*%
D22*
%TO.C,R49*%
X95850000Y-49000000D03*
X97500000Y-49000000D03*
%TD*%
D21*
%TO.C,R31*%
X100500000Y-46350000D03*
X100500000Y-48000000D03*
%TD*%
D23*
%TO.C,R10*%
X90000000Y-46000000D03*
X90000000Y-44350000D03*
%TD*%
D24*
%TO.C,D28*%
X97320494Y-50510559D03*
X95920494Y-50510559D03*
%TD*%
D25*
%TO.C,D27*%
X102000000Y-46200000D03*
X102000000Y-44800000D03*
%TD*%
D26*
%TO.C,C20*%
X92712387Y-51036322D03*
X92712387Y-49486322D03*
%TD*%
D27*
%TO.C,C19*%
X100527956Y-43225000D03*
X100527956Y-44775000D03*
%TD*%
D26*
%TO.C,C4*%
X91491792Y-44996609D03*
X91491792Y-43446609D03*
%TD*%
D23*
%TO.C,R2*%
X70493161Y-46485548D03*
X70493161Y-44835548D03*
%TD*%
D26*
%TO.C,C1*%
X72000000Y-44775000D03*
X72000000Y-43225000D03*
%TD*%
D21*
%TO.C,R48*%
X81500000Y-46175000D03*
X81500000Y-47825000D03*
%TD*%
%TO.C,R47*%
X75500000Y-49350000D03*
X75500000Y-51000000D03*
%TD*%
D22*
%TO.C,R32*%
X77350000Y-49000000D03*
X79000000Y-49000000D03*
%TD*%
D25*
%TO.C,D26*%
X83000000Y-47200000D03*
X83000000Y-45800000D03*
%TD*%
D24*
%TO.C,D21*%
X78841612Y-50500000D03*
X77441612Y-50500000D03*
%TD*%
D27*
%TO.C,C18*%
X81500000Y-43225000D03*
X81500000Y-44775000D03*
%TD*%
D26*
%TO.C,C17*%
X73964802Y-50951448D03*
X73964802Y-49401448D03*
%TD*%
D28*
%TO.C,D25*%
X37000000Y-43000000D03*
X37000000Y-41600000D03*
%TD*%
D27*
%TO.C,C16*%
X63215505Y-43998549D03*
X63215505Y-42448549D03*
%TD*%
D26*
%TO.C,C15*%
X54000000Y-49225000D03*
X54000000Y-50775000D03*
%TD*%
D29*
%TO.C,R15*%
X57000000Y-74462500D03*
X57000000Y-71537500D03*
%TD*%
D26*
%TO.C,C5*%
X54002515Y-45587839D03*
X54002515Y-44037839D03*
%TD*%
D19*
%TO.C,J37*%
X122500000Y-116500000D03*
D18*
X117500000Y-116500000D03*
%TD*%
D19*
%TO.C,J36*%
X122500000Y-109500000D03*
D18*
X117500000Y-109500000D03*
%TD*%
D19*
%TO.C,J35*%
X122500000Y-102500000D03*
D18*
X117500000Y-102500000D03*
%TD*%
D30*
%TO.C,Q5*%
X54350000Y-60040000D03*
D31*
X63500000Y-57500000D03*
D30*
X54350000Y-54960000D03*
%TD*%
D32*
%TO.C,R16*%
X140325000Y-32000000D03*
X138675000Y-32000000D03*
%TD*%
D33*
%TO.C,C14*%
X41050000Y-34500000D03*
X39500000Y-34500000D03*
%TD*%
D26*
%TO.C,C7*%
X135000000Y-26000000D03*
X135000000Y-27550000D03*
%TD*%
D34*
%TO.C,H4*%
X171750000Y-21500000D03*
%TD*%
D20*
%TO.C,J31*%
X94900000Y-144500000D03*
D14*
X102100000Y-144500000D03*
%TD*%
%TO.C,J30*%
X102100000Y-134000000D03*
D20*
X94900000Y-134000000D03*
%TD*%
D14*
%TO.C,J3*%
X103500000Y-37500000D03*
D20*
X96300000Y-37500000D03*
%TD*%
D35*
%TO.C,R35*%
X168500000Y-62962500D03*
X168500000Y-60037500D03*
%TD*%
D19*
%TO.C,J33*%
X122500000Y-88500000D03*
D18*
X117500000Y-88500000D03*
%TD*%
D27*
%TO.C,C8*%
X133000000Y-32050000D03*
X133000000Y-30500000D03*
%TD*%
D14*
%TO.C,J18*%
X61500000Y-123000000D03*
X54800000Y-123000000D03*
%TD*%
%TO.C,J19*%
X61500000Y-133500000D03*
X54800000Y-133500000D03*
%TD*%
D29*
%TO.C,R5*%
X76000000Y-71537500D03*
X76000000Y-74462500D03*
%TD*%
D14*
%TO.C,J22*%
X81100000Y-102000000D03*
D20*
X73900000Y-102000000D03*
%TD*%
D36*
%TO.C,D11*%
X109000000Y-76000000D03*
X109000000Y-72000000D03*
%TD*%
D37*
%TO.C,D19*%
X168500000Y-80600000D03*
X168500000Y-83400000D03*
%TD*%
D38*
%TO.C,J9*%
X32500000Y-112500000D03*
X43500000Y-112500000D03*
%TD*%
D39*
%TO.C,F5*%
X63650000Y-67000000D03*
X54350000Y-67000000D03*
%TD*%
%TO.C,F4*%
X104650000Y-67000000D03*
X95350000Y-67000000D03*
%TD*%
D40*
%TO.C,GND1*%
X170150000Y-112690000D03*
D41*
X170150000Y-115230000D03*
X170150000Y-117770000D03*
X170150000Y-120310000D03*
%TD*%
D14*
%TO.C,J29*%
X102100000Y-123500000D03*
D20*
X94900000Y-123500000D03*
%TD*%
D38*
%TO.C,J7*%
X32500000Y-91500000D03*
X43500000Y-91500000D03*
%TD*%
D34*
%TO.C,H3*%
X171750000Y-164500000D03*
%TD*%
D35*
%TO.C,R19*%
X167000000Y-48462500D03*
X167000000Y-45537500D03*
%TD*%
D42*
%TO.C,U4*%
X102800000Y-26000000D03*
X102800000Y-26500000D03*
X102800000Y-27000000D03*
X102800000Y-27500000D03*
X102800000Y-28000000D03*
X107200000Y-28000000D03*
X107200000Y-27500000D03*
X107200000Y-27000000D03*
X107200000Y-26500000D03*
X107200000Y-26000000D03*
%TD*%
D39*
%TO.C,F2*%
X125150000Y-67000000D03*
X115850000Y-67000000D03*
%TD*%
D42*
%TO.C,U3*%
X93800000Y-26000000D03*
X93800000Y-26500000D03*
X93800000Y-27000000D03*
X93800000Y-27500000D03*
X93800000Y-28000000D03*
X98200000Y-28000000D03*
X98200000Y-27500000D03*
X98200000Y-27000000D03*
X98200000Y-26500000D03*
X98200000Y-26000000D03*
%TD*%
D34*
%TO.C,H2*%
X28750000Y-164500000D03*
%TD*%
D42*
%TO.C,U2*%
X85000000Y-26000000D03*
X85000000Y-26500000D03*
X85000000Y-27000000D03*
X85000000Y-27500000D03*
X85000000Y-28000000D03*
X89400000Y-28000000D03*
X89400000Y-27500000D03*
X89400000Y-27000000D03*
X89400000Y-26500000D03*
X89400000Y-26000000D03*
%TD*%
D38*
%TO.C,J6*%
X32500000Y-81000000D03*
X43500000Y-81000000D03*
%TD*%
D14*
%TO.C,J27*%
X102100000Y-102500000D03*
D20*
X94900000Y-102500000D03*
%TD*%
D30*
%TO.C,Q4*%
X95378915Y-60097414D03*
D31*
X104528915Y-57557414D03*
D30*
X95378915Y-55017414D03*
%TD*%
D14*
%TO.C,J2*%
X60200000Y-37500000D03*
X66900000Y-37500000D03*
%TD*%
%TO.C,J15*%
X61400000Y-91500000D03*
X54700000Y-91500000D03*
%TD*%
D30*
%TO.C,Q3*%
X115825038Y-59131749D03*
D31*
X124975038Y-56591749D03*
D30*
X115825038Y-54051749D03*
%TD*%
D37*
%TO.C,D7*%
X122000000Y-72100000D03*
X122000000Y-74900000D03*
%TD*%
D19*
%TO.C,J39*%
X122500000Y-130500000D03*
D18*
X117500000Y-130500000D03*
%TD*%
D43*
%TO.C,D20*%
X128700000Y-20000000D03*
X131500000Y-20000000D03*
%TD*%
D40*
%TO.C,I2C1*%
X170150000Y-53460000D03*
D41*
X170150000Y-56000000D03*
%TD*%
D38*
%TO.C,J8*%
X32500000Y-102000000D03*
X43500000Y-102000000D03*
%TD*%
D26*
%TO.C,C3*%
X29500000Y-32500000D03*
X29500000Y-34050000D03*
%TD*%
D35*
%TO.C,R18*%
X170000000Y-48462500D03*
X170000000Y-45537500D03*
%TD*%
D29*
%TO.C,R13*%
X98500000Y-72037500D03*
X98500000Y-74962500D03*
%TD*%
D38*
%TO.C,J13*%
X32500000Y-154500000D03*
X43500000Y-154500000D03*
%TD*%
D14*
%TO.C,J21*%
X81100000Y-91500000D03*
D20*
X73900000Y-91500000D03*
%TD*%
D14*
%TO.C,J17*%
X61500000Y-112500000D03*
X54800000Y-112500000D03*
%TD*%
D44*
%TO.C,D4*%
X110600000Y-47600000D03*
X110600000Y-50400000D03*
%TD*%
D45*
%TO.C,R1*%
X47850000Y-33975000D03*
D46*
X43800000Y-33975000D03*
X43800000Y-42025000D03*
D45*
X47850000Y-42025000D03*
%TD*%
D38*
%TO.C,J1*%
X48000000Y-26500000D03*
X37000000Y-26500000D03*
%TD*%
D47*
%TO.C,D5*%
X33400000Y-47000000D03*
X30600000Y-47000000D03*
%TD*%
D48*
%TO.C,C12*%
X136225000Y-24500000D03*
X137775000Y-24500000D03*
%TD*%
D42*
%TO.C,U5*%
X111800000Y-26000000D03*
X111800000Y-26500000D03*
X111800000Y-27000000D03*
X111800000Y-27500000D03*
X111800000Y-28000000D03*
X116200000Y-28000000D03*
X116200000Y-27500000D03*
X116200000Y-27000000D03*
X116200000Y-26500000D03*
X116200000Y-26000000D03*
%TD*%
D14*
%TO.C,J16*%
X61500000Y-102000000D03*
X54800000Y-102000000D03*
%TD*%
D38*
%TO.C,J10*%
X32500000Y-123000000D03*
X43500000Y-123000000D03*
%TD*%
D20*
%TO.C,J20*%
X73900000Y-81000000D03*
D14*
X81100000Y-81000000D03*
%TD*%
D39*
%TO.C,F3*%
X43150000Y-67000000D03*
X33850000Y-67000000D03*
%TD*%
D29*
%TO.C,R9*%
X37000000Y-71537500D03*
X37000000Y-74462500D03*
%TD*%
D34*
%TO.C,H1*%
X28750000Y-21500000D03*
%TD*%
D39*
%TO.C,F1*%
X84150000Y-67000000D03*
X74850000Y-67000000D03*
%TD*%
D36*
%TO.C,D1*%
X53000000Y-36500000D03*
X53000000Y-40500000D03*
%TD*%
D29*
%TO.C,R23*%
X171500000Y-75037500D03*
X171500000Y-77962500D03*
%TD*%
D14*
%TO.C,J14*%
X54700000Y-81000000D03*
X61400000Y-81000000D03*
%TD*%
D22*
%TO.C,R21*%
X146000000Y-29500000D03*
X144350000Y-29500000D03*
%TD*%
D35*
%TO.C,R34*%
X171500000Y-62962500D03*
X171500000Y-60037500D03*
%TD*%
D42*
%TO.C,U6*%
X120800000Y-26000000D03*
X120800000Y-26500000D03*
X120800000Y-27000000D03*
X120800000Y-27500000D03*
X120800000Y-28000000D03*
X125200000Y-28000000D03*
X125200000Y-27500000D03*
X125200000Y-27000000D03*
X125200000Y-26500000D03*
X125200000Y-26000000D03*
%TD*%
D30*
%TO.C,Q2*%
X74850000Y-60040000D03*
D31*
X84000000Y-57500000D03*
D30*
X74850000Y-54960000D03*
%TD*%
D37*
%TO.C,D18*%
X168500000Y-75100000D03*
X168500000Y-77900000D03*
%TD*%
%TO.C,D8*%
X39500000Y-71600000D03*
X39500000Y-74400000D03*
%TD*%
D41*
%TO.C,UART1*%
X170000000Y-39040000D03*
D40*
X170000000Y-36500000D03*
%TD*%
D38*
%TO.C,J11*%
X32500000Y-133500000D03*
X43500000Y-133500000D03*
%TD*%
%TO.C,J12*%
X32500000Y-144000000D03*
X43500000Y-144000000D03*
%TD*%
D19*
%TO.C,J34*%
X122500000Y-95500000D03*
D18*
X117500000Y-95500000D03*
%TD*%
D27*
%TO.C,C9*%
X143500000Y-33275000D03*
X143500000Y-31725000D03*
%TD*%
D14*
%TO.C,J25*%
X81100000Y-133500000D03*
D20*
X73900000Y-133500000D03*
%TD*%
D29*
%TO.C,R6*%
X119500000Y-72037500D03*
X119500000Y-74962500D03*
%TD*%
D14*
%TO.C,J26*%
X102100000Y-81000000D03*
D20*
X94900000Y-81000000D03*
%TD*%
D27*
%TO.C,C11*%
X148500000Y-33275000D03*
X148500000Y-31725000D03*
%TD*%
D40*
%TO.C,VCC1*%
X170150000Y-100690000D03*
D41*
X170150000Y-103230000D03*
X170150000Y-105770000D03*
X170150000Y-108310000D03*
%TD*%
D14*
%TO.C,J23*%
X81100000Y-112500000D03*
D20*
X73900000Y-112500000D03*
%TD*%
D37*
%TO.C,D15*%
X101000000Y-72100000D03*
X101000000Y-74900000D03*
%TD*%
D22*
%TO.C,R25*%
X35500000Y-41400000D03*
X33850000Y-41400000D03*
%TD*%
D34*
%TO.C,H5*%
X100250000Y-93000000D03*
%TD*%
D14*
%TO.C,J24*%
X81100000Y-123000000D03*
D20*
X73900000Y-123000000D03*
%TD*%
D19*
%TO.C,J38*%
X122500000Y-123500000D03*
D18*
X117500000Y-123500000D03*
%TD*%
D19*
%TO.C,J40*%
X122500000Y-137500000D03*
D18*
X117500000Y-137500000D03*
%TD*%
D14*
%TO.C,J28*%
X102100000Y-113000000D03*
D20*
X94900000Y-113000000D03*
%TD*%
D49*
%TO.C,U1*%
X142110000Y-41870000D03*
D50*
X141210000Y-41870000D03*
D49*
X142110000Y-44410000D03*
D50*
X141210000Y-44410000D03*
D51*
X142110000Y-46950000D03*
D50*
X141210000Y-46950000D03*
D49*
X142110000Y-49490000D03*
D50*
X141210000Y-49490000D03*
D49*
X142110000Y-52030000D03*
D50*
X141210000Y-52030000D03*
D49*
X142110000Y-54570000D03*
D50*
X141210000Y-54570000D03*
D49*
X142110000Y-57110000D03*
D50*
X141210000Y-57110000D03*
D51*
X142110000Y-59650000D03*
D50*
X141210000Y-59650000D03*
D49*
X142110000Y-62190000D03*
D50*
X141210000Y-62190000D03*
D49*
X142110000Y-64730000D03*
D50*
X141210000Y-64730000D03*
D49*
X142110000Y-67270000D03*
D50*
X141210000Y-67270000D03*
D49*
X142110000Y-69810000D03*
D50*
X141210000Y-69810000D03*
D51*
X142110000Y-72350000D03*
D50*
X141210000Y-72350000D03*
D49*
X142110000Y-74890000D03*
D50*
X141210000Y-74890000D03*
D49*
X142110000Y-77430000D03*
D50*
X141210000Y-77430000D03*
D49*
X142110000Y-79970000D03*
D50*
X141210000Y-79970000D03*
D49*
X142110000Y-82510000D03*
D50*
X141210000Y-82510000D03*
D51*
X142110000Y-85050000D03*
D50*
X141210000Y-85050000D03*
D49*
X142110000Y-87590000D03*
D50*
X141210000Y-87590000D03*
D49*
X142110000Y-90130000D03*
D50*
X141210000Y-90130000D03*
D49*
X159890000Y-90130000D03*
D50*
X160790000Y-90130000D03*
D49*
X159890000Y-87590000D03*
D50*
X160790000Y-87590000D03*
D51*
X159890000Y-85050000D03*
D50*
X160790000Y-85050000D03*
D49*
X159890000Y-82510000D03*
D50*
X160790000Y-82510000D03*
D49*
X159890000Y-79970000D03*
D50*
X160790000Y-79970000D03*
D49*
X159890000Y-77430000D03*
D50*
X160790000Y-77430000D03*
D49*
X159890000Y-74890000D03*
D50*
X160790000Y-74890000D03*
D51*
X159890000Y-72350000D03*
D50*
X160790000Y-72350000D03*
D49*
X159890000Y-69810000D03*
D50*
X160790000Y-69810000D03*
D49*
X159890000Y-67270000D03*
D50*
X160790000Y-67270000D03*
D49*
X159890000Y-64730000D03*
D50*
X160790000Y-64730000D03*
D49*
X159890000Y-62190000D03*
D50*
X160790000Y-62190000D03*
D51*
X159890000Y-59650000D03*
D50*
X160790000Y-59650000D03*
D49*
X159890000Y-57110000D03*
D50*
X160790000Y-57110000D03*
D49*
X159890000Y-54570000D03*
D50*
X160790000Y-54570000D03*
D49*
X159890000Y-52030000D03*
D50*
X160790000Y-52030000D03*
D49*
X159890000Y-49490000D03*
D50*
X160790000Y-49490000D03*
D51*
X159890000Y-46950000D03*
D50*
X160790000Y-46950000D03*
D49*
X159890000Y-44410000D03*
D50*
X160790000Y-44410000D03*
D49*
X159890000Y-41870000D03*
D50*
X160790000Y-41870000D03*
D49*
X148460000Y-89900000D03*
D52*
X148460000Y-90800000D03*
D51*
X151000000Y-89900000D03*
D52*
X151000000Y-90800000D03*
D49*
X153540000Y-89900000D03*
D52*
X153540000Y-90800000D03*
%TD*%
D21*
%TO.C,R46*%
X63226065Y-45893623D03*
X63226065Y-47543623D03*
%TD*%
%TO.C,R45*%
X55500000Y-49175000D03*
X55500000Y-50825000D03*
%TD*%
D32*
%TO.C,R44*%
X41085897Y-37499589D03*
X39435897Y-37499589D03*
%TD*%
D22*
%TO.C,R43*%
X35499622Y-42917390D03*
X33849622Y-42917390D03*
%TD*%
%TO.C,R30*%
X57175000Y-48000000D03*
X58825000Y-48000000D03*
%TD*%
D29*
%TO.C,R24*%
X171500000Y-83462500D03*
X171500000Y-80537500D03*
%TD*%
%TO.C,R22*%
X171500000Y-72462500D03*
X171500000Y-69537500D03*
%TD*%
D23*
%TO.C,R17*%
X135500000Y-32150000D03*
X135500000Y-30500000D03*
%TD*%
%TO.C,R12*%
X52500000Y-44000000D03*
X52500000Y-45650000D03*
%TD*%
D48*
%TO.C,R4*%
X30275000Y-49000000D03*
X28725000Y-49000000D03*
%TD*%
D20*
%TO.C,J41*%
X76500000Y-37500000D03*
D14*
X83700000Y-37500000D03*
%TD*%
D18*
%TO.C,J32*%
X117500000Y-81500000D03*
D19*
X122500000Y-81500000D03*
%TD*%
D38*
%TO.C,J5*%
X64500000Y-26500000D03*
X75500000Y-26500000D03*
%TD*%
D53*
%TO.C,J4*%
X120500000Y-37000000D03*
D19*
X125500000Y-37000000D03*
%TD*%
D25*
%TO.C,D24*%
X64834171Y-46200000D03*
X64834171Y-44800000D03*
%TD*%
D24*
%TO.C,D23*%
X58654465Y-49648028D03*
X57254465Y-49648028D03*
%TD*%
%TO.C,D22*%
X41200000Y-36000000D03*
X39800000Y-36000000D03*
%TD*%
D37*
%TO.C,D17*%
X168500000Y-72400000D03*
X168500000Y-69600000D03*
%TD*%
%TO.C,D16*%
X59500000Y-74400000D03*
X59500000Y-71600000D03*
%TD*%
D54*
%TO.C,D14*%
X129000000Y-76000000D03*
X129000000Y-72000000D03*
%TD*%
D44*
%TO.C,D13*%
X50500000Y-45600000D03*
X50500000Y-48400000D03*
%TD*%
%TO.C,D12*%
X90332414Y-48190959D03*
X90332414Y-50990959D03*
%TD*%
D36*
%TO.C,D10*%
X88000000Y-72000000D03*
X88000000Y-76000000D03*
%TD*%
%TO.C,D9*%
X68000000Y-72000000D03*
X68000000Y-76000000D03*
%TD*%
D37*
%TO.C,D6*%
X78500000Y-74400000D03*
X78500000Y-71600000D03*
%TD*%
D44*
%TO.C,D3*%
X69500000Y-48100000D03*
X69500000Y-50900000D03*
%TD*%
D55*
%TO.C,D2*%
X56350000Y-29650000D03*
X56350000Y-23275000D03*
%TD*%
D56*
%TO.C,C13*%
X129050000Y-26000000D03*
X132000000Y-26000000D03*
%TD*%
D27*
%TO.C,C10*%
X145500000Y-31725000D03*
X145500000Y-33275000D03*
%TD*%
D33*
%TO.C,C6*%
X30450000Y-40500000D03*
X32000000Y-40500000D03*
%TD*%
G36*
X107443022Y-67019685D02*
G01*
X107488777Y-67072489D01*
X107499983Y-67124017D01*
X107498634Y-76995145D01*
X107498634Y-77264581D01*
X107498629Y-77265674D01*
X107495730Y-77594592D01*
X107495167Y-77605354D01*
X107471107Y-77855869D01*
X107469661Y-77866274D01*
X107434835Y-78057122D01*
X107432007Y-78069175D01*
X107354692Y-78337666D01*
X107349590Y-78352006D01*
X107264649Y-78551131D01*
X107260151Y-78560557D01*
X107135170Y-78796317D01*
X107130005Y-78805157D01*
X107026167Y-78967143D01*
X107017357Y-78979217D01*
X106846524Y-79185926D01*
X106839100Y-79194134D01*
X105936932Y-80106217D01*
X110519378Y-84684387D01*
X110748428Y-84912462D01*
X110752600Y-84916823D01*
X110917075Y-85097368D01*
X110925740Y-85108007D01*
X111114223Y-85367527D01*
X111120221Y-85376598D01*
X111207627Y-85522275D01*
X111215079Y-85536777D01*
X111364795Y-85882346D01*
X111370508Y-85898518D01*
X111443904Y-86163301D01*
X111447024Y-86177935D01*
X111482204Y-86411234D01*
X111483521Y-86425578D01*
X111491190Y-86654894D01*
X111491259Y-86658911D01*
X111502212Y-97235876D01*
X111502212Y-97236339D01*
X111500011Y-98050409D01*
X111499629Y-98059797D01*
X111484867Y-98247490D01*
X111483819Y-98256547D01*
X111443574Y-98519205D01*
X111440506Y-98533518D01*
X111364822Y-98806818D01*
X111359912Y-98821104D01*
X111269344Y-99040154D01*
X111265661Y-99048230D01*
X111160570Y-99258410D01*
X111152546Y-99272169D01*
X110996030Y-99504827D01*
X110990148Y-99512855D01*
X110903128Y-99622138D01*
X110892295Y-99634063D01*
X110786131Y-99736659D01*
X106300935Y-104231622D01*
X106295328Y-104236902D01*
X106021498Y-104479191D01*
X106010934Y-104487560D01*
X105840287Y-104608262D01*
X105829335Y-104615180D01*
X105623079Y-104730851D01*
X105609852Y-104737270D01*
X105305732Y-104863161D01*
X105292975Y-104867644D01*
X105038652Y-104941705D01*
X105023076Y-104945171D01*
X104807179Y-104978817D01*
X104800365Y-104979686D01*
X104596260Y-104999999D01*
X104597089Y-142865820D01*
X104626434Y-156375731D01*
X104606895Y-156442813D01*
X104554190Y-156488682D01*
X104502434Y-156500000D01*
X99624246Y-156500000D01*
X99557207Y-156480315D01*
X99511452Y-156427511D01*
X99500246Y-156375755D01*
X99603497Y-104203440D01*
X99623314Y-104136439D01*
X99625079Y-104133781D01*
X100239379Y-103233759D01*
X100253974Y-103216124D01*
X106518284Y-96931492D01*
X106518285Y-96931490D01*
X106487379Y-87719286D01*
X102736891Y-83948955D01*
X102714472Y-83918101D01*
X102502078Y-83504052D01*
X102498219Y-83495794D01*
X100441403Y-78636940D01*
X100433396Y-78567531D01*
X100464187Y-78504811D01*
X100467912Y-78500921D01*
X102507467Y-76461366D01*
X102500098Y-67124098D01*
X102519730Y-67057043D01*
X102572498Y-67011246D01*
X102624098Y-67000000D01*
X107375983Y-67000000D01*
X107443022Y-67019685D01*
G37*
G36*
X80659596Y-66547888D02*
G01*
X86174887Y-68202790D01*
X86233441Y-68240912D01*
X86262090Y-68304638D01*
X86251738Y-68373736D01*
X86229827Y-68406245D01*
X85507468Y-69178854D01*
X85492531Y-74981841D01*
X85492530Y-74981986D01*
X85485518Y-76854326D01*
X85465583Y-76921292D01*
X85412608Y-76966848D01*
X85363487Y-76977846D01*
X85014551Y-76983384D01*
X85014548Y-76983386D01*
X83603014Y-78439731D01*
X83603013Y-78439732D01*
X83596357Y-131826554D01*
X83611216Y-155375922D01*
X83591574Y-155442974D01*
X83538799Y-155488762D01*
X83487216Y-155500000D01*
X78726464Y-155500000D01*
X78659425Y-155480315D01*
X78613670Y-155427511D01*
X78602464Y-155375990D01*
X78608551Y-77253003D01*
X78609639Y-77236625D01*
X78652338Y-76916379D01*
X78655333Y-76901210D01*
X78762595Y-76493615D01*
X78770006Y-76473035D01*
X78902296Y-76187568D01*
X78914234Y-76167164D01*
X79230247Y-75729054D01*
X79242694Y-75714356D01*
X79974446Y-74975212D01*
X79976166Y-74973508D01*
X80498069Y-74466517D01*
X80499959Y-66666627D01*
X80519660Y-66599592D01*
X80572475Y-66553850D01*
X80641636Y-66543923D01*
X80659596Y-66547888D01*
G37*
G36*
X45943039Y-67019685D02*
G01*
X45988794Y-67072489D01*
X46000000Y-67124000D01*
X46000000Y-154876000D01*
X45980315Y-154943039D01*
X45927511Y-154988794D01*
X45876000Y-155000000D01*
X41124000Y-155000000D01*
X41056961Y-154980315D01*
X41011206Y-154927511D01*
X41000000Y-154876000D01*
X41000000Y-67124000D01*
X41019685Y-67056961D01*
X41072489Y-67011206D01*
X41124000Y-67000000D01*
X45876000Y-67000000D01*
X45943039Y-67019685D01*
G37*
G36*
X66029477Y-66700902D02*
G01*
X66095578Y-66723538D01*
X66138948Y-66778317D01*
X66147982Y-66824837D01*
X66143063Y-77549293D01*
X66141113Y-77571142D01*
X66074600Y-77941716D01*
X66071320Y-77955442D01*
X65972330Y-78285405D01*
X65963011Y-78308052D01*
X65769008Y-78672402D01*
X65759141Y-78688008D01*
X65541066Y-78981933D01*
X65529163Y-78995729D01*
X64332441Y-80192452D01*
X64328948Y-80195812D01*
X64000000Y-80499999D01*
X64000000Y-155376000D01*
X63980315Y-155443039D01*
X63927511Y-155488794D01*
X63876000Y-155500000D01*
X59124022Y-155500000D01*
X59056983Y-155480315D01*
X59011228Y-155427511D01*
X59000022Y-155375978D01*
X59013005Y-82811738D01*
X58901427Y-79341655D01*
X58903643Y-79314002D01*
X58977468Y-78934333D01*
X58982907Y-78914934D01*
X59089356Y-78627523D01*
X59094017Y-78616580D01*
X59254242Y-78285448D01*
X59266662Y-78265058D01*
X59456892Y-78011418D01*
X59465942Y-78000677D01*
X59840622Y-77603956D01*
X59843462Y-77601046D01*
X61175121Y-76280580D01*
X61158787Y-68854584D01*
X61160079Y-68836459D01*
X61483851Y-66610996D01*
X61512982Y-66547489D01*
X61571823Y-66509813D01*
X61612054Y-66504970D01*
X66029477Y-66700902D01*
G37*
G36*
X123643774Y-67010052D02*
G01*
X126534040Y-67212128D01*
X126599544Y-67236440D01*
X126641504Y-67292307D01*
X126649392Y-67335800D01*
X126651018Y-74980847D01*
X126646932Y-75012443D01*
X126132890Y-76964938D01*
X126100657Y-77021049D01*
X124000000Y-79121707D01*
X124000000Y-151876000D01*
X123980315Y-151943039D01*
X123927511Y-151988794D01*
X123876000Y-152000000D01*
X121123997Y-152000000D01*
X121056958Y-151980315D01*
X121011203Y-151927511D01*
X120999997Y-151876003D01*
X120997977Y-78686538D01*
X120997977Y-78442617D01*
X120998735Y-78428924D01*
X121013801Y-78293328D01*
X121014826Y-78286070D01*
X121039510Y-78142074D01*
X121042860Y-78127717D01*
X121082923Y-77992843D01*
X121087932Y-77979036D01*
X121146955Y-77842210D01*
X121153704Y-77828846D01*
X121239771Y-77681300D01*
X121246472Y-77671018D01*
X121313180Y-77578963D01*
X121320526Y-77569776D01*
X121401086Y-77478291D01*
X121406438Y-77472586D01*
X123651950Y-75225602D01*
X123651472Y-68888364D01*
X123511523Y-67143665D01*
X123525784Y-67075266D01*
X123574761Y-67025435D01*
X123642903Y-67009994D01*
X123643774Y-67010052D01*
G37*
M02*
